<?xml version="1.0" encoding="UTF-8" standalone="no"?>
<!-- Created with Inkscape (http://www.inkscape.org/) -->

<svg
   width="57.001125"
   height="32.843323"
   viewBox="0 0 15.081548 8.6897957"
   version="1.1"
   id="svg1"
   xml:space="preserve"
   xmlns="http://www.w3.org/2000/svg"
   xmlns:svg="http://www.w3.org/2000/svg"><defs
     id="defs1" /><g
     id="layer1"
     transform="translate(-230.04253,-66.618362)"><path
       style="fill:#000000;fill-opacity:0.498525;stroke-width:0.264583"
       d="m 230.04276,71.674844 c 0.0564,0 0.11409,0.01222 0.16912,0 0.0492,-0.01093 0.089,-0.04779 0.1353,-0.06765 0.0427,-0.01831 0.0937,-0.01304 0.1353,-0.03383 0.0143,-0.0071 0.0184,-0.02996 0.0338,-0.03382 0.22071,-0.05518 0.48539,0.03213 0.71032,0 0.13695,-0.01955 0.32984,-0.06975 0.47355,-0.03383 0.0635,0.01587 0.11668,0.04143 0.16912,0.06765 0.0705,0.03527 0.38916,0.01675 0.43972,-0.03382 0.008,-0.008 -0.008,-0.02585 0,-0.03383 0.07,-0.06999 -0.003,0.106947 0.0677,-0.03382 0.0958,-0.287462 -0.0378,0.06303 0.10147,-0.169124 0.0537,-0.08954 0.0478,-0.214887 0.10147,-0.304425 0.0164,-0.02734 0.05,-0.04112 0.0676,-0.06765 0.0259,-0.03876 0.0221,-0.08824 0.0338,-0.1353 0.022,-0.08805 0.10801,-0.154911 0.1353,-0.236773 0.0107,-0.03209 -0.008,-0.06866 0,-0.101476 0.008,-0.03094 0.0534,-0.03913 0.0677,-0.06765 0.0151,-0.03025 -0.008,-0.06866 0,-0.101475 0.0122,-0.04892 0.0578,-0.08586 0.0676,-0.1353 0.007,-0.03317 -0.008,-0.06866 0,-0.101473 0.0233,-0.09316 0.13113,-0.160788 0.16912,-0.236776 0.0101,-0.02016 -0.0101,-0.04748 0,-0.06765 0.0203,-0.04059 0.0812,-0.06088 0.10148,-0.101475 0.0754,-0.150765 0.0911,0.01315 0.10147,0.03383 0.0143,0.02852 0.0512,0.0403 0.0677,0.06765 0.0442,0.07363 0.0589,0.162219 0.10147,0.236773 0.0954,0.166968 0.0481,0.04318 0.16913,0.236776 0.0797,0.127468 0.12835,0.275341 0.20295,0.405897 0.0309,0.05403 0.081,0.107546 0.10147,0.169125 0.0334,0.100174 0.24124,0.780203 0.30443,0.811797 0.0786,0.0393 0.28713,0 0.37207,0 0.15537,0 1.03076,-0.03976 1.15004,0 0.0151,0.005 0.0196,0.02669 0.0338,0.03382 0.001,5.29e-4 0.7826,-0.01923 0.81179,-0.03382 0.0143,-0.0071 0.0196,-0.02669 0.0338,-0.03383 0.0628,-0.03137 0.1697,0.02236 0.23677,0 0.0243,-0.0081 0.29444,-0.182983 0.30443,-0.202949 0.0308,-0.06158 0,-0.953153 0,-1.082394 0,-0.2706 0,-0.541198 0,-0.811797 0,-0.13075 -0.0189,-0.307192 0,-0.439722 0.0638,-0.446466 0.002,0.157448 0.0677,-0.169124 0.0213,-0.106553 -0.007,-0.31935 0,-0.405898 0.005,-0.06838 0.03,-0.134472 0.0338,-0.202951 0.005,-0.09753 -8e-5,-0.811715 0,-0.811795 0.008,-0.008 0.0258,0.008 0.0338,0 0.016,-0.01595 -0.007,-0.04626 0,-0.06765 0.008,-0.02392 0.0258,-0.04373 0.0338,-0.06765 0.022,-0.06593 0.0149,-0.522295 0.0338,-0.541197 0.0962,-0.09622 0.75136,-0.06765 0.87944,-0.06765 0.78925,0 1.57849,0 2.36774,0 0.47393,0 0.95167,0.01828 1.42064,-0.03383 0.0897,-0.0099 0.18131,0.01275 0.2706,0 0.0353,-0.005 0.0662,-0.02878 0.10148,-0.03383 0.14561,-0.0208 0.93184,-0.02334 1.04857,0 0.0775,0.01551 0.11827,0.03383 0.20295,0.03383 0.23926,0 0.46589,0.06438 0.71032,0.03383 0.0708,-0.0088 0.13303,-0.05367 0.20295,-0.06765 0.0733,-0.01466 0.34901,-0.02307 0.37207,0 0.0432,0.04324 -0.0193,0.15951 -0.0338,0.202949 -0.0883,0.264898 -0.0338,0.602131 -0.0338,0.879446 0,0.220199 0.003,0.42681 0.0338,0.642673 0.01,0.06697 -0.01,0.13598 0,0.202948 0.0214,0.149609 0.0769,0.292399 0.10147,0.439725 0.0209,0.125219 0.0245,0.790956 0,0.91327 -0.0482,0.240945 -0.0256,-0.05746 -0.0677,0.236773 -0.0167,0.116792 0,0.253733 0,0.372073 0,0.220903 -0.0183,0.456422 0,0.676497 0.039,0.468159 0.19503,0.783757 0.10148,1.251519 -0.0207,0.10378 0.0466,0.278757 0,0.372075 -0.0384,0.07675 -0.0951,0.156372 -0.1353,0.236773 -0.0675,0.134951 -0.1353,0.451771 -0.1353,0.608846 0,0.02167 0.0132,0.196348 0,0.202949 -0.0789,0.03947 -0.28273,0 -0.37208,0 -0.14366,0 -0.29707,0.01585 -0.43972,0 -0.12528,-0.01392 -0.24699,-0.05201 -0.37207,-0.06765 -0.15926,-0.0199 -0.35067,0.03918 -0.50738,0 -0.0692,-0.0173 -0.0691,-0.03382 -0.1353,-0.03382 -0.46227,0 -0.92454,0 -1.38681,0 -0.19453,0 -0.41555,-0.02761 -0.60885,0 -0.092,0.01315 -0.17819,0.05738 -0.2706,0.06765 -0.0897,0.0099 -0.18131,-0.01275 -0.2706,0 -0.15517,0.02217 -0.24548,0.03382 -0.40589,0.03382 -0.10545,0 -0.23516,-0.02061 -0.33825,0 -0.26413,0.05283 -0.53952,0.03383 -0.8118,0.03383 -0.13953,0 -0.72823,0.04178 -0.8118,0 -0.0917,-0.04587 -0.31917,-0.16175 -0.43972,-0.101476 -0.0431,0.02156 -0.0906,0.08657 -0.1353,0.101476 -0.0214,0.0071 -0.0463,-0.0071 -0.0676,0 -0.0332,0.01106 -0.23778,0.144513 -0.2706,0.169124 -0.10865,0.08149 -0.19399,0.19172 -0.30442,0.270598 -0.0821,0.05862 -0.18669,0.07936 -0.2706,0.1353 -0.0531,0.03538 -0.0843,0.09703 -0.1353,0.1353 -0.0403,0.03025 -0.095,0.0374 -0.1353,0.06765 -0.0745,0.05585 -0.16492,0.109247 -0.23677,0.169124 -0.0367,0.03062 -0.0599,0.07774 -0.10148,0.101476 -0.0404,0.02307 -0.0926,0.01551 -0.1353,0.03382 -0.12799,0.05485 -0.16733,0.101026 -0.30442,0.1353 -0.0612,-0.0204 -0.0629,0.05479 -0.10148,0.06765 -0.0507,0.01688 -0.289,0.07996 -0.33824,0.06765 -0.35739,-0.08935 -0.77253,-0.402267 -1.0824,-0.608846 -0.11311,-0.07541 -0.1329,-0.199361 -0.20295,-0.304424 -0.048,-0.07195 -0.16894,-0.118251 -0.23677,-0.169125 -0.0706,-0.05296 -0.19401,-0.156683 -0.30442,-0.101473 -0.11641,0.0582 -0.20214,0.222589 -0.30443,0.304422 -0.15153,0.121227 -0.33745,0.219466 -0.50737,0.304424 -0.15189,0.07594 -0.23337,0.245782 -0.37207,0.338249 -0.10095,0.0673 -0.0307,0.01291 -0.1353,0.03382 -0.0887,0.01773 -0.1529,0.08051 -0.23678,0.101476 -0.11011,0.02753 -0.22559,0.04512 -0.33825,0.06765 -0.0399,0.008 -0.35307,0.120473 -0.40589,0.06765 -0.10908,-0.109072 0.2834,-0.708504 0.33825,-0.845622 0.0521,-0.130238 0.0726,-0.280577 0.1353,-0.4059 0.0566,-0.113231 0.0991,-0.211608 0.13529,-0.338246 0.0218,-0.07619 0.0549,-0.291679 0.10148,-0.338248 0.008,-0.008 0.0259,0.008 0.0338,0 0.0121,-0.01209 0.0937,-0.455298 0.0676,-0.507373 -0.0326,-0.0652 -0.0771,-0.09652 -0.1353,-0.1353 -0.052,-0.03469 -0.0833,-0.100608 -0.1353,-0.1353 -0.15124,-0.10083 -0.32166,-0.169339 -0.47354,-0.270598 -0.13963,-0.09309 -0.26493,-0.210444 -0.4059,-0.304424 -0.10408,-0.06938 -0.16653,-0.201215 -0.2706,-0.2706 -0.021,-0.014 -0.0498,-0.01601 -0.0677,-0.03382 -0.008,-0.008 0.008,-0.02585 0,-0.03382 -0.003,-0.0034 -0.0981,-0.0034 -0.10148,0 -0.008,0.008 0.0113,0.03382 0,0.03382 -0.0575,0 -0.11275,-0.02254 -0.16912,-0.03382 z"
       id="path25" /></g></svg>
