<?xml version="1.0" encoding="UTF-8" standalone="no"?>
<!-- Created with Inkscape (http://www.inkscape.org/) -->

<svg
   width="57.149105"
   height="27.960106"
   viewBox="0 0 15.120701 7.3977779"
   version="1.1"
   id="svg1"
   xml:space="preserve"
   xmlns="http://www.w3.org/2000/svg"
   xmlns:svg="http://www.w3.org/2000/svg"><defs
     id="defs1" /><g
     id="layer1"
     transform="translate(-169.21934,-20.48168)"><path
       style="fill:#000000;fill-opacity:0.498525;stroke-width:0.264583"
       d="m 172.30878,21.804926 c 0.0631,0.272349 0.10651,0.53036 0.22666,0.770652 0.0135,0.02703 -0.0135,0.06363 0,0.09067 0.032,0.0641 0.2041,0.28338 0.27199,0.317327 0.0135,0.0068 0.0346,-0.01068 0.0453,0 0.0107,0.01068 -0.0107,0.03465 0,0.04533 0.0214,0.02137 0.0693,-0.02137 0.0907,0 0.0107,0.01068 -0.0107,0.03465 0,0.04533 0.0224,0.02239 0.41332,0.08066 0.45333,0.09066 0.0656,0.01639 0.11577,0.07428 0.18133,0.09067 0.0992,0.0248 0.21813,0.02053 0.31732,0.04533 0.0821,-0.02732 0.0843,0.07344 0.136,0.09067 0.0898,0.02993 0.23343,-0.04195 0.31733,0 0.25086,0.125429 0.91328,0.04533 1.22398,0.04533 0.15268,0 0.2661,0.0099 0.40799,0.04533 0.074,0.0185 0.39641,-0.05692 0.45332,0 0.0107,0.01068 -0.0151,0.04533 0,0.04533 0.0302,0 -0.007,-0.06135 0,-0.09067 0.0734,-0.293531 -0.001,0.0024 0.136,-0.226662 0.0246,-0.04097 0.024,-0.09326 0.0453,-0.135998 0.13153,-0.263045 0.0621,5.82e-4 0.18134,-0.317327 0.0971,-0.259064 0.12738,-0.546245 0.18132,-0.815985 0.0312,-0.155718 0.0987,-0.303929 0.136,-0.453325 0.0336,-0.134552 0.0329,-0.639101 0,-0.770652 -0.0111,-0.04435 -0.0916,-0.225683 -0.0907,-0.226663 0.0343,-0.03434 0.1872,0.04533 0.22666,0.04533 0.24259,0 -0.10268,-0.0096 0.22666,0.04533 0.27258,0.04543 0.71269,0.09067 0.99731,0.09067 0.27232,0 0.54537,0.05684 0.81599,0.09066 0.10496,0.01312 0.21299,-0.01739 0.31733,0 0.30126,0.05021 0.55152,0.04533 0.86131,0.04533 0.13325,0 0.32288,0.03261 0.45333,0 0.0328,-0.0082 0.0579,-0.03714 0.0907,-0.04533 0.17066,-0.04266 0.37332,0.04267 0.54398,0 0.0207,-0.0052 0.0251,-0.03857 0.0453,-0.04533 0.12225,-0.04075 0.28268,0.03133 0.40799,0 0.0328,-0.0082 0.0575,-0.03871 0.0907,-0.04533 0.12907,-0.02582 0.28025,0.03193 0.40799,0 0.10761,-0.0269 0.20973,-0.06377 0.31732,-0.09067 0.11215,-0.02803 0.25342,0.03642 0.36266,0 0.23154,-0.07718 0.55745,-0.09066 0.81599,-0.09066 0.0811,0 0.0713,0.05832 0.136,0.09066 0.0275,0.01374 0.117,0.02634 0.13599,0.04533 0.0352,0.03521 0,1.093651 0,1.26931 0,1.10309 0,2.206181 0,3.309271 0,0.195759 -0.0375,1.375534 0,1.450638 0.10834,0.216681 0.0453,0.563415 0.0453,0.815986 0,0.08678 -0.35731,0.09067 -0.45333,0.09067 -0.67999,0 -1.35997,0 -2.03996,0 -0.12481,0 0.0692,-0.0048 -0.18133,0.04533 -0.20284,0.04057 -0.4292,-0.02569 -0.63465,0 -0.0618,0.0077 -0.11966,0.03652 -0.18134,0.04533 -0.38407,0.05487 -0.79611,-0.06375 -1.17864,0 -0.0471,0.0079 -0.0907,0.03022 -0.136,0.04533 -0.0907,0 -0.18188,-0.01 -0.27199,0 -0.095,0.01056 -0.17773,0.07495 -0.272,0.09066 -0.14702,0.0245 -0.3063,-0.0245 -0.45332,0 -0.5166,0.0861 -0.96539,0.09067 -1.49597,0.09067 -0.56486,0 -0.92703,-0.0068 -1.45064,-0.18133 -0.0287,-0.0096 -0.0636,0.01352 -0.0907,0 -0.25506,-0.127529 -0.52339,-0.284363 -0.77065,-0.407992 -0.13789,-0.06894 -0.31988,-0.06927 -0.45333,-0.135999 -0.0382,-0.0191 -0.0501,-0.07715 -0.0907,-0.09066 -0.0287,-0.0096 -0.062,0.0096 -0.0907,0 -0.0405,-0.01352 -0.0524,-0.07155 -0.0907,-0.09066 -0.0465,-0.02326 -0.13484,-0.02209 -0.18133,-0.04533 -0.0382,-0.0191 -0.0501,-0.07715 -0.0907,-0.09066 -0.19628,-0.06543 0.0167,0.08666 -0.18133,-0.04533 -0.22763,-0.151752 -0.49651,-0.25545 -0.72533,-0.407992 -0.0356,-0.02371 -0.0565,-0.06502 -0.0907,-0.09067 -0.0473,-0.03547 -0.19659,-0.06059 -0.22666,-0.09067 -0.0938,-0.0938 0.14333,0.0037 -0.0453,-0.09066 -0.12358,-0.06179 -0.29039,-0.1314 -0.45333,-0.09067 -0.12241,0.0306 -0.74964,0.250987 -0.81598,0.317327 -0.0107,0.01068 0.0107,0.03465 0,0.04533 -0.0214,0.02137 -0.0636,-0.01352 -0.0907,0 -0.0382,0.01911 -0.0551,0.06696 -0.0907,0.09066 -0.0734,0.04892 -0.15788,0.05627 -0.22667,0.09067 -0.0501,0.02506 -0.13447,0.104761 -0.18133,0.135998 -0.0308,0.02059 -0.54399,0.314733 -0.54399,0.226663 0,-0.02138 0.0358,-0.02622 0.0453,-0.04533 0.0344,-0.06879 0.0417,-0.153284 0.0907,-0.226664 0.0356,-0.05334 0.0975,-0.08471 0.136,-0.135995 0.15702,-0.209365 0.20557,-0.501807 0.31732,-0.725321 0.0191,-0.03823 0.0716,-0.05244 0.0907,-0.09067 0.024,-0.04801 0.0278,-0.128637 0.0453,-0.18133 0.0214,-0.06432 0.15053,-0.197604 0.136,-0.226662 -0.008,-0.01677 -0.33969,-0.305843 -0.36266,-0.317327 -0.0496,-0.02479 -0.13455,-0.04388 -0.18133,-0.09067 -0.0938,-0.0938 0.14333,0.0037 -0.0453,-0.09067 -0.0987,-0.04933 -0.24257,-0.126985 -0.31733,-0.226663 -0.0331,-0.04417 -0.0352,-0.108266 -0.0907,-0.135997 -0.12436,-0.06218 -0.19017,-0.149247 -0.272,-0.271995 -0.0496,-0.07435 -0.0864,-0.01631 -0.136,-0.09067 -0.0637,-0.09558 -0.32242,-0.382777 -0.27199,-0.407992 0.027,-0.01351 0.062,0.0096 0.0907,0 0.0203,-0.0068 0.0302,-0.03022 0.0453,-0.04533 0.0302,-0.01511 0.0579,-0.03714 0.0907,-0.04533 0.044,-0.011 0.093,0.01433 0.136,0 0.20942,-0.06981 0.41737,-0.09254 0.63465,-0.135998 0.12417,-0.02483 0.34127,0.05603 0.45333,0 0.0191,-0.0096 0.0251,-0.03858 0.0453,-0.04533 0.1831,-0.06103 0.39557,0.02888 0.63466,-0.09067 0.0135,-0.0068 0.0346,0.01068 0.0453,0 0.0214,-0.02137 -0.0135,-0.06363 0,-0.09067 0.0544,-0.108798 0.2176,-0.163197 0.27199,-0.271995 0.20238,-0.404744 0.29477,-0.793423 0.63466,-1.133312 z"
       id="path21" /></g></svg>
