<?xml version="1.0" encoding="UTF-8" standalone="no"?>
<!-- Created with Inkscape (http://www.inkscape.org/) -->

<svg
   width="56.440823"
   height="31.055847"
   viewBox="0 0 14.933301 8.2168594"
   version="1.1"
   id="svg1"
   xml:space="preserve"
   xmlns="http://www.w3.org/2000/svg"
   xmlns:svg="http://www.w3.org/2000/svg"><defs
     id="defs1" /><g
     id="layer1"
     transform="translate(-268.87336,-57.450545)"><path
       style="fill:#000000;fill-opacity:0.498525;stroke-width:0.264583"
       d="m 269.25558,64.844318 c 0.31861,0.04618 0.66847,-0.06305 0.98372,0 0.17299,0.0346 0.36253,0.135565 0.53287,0.163957 0.29049,0.04841 0.56957,0.07443 0.86077,0.122965 0.15566,0.02596 0.59568,0.03553 0.73779,0 0.26702,-0.06676 0.54234,-0.158705 0.81979,-0.204944 0.17872,-0.02979 0.35763,-0.03818 0.53284,-0.08198 0.29578,-0.07394 0.64699,0.07394 0.94274,0 0.0593,-0.01482 0.10469,-0.06716 0.16396,-0.08198 0.19286,-0.04821 0.71803,0 0.94274,0 0.10549,0 0.39251,0.04968 0.49186,0 0.0249,-0.01238 -0.0109,-0.150791 0.082,-0.122968 0.29033,0.0871 0.54496,0.210135 0.81979,0.327912 0.1842,0.07895 0.39476,0.115414 0.57383,0.204943 0.18647,0.09323 0.49871,0.39851 0.65582,0.450877 0.0451,0.01503 0.48725,0.05619 0.53284,0.04099 0.17963,-0.05987 0.52062,-0.356666 0.65583,-0.491866 0.0217,-0.02162 0.0167,-0.06365 0.041,-0.08198 0.0346,-0.02593 0.0859,-0.01876 0.12295,-0.04099 0.0828,-0.04971 0.13073,-0.143095 0.20494,-0.204944 0.10266,-0.08554 0.21982,-0.191884 0.32793,-0.245933 0.14356,-0.07178 0.22743,-0.257188 0.36888,-0.327909 0.0243,-0.01222 0.0627,0.01931 0.082,0 0.16394,-0.163957 -0.17764,0.06831 0.041,-0.04099 0.16362,-0.08181 0.22513,0.008 0.36888,0.122965 0.0769,0.06155 0.17627,0.09429 0.24593,0.163957 0.11459,0.11457 0.19312,0.267788 0.32793,0.368898 0.1153,0.08649 0.4527,0.287531 0.57385,0.327912 0.0931,0.03103 0.27702,0.214831 0.28691,0.204943 0.0154,-0.01524 0.003,-0.276 0,-0.286922 -0.009,-0.04685 -0.11054,-0.18425 -0.12297,-0.204944 -0.0379,-0.06313 -0.0916,-0.142224 -0.12296,-0.204943 -0.0451,-0.09028 0.005,-0.235244 -0.041,-0.327911 -0.0434,-0.08671 -0.15854,-0.212657 -0.20495,-0.286923 -0.0542,-0.08675 -0.21463,-0.397896 -0.24595,-0.491865 -0.0238,-0.07146 0,-0.212617 0,-0.286922 0,-0.01823 -0.0127,-0.138518 0,-0.163955 0.0314,-0.06278 0.0731,-0.03205 0.12298,-0.08198 0.0217,-0.02159 0.0193,-0.06037 0.041,-0.08198 0.11747,-0.11747 0.11258,-0.05629 0.24593,-0.122968 0.15936,-0.07967 0.34774,-0.183978 0.49189,-0.286922 0.28691,-0.204944 -0.041,0 0.12295,-0.122965 0.11652,-0.08739 0.24966,-0.18632 0.36891,-0.245933 0.0979,-0.04895 0.19989,-0.180671 0.28691,-0.245933 0.1148,-0.08611 0.12377,-0.124166 0.20495,-0.245933 0.0169,-0.02543 0.082,-0.01042 0.082,-0.04099 0,-0.02733 -0.0552,0.0054 -0.082,0 -0.38336,-0.07667 0.0257,-0.0038 -0.28692,-0.08198 -0.12488,-0.03122 -1.16472,-0.08997 -1.31164,-0.04099 -0.0183,0.0061 -0.0228,0.03488 -0.041,0.04099 -0.0735,0.0245 -0.2074,0 -0.28694,0 -0.0562,0 -0.16391,2.06e-4 -0.16393,0 -0.0212,-0.148783 0.0212,-0.302096 0,-0.450877 -0.0243,-0.170119 -0.081,-0.364794 -0.12298,-0.532855 -0.035,-0.140009 -0.13618,-0.270967 -0.16396,-0.40989 -0.0199,-0.09943 -0.0109,-0.155712 -0.041,-0.245932 -0.0217,-0.06507 -0.0834,-0.104643 -0.12295,-0.163955 -0.0177,-0.02646 -0.0642,-0.146203 -0.082,-0.163954 -0.009,-0.0093 -0.2395,-0.0086 -0.24593,0 -0.0367,0.04888 -0.0481,0.113115 -0.082,0.163954 -0.18614,0.279183 -0.43709,0.500684 -0.57386,0.819777 -0.0543,0.126752 -0.0628,0.289521 -0.12295,0.409887 -0.0172,0.03457 -0.0676,0.0461 -0.082,0.08198 -0.0151,0.03806 0.008,0.08277 0,0.122965 -0.0259,0.129762 -0.12295,0.19599 -0.12295,0.327911 0,0.01365 0.0135,0.03831 0,0.04099 -0.26207,0.05241 -0.59143,0 -0.86077,0 -0.32671,0 -0.68236,0.109463 -1.02473,0.04099 -0.16103,-0.0322 -0.29589,-0.125209 -0.45088,-0.163957 -0.0265,-0.0066 -0.056,0.0087 -0.082,0 -0.0183,-0.0061 -0.0227,-0.03488 -0.041,-0.04099 -0.0545,-0.01815 -0.15291,0.02604 -0.20495,0 -0.0172,-0.0087 -0.0228,-0.03488 -0.041,-0.04099 -0.13454,-0.04484 -0.68035,0.05746 -0.73782,0 -0.0514,-0.05135 0.14925,-0.524788 0.16396,-0.573844 0.0448,-0.149527 0.13671,-0.369358 0.16396,-0.532855 0.0711,-0.426471 -0.041,-0.954006 -0.041,-1.393619 0,-0.176395 0.098,-0.636286 0.041,-0.778787 -0.0456,-0.113954 -0.14046,-0.190202 -0.20494,-0.286923 -0.008,-0.01185 -0.0338,-0.119382 -0.041,-0.122967 -0.12395,-0.06198 -0.46233,-0.01905 -0.61483,0 -0.0858,0.01071 -0.16071,0.06777 -0.24593,0.08198 -0.11108,0.01852 -0.30102,0.0136 -0.4099,0 -0.17751,-0.0222 -0.32758,-0.139229 -0.49186,-0.204943 -0.13176,-0.0527 -0.27696,-0.07866 -0.40989,-0.122968 -0.0752,-0.02506 -0.54853,-0.01656 -0.61484,0 -0.0296,0.0074 -0.0523,0.03358 -0.082,0.04099 -0.25278,0.06319 -0.52773,-0.0427 -0.7788,0.04099 -0.13083,0.04361 -0.5825,0 -0.73779,0 -0.35719,0 0.11827,-0.01931 -0.12298,0.04099 -0.19105,0.04776 -0.89109,0 -1.14768,0 -0.21958,0 -0.71141,0.04759 -0.90175,0 -0.2177,-0.05443 -0.58465,-0.09706 -0.77878,0 -0.0536,0.02679 -0.0834,-0.03809 -0.12298,0.04099 -0.0415,0.08296 0,0.67582 0,0.778788 0,0.273357 -0.007,0.510738 -0.041,0.778787 -0.0143,0.114213 0.0281,0.25644 0,0.368898 -0.0272,0.10867 -0.0602,0.218853 -0.082,0.327912 -0.0364,0.182004 0.045,0.39393 0,0.573844 -0.007,0.02964 -0.0336,0.05234 -0.041,0.08198 -0.0295,0.1183 0,0.28815 0,0.40989 0,0.464042 -0.0254,0.922541 0.082,1.352629 0.048,0.192138 0,0.743429 0,0.983731 0,0.423553 0,0.847104 0,1.270654 0,0.06822 -0.0318,0.245933 0.041,0.245933"
       id="path31" /></g></svg>
