<?xml version="1.0" encoding="UTF-8" standalone="no"?>
<!-- Created with Inkscape (http://www.inkscape.org/) -->

<svg
   width="77.530373"
   height="154.52994"
   viewBox="0 0 20.513245 40.886045"
   version="1.1"
   id="svg1"
   xml:space="preserve"
   xmlns="http://www.w3.org/2000/svg"
   xmlns:svg="http://www.w3.org/2000/svg"><defs
     id="defs1" /><g
     id="layer1"
     transform="translate(-39.132018,-100.17286)"><path
       style="fill:#000000;fill-opacity:0.498525;stroke-width:0.264583"
       d="m 42.583277,100.23853 c 0.187563,8e-4 0.682921,0.0823 0.855615,0.19745 0.05163,0.0344 0.07613,0.10388 0.131632,0.13163 0.126686,0.0633 0.313399,0.10027 0.394899,0.26327 0.01937,0.0387 0.189476,0.25928 0.197448,0.26326 0.01963,0.01 0.0503,-0.0155 0.06582,0 0.0155,0.0155 -0.01551,0.0503 0,0.0658 0.107085,0.10709 0.454948,0.1631 0.592349,0.19745 0.151342,0.0378 0.262567,0.1971 0.394898,0.26327 0.08969,0.0448 0.245854,0.0484 0.329084,0.13163 0.03686,0.0369 0.03781,0.10036 0.131633,0.13163 0.04162,0.0139 0.09001,-0.0139 0.131633,0 0.02943,0.01 0.03806,0.0519 0.06582,0.0658 0.221586,0.11079 0.491265,0.18569 0.723982,0.26327 0.476737,0.15891 -0.103767,-0.019 0.19745,0.13163 0.03924,0.0196 0.09239,-0.0196 0.131633,0 0.09816,0.0491 0.162864,0.14725 0.263266,0.19745 0.05265,0.0263 0.144796,-0.0263 0.197448,0 0.06568,0.0328 0.561242,0.47987 0.592349,0.52653 0.03848,0.0577 0.01675,0.14839 0.06582,0.19745 0.0155,0.0155 0.04619,-0.01 0.06582,0 0.07898,0.0395 0.11847,0.15796 0.19745,0.19745 0.0854,0.0427 0.17435,0.0872 0.263266,0.13163 0.03925,0.0196 0.100605,-0.031 0.131633,0 0.143727,0.14373 0.01368,0.10686 0.06582,0.26327 0.02847,0.0854 0.145494,0.18533 0.197451,0.26327 0.08673,0.13009 0.01479,0.16119 0.06582,0.26326 0.02193,0.0439 0.15357,0.17551 0.197448,0.19745 0.05754,0.0288 0.20769,-0.0139 0.263266,0 0.04759,0.0119 0.0851,0.0503 0.131633,0.0658 0.02082,0.007 0.04388,0 0.06582,0 0.04388,0 0.09001,-0.0139 0.131633,0 0.02943,0.01 0.03572,0.0583 0.06582,0.0658 0.141631,0.0354 0.314772,0.0293 0.460716,0.0658 0.256082,0.064 0.440592,0.28611 0.658164,0.3949 0.09638,0.0482 0.22977,0.0327 0.329084,0.0658 0.09308,0.031 0.170188,0.1006 0.263265,0.13163 0.04163,0.0139 0.09239,-0.0196 0.131633,0 0.02775,0.0139 0.03572,0.0583 0.06582,0.0658 0.08514,0.0213 0.184774,-0.0392 0.263266,0 0.208317,0.10416 0.336494,0.16825 0.526531,0.26327 0.01879,0.009 0.509384,0.62387 0.526532,0.65817 0.0098,0.0196 0,0.0439 0,0.0658 0.02193,0.0439 0.0386,0.0908 0.06582,0.13163 0.07658,0.11487 0.186217,0.21352 0.263266,0.32909 0.145005,0.0331 0.03479,0.1354 0.06582,0.19745 0.02775,0.0555 0.103883,0.0761 0.131636,0.13163 0.01963,0.0392 -0.01963,0.0924 0,0.13163 0.03833,0.0767 0.0933,0.12078 0.131632,0.19745 0.02943,0.0589 -0.02082,0.13501 0,0.19745 0.05826,0.17479 0.202102,0.34304 0.263266,0.52653 0.106611,0.31984 0.113551,0.68783 0.263266,0.98725 0.02947,0.0589 0.01476,0.86242 0,0.92143 -0.04917,0.19667 -0.147627,0.39306 -0.197451,0.59235 -0.04509,0.18038 -0.07191,0.34736 -0.131633,0.52653 -0.02781,0.0834 0.05522,0.27387 0,0.32909 -0.0155,0.0155 -0.0503,-0.0155 -0.06582,0 -0.03807,0.0381 -0.0096,0.414 -0.06582,0.52653 -0.0609,0.12179 -0.213331,0.29503 -0.263266,0.3949 -0.01963,0.0392 0.03102,0.1006 0,0.13163 -0.01551,0.0155 -0.04619,-0.01 -0.06582,0 -0.0222,0.0111 -0.368853,0.47444 -0.394898,0.52653 -0.03084,0.0617 -0.100799,0.13578 -0.131633,0.19745 -0.02943,0.0589 0.04654,0.15091 0,0.19745 -0.03102,0.031 -0.100605,-0.031 -0.131633,0 -0.01551,0.0155 0.0098,0.0462 0,0.0658 -0.02775,0.0555 -0.103881,0.0761 -0.131633,0.13163 -0.05103,0.10207 0.0209,0.13317 -0.06582,0.26327 -0.288489,0.43273 -0.394901,0.24858 -0.394901,0.85561 0,0.073 -0.03155,0.20016 0,0.26327 0.168539,0.33707 0.05797,0.1006 0.329083,0.26326 0.05321,0.0319 0.07842,0.0997 0.131633,0.13164 0.05949,0.0357 0.141949,0.0242 0.197451,0.0658 0.03925,0.0294 0.03113,0.097 0.06582,0.13163 0.0118,0.0118 0.23029,0.12065 0.263265,0.13164 0.133297,0.0444 0.380818,0 0.526534,0 0.206251,0 0.337397,0.003 0.526532,0.0658 0.145806,0.0486 0.38495,-0.0283 0.526531,0 0.171196,0.0342 0.0024,0.0681 0.06582,0.13163 0.06792,0.0679 0.191273,0.0956 0.263266,0.13163 0.145523,0.0728 0.02043,0.0409 0.06582,0.13163 0.04972,0.0994 0.228393,0.15865 0.263266,0.26327 0.01386,0.0416 -0.01387,0.09 0,0.13163 0.0089,0.0268 0.236772,0.50004 0.263265,0.52653 0.03291,0.0329 0.09873,0.0329 0.131636,0.0658 0.04309,0.0431 0.04093,0.1521 0.131633,0.19745 0.01963,0.01 0.0503,-0.0155 0.06582,0 0.0155,0.0155 -0.01551,0.0503 0,0.0658 0.0155,0.0155 0.04619,-0.01 0.06582,0 0.07898,0.0395 0.11847,0.15796 0.197448,0.19745 0.01963,0.01 0.05601,-0.0196 0.06582,0 0.01963,0.0392 -0.01386,0.09 0,0.13163 0.0098,0.0294 0.05194,0.0381 0.06582,0.0658 0.06831,0.13661 0.10287,1.52596 0.06582,1.71123 -0.0096,0.0481 -0.04388,0.0877 -0.06582,0.13163 -0.02193,0.17551 -0.05225,0.35017 -0.06582,0.52653 -0.01341,0.17429 0.01609,0.5631 0,0.72398 -0.04121,0.41205 -0.152339,0.89703 -0.329083,1.25052 -0.01987,0.0397 0.03042,0.16702 0,0.19745 -0.01551,0.0155 -0.0503,-0.0155 -0.06582,0 -0.0424,0.0424 0.02072,0.20114 0,0.26326 -0.04547,0.1364 -0.156139,0.27097 -0.197451,0.3949 -0.02082,0.0624 0.02082,0.13501 0,0.19745 -0.06991,0.20972 -0.143939,0.3783 -0.197451,0.59235 -0.03613,0.14454 0.03614,0.31617 0,0.46071 -0.01191,0.0476 -0.07123,0.0829 -0.06582,0.13164 0.06831,0.61477 0.115663,0.28117 0.263266,0.72398 0.07075,0.21225 0.103883,0.43616 0.131633,0.65816 0.03729,0.29832 -0.0943,0.70436 0,0.98725 0.01635,0.049 0.165849,0.35276 0.19745,0.3949 0.10291,0.13721 0.408086,0.30283 0.460714,0.46072 0.01386,0.0416 -0.01386,0.09 0,0.13163 0.02598,0.078 0.160446,0.12344 0.197451,0.19745 0.02814,0.0563 0.03767,0.14116 0.06582,0.19745 0.04473,0.0894 0.152723,0.17381 0.19745,0.26326 0.02943,0.0589 -0.02082,0.13501 0,0.19745 0.02967,0.089 0.08835,0.17669 0.131633,0.26327 0.02633,0.0526 -0.02633,0.14479 0,0.19745 0.104085,0.20817 0.134655,0.53861 0.197451,0.7898 0.01389,0.0556 -0.02877,0.20573 0,0.26326 0.03519,0.0704 0.180959,0.3126 0.197448,0.32909 0.04044,0.0404 0.153373,0.0435 0.19745,0.13163 0.0855,0.171 0.05967,0.51423 0.131633,0.65816 0.05102,0.10204 0.100754,0.20557 0.131633,0.32909 0.02127,0.0851 -0.02127,0.17813 0,0.26326 0.134969,0.53988 0.0011,-0.51954 0.131633,0.3949 0.02503,0.17522 -0.05068,1.52892 0,1.5796 0.0155,0.0155 0.04619,-0.01 0.06582,0 0.07666,0.0383 0.120779,0.0933 0.197448,0.13163 0.122856,0.0614 0.337857,-0.0614 0.460716,0 0.06727,0.0336 0.705538,0.48964 0.723982,0.52653 0.02933,0.0587 0.0097,0.88279 0,0.92143 -0.05359,0.21435 -0.102248,0.33613 -0.197451,0.52653 -0.01963,0.0393 0.01963,0.0924 0,0.13164 -0.02775,0.0555 -0.103883,0.0761 -0.131632,0.13163 -0.0098,0.0196 0.0155,0.0503 0,0.0658 -0.01551,0.0155 -0.0503,-0.0155 -0.06582,0 -0.01551,0.0155 0.0155,0.0503 0,0.0658 -0.03102,0.031 -0.100605,-0.031 -0.131633,0 -0.02635,0.0264 -0.03565,0.0836 -0.131633,0.13164 -0.03925,0.0196 -0.100605,-0.031 -0.131633,0 -0.0155,0.0155 0.0155,0.0503 0,0.0658 -0.06148,0.0615 -0.267605,0.0702 -0.329081,0.13163 -0.0155,0.0155 0.0098,0.0462 0,0.0658 -0.09229,0.18458 -0.300564,0.33786 -0.394901,0.52653 -0.06003,0.12006 0.04236,0.33365 0,0.46072 -0.109738,0.32922 0.03244,1.05401 -0.06582,1.25051 -0.03861,0.0772 -0.230431,0.4937 -0.263266,0.52654 -0.0155,0.0155 -0.0503,-0.0155 -0.06582,0 -0.03102,0.031 0.03103,0.1006 0,0.13163 -0.01551,0.0155 -0.0503,-0.0155 -0.06582,0 -0.05485,0.0548 -0.01098,0.20842 -0.06582,0.26326 -0.0532,0.0532 -0.340649,0.15477 -0.394899,0.26327 -0.03394,0.0679 -0.03872,0.15099 -0.131633,0.19745 -0.134889,0.0675 -0.719666,0.25895 -0.789797,0.32908 -0.04044,0.0404 -0.04348,0.15338 -0.131633,0.19745 -0.05964,0.0298 -0.270679,0 -0.329083,0 -0.01347,0 -0.428183,0.0325 -0.460716,0 -0.01551,-0.0155 0.0155,-0.0503 0,-0.0658 -0.04343,-0.0434 -0.211032,-0.093 -0.263266,-0.19745 -0.05477,-0.10954 -0.09883,-0.26369 -0.131633,-0.3949 -0.01916,-0.0766 0.02543,-0.187 0,-0.26327 -0.09392,-0.28176 -0.131633,-0.48086 -0.131633,-0.7898 0,-0.64193 -0.01019,-1.14401 0.131633,-1.71123 0.04646,-0.18583 -0.04646,-0.40651 0,-0.59234 0.01191,-0.0476 0.05392,-0.084 0.06582,-0.13164 0.03613,-0.14454 -0.03614,-0.31617 0,-0.46071 0.0303,-0.12119 0.0973,-0.22608 0.131633,-0.32909 0.109714,-0.32914 -0.05738,-0.7746 0,-1.11888 0.02625,-0.15754 0.100309,-0.3041 0.131633,-0.46071 0.05892,-0.29461 0.0013,-0.71886 -0.06582,-0.98725 -0.02869,-0.11476 -0.102944,-0.21432 -0.131633,-0.32908 -0.0826,-0.3304 0,-1.32281 0,-1.71123 0,-0.21939 -0.02424,-0.44012 0,-0.65817 0.06802,-0.61213 0.04843,0.0385 0.131633,-0.46071 0.04389,-0.26334 0.0625,-1.38878 -0.06582,-1.64541 -0.06348,-0.12697 -0.111398,-0.0228 -0.197451,-0.0658 -0.07898,-0.0395 -0.11847,-0.15796 -0.197448,-0.19745 -0.03989,-0.0199 -0.16987,-0.0382 -0.19745,-0.0658 -0.03103,-0.031 0.03102,-0.1006 0,-0.13163 -0.01551,-0.0155 -0.04619,0.01 -0.06582,0 -0.07898,-0.0395 -0.11847,-0.15796 -0.197448,-0.19745 -0.05629,-0.0281 -0.141163,-0.0377 -0.197451,-0.0658 -0.0555,-0.0278 -0.07276,-0.11201 -0.131633,-0.13163 -0.284959,-0.095 0.02418,0.12582 -0.263265,-0.0658 -0.150509,-0.10034 -0.212471,-0.27829 -0.329084,-0.3949 -0.164904,-0.16491 -0.33996,-0.32079 -0.526531,-0.46072 -0.132022,-0.099 -0.266631,-0.13332 -0.394899,-0.19745 -0.0555,-0.0277 -0.07613,-0.10388 -0.131633,-0.13163 -0.07842,-0.0392 -0.269647,-0.0722 -0.329083,-0.13164 -0.01551,-0.0155 0.0098,-0.0462 0,-0.0658 -0.0064,-0.0129 -0.489559,-0.38566 -0.526531,-0.3949 -0.213009,-0.0533 -0.324766,-0.1302 -0.526532,-0.19745 -0.04163,-0.0139 -0.09239,0.0196 -0.131633,0 -0.234722,-0.11736 -0.328443,-0.37275 -0.592349,-0.46072 -0.06244,-0.0208 -0.133599,0.016 -0.19745,0 -0.119124,0.0397 -0.122407,-0.10662 -0.197448,-0.13163 -0.04163,-0.0139 -0.08907,0.0106 -0.131633,0 -0.119124,0.0397 -0.122407,-0.10662 -0.197451,-0.13163 -0.04162,-0.0139 -0.08906,0.0106 -0.131633,0 -0.13549,-0.0339 -0.212807,-0.15869 -0.329081,-0.19745 -0.04163,-0.0139 -0.08907,0.0106 -0.131632,0 -0.155231,-0.0388 -0.305488,-0.15864 -0.460717,-0.19745 -0.12787,-0.032 -0.267028,-0.0339 -0.394898,-0.0658 -0.179811,-0.045 -0.291637,-0.2069 -0.460717,-0.26326 -0.153741,-0.0513 -0.326493,-0.0645 -0.460716,-0.13164 -0.273912,-0.13695 0.07036,0.005 -0.06582,-0.13163 -0.03103,-0.031 -0.09239,0.0196 -0.131633,0 -0.172744,-0.0864 -0.591111,-0.26202 -0.723982,-0.3949 -0.0155,-0.0155 0.0155,-0.0503 0,-0.0658 -0.0155,-0.0155 -0.0503,0.0155 -0.06582,0 -0.109394,-0.1094 -0.19631,-0.98611 -0.197448,-0.98725 -0.0155,-0.0155 -0.05031,0.0155 -0.06582,0 -0.04899,-0.049 -0.04338,-0.3276 -0.06582,-0.3949 -0.0098,-0.0294 -0.04388,-0.0439 -0.06582,-0.0658 -0.02193,-0.0439 -0.05392,-0.084 -0.06582,-0.13163 -0.0477,-0.19079 -0.01828,-0.40226 -0.06582,-0.59235 -0.03906,-0.15624 -0.09258,-0.3045 -0.131633,-0.46072 -0.03724,-0.14898 0.01696,-0.30808 0,-0.46071 -0.04945,-0.44503 -0.188886,-0.89574 -0.329083,-1.31633 -0.01386,-0.0416 0.01963,-0.0924 0,-0.13163 -0.01386,-0.0277 -0.056,-0.0364 -0.06581,-0.0658 -0.150609,-0.45182 0.252007,0.30657 -0.06582,-0.32908 -0.01386,-0.0277 -0.05601,-0.0364 -0.06582,-0.0658 -0.01386,-0.0416 0.01386,-0.09 0,-0.13163 -0.03483,-0.10449 -0.133959,-0.16803 -0.197451,-0.26327 -0.16778,-0.25167 -0.329533,-0.59325 -0.460714,-0.85561 -0.105333,-0.21067 -0.168169,-0.46797 -0.263268,-0.65817 -0.07662,-0.15325 -0.24339,-0.25208 -0.329081,-0.3949 -0.03569,-0.0595 -0.02418,-0.14195 -0.06582,-0.19745 -0.02943,-0.0392 -0.09694,-0.0311 -0.131633,-0.0658 -0.142613,-0.14261 -0.203113,-0.36907 -0.329081,-0.52653 -0.03876,-0.0485 -0.108588,-0.074 -0.131636,-0.13164 -0.02445,-0.0611 0.02082,-0.13501 0,-0.19745 -0.025,-0.075 -0.09625,-0.1267 -0.131632,-0.19745 -0.117909,-0.23582 -0.211564,-0.48894 -0.329081,-0.72398 -0.171165,-0.34233 -0.427834,-0.65822 -0.592349,-0.98724 -0.05937,-0.11875 -0.205558,-0.21367 -0.263266,-0.32909 -0.05086,-0.10172 -0.08078,-0.22736 -0.131633,-0.32908 -0.06348,-0.12697 -0.111395,-0.0228 -0.197451,-0.0658 -0.157958,-0.079 -0.236939,-0.31592 -0.394898,-0.39489 -0.01963,-0.01 -0.0503,0.0155 -0.06582,0 -0.01551,-0.0155 0.0155,-0.0503 0,-0.0658 -0.03103,-0.031 -0.100608,0.031 -0.131633,0 -0.01551,-0.0155 0.0098,-0.0462 0,-0.0658 -0.07276,-0.14552 -0.04085,-0.0204 -0.131636,-0.0658 -0.09291,-0.0464 -0.09769,-0.12956 -0.131632,-0.19744 -0.0058,-0.0117 -0.434084,-0.38159 -0.460714,-0.3949 -0.0553,-0.0276 -0.292904,-0.0296 -0.329084,-0.0658 -0.03102,-0.031 0.01963,-0.0924 0,-0.13163 -0.04304,-0.0861 -0.127074,-0.19289 -0.19745,-0.26327 -0.106778,-0.10678 -0.133094,-0.26619 -0.197448,-0.3949 -0.01963,-0.0392 0.01963,-0.0924 0,-0.13163 -0.01386,-0.0277 -0.056,-0.0364 -0.06582,-0.0658 -0.02106,-0.0632 0.03159,-0.2001 0,-0.26326 -0.03833,-0.0767 -0.0933,-0.12079 -0.131633,-0.19745 -0.0635,-0.12701 -0.01315,-1.6191 0.06582,-1.77705 0.05223,-0.10447 0.219832,-0.15402 0.263266,-0.19745 0.136175,-0.13617 -0.208098,0.005 0.06581,-0.13163 0.03925,-0.0196 0.100608,0.031 0.131635,0 0.0155,-0.0155 -0.0155,-0.0503 0,-0.0658 0.0155,-0.0155 0.04619,0.01 0.06582,0 0.183838,-0.0919 0.51888,-0.64286 0.59235,-0.7898 0.07556,-0.15111 0.255434,-0.2476 0.32908,-0.3949 0.05457,-0.10913 -0.03741,-0.10322 -0.06582,-0.13163 -0.136175,-0.13617 0.208095,0.005 -0.06582,-0.13163 -0.09787,-0.0489 -0.319048,-0.0558 -0.394899,-0.13163 -0.01551,-0.0155 0.0098,-0.0462 0,-0.0658 -0.09559,-0.19117 -0.131633,-0.20759 -0.131633,-0.46072 0,-0.26751 -0.08682,-0.52094 -0.131633,-0.78979 -0.0275,-0.165 0.03652,-0.24839 0.06582,-0.3949 0.04057,-0.20288 -0.06509,-0.46288 0,-0.65817 0.0098,-0.0294 0.056,-0.0364 0.06582,-0.0658 0.03606,-0.10818 -0.0511,-0.29269 0,-0.3949 0.01169,-0.0234 0.119928,-0.10823 0.131633,-0.13164 0.0098,-0.0196 -0.01551,-0.0503 0,-0.0658 0.0155,-0.0155 0.0503,0.0155 0.06582,0 0.0155,-0.0155 -0.01551,-0.0503 0,-0.0658 0.03042,-0.0304 0.15771,0.0199 0.197448,0 0.02775,-0.0139 0.03807,-0.0519 0.06582,-0.0658 0.01963,-0.01 0.0503,0.0155 0.06582,0 0.110209,-0.1102 0.02159,-0.37226 0.06582,-0.46071 0.04751,-0.095 0.08412,-0.16824 0.131633,-0.26327 0.01963,-0.0392 -0.03102,-0.1006 0,-0.13163 0.0155,-0.0155 0.056,0.0196 0.06582,0 0.01963,-0.0392 -0.01389,-0.09 0,-0.13163 0.01008,-0.0302 0.18564,-0.31728 0.197448,-0.32909 0.0155,-0.0155 0.0503,0.0155 0.06582,0 0.02183,-0.0218 0.112201,-0.2244 0.131632,-0.26326 0.03949,-0.079 0.157959,-0.11847 0.197448,-0.19745 0.0098,-0.0196 -0.0155,-0.0503 0,-0.0658 0.136179,-0.13617 -0.0053,0.2081 0.131633,-0.0658 0.118803,-0.2376 0.255551,-0.38718 0.460717,-0.59234 0.08806,-0.0881 0.123605,-0.16053 0.19745,-0.19745 0.04388,-0.0219 0.01675,-0.13164 0.06582,-0.13164 0.111866,0 0.21939,0.0439 0.329084,0.0658 z"
       id="path5" /></g></svg>
