<?xml version="1.0" encoding="UTF-8" standalone="no"?>
<!-- Created with Inkscape (http://www.inkscape.org/) -->

<svg
   width="39.327393"
   height="36.066662"
   viewBox="0 0 10.405373 9.5426375"
   version="1.1"
   id="svg1"
   xml:space="preserve"
   xmlns="http://www.w3.org/2000/svg"
   xmlns:svg="http://www.w3.org/2000/svg"><defs
     id="defs1" /><g
     id="layer1"
     transform="translate(-14.066748,-69.320947)"><path
       style="fill:#000000;fill-opacity:0.498525;stroke-width:0.264583"
       d="m 24.413156,76.836576 c 0.0017,0.131186 0.01409,0.98838 -0.05897,1.061442 -0.03418,0.03418 -0.201697,0.08376 -0.235876,0.117938 -0.03623,0.03623 -0.03896,0.137417 -0.117938,0.176906 -0.01758,0.0088 -0.04507,-0.01389 -0.05897,0 -0.01966,0.01966 -0.03931,0.157252 -0.05897,0.176908 -0.0139,0.01389 -0.04507,-0.01389 -0.05897,0 -0.0278,0.0278 0.0278,0.09014 0,0.117938 -0.02948,0.02949 -0.08845,0.02949 -0.117937,0.05897 -0.02948,0.02948 -0.02948,0.08845 -0.05897,0.117938 -0.0306,0.0306 -0.238463,0.08975 -0.294845,0.117938 -0.04718,0.0236 -0.129732,-0.0236 -0.176907,0 -0.02486,0.01244 -0.03411,0.04654 -0.05897,0.05897 -0.04939,0.02469 -0.555896,0.03379 -0.58969,0 -0.0139,-0.01389 0.0139,-0.04507 0,-0.05897 -0.0139,-0.01389 -0.04139,0.0088 -0.05897,0 -0.07076,-0.03538 -0.106144,-0.141526 -0.176907,-0.176906 -0.03574,-0.01786 -0.152196,-0.03426 -0.176907,-0.05897 -0.0139,-0.01389 0.0139,-0.04507 0,-0.05897 -0.036,-0.036 -0.406665,-0.111821 -0.412783,-0.117938 -0.0139,-0.01389 0.0139,-0.04507 0,-0.05897 -0.0278,-0.0278 -0.08064,0.01243 -0.117938,0 -0.196073,-0.06536 -0.131732,-0.07276 -0.176907,-0.117938 -0.0278,-0.0278 -0.09014,0.0278 -0.117937,0 -0.0278,-0.0278 0.0278,-0.09014 0,-0.117938 -0.0139,-0.01389 -0.04507,0.01389 -0.05897,0 -0.0139,-0.01389 0.0139,-0.04507 0,-0.05897 -0.0139,-0.01389 -0.04507,0.01389 -0.05897,0 -0.0236,-0.0236 -0.03194,-0.07494 -0.117938,-0.117938 -0.07139,-0.03569 -0.518303,-0.03569 -0.58969,0 -0.06869,0.03435 -0.108216,0.08359 -0.176907,0.117938 -0.07445,0.03722 -0.297204,-0.05661 -0.353814,0 -0.0139,0.01389 0.0139,0.04507 0,0.05897 -0.02007,0.02008 -0.324489,0.01466 -0.353814,0 -0.04973,-0.02487 -0.06821,-0.09307 -0.117938,-0.117938 -0.03516,-0.01757 -0.09014,0.0278 -0.117938,0 -0.0139,-0.01389 0.0139,-0.04507 0,-0.05897 -0.02726,-0.02726 -0.141303,0.01781 -0.176907,0 -0.04973,-0.02487 -0.06821,-0.09307 -0.117937,-0.117938 -0.01758,-0.0088 -0.04507,0.01389 -0.05897,0 -0.0139,-0.01389 0.0139,-0.04507 0,-0.05897 -0.0139,-0.01389 -0.04139,0.0088 -0.05897,0 -0.07389,-0.03694 -0.05642,-0.11666 -0.176908,-0.176906 -0.1258,-0.0629 -0.345951,0.0629 -0.471751,0 -0.101402,-0.0507 -0.193443,-0.06724 -0.294845,-0.117938 -0.03516,-0.01757 -0.09014,0.0278 -0.117938,0 -0.0139,-0.01389 0.0139,-0.04507 0,-0.05897 -0.0322,-0.03221 -0.464383,0.0516 -0.471752,0.05897 -0.0139,0.01389 0.0139,0.04507 0,0.05897 -0.03379,0.03379 -0.540301,0.02469 -0.58969,0 -0.086,-0.043 -0.09433,-0.09433 -0.117938,-0.117938 -0.0139,-0.01389 -0.04507,0.01389 -0.05897,0 -0.0139,-0.01389 0.0139,-0.04507 0,-0.05897 -0.0139,-0.01389 -0.04507,0.01389 -0.05897,0 -0.0139,-0.01389 0.0139,-0.04507 0,-0.05897 -0.0139,-0.01389 -0.04507,0.01389 -0.05897,0 -0.07555,-0.07555 0.06572,-0.176908 -0.235876,-0.176908 -0.202319,0 -0.469093,0.237204 -0.707627,0.117938 -0.161162,-0.08058 -0.456558,-0.559303 -0.530721,-0.707628 -0.01758,-0.03516 0.0278,-0.09014 0,-0.117938 -0.0139,-0.01389 -0.04507,0.01389 -0.05897,0 -0.0278,-0.0278 0.0278,-0.09014 0,-0.117938 -0.0032,-0.0032 -0.173711,-0.114742 -0.176907,-0.117938 -0.0139,-0.01389 0.0139,-0.04507 0,-0.05897 -0.04086,-0.04086 -0.253988,-0.01812 -0.294845,-0.05897 -0.0139,-0.01389 0.0139,-0.04507 0,-0.05897 -0.0139,-0.01389 -0.04139,0.0088 -0.05897,0 -0.245415,-0.122708 0.06304,0.0041 -0.05897,-0.117938 -0.0139,-0.01389 -0.04507,0.01389 -0.05897,0 -0.0139,-0.01389 0.0139,-0.04507 0,-0.05897 -0.0139,-0.01389 -0.04507,0.01389 -0.05897,0 -0.0278,-0.0278 0.0278,-0.09014 0,-0.117938 -0.0139,-0.01389 -0.04507,0.01389 -0.05897,0 -0.01195,-0.01196 -0.01195,-0.28289 0,-0.294844 0.0139,-0.01389 0.04139,0.0088 0.05897,0 0.07898,-0.03949 0.08171,-0.140679 0.117938,-0.176906 0.02949,-0.02948 0.08845,-0.02948 0.117938,-0.05897 0.01708,-0.01707 0.01708,-0.395706 0,-0.412782 -0.0139,-0.01389 -0.04507,0.01389 -0.05897,0 -0.05257,-0.05257 -0.02766,-0.173249 -0.05897,-0.235876 -0.043,-0.086 -0.09433,-0.09433 -0.117938,-0.117938 -0.03353,-0.03353 -0.03552,-0.306909 -0.05897,-0.353814 -0.01243,-0.02487 -0.04654,-0.03411 -0.05897,-0.05897 -0.07863,-0.15725 0.07863,-0.432438 0,-0.58969 -0.01243,-0.02487 -0.04654,-0.0341 -0.05897,-0.05897 -0.06033,-0.120661 0,-1.075608 0,-1.297318 0,-0.03599 -0.02298,-0.2129 0,-0.235876 0.0139,-0.01389 0.04139,0.0088 0.05897,0 0.130384,-0.06519 0.0183,-0.0366 0.05897,-0.117938 0.03949,-0.07898 0.140679,-0.08171 0.176907,-0.117938 0.02949,-0.02948 0.02949,-0.08845 0.05897,-0.117938 0.04914,-0.04914 0.186735,-0.0098 0.235876,-0.05897 0.02948,-0.02949 0.02948,-0.08845 0.05897,-0.117938 0.03969,-0.03969 0.07825,0.03969 0.117938,0 0.02471,-0.02471 0.0411,-0.141168 0.05897,-0.176908 0.0468,-0.0936 0.196962,-0.137991 0.235876,-0.176906 0.0278,-0.0278 -0.0278,-0.09014 0,-0.117938 0.0139,-0.01389 0.04507,0.01389 0.05897,0 0.0278,-0.0278 -0.0278,-0.09014 0,-0.117938 0.0139,-0.01389 0.04507,0.01389 0.05897,0 0.04707,-0.04707 -0.03093,-0.232979 0,-0.294844 0.01243,-0.02487 0.04654,-0.03411 0.05897,-0.05897 0.03145,-0.0629 -0.03145,-0.172977 0,-0.235876 0.06898,-0.137959 0.142858,-0.273257 0.235876,-0.412782 0.03084,-0.04626 0.09307,-0.06821 0.117938,-0.117938 0.0088,-0.01757 -0.0139,-0.04507 0,-0.05897 0.0139,-0.01389 0.04507,0.01389 0.05897,0 0.0139,-0.01389 -0.0139,-0.04507 0,-0.05897 0.01202,-0.01201 1.000132,-0.05897 1.12041,-0.05897 0.347304,0 0.883353,-0.08904 1.17938,0.05897 0.110075,0.05504 0.302707,-0.05504 0.412783,0 0.02486,0.01243 0.0326,0.05018 0.05897,0.05897 0.246932,0.08231 0.534001,-0.05733 0.766596,0.05897 0.0566,0.0283 0.179246,-0.01886 0.235876,0 0.02637,0.0088 0.03411,0.04654 0.05897,0.05897 0.0861,0.04305 0.218907,-0.01696 0.294845,0.05897 0.0236,0.0236 0.03194,0.07493 0.117938,0.117938 0.03516,0.0176 0.09014,-0.0278 0.117938,0 0.0236,0.0236 0.03194,0.07493 0.117938,0.117938 0.09982,0.04991 0.262965,0.01355 0.353814,0.05897 0.222137,0.111069 0.56171,0.05897 0.825565,0.05897 0.157251,0 -0.01966,-0.01966 0.05897,0.05897 0.03561,0.03561 0.297893,0 0.353814,0 0.07291,0 0.386788,0.03298 0.412783,0.05897 0.0634,0.0634 -0.04657,0.198673 -0.05897,0.235876 -0.05601,0.168042 0.07849,0.432708 0,0.589688 -0.01243,0.02487 -0.04654,0.03411 -0.05897,0.05897 -0.03618,0.07236 -0.0062,1.160682 0,1.17938 0.0088,0.02638 0.04654,0.0341 0.05897,0.05897 0.02359,0.04717 -0.02359,0.129733 0,0.176908 0.04257,0.08514 0.07537,0.150736 0.117938,0.235876 0.02637,0.05274 -0.01865,0.120962 0,0.176906 0.03727,0.111818 0.123386,0.246772 0.176907,0.353814 0.01758,0.03516 -0.01758,0.08277 0,0.117938 0.07592,0.151839 0.1578,0.3156 0.235876,0.471752 0.04541,0.09082 0.01356,0.262996 0.05897,0.353814 0.07287,0.145735 0.05897,-0.02035 0.05897,0.117938 0,0.06672 0.24585,0.599665 0.294845,0.648658 0.0139,0.01389 0.04507,-0.01389 0.05897,0 0.05508,0.05508 0.06286,0.239763 0.117938,0.294846 0.0139,0.01389 0.04507,-0.01389 0.05897,0 0.02948,0.02948 0.02948,0.08845 0.05897,0.117936 0.03623,0.03623 0.137417,0.03896 0.176907,0.117938 0.05221,0.10442 0.181292,0.185679 0.235875,0.294846 0.0088,0.0176 -0.0139,0.04507 0,0.05897 0.0139,0.01389 0.04507,-0.01389 0.05897,0 0.0139,0.01389 -0.0139,0.04507 0,0.05897 0.0139,0.01389 0.04507,-0.01389 0.05897,0 0.04262,0.04262 0.151747,0.328652 0.176907,0.353814 0.0139,0.01389 0.04139,-0.0088 0.05897,0 0.03581,0.01791 0.294845,0.394499 0.294845,0.412782 0,0.08104 -0.03931,0.157252 -0.05897,0.235876 z"
       id="path3" /></g></svg>
