<?xml version="1.0" encoding="UTF-8" standalone="no"?>
<!-- Created with Inkscape (http://www.inkscape.org/) -->

<svg
   width="66.467293"
   height="87.282677"
   viewBox="0 0 17.586138 23.093541"
   version="1.1"
   id="svg1"
   xml:space="preserve"
   xmlns="http://www.w3.org/2000/svg"
   xmlns:svg="http://www.w3.org/2000/svg"><defs
     id="defs1" /><g
     id="layer1"
     transform="translate(-255.16349,-71.428508)"><path
       style="fill:#000000;fill-opacity:0.498525;stroke-width:0.264583"
       d="m 267.3795,94.522045 c -0.11658,-0.0333 -0.23715,-0.05489 -0.34973,-0.09992 -0.17346,-0.06938 -0.33184,-0.215887 -0.49958,-0.299752 -0.19429,-0.09714 -0.39455,-0.21777 -0.5995,-0.299754 -0.0978,-0.03911 -0.20555,-0.05281 -0.29977,-0.09992 -0.14663,-0.07332 -0.33605,-0.292923 -0.44961,-0.349711 -0.0579,-0.02893 -0.1438,-0.02193 -0.19984,-0.04996 -0.0891,-0.04455 -0.19237,-0.123031 -0.29977,-0.149876 -0.28754,-0.07189 -0.60906,0.09035 -0.84929,-0.149879 -0.0263,-0.02633 -0.0276,-0.07013 -0.05,-0.09992 -0.0839,-0.111908 -0.21582,-0.187843 -0.29975,-0.299752 -0.077,-0.102655 -0.0944,-0.238783 -0.14987,-0.349713 -0.0762,-0.152352 -0.0396,0.09137 -0.0999,-0.149876 -0.0554,-0.221591 0.0319,-0.467722 -0.14988,-0.649464 -0.0527,-0.05266 -0.14025,-0.05523 -0.19983,-0.09992 -0.0754,-0.05652 -0.11906,-0.151368 -0.19984,-0.199834 -0.11137,-0.06683 -0.18993,-0.07246 -0.29975,-0.09992 -0.10966,-0.02741 -0.11394,-0.106932 -0.19984,-0.149876 -0.2591,-0.129553 -0.6276,0.109323 -0.69942,-0.249796 -0.0597,-0.298405 -0.17876,-1.033505 -0.0999,-1.348885 0.056,-0.223825 0.21387,-0.43474 0.29975,-0.649465 0.0761,-0.190365 0.13466,-0.403971 0.19984,-0.599506 0.0849,-0.254783 -0.0477,-0.764173 -0.0999,-0.999175 -0.0542,-0.243875 -0.12384,-0.471451 -0.19983,-0.699424 -0.025,-0.07494 0.025,-0.174858 0,-0.249796 -0.0393,-0.117787 -0.27861,-0.293015 -0.34971,-0.399669 -0.0539,-0.08087 -0.062,-0.173984 -0.0999,-0.249793 -0.0211,-0.04213 -0.0788,-0.05779 -0.0999,-0.09992 -0.0399,-0.07973 0.009,-0.143819 -0.05,-0.249793 -0.39,-0.702 -0.99169,-1.29254 -1.4488,-1.948394 -0.17966,-0.257773 -0.32016,-0.541406 -0.49959,-0.799341 -0.0877,-0.126034 -0.2049,-0.228986 -0.29975,-0.34971 -0.16852,-0.214471 -0.35718,-0.462066 -0.49959,-0.699423 -0.0667,-0.1112 -0.11941,-0.24918 -0.19984,-0.349711 -0.0441,-0.05517 -0.11068,-0.09109 -0.14987,-0.149878 -0.0292,-0.04382 -0.0229,-0.10472 -0.05,-0.149876 -0.12783,-0.213051 -0.31176,-0.392703 -0.44963,-0.599506 -0.0367,-0.05511 -0.12037,-0.09086 -0.14988,-0.149876 -0.021,-0.04198 -0.0209,-0.170799 -0.0499,-0.199835 -0.02,-0.02 -0.0635,-0.02706 -0.0999,-0.09992 -0.0149,-0.02979 0.0235,-0.07637 0,-0.09992 -0.0118,-0.01177 -0.0382,0.01177 -0.05,0 -0.0245,-0.0245 -0.0194,-0.369102 -0.14988,-0.499589 -0.0425,-0.04246 -0.10742,-0.05746 -0.14988,-0.09992 -0.092,-0.09197 -0.15782,-0.207786 -0.24979,-0.299755 -0.10856,-0.108564 -0.25249,-0.180924 -0.34971,-0.299751 -0.0568,-0.06941 -0.0524,-0.173747 -0.0999,-0.249794 -0.0374,-0.05991 -0.10574,-0.09471 -0.14987,-0.149875 -0.25997,-0.324962 0.0406,0.0313 -0.05,-0.149879 -0.0105,-0.02106 -0.0394,-0.02889 -0.05,-0.04996 -0.0149,-0.02979 0.0236,-0.07637 0,-0.09992 -0.0118,-0.01177 -0.0382,0.01177 -0.05,0 -0.0514,-0.05141 0.0489,-0.601549 0,-0.699423 -0.0211,-0.04213 -0.0738,-0.06073 -0.0999,-0.09992 -0.0166,-0.03331 -0.0333,-0.06661 -0.05,-0.09992 0,-0.01664 0.007,-0.03507 0,-0.04996 -0.0335,-0.06691 -0.11918,-0.06923 -0.14987,-0.09992 -0.0557,-0.05575 -0.36632,-0.383063 -0.2498,-0.499589 0.0118,-0.01177 0.0382,0.01177 0.05,0 0.0118,-0.01177 -0.0118,-0.03818 0,-0.04996 0.004,-0.0043 0.21203,-0.03737 0.24979,-0.04996 0.24425,-0.08141 0.61025,-0.540686 0.74939,-0.749382 0.0288,-0.04327 0.0258,-0.151466 0.05,-0.199834 0.03,-0.05995 0.11991,-0.08993 0.14988,-0.149876 0.007,-0.0149 -0.0118,-0.03818 0,-0.04996 0.0467,-0.04667 0.20313,-0.05325 0.2498,-0.09992 0.0118,-0.01177 -0.0118,-0.03818 0,-0.04996 0.0235,-0.02355 0.0701,0.0149 0.0999,0 0.0689,-0.03445 0.13479,-0.106511 0.19984,-0.149876 0.18286,-0.12191 0.37438,-0.21834 0.54955,-0.349711 0.0253,-0.01894 0.18628,-0.03641 0.19983,-0.04996 0.0118,-0.01177 -0.0118,-0.03818 0,-0.04996 0.0471,-0.0471 0.13322,0 0.19983,0 0.22014,0 0.48704,-0.04248 0.69943,0 0.20266,0.04053 0.43616,0.168122 0.5995,0.249793 0.0326,0.01627 0.39662,0.0092 0.39968,0 0.0158,-0.04739 -0.0186,-0.103491 0,-0.149876 0.0175,-0.04373 0.0757,-0.05953 0.0999,-0.09992 0.0542,-0.09032 0.0457,-0.209441 0.0999,-0.299754 0.0728,-0.121327 0.177,-0.228383 0.24979,-0.349711 0.0636,-0.105944 0.0725,-0.246544 0.14988,-0.349713 0.0283,-0.03768 0.0788,-0.05779 0.0999,-0.09992 0.0149,-0.02979 -0.008,-0.06761 0,-0.09992 0.0275,-0.110143 0.11305,-0.189286 0.14987,-0.299752 0.0374,-0.112104 -0.0526,-0.294428 0,-0.399671 0.007,-0.0149 0.0333,0 0.05,0 0.0167,-0.03331 0.0409,-0.06379 0.05,-0.09992 0.0833,-0.333269 0.25619,-0.502785 0.54955,-0.649464 0.0447,-0.02233 0.0999,0 0.14988,0 0.0677,0 0.19346,-0.02816 0.24979,0 0.20089,0.100449 0.36091,0.2722 0.44963,0.44963 0.0211,0.04213 0.085,0.05523 0.0999,0.09992 0.0211,0.06319 -0.0298,0.140256 0,0.199835 0.007,0.0149 0.0382,-0.01177 0.0499,0 0.0346,0.03461 0.0154,0.21518 0.05,0.249793 0.0118,0.01177 0.0382,-0.01177 0.05,0 0.0236,0.02355 -0.0236,0.07637 0,0.09992 0.003,0.0027 0.14717,0.09721 0.14988,0.09992 0.0118,0.01177 -0.007,0.03506 0,0.04996 0.0899,0.179793 0.32489,0.287341 0.44963,0.349711 0.18165,0.09083 0.51584,-0.08307 0.64946,-0.149876 0.0302,-0.01508 0.12678,0.0231 0.14988,0 0.0118,-0.01177 -0.0118,-0.03818 0,-0.04996 0.0236,-0.02355 0.0701,0.0149 0.0999,0 0.0726,-0.03628 0.1077,-0.07689 0.19983,-0.09992 0.0646,-0.01617 0.13521,0.01617 0.19984,0 0.15127,-0.03782 0.30034,-0.112556 0.44963,-0.149876 0.0992,-0.02479 0.25934,0.04519 0.3497,0 0.0212,-0.01053 0.0276,-0.04251 0.05,-0.04996 0.16487,-0.05495 0.38468,0.05496 0.54954,0 0.0222,-0.0074 0.0289,-0.03943 0.05,-0.04996 0.0666,-0.03331 0.1832,0.03331 0.24979,0 0.22148,-0.110736 0.50951,-0.02999 0.74938,0.04996 0.15597,0.05199 0.21953,0.184703 0.34973,0.249796 0.0708,0.03539 0.17743,0.02582 0.24979,0.04996 0.0447,0.0149 0.0578,0.07885 0.0999,0.09992 0.0148,0.0074 0.0382,-0.01177 0.05,0 0.0119,0.01177 -0.0116,0.03818 0,0.04996 0.0119,0.01177 0.0382,-0.01177 0.05,0 0.0236,0.02355 -0.0148,0.07013 0,0.09992 0.11314,0.226277 0.0468,0.386985 0.0999,0.599507 0.006,0.02283 0.0394,0.0289 0.05,0.04996 0.0598,0.119658 -0.0427,0.321556 0,0.44963 0.0605,0.181555 0.0541,0.36607 0.0999,0.549545 0.0167,0.06661 0.0282,0.134697 0.05,0.199837 0.0148,0.04468 0.0788,0.05779 0.0999,0.09992 0.10152,0.203028 0.19947,0.44886 0.29975,0.649465 0.0475,0.09503 0.32649,0.153394 0.39968,0.299751 0.0275,0.05506 0.22331,0.32321 0.29975,0.399672 0.0116,0.01177 0.0382,-0.01177 0.05,0 0.0768,0.07676 0.0486,0.249121 0.14986,0.299752 0.17508,0.08754 0.36148,0.211582 0.49959,0.34971 0.0243,0.02424 0.16034,0.344371 0.19984,0.399672 0.0892,0.124933 0.21053,0.224776 0.29975,0.34971 0.16661,0.233228 0.29104,0.511477 0.44963,0.749382 0.0458,0.06873 0.0771,0.05138 0.14989,0.09992 0.0713,0.04753 0.67191,0.594426 0.69942,0.649465 0.0343,0.06859 0.11359,0.127267 0.14986,0.199837 0.0151,0.03028 0.029,0.12894 0.05,0.149876 0.0116,0.01177 0.0382,-0.01177 0.05,0 0.0235,0.02355 -0.0148,0.07013 0,0.09992 0.0212,0.04213 0.0788,0.05779 0.0999,0.09992 0.052,0.104023 0.0753,0.237841 0.14989,0.349713 0.0384,0.05764 0.11144,0.09223 0.14986,0.149875 0.0413,0.06197 0.0473,0.147175 0.0999,0.199835 0.0265,0.02633 0.0689,0.0293 0.0999,0.04996 0.10898,0.07265 0.24588,0.291904 0.29975,0.399671 0.0148,0.02979 -0.0148,0.07013 0,0.09992 0.10104,0.202042 0.0745,0.423328 0.14988,0.649465 0.0278,0.08342 -0.0392,0.221414 0,0.299752 0.007,0.0149 0.0425,-0.0149 0.05,0 0.0666,0.133223 -0.0666,0.366363 0,0.499589 0.12951,0.258993 0.0999,0.594288 0.0999,0.899258 0,0.266446 0,0.532894 0,0.79934 0,0.214215 0.0547,0.885108 0,1.049134 -0.052,0.155938 -0.0333,-0.01664 -0.0999,0.04996 -0.0116,0.01177 0.0116,0.03818 0,0.04996 -0.0116,0.01177 -0.0382,-0.01177 -0.05,0 -0.0116,0.01177 0.0116,0.03818 0,0.04996 -0.0425,0.04246 -0.0929,0.08093 -0.14988,0.09992 -0.0316,0.01053 -0.069,-0.01238 -0.0999,0 -0.1351,0.05404 -0.23178,0.140867 -0.3497,0.199834 -0.0298,0.0149 -0.0764,-0.02355 -0.0999,0 -0.0117,0.01177 0.0119,0.03818 0,0.04996 -0.0495,0.0495 -0.33031,-0.01733 -0.39966,0 -0.0833,0.02082 -0.30694,0.0643 -0.34972,0.149876 -0.007,0.0149 0.0116,0.03819 0,0.04996 -0.0119,0.01177 -0.0382,-0.01177 -0.05,0 -0.008,0.0077 -0.0491,0.345357 -0.0499,0.349713 -0.007,0.03651 -0.0427,0.0634 -0.05,0.09992 -0.0267,0.133585 -0.0419,0.473673 0,0.599506 0.0183,0.05475 0.1175,0.101285 0.14989,0.149876 0.11006,0.02516 0.0265,0.102775 0.05,0.149876 0.0499,0.09992 0.19984,0.149876 0.24979,0.249793 0.0214,0.04273 0.0286,0.107151 0.05,0.149876 0.10396,0.207917 -0.003,-0.05341 0.0999,0.04996 0.11067,0.110686 0.13105,0.893498 0.0999,1.049134 -0.0281,0.140266 -0.11944,0.242525 -0.19982,0.34971 -0.0482,0.0643 -0.0698,0.139544 -0.0999,0.199837 -0.0396,0.0793 -0.16687,0.116906 -0.19984,0.149876 -0.0666,0.06661 0.10599,0.04794 -0.05,0.09992 -0.0474,0.0158 -0.1052,-0.02233 -0.14989,0 -0.0212,0.01053 -0.0276,0.04251 -0.05,0.04996 -0.17095,0.05699 -0.82569,0.0118 -0.94922,-0.04996 -0.3129,-0.156448 -0.52213,-0.491527 -0.79934,-0.699423 -0.16171,-0.121285 -0.16266,-0.07843 -0.29974,-0.249793 -0.0233,-0.02908 -0.0236,-0.07359 -0.05,-0.09992 -0.0265,-0.02633 -0.0701,-0.02762 -0.0999,-0.04996 -0.0813,-0.06101 -0.15703,-0.203409 -0.24979,-0.249796 -0.11832,-0.05916 -0.26093,-0.181372 -0.3497,-0.299752 -0.121,-0.161321 -0.13174,-0.392136 -0.24979,-0.549547 -0.0686,-0.0915 -0.53711,-0.524666 -0.59952,-0.649465 -0.007,-0.0149 0.0116,-0.03818 0,-0.04996 -0.10338,-0.103368 0.004,0.157958 -0.0999,-0.04996 -0.0421,-0.08417 -0.10697,-0.187878 -0.19984,-0.249793 -0.031,-0.02066 -0.0736,-0.02363 -0.0999,-0.04996 -0.15695,-0.156927 -0.18986,-0.416335 -0.29977,-0.599506 -0.0485,-0.08078 -0.1433,-0.124473 -0.19984,-0.199834 -0.0482,-0.06431 -0.0698,-0.139544 -0.0999,-0.199838 -0.0678,-0.135569 -0.25304,-0.203096 -0.3497,-0.299751 -0.10337,-0.103368 0.15796,0.004 -0.05,-0.09992 -0.11215,-0.05608 -0.1915,-0.0458 -0.29974,-0.09992 -0.13658,-0.06829 -0.22477,-0.187322 -0.3497,-0.249796 -0.089,-0.0445 -0.20378,-0.01796 -0.29977,-0.04996 -0.0222,-0.0074 -0.0289,-0.03943 -0.05,-0.04996 -0.0447,-0.02233 -0.10247,0.0158 -0.14986,0 -0.0225,-0.0075 -0.0276,-0.04251 -0.05,-0.04996 -0.12089,-0.0403 -0.31878,0 -0.44961,0 -0.0333,0 -0.0764,-0.02355 -0.0999,0 -0.0118,0.01177 0.0118,0.03818 0,0.04996 -0.0166,0.01664 -0.13323,0.03331 -0.14988,0.04996 -0.0118,0.01177 0.0118,0.03818 0,0.04996 -0.0166,0.01664 -0.13322,0.03331 -0.14988,0.04996 -0.0517,0.05166 -0.23248,0.595537 -0.24979,0.699423 -0.0246,0.147839 0.0212,0.30126 0,0.449631 -0.005,0.03686 -0.0409,0.06379 -0.05,0.09992 -0.008,0.03231 0.0149,0.07013 0,0.09992 -0.007,0.0149 -0.0382,-0.01177 -0.05,0 -0.0263,0.02633 -0.0333,0.06661 -0.05,0.09992 -0.0208,0.0416 0.0317,0.168148 0,0.199838 -0.0118,0.01177 -0.0382,-0.01177 -0.05,0 -0.0284,0.0284 -0.0301,0.260011 -0.05,0.299751 -0.0105,0.02106 -0.0394,0.02889 -0.05,0.04996 -0.041,0.0819 -0.0164,0.299098 -0.05,0.399672 -0.13057,0.391705 -0.39818,1.301916 -0.19984,1.698598 0.02,0.03997 -0.02,0.109908 0,0.149876 0.0415,0.08309 0.11792,0.153929 0.14988,0.249793 0.0348,0.104497 0.051,0.251926 0.0999,0.349713 0.05,0.09992 0.19983,0.149876 0.24979,0.249793 0.007,0.0149 -0.0118,0.03818 0,0.04996 0.0118,0.01177 0.0351,-0.0075 0.05,0 0.20792,0.10396 -0.0534,-0.0034 0.05,0.09992 0.0236,0.02355 0.0701,-0.0149 0.0999,0 0.0679,0.03397 0.17908,0.187555 0.19983,0.249796 0.0105,0.0316 -0.0105,0.06832 0,0.09992 0.007,0.02233 0.0333,0.03331 0.05,0.04996 0.0166,0.0333 0.0409,0.06379 0.05,0.09992 0.0339,0.135713 0.0884,0.276617 0.14988,0.399672 0.0223,0.04468 -0.0121,0.101406 0,0.149875 0.009,0.03612 0.0427,0.0634 0.05,0.09992 0.032,0.160149 0.001,0.303556 0.0499,0.449627 0.0117,0.03504 0.13182,0.193816 0.14988,0.199837 0.0401,0.01336 0.13544,0.02831 0.14988,0.04996 0.0292,0.04381 0.0264,0.102775 0.05,0.149876 0.04,0.07993 0.15986,0.119901 0.19984,0.199834 0.007,0.0149 -0.009,0.0361 0,0.04996 0.0392,0.05879 0.12753,0.08285 0.14988,0.149879 0.0286,0.08579 -0.0438,0.10301 0.05,0.149876 0.0148,0.0074 0.0382,-0.01177 0.05,0 0.0119,0.01177 -0.0116,0.03818 0,0.04996 0.0209,0.02093 0.11959,0.03482 0.14989,0.04996 0.096,0.048 0.15377,0.151834 0.24979,0.199834 0.10906,0.05454 0.29223,0.09616 0.39965,0.149876 0.21921,0.109596 0.40323,0.352364 0.59952,0.499589 0.0754,0.05652 0.11907,0.151368 0.19984,0.199835 0.10187,0.06112 0.19897,0.08268 0.29975,0.149875 0.0769,0.05126 0.12197,0.171937 0.14989,0.199838 0.0116,0.01177 0.0351,-0.0074 0.05,0 0.20791,0.103957 -0.0534,-0.0034 0.0499,0.09992 0.0116,0.01177 0.0382,-0.01177 0.05,0 0.0116,0.01177 -0.007,0.03506 0,0.04996 0.0846,0.169199 0.0999,0.163807 0.0999,0.399669 z"
       id="path27" /></g></svg>
