<?xml version="1.0" encoding="UTF-8" standalone="no"?>
<!-- Created with Inkscape (http://www.inkscape.org/) -->

<svg
   width="80.123375"
   height="74.635323"
   viewBox="0 0 21.19931 19.747262"
   version="1.1"
   id="svg1"
   xml:space="preserve"
   xmlns="http://www.w3.org/2000/svg"
   xmlns:svg="http://www.w3.org/2000/svg"><defs
     id="defs1" /><g
     id="layer1"
     transform="translate(-257.98555,-93.363062)"><path
       style="fill:#000000;fill-opacity:0.498525;stroke-width:0.264583"
       d="m 257.9859,94.976883 c 0.2216,0.08596 0.33607,0.402785 0.53621,0.536215 0.13065,0.08709 0.27289,0.13644 0.40217,0.201081 0.10724,0.05362 0.16086,0.214484 0.2681,0.268104 0.02,0.01 0.0512,-0.01579 0.067,0 0.0158,0.0158 -0.0158,0.05123 0,0.06703 0.0158,0.0158 0.0512,-0.0158 0.067,0 0.0298,0.02984 0.31304,0.425006 0.33513,0.469189 0.0203,0.04062 0.0389,0.172992 0.067,0.20108 0.13868,0.138679 -0.005,-0.211923 0.13405,0.06703 0.0622,0.124381 0.0466,0.271002 0.13405,0.402159 0.0721,0.10817 0.21113,0.221181 0.26811,0.335134 0.01,0.01998 -0.0158,0.05123 0,0.06703 0.0402,0.04023 0.14828,0.05484 0.20108,0.134054 0.16658,0.249873 0.35337,0.436658 0.60324,0.603239 0.10701,0.07134 0.11899,0.186018 0.20108,0.268108 0.0353,0.03533 0.10634,0.02545 0.13406,0.06703 0.0248,0.03718 -0.0166,0.09256 0,0.134054 0.0484,0.120957 0.12881,0.226737 0.20108,0.335132 0.0382,0.05731 0.47798,0.574127 0.53621,0.603242 0.02,0.01 0.0512,-0.0158 0.067,0 0.0474,0.0474 0.16468,0.329366 0.20108,0.402156 0.10845,0.21692 -0.0845,1.8563 0,2.27891 0.006,0.031 0.057,0.0371 0.067,0.067 0.0141,0.0424 -0.0141,0.0917 0,0.13405 0.0536,0.1609 0.22526,0.2978 0.26811,0.46919 0.0109,0.0434 -0.0141,0.0917 0,0.13405 0.0288,0.0863 0.17231,0.18179 0.20108,0.26811 0.0141,0.0424 -0.0141,0.0917 0,0.13405 0.0502,0.15049 0.30316,0.52177 0.40216,0.67027 0.0422,0.0634 0.56294,0.51606 0.60324,0.53621 0.02,0.01 0.0512,-0.0158 0.067,0 0.0158,0.0158 -0.0158,0.0512 0,0.067 0.0374,0.0374 0.19934,0.0979 0.2681,0.20108 0.13937,0.20904 0.29047,0.49154 0.46919,0.67027 0.057,0.057 0.13663,0.0857 0.20108,0.13405 0.20532,0.15398 -0.1099,-0.0429 0.13407,0.20108 0.0159,0.0158 0.0512,-0.0158 0.067,0 0.0499,0.05 0.0307,0.1405 0.067,0.20108 0.147,0.24499 0.40349,0.6716 0.60325,0.87135 0.17661,0.17662 0.35724,0.29022 0.5362,0.46919 0.15719,0.15719 -0.0159,-0.0474 0.067,0.20108 0.0418,0.1254 0.26972,0.13726 0.33515,0.2681 0.0462,0.0925 -0.0812,0.06 0.067,0.13406 0.0777,0.0388 0.1929,0.0294 0.2681,0.067 0.11755,0.0588 0.2142,0.20765 0.33515,0.26811 0.0198,0.01 0.0512,-0.0158 0.067,0 0.0817,0.0817 0.11941,0.25346 0.20109,0.33514 0.0353,0.0353 0.0987,0.0317 0.13406,0.067 0.23601,0.23602 0.30046,0.60247 0.60323,0.80432 0.084,0.056 0.27567,0.0746 0.33514,0.13406 0.0159,0.0158 -0.0159,0.0512 0,0.067 0.0531,0.0531 0.26694,-0.0341 0.33513,0 0.0282,0.0141 0.0388,0.0529 0.067,0.067 0.072,0.036 0.19058,-0.0259 0.26813,0 0.22217,0.074 0.4721,0.16902 0.67027,0.2681 0.0565,0.0283 0.0775,0.1058 0.13404,0.13406 0.0201,0.01 0.0447,0 0.067,0 0.0447,0.0224 0.0925,0.0393 0.13406,0.067 0.19513,0.13009 0.25787,0.6395 0.33515,0.87134 0.0335,0.10054 -0.0335,0.2346 0,0.33514 0.01,0.03 0.057,0.037 0.067,0.067 0.0367,0.11017 -0.052,0.29807 0,0.40216 0.13946,0.27895 -0.005,-0.0716 0.13404,0.067 0.0159,0.0158 0,0.0447 0,0.067 0.0222,0.0447 0.0317,0.0987 0.067,0.13405 0.0353,0.0353 0.0941,0.037 0.13404,0.067 0.14793,0.11094 0.24842,0.29966 0.40217,0.40216 0.2872,0.19146 1.14292,0.23286 1.4746,0.067 0.14298,-0.0715 0.39322,0.0715 0.5362,0 0.27895,-0.13948 -0.0716,0.005 0.067,-0.13406 0.0353,-0.0353 0.0987,-0.0317 0.13407,-0.067 0.13867,-0.13868 -0.21193,0.005 0.067,-0.13405 0.0198,-0.01 0.0512,0.0158 0.067,0 0.0159,-0.0158 -0.0101,-0.047 0,-0.067 0.0716,-0.14319 0.20534,-0.0713 0.26812,-0.13405 0.0398,-0.0398 0.0339,-0.0845 0.067,-0.13405 0.26043,-0.39067 0.6993,-0.63808 1.00539,-1.0054 0.32478,-0.38973 0.60608,-0.81879 0.93837,-1.20648 0.20016,-0.23352 0.47792,-0.37241 0.67027,-0.60325 0.45231,-0.54276 0.61291,-1.36467 0.87136,-2.0108 0.0851,-0.21288 0.25288,-0.30471 0.33514,-0.46919 0.0101,-0.02 -0.0159,-0.0512 0,-0.067 0.0159,-0.0158 0.0512,0.0158 0.067,0 0.0159,-0.0158 -0.0159,-0.0512 0,-0.067 0.0159,-0.0158 0.0512,0.0158 0.067,0 0.0281,-0.0281 0.0467,-0.16046 0.067,-0.20108 0.0487,-0.0974 0.15507,-0.17608 0.20108,-0.2681 0.0746,-0.14916 0.26144,-0.12738 0.33515,-0.20109 0.0159,-0.0158 -0.0159,-0.0512 0,-0.067 0.0316,-0.0316 0.10245,0.0316 0.13404,0 0.13869,-0.13868 -0.21191,0.005 0.067,-0.13406 0.0198,-0.01 0.0512,0.0158 0.067,0 0.0316,-0.0316 -0.0198,-0.0941 0,-0.13405 0.0462,-0.0923 0.12166,-0.13156 0.067,-0.2681 -0.0653,-0.16328 -0.2386,-0.32441 -0.33512,-0.46919 -0.0392,-0.0588 -0.0169,-0.15113 -0.067,-0.20108 -0.0159,-0.0158 -0.0513,0.0158 -0.067,0 -0.0316,-0.0316 0.0201,-0.0941 0,-0.13406 -0.0408,-0.0815 -0.0955,-0.19104 -0.13404,-0.2681 -0.20762,-0.41521 -0.49445,-0.83396 -0.67027,-1.27351 -0.0447,-0.11171 -0.096,-0.22099 -0.13406,-0.33514 -0.0325,-0.0975 0.0454,-0.24443 0,-0.33513 -0.0882,-0.17642 -0.34058,-0.35142 -0.40217,-0.53621 -0.014,-0.0424 0.014,-0.0917 0,-0.13406 -0.0201,-0.06 -0.10578,-0.0775 -0.13404,-0.13405 -0.0344,-0.0687 -0.0327,-0.19937 -0.067,-0.26811 -0.0283,-0.0565 -0.11407,-0.0741 -0.13404,-0.13405 -0.014,-0.0424 0.0109,-0.0907 0,-0.13405 -0.0159,-0.0634 -0.30208,-0.70423 -0.33515,-0.7373 -0.0222,-0.0223 -0.17873,-0.0447 -0.20106,-0.067 -0.0159,-0.0158 0.0159,-0.0512 0,-0.067 -0.18309,-0.18308 -0.40653,-0.24479 -0.60325,-0.40216 -0.29813,-0.238494 -0.55851,-0.461713 -0.87135,-0.670268 -0.14658,-0.09771 -0.32869,-0.162732 -0.46918,-0.268105 -0.0506,-0.03792 -0.0754,-0.110585 -0.13407,-0.134053 -0.0622,-0.0249 -0.14113,0.02997 -0.20106,0 -0.12816,-0.256316 0.0196,-0.06045 -0.20108,-0.134054 -0.18246,-0.06081 -0.79573,-0.812565 -1.00542,-0.938374 -0.0606,-0.03635 -0.13787,-0.03543 -0.20108,-0.06703 -0.0754,-0.03768 -0.12168,-0.174614 -0.20108,-0.201081 -0.23781,-0.07928 -0.0339,0.10862 -0.2681,-0.06703 -0.18389,-0.137911 -0.34473,-0.34154 -0.53621,-0.469188 -0.0354,-0.0236 -0.39439,-0.260326 -0.40217,-0.268105 -0.0159,-0.0158 0.0159,-0.05123 0,-0.06703 -0.0222,-0.02236 -0.17872,-0.04469 -0.20108,-0.06703 -0.0353,-0.03533 -0.0317,-0.09873 -0.067,-0.134053 -0.0353,-0.03533 -0.095,-0.03582 -0.13406,-0.06703 -0.43659,-0.349285 -0.94226,-0.674172 -1.34051,-1.072428 -0.10118,-0.101158 -0.16696,-0.233976 -0.26813,-0.335134 -0.0651,-0.06514 -0.18571,-0.02582 -0.2681,-0.06703 -0.487,-0.243496 0.0389,-0.01873 -0.33513,-0.268108 -0.24489,-0.163253 -0.49863,-0.282829 -0.73731,-0.402159 -0.0217,-0.0108 -0.84976,-0.0108 -0.87133,0 -0.0283,0.01413 -0.0388,0.0529 -0.067,0.06703 -0.15632,0.07817 -0.55885,0 -0.73729,0 -0.13065,0 -0.42775,0.05423 -0.5362,0 -0.12095,-0.06047 -0.2176,-0.209338 -0.33515,-0.268107 -0.44239,-0.221203 -0.46231,-0.346745 -0.80431,-0.60324 -0.0565,-0.04239 -0.15113,-0.01707 -0.20108,-0.06703 -0.0158,-0.0158 0.0158,-0.05123 0,-0.06703 -0.0113,-0.01132 -0.84907,0 -0.93838,0 -0.36694,0 -0.41399,0.147196 -0.73729,0.201079 -0.0661,0.01103 -0.13497,-0.01101 -0.20108,0 -0.0697,0.01161 -0.13406,0.04469 -0.20108,0.06703 -0.0894,0.02236 -0.17692,0.054 -0.26811,0.06703 -0.19503,0.02786 -0.41026,-0.03859 -0.60324,0 -0.1967,0.03934 -0.39884,0.167016 -0.60324,0.201081 -0.19053,0.03176 -0.41246,-0.02119 -0.60324,0 -0.53642,0.0596 -1.1645,0.247118 -1.60864,0.469188 -0.0715,0.03575 -0.19662,-0.03575 -0.26811,0 -0.0804,0.04022 -0.12065,0.160864 -0.20108,0.201081 -0.13318,0.06659 -0.0733,0.07328 -0.13405,0.134051 -0.0158,0.0158 -0.057,-0.01998 -0.067,0 -0.0412,0.0824 -0.0447,0.178739 -0.067,0.268108 z"
       id="path29" /></g></svg>
