<?xml version="1.0" encoding="UTF-8" standalone="no"?>
<!-- Created with Inkscape (http://www.inkscape.org/) -->

<svg
   width="124.86774"
   height="107.93386"
   viewBox="0 0 33.037924 28.5575"
   version="1.1"
   id="svg1"
   xml:space="preserve"
   xmlns="http://www.w3.org/2000/svg"
   xmlns:svg="http://www.w3.org/2000/svg"><defs
     id="defs1" /><g
     id="layer1"
     transform="translate(-252.34857,-44.737674)"><path
       style="fill:#000000;fill-opacity:0.498525;stroke-width:0.264583"
       d="m 279.01093,45.579572 c -0.37317,0.04644 -0.70506,-0.103846 -1.06572,-0.163955 -0.0674,-0.01122 -0.14012,0.02162 -0.20494,0 -0.0183,-0.0061 -0.0273,-0.02733 -0.041,-0.04099 -0.0273,-0.01365 -0.0523,-0.03358 -0.082,-0.04099 -0.0897,-0.02241 -0.19724,-0.01857 -0.28694,-0.04099 -0.13078,-0.0327 -0.22952,-0.177067 -0.36888,-0.204944 -0.20672,-0.04134 -0.80618,0.0045 -0.94276,-0.04099 -0.0924,-0.03081 -0.1813,-0.142833 -0.28692,-0.163954 -0.0402,-0.008 -0.0828,0.008 -0.12295,0 -0.0599,-0.01199 -0.10469,-0.06716 -0.16396,-0.08198 -0.1379,-0.03447 -0.27157,0.0051 -0.40989,-0.04099 -0.22524,-0.07508 -1.00904,0.06359 -1.22968,0.08198 -0.1877,0.01564 -0.385,0 -0.57383,0 -0.32186,0 -0.79666,-0.05168 -1.1067,0 -0.19193,0.03199 -0.054,0.04999 -0.24593,0.08198 -0.38333,0.06389 0.20241,-0.08156 -0.28691,0 -0.0301,0.005 -0.052,0.035 -0.082,0.04099 -0.18947,0.03789 -0.34901,0.04944 -0.53284,0.122968 -0.16322,0.06529 -0.2489,0.248875 -0.36891,0.368898 -0.11404,0.114051 -0.15573,0.139356 -0.28691,0.204946 -0.13044,0.06522 -0.20572,0.246436 -0.32793,0.327909 -0.18746,0.124984 -0.31573,0.309967 -0.49186,0.450879 -0.12009,0.09609 -0.21741,0.176427 -0.3279,0.28692 -0.10729,0.107278 -0.20685,0.237117 -0.32792,0.327911 -0.0243,0.01834 -0.065,0.01556 -0.082,0.04099 -0.0151,0.02273 0.0122,0.05754 0,0.08198 -0.006,0.01222 -0.0277,-0.0033 -0.041,0 -0.0419,0.01048 -0.082,0.02733 -0.12298,0.04099 -0.0987,0.0329 -0.18598,0.09773 -0.28692,0.122965 -0.053,0.01326 -0.10985,-0.0077 -0.16396,0 -0.18854,0.02693 -0.0655,0.05081 -0.24593,0.122968 -0.086,0.03438 -0.19701,0.01852 -0.28691,0.04099 -0.11219,0.02805 -0.21712,0.05982 -0.32793,0.08198 -0.24241,0.04848 -0.004,0.02625 -0.24593,0.122968 -0.0665,0.02662 -0.23572,0.05124 -0.3279,0.08197 -0.0475,0.01582 -0.11628,-0.01193 -0.16396,0 -0.0296,0.0074 -0.0523,0.03358 -0.082,0.04099 -0.0663,0.01656 -0.13731,-0.0097 -0.20494,0 -0.10041,0.01434 -0.62161,0.06656 -0.69684,0.122967 -0.0732,0.05491 -0.059,0.177001 -0.082,0.245933 -0.0355,0.106612 -0.1297,0.208045 -0.16397,0.327909 -0.078,0.273024 -0.0976,0.554172 -0.16393,0.819777 -0.0212,0.0845 -0.0905,0.164867 -0.12298,0.245933 -0.0444,0.110987 -0.0783,0.216202 -0.12295,0.327911 -0.0321,0.08023 -0.0376,0.171834 -0.082,0.245933 -0.0198,0.03314 -0.0621,0.04884 -0.082,0.08198 -0.0592,0.09867 -0.0156,0.121994 -0.082,0.204943 -0.12006,0.150093 -0.239,0.314079 -0.3279,0.491866 -0.12554,0.251092 -0.18058,0.533244 -0.32791,0.778788 -0.17328,0.288811 -0.38763,0.570328 -0.53285,0.860763 -0.0943,0.188577 -0.50956,0.472991 -0.65582,0.655823 -0.0191,0.02387 -0.0194,0.06038 -0.041,0.08198 -0.0305,0.03053 -0.1408,0.05882 -0.16396,0.08197 -0.01,0.0097 0.01,0.03133 0,0.04099 -0.0789,0.07891 -0.38046,0.02244 -0.49186,0.04099 -0.0981,0.01635 -0.18881,0.06563 -0.28693,0.08198 -0.0674,0.01122 -0.13866,-0.01656 -0.20494,0 -0.30095,0.07524 -0.63151,0.07109 -0.94274,0.122966 -0.25316,0.04219 -0.48242,0.16846 -0.7378,0.204943 -0.20085,0.02869 -0.41399,-0.02869 -0.61483,0 -0.40343,0.05763 -0.77713,0.315963 -1.14769,0.368901 -0.0947,0.01352 -0.19258,-0.01572 -0.28692,0 -0.27462,0.04577 -0.55437,0.0976 -0.81978,0.163954 -0.0386,0.0097 -0.0844,-0.0097 -0.12296,0 -0.10301,0.02574 -0.18763,0.09814 -0.28693,0.122968 -0.0265,0.0066 -0.0561,-0.0087 -0.082,0 -0.0367,0.01222 -0.0453,0.06976 -0.082,0.08198 -0.0648,0.02159 -0.13867,-0.01656 -0.20495,0 -0.0714,0.01783 -0.13447,0.06084 -0.20494,0.08198 -0.30332,0.091 -0.6486,0.08729 -0.94274,0.204944 -0.16955,0.06782 -0.36782,0.163414 -0.53286,0.245933 -0.15731,0.07866 -0.33145,0.233449 -0.49186,0.286922 -0.0259,0.0087 -0.0561,-0.0087 -0.082,0 -0.0367,0.01222 -0.0498,0.06054 -0.082,0.08198 -0.0508,0.03389 -0.11312,0.04808 -0.16396,0.08198 -0.0616,0.04105 -0.0983,0.131133 -0.16395,0.163954 -0.0386,0.01931 -0.0892,0.014 -0.12297,0.04099 -0.1792,0.14336 -0.29138,0.499303 -0.40988,0.69681 -0.14578,0.242967 -0.36282,0.637571 -0.45088,0.901753 -0.11107,0.333213 -0.13759,0.687945 -0.20495,1.02472 -0.006,0.02996 -0.035,0.05202 -0.041,0.08198 -0.0161,0.08038 0.0135,0.165071 0,0.245933 -0.053,0.317772 -0.0818,0.698574 -0.041,1.02472 0.007,0.0559 0.0273,0.109305 0.041,0.163955 0.0137,0.08198 0.0327,0.163237 0.041,0.245932 0.0248,0.247791 0.007,0.50682 0.12297,0.737802 0.0744,0.148759 0.25207,0.412956 0.40989,0.491865 0.0726,0.03628 0.014,-0.06097 0.082,0.04099 0.0471,0.07066 0.15957,0.202753 0.24593,0.245935 0.0752,0.03759 0.25577,0.139907 0.32791,0.163955 0.0259,0.0087 0.056,-0.0087 0.082,0 0.0912,0.03039 0.19571,0.15934 0.28692,0.204943 0.14745,0.07372 0.33603,0.153001 0.49186,0.204944 0.13219,0.04406 0.28257,0.0254 0.40989,0.08198 0.0624,0.02775 0.10464,0.08907 0.16396,0.122966 0.0375,0.02143 0.0859,0.01876 0.12297,0.04099 0.0331,0.0199 0.0511,0.05879 0.082,0.08198 0.0206,0.09031 0.0843,0.02167 0.12297,0.04099 0.0881,0.04406 0.16039,0.115072 0.24593,0.163954 0.0912,0.05214 0.18473,0.09742 0.28692,0.122968 0.0265,0.0066 0.0627,-0.01932 0.082,0 0.13132,0.131312 0.20742,0.291862 0.28692,0.450876 0.0832,0.166412 0.23634,0.290613 0.32791,0.450877 0.0385,0.06742 0.0387,0.203779 0.12297,0.245932 0.10564,0.05282 0.25539,0.09585 0.3689,0.163957 0.13387,0.08032 0.27046,0.176216 0.40989,0.245933 0.0386,0.01932 0.0854,0.01955 0.12296,0.04099 0.21075,0.120425 0.38611,0.32572 0.57385,0.450879 0.0597,0.03982 0.0854,0.02559 0.12296,0.08198 0.0903,0.02064 0.0217,0.08432 0.041,0.122968 0.061,0.122039 0.20252,0.238633 0.24594,0.368898 0.0578,0.173426 -0.0127,0.813956 -0.041,0.983734 -0.0218,0.130849 0.0321,0.281492 0,0.409887 -0.0619,0.247528 -0.16811,0.479914 -0.20495,0.737798 -0.0228,0.159793 -0.009,0.333865 -0.041,0.491866 -0.0251,0.12546 -0.0942,0.631328 -0.041,0.737799 0.0364,0.0727 0.2949,0.290912 0.36891,0.327911 0.0912,0.04559 0.56938,0.07556 0.65582,0.04099 0.0359,-0.01434 0.0511,-0.05879 0.082,-0.08198 0.1446,-0.108448 0.457,-0.233694 0.57385,0 0.0389,0.07778 0.13835,0.251097 0.16395,0.327911 0.013,0.03889 -0.013,0.08408 0,0.122965 0.0156,0.04674 0.0626,0.07769 0.082,0.122968 0.0222,0.05178 0.0188,0.112175 0.041,0.163954 0.069,0.161047 0.21775,0.318686 0.32791,0.450877 0.0495,0.05938 0.13525,0.09219 0.16396,0.163957 0.0209,0.0523 0.0188,0.112175 0.041,0.163954 0.0278,0.06486 0.3465,0.428472 0.40989,0.491866 0.10416,0.104156 0.3253,0.170587 0.45088,0.245933 0.19692,0.118152 0.34913,0.325622 0.57384,0.409889 0.0481,0.01802 0.30368,0.01675 0.32791,0.04099 0.0122,0.01225 -0.001,0.158679 0,0.163957 0.0296,0.118256 0.0438,0.254463 0.082,0.368898 0.006,0.01834 0.0349,0.02265 0.041,0.04099 0.009,0.02593 -0.0122,0.05754 0,0.08198 0.006,0.01222 0.0288,-0.0061 0.041,0 0.0173,0.0087 0.0237,0.03235 0.041,0.04099 0.20657,0.103288 0.95261,-0.419756 1.10669,-0.573844 0.0785,-0.07846 0.17944,-0.157271 0.24594,-0.245933 0.0183,-0.02445 0.0194,-0.06038 0.041,-0.08198 0.0997,-0.09968 0.25564,-0.160991 0.3689,-0.245932 0.3447,-0.258535 0.51348,-0.425538 0.94274,-0.532855 0.0996,-0.0249 0.22444,0 0.32792,0 0.40741,0 0.49943,0.01114 0.90175,-0.122965 0.0534,-0.01781 0.11356,-0.0158 0.16394,-0.04099 0.0346,-0.01728 0.0461,-0.06763 0.082,-0.08198 0.038,-0.01521 0.0849,0.01521 0.12296,0 0.0359,-0.01434 0.0488,-0.06209 0.082,-0.08198 0.037,-0.02223 0.0843,-0.02167 0.12295,-0.04099 0.22638,-0.113181 0.41058,-0.287155 0.65583,-0.368901 0.20745,-0.06915 0.55459,0.04484 0.7788,0 0.26159,-0.05232 0.63719,-0.0992 0.90175,0 0.0445,0.01669 0.2712,0.195517 0.28691,0.204944 0.20664,0.123986 0.40958,0.240612 0.61484,0.3689 0.0742,0.04637 0.12991,0.118944 0.20495,0.163955 0.037,0.02223 0.0884,0.01505 0.12295,0.04099 0.0243,0.01834 0.0138,0.06831 0.041,0.08198 0.0367,0.01834 0.0841,-0.01296 0.12298,0 0.24577,0.163854 -1e-4,0.03277 0.24593,0.08198 0.0988,0.01977 0.16407,0.123024 0.24593,0.163957 0.27623,0.138105 0.58344,0.230233 0.86077,0.368898 0.18214,0.09107 0.33293,0.293608 0.45088,0.450879 0.044,0.05867 0.0578,0.12051 0.12298,0.163955 0.12266,0.08179 0.26307,0.209232 0.40986,0.245933 0.12925,0.03231 0.24686,0.08768 0.36891,0.163954 0.46061,0.28789 -0.0347,-0.0055 0.24593,0.204946 0.0531,0.03984 0.21627,0.09329 0.24593,0.122965 0.022,0.02193 0.11787,0.222888 0.16396,0.245933 0.019,0.0095 0.14505,0.0095 0.16397,0 0.13403,-0.06702 0.15155,-0.18302 0.24593,-0.245933 0.0788,-0.05251 0.1643,-0.164131 0.24593,-0.204943 0.0243,-0.01222 0.0575,0.01222 0.082,0 0.14285,-0.07143 0.26647,-0.21521 0.4099,-0.286922 0.16451,-0.08226 0.3334,-0.155385 0.49186,-0.245933 0.0593,-0.03389 0.10464,-0.08907 0.16396,-0.122968 0.0375,-0.02143 0.0859,-0.01876 0.12298,-0.04099 0.10199,-0.0612 0.18492,-0.184732 0.28691,-0.245933 0.037,-0.02222 0.0843,-0.02167 0.12298,-0.04099 0.20061,-0.100306 0.0524,-0.04958 0.20492,-0.163957 0.072,-0.05398 0.17103,-0.07301 0.24596,-0.122965 0.0568,-0.03789 0.10535,-0.08782 0.16393,-0.122968 0.0116,-0.007 0.0313,0.0097 0.041,0 0.049,-0.04899 0.0957,-0.150333 0.12298,-0.204943 0.0324,-0.06489 0.12353,-0.103317 0.16396,-0.163955 0.0767,-0.115101 0.1692,-0.212809 0.24593,-0.327911 0.0448,-0.06718 0.0519,-0.02508 0.12295,-0.08198 0.0453,-0.03621 0.0747,-0.09081 0.12298,-0.122966 0.11544,-0.07696 0.2907,-0.09243 0.40989,-0.163954 0.0331,-0.0199 0.0488,-0.06209 0.082,-0.08198 0.10009,-0.06006 0.22656,-0.06505 0.32792,-0.122968 0.0335,-0.01918 0.0448,-0.07136 0.082,-0.08198 0.0657,-0.01876 0.13716,0.0085 0.20495,0 0.14213,-0.01778 0.30096,-0.07847 0.45087,-0.04099 0.12915,0.03228 0.23233,0.100205 0.36891,0.122965 0.16677,0.0278 0.36343,0 0.53285,0 0.0759,0 0.21701,0.02796 0.28691,0 0.2308,-0.09232 0.10866,-0.06791 0.32792,-0.204944 0.38905,-0.243149 -0.0846,0.09517 0.36889,-0.163954 0.089,-0.05086 0.16002,-0.147656 0.24593,-0.204944 0.13282,-0.08854 0.27799,-0.15799 0.40989,-0.245933 0.0482,-0.03215 0.0766,-0.08819 0.12298,-0.122967 0.12496,-0.09372 0.34218,-0.137245 0.45087,-0.245933 0.0217,-0.02159 0.0228,-0.05754 0.041,-0.08198 0.22114,-0.29483 -0.0455,0.0865 0.16396,-0.122965 0.0798,-0.07983 0.10885,-0.236082 0.16396,-0.327911 0.0198,-0.03314 0.0546,-0.05465 0.082,-0.08198 0.041,-0.08197 0.0858,-0.162176 0.12295,-0.245932 0.0641,-0.144095 0.0937,-0.310433 0.16397,-0.450877 0.13686,-0.273748 0.27349,-0.546986 0.40989,-0.819777 0.0299,-0.05983 0.10393,-0.147831 0.12298,-0.204944 0.009,-0.02593 -0.009,-0.05605 0,-0.08197 0.0217,-0.06481 0.0976,-0.100529 0.12295,-0.163957 0.01,-0.02537 -0.007,-0.05547 0,-0.08198 0.0557,-0.22261 0.20418,-0.42921 0.32792,-0.614831 0.0127,-0.01926 0.0281,-0.103716 0.041,-0.122967 0.0907,-0.136126 0.21846,-0.255853 0.28691,-0.409888 0.23516,-0.529121 0.38809,-1.236736 0.40989,-1.803508 0.0116,-0.300569 -0.0305,-0.638225 0,-0.942742 0.0206,-0.205957 0.0591,-0.409036 0.082,-0.614834 0.0295,-0.265721 0,-0.55164 0,-0.819777 0,-0.148465 0.0499,-0.424354 0,-0.573841 -0.0614,-0.184124 -0.16359,-0.08189 -0.3279,-0.122968 -0.0513,-0.01283 -0.11303,-0.105992 -0.16396,-0.122965 -0.0259,-0.0087 -0.0592,0.01516 -0.082,0 -0.0353,-0.02352 -0.14949,-0.202528 -0.16396,-0.245933 -0.0204,-0.06077 -0.0175,-0.5124 0,-0.573844 0.0583,-0.204171 0.21037,-0.401429 0.24593,-0.614834 0.0277,-0.166282 0.0316,-0.980485 0,-1.106696 -0.0348,-0.139248 -0.37753,-0.456645 -0.49186,-0.532855 -0.0114,-0.0076 -0.0301,0.0082 -0.041,0 -0.1007,-0.07553 -0.34232,-0.349496 -0.4099,-0.450879 -0.0479,-0.0719 -0.0375,-0.171834 -0.082,-0.245933 -0.22876,-0.381246 0.0821,0.287266 -0.16397,-0.204944 -0.0429,-0.08584 -0.14245,-0.2419 -0.16396,-0.327908 -0.007,-0.02651 0.0122,-0.05754 0,-0.08198 -0.006,-0.01222 -0.0301,0.0082 -0.041,0 -0.0928,-0.06956 -0.15687,-0.171714 -0.24593,-0.245933 -0.24286,-0.202385 -0.52822,-0.329313 -0.73782,-0.573844 -0.10417,-0.12155 -0.17465,-0.29764 -0.28691,-0.409887 -0.0707,-0.07068 -0.36619,-0.285562 -0.45088,-0.327911 -0.0122,-0.0061 -0.0313,0.0097 -0.041,0 -0.0175,-0.01746 -0.0654,-0.135179 -0.12298,-0.163955 -0.0243,-0.01222 -0.0592,0.01516 -0.082,0 -0.0643,-0.04287 -0.0977,-0.12419 -0.16396,-0.163957 -0.037,-0.02223 -0.0884,-0.01506 -0.12296,-0.04099 -0.0243,-0.01834 -0.0193,-0.06037 -0.041,-0.08198 -0.10356,-0.103534 -0.0472,-0.01574 -0.12298,-0.04099 -0.18859,-0.06287 -0.48172,-0.287348 -0.53284,-0.491866 -0.0228,-0.09139 -0.0629,-0.191574 -0.082,-0.286922 -0.023,-0.114726 -0.0353,-0.590875 0,-0.696809 0.0109,-0.03286 0.55296,-0.4849 0.57386,-0.491866 0.0259,-0.0087 0.056,0.0087 0.082,0 0.0571,-0.01905 0.14512,-0.09305 0.20494,-0.122968 0.18095,-0.09047 0.38148,-0.181811 0.57386,-0.245933 0.14279,-0.0476 0.27112,-0.0063 0.40989,-0.04099 0.0296,-0.0074 0.0523,-0.03358 0.082,-0.04099 0.0569,-0.01423 0.15269,0.02611 0.20494,0 0.18058,-0.0903 0.2875,-0.411067 0.36889,-0.573842 0.0352,-0.07047 0.10049,-0.07399 0.12297,-0.163957 0.007,-0.02651 -0.007,-0.05547 0,-0.08198 0.0369,-0.147719 0.20559,-0.408606 0.12298,-0.573844 -0.0188,-0.03771 -0.13232,-0.194397 -0.16396,-0.204943 -0.13271,-0.04423 -0.46657,0 -0.61484,0 -0.20553,0 -0.0963,-0.0877 -0.28691,-0.163957 -0.0401,-0.01606 -0.48774,-0.01503 -0.53287,0 -0.3106,0.103534 0.0148,-0.01479 -0.082,0.08198 -0.0193,0.01931 -0.0575,-0.01222 -0.082,0 -0.0592,0.02959 -0.10477,0.05239 -0.16396,0.08198 -0.0367,0.01834 -0.0832,-0.0099 -0.12298,0 -0.0715,0.01786 -0.13346,0.06411 -0.20495,0.08198 -0.0265,0.0066 -0.0592,-0.01516 -0.082,0 -0.0254,0.01696 -0.0193,0.06038 -0.041,0.08198 -0.009,0.0094 -0.58719,0.320998 -0.61484,0.327911 -0.0709,0.01773 -0.32123,0.0753 -0.3689,0.122965 -0.0244,0.0245 0.0443,0.08198 -0.041,0.08198 -0.20706,0 -0.063,-0.0315 -0.16393,-0.08198 -0.18109,-0.09053 -0.35846,-0.161136 -0.49189,-0.327908 -0.0236,-0.02933 -0.0614,-0.143433 -0.082,-0.163957 -0.01,-0.0097 -0.0313,0.0097 -0.041,0 -0.0243,-0.02424 -0.0709,-0.182825 -0.082,-0.204944 -0.12859,-0.257204 -0.22222,-0.49404 -0.49186,-0.65582 -0.21624,-0.129752 -0.5253,-0.173662 -0.77877,-0.122968 -0.21723,0.04344 -0.46517,0.139891 -0.69681,0.08198 -0.11261,-0.02815 -0.40428,-0.322284 -0.49189,-0.40989 -0.05,-0.05 -0.22225,-0.174921 -0.24593,-0.245933 -0.0257,-0.07684 -0.013,-0.232894 0.041,-0.286922 0.0458,-0.04577 0.10655,-0.135244 0.16396,-0.163954 0.1611,-0.08055 0.73607,0.103343 0.86077,0.04099 0.0345,-0.01728 0.0474,-0.0647 0.082,-0.08198 0.0122,-0.0061 0.0313,0.0097 0.041,0 0.01,-0.0097 -0.006,-0.02877 0,-0.04099 0.0241,-0.04842 0.0928,-0.07775 0.12295,-0.122965 0.0909,-0.136332 0.1723,-0.336248 0.28691,-0.450876 0.0217,-0.02159 0.0604,-0.01939 0.082,-0.04099 0.15377,-0.15377 0.0259,-0.07557 0.12295,-0.204943 0.0376,-0.05007 0.24537,-0.300207 0.28694,-0.327912 0.0254,-0.01696 0.0604,-0.01939 0.082,-0.04099 0.0305,-0.03053 0.0588,-0.140795 0.082,-0.163954 0.01,-0.0097 0.0313,0.0097 0.041,0 0.033,-0.03303 0.0632,-0.148558 0.082,-0.204944 0.0156,-0.04674 0.0664,-0.07623 0.082,-0.122967 0.009,-0.02593 -0.009,-0.05606 0,-0.08198 0.0506,-0.15191 0.20228,-0.315651 0.32793,-0.409887 z"
       id="path32" /></g></svg>
