<?xml version="1.0" encoding="UTF-8" standalone="no"?>
<!-- Created with Inkscape (http://www.inkscape.org/) -->

<svg
   width="63.37059"
   height="48.111958"
   viewBox="0 0 16.766802 12.729622"
   version="1.1"
   id="svg1"
   xml:space="preserve"
   xmlns="http://www.w3.org/2000/svg"
   xmlns:svg="http://www.w3.org/2000/svg"><defs
     id="defs1" /><g
     id="layer1"
     transform="translate(-155.43878,-38.639083)"><path
       style="fill:#000000;fill-opacity:0.498525;stroke-width:0.264583"
       d="m 155.68519,43.988614 c 1.39331,0 2.78661,0 4.17992,0 0.27645,0 0.5529,0 0.82935,0 0.10371,0 0.23426,-0.02437 0.33173,0 0.14913,0.03728 0.342,0.09952 0.49761,0.09952 0.0647,0 0.24169,-0.02844 0.29857,0 0.014,0.007 0.0183,0.02823 0.0332,0.03317 0.11403,0.03801 0.52119,0 0.66348,0 0.0705,0 0.26491,0.03342 0.33174,0 0.10812,-0.05406 0.25879,-0.08628 0.36491,-0.16587 0.11499,-0.08624 0.2514,-0.141409 0.36492,-0.232217 0.0244,-0.01953 0.0395,-0.05026 0.0663,-0.06635 0.0955,-0.0573 0.22951,-0.07396 0.33174,-0.09952 0.10708,-0.02677 0.17833,-0.11363 0.26539,-0.165869 0.0716,-0.04297 0.15735,-0.06208 0.23222,-0.09952 0.0793,-0.03964 0.1498,-0.124662 0.23222,-0.165868 0.0313,-0.01564 0.0695,-0.01519 0.0995,-0.03318 0.15947,-0.09568 0.27626,-0.26158 0.43126,-0.364911 0.10713,-0.07142 0.1956,-0.154995 0.29857,-0.232219 0.0396,-0.02967 0.0977,-0.03138 0.13269,-0.06635 0.0175,-0.01749 0.0126,-0.05263 0.0332,-0.06635 0.0214,-0.01429 0.10367,-0.01865 0.13269,-0.03318 0.0796,-0.03981 0.11943,-0.159234 0.19904,-0.199043 0.01,-0.0049 0.0254,0.0078 0.0332,0 0.008,-0.0078 -0.008,-0.02535 0,-0.03317 0.008,-0.0078 0.0253,0.0078 0.0332,0 0.011,-0.01101 0.0566,-0.113107 0.0663,-0.132694 0.0439,-0.08786 0.19055,-0.149151 0.26539,-0.199046 0.0392,-0.02614 0.0464,-0.07961 0.0663,-0.09952 0.008,-0.0078 0.0233,0.0049 0.0332,0 0.0465,-0.02323 0.0957,-0.09565 0.1327,-0.132697 0.0111,-0.01106 0.0221,-0.02212 0.0332,-0.03317 0.0111,0 0.0254,0.0078 0.0332,0 0.008,-0.0078 -0.008,-0.02535 0,-0.03317 0.008,-0.0078 0.0332,0.01106 0.0332,0 0,-0.02471 -0.0157,-0.04886 -0.0332,-0.06635 -0.0626,-0.06255 -0.19342,-0.108297 -0.26539,-0.16587 -0.1183,-0.09464 -0.2587,-0.192352 -0.36492,-0.298567 -0.0175,-0.01749 -0.0157,-0.04886 -0.0332,-0.06635 -0.0175,-0.01749 -0.0489,-0.01569 -0.0663,-0.03317 -0.0166,-0.01659 0.0166,-0.08294 0,-0.09952 -0.0233,-0.02328 -0.0849,-0.03188 -0.0332,-0.06635 0.16104,-0.107363 0.4202,-0.0516 0.59713,-0.06635 0.14702,-0.01225 0.28814,-0.07908 0.43126,-0.09952 0.28919,-0.04131 0.68816,0 0.99522,0 0.0846,0 0.22,-0.02619 0.29856,0 0.0209,0.007 0.097,0.06884 0.1327,0.03317 0.035,-0.03497 0.0367,-0.09313 0.0663,-0.132696 0.21866,-0.291544 0.4093,-0.641966 0.49761,-0.995217 0.0254,-0.101738 0.10116,-0.170762 0.1327,-0.26539 0.0148,-0.04434 0.0531,-0.09298 0.0663,-0.132697 0.007,-0.02098 -0.007,-0.04537 0,-0.06635 0.0142,-0.04272 0.0853,-0.08998 0.0995,-0.132696 0.007,-0.02098 -0.007,-0.04537 0,-0.06635 0.002,-0.0064 0.0778,-0.142954 0.0995,-0.09952 0.01,0.01979 -0.01,0.04657 0,0.06635 0.014,0.02797 0.0547,0.03731 0.0663,0.06635 0.0123,0.0308 -0.005,0.06668 0,0.09952 0.0193,0.135342 0.0738,0.269404 0.0995,0.398087 0.0203,0.10134 -0.0465,0.271944 0,0.364913 0.0314,0.06285 0.0804,0.155715 0.0995,0.232219 0.005,0.02146 -0.007,0.04537 0,0.06635 0.0256,0.07692 0.10557,0.150823 0.1327,0.232217 0.016,0.04805 0.01,0.118877 0.0332,0.16587 0.0253,0.0506 0.0748,0.08322 0.0995,0.132697 0.0559,0.111857 0.008,0.247946 0.0663,0.364913 0.007,0.01357 0.42544,0 0.46444,0 0.44231,0 0.88463,0 1.32695,0 0.0648,0 0.20958,0.02791 0.26539,0 0.014,-0.007 0.0183,-0.02823 0.0332,-0.03318 0.0315,-0.01048 0.0663,0 0.0995,0 0.0111,0 0.0332,-0.01106 0.0332,0 0,0.151019 -0.0309,0.06406 -0.0995,0.132696 -0.0838,0.08379 -0.0128,0.03824 -0.0332,0.09952 -0.0321,0.09636 -0.0347,0.04629 -0.0995,0.132694 -0.0869,0.115819 -0.16159,0.261109 -0.2654,0.364913 -0.0564,0.05639 -0.14265,0.07631 -0.19904,0.132697 -0.0282,0.02819 -0.0382,0.07133 -0.0663,0.09952 -0.0501,0.05007 -0.1342,0.06937 -0.16587,0.132697 -0.01,0.01979 0.0156,0.05071 0,0.06635 -0.008,0.0078 -0.0233,-0.0049 -0.0332,0 -0.028,0.014 -0.0384,0.05236 -0.0663,0.06635 -0.01,0.0049 -0.0254,-0.0078 -0.0332,0 -0.008,0.0078 0.008,0.02535 0,0.03317 -0.03,0.02996 -0.12635,0.04659 -0.16587,0.06635 -0.0531,0.02654 -0.0796,0.106158 -0.1327,0.132696 -0.01,0.0049 -0.0253,-0.0078 -0.0332,0 -0.008,0.0078 0.008,0.02535 0,0.03317 -0.008,0.0078 -0.0254,-0.0078 -0.0332,0 -0.008,0.0078 0.008,0.02535 0,0.03317 -0.0156,0.01564 -0.0466,-0.0099 -0.0663,0 -0.0217,0.01087 -0.12335,0.08084 -0.1327,0.09952 -0.0282,0.05643 0.22416,0.271074 0.26539,0.298566 0.22909,0.152723 0.26539,1.169104 0.26539,1.459651 0,0.03685 0.0235,0.208762 0,0.232217 -0.0409,0.04091 -0.063,-0.02986 -0.0663,-0.03317 -0.0129,-0.01294 -0.11246,0 -0.1327,0 -0.16221,0 -0.44431,-0.02612 -0.53078,-0.199044 -0.0223,-0.04459 -0.0486,-0.09877 -0.0995,-0.132696 -0.0861,-0.05739 -0.18347,-0.10033 -0.2654,-0.165868 -0.0667,-0.05336 -0.12781,-0.118387 -0.19904,-0.16587 -0.0349,-0.02328 -0.17344,-0.07392 -0.19904,-0.09952 -0.0159,-0.01593 -0.0458,-0.112133 -0.0663,-0.132696 -0.008,-0.0078 -0.0253,0.0078 -0.0332,0 -0.0156,-0.01564 0.0156,-0.05071 0,-0.06635 -0.008,-0.0078 -0.0254,0.0078 -0.0332,0 -0.008,-0.0078 0.008,-0.02535 0,-0.03317 -0.008,-0.0078 -0.0253,0.0078 -0.0332,0 -0.0686,-0.06864 0.10489,0.0027 -0.0332,-0.06635 -0.01,-0.0049 -0.0253,0.0078 -0.0332,0 -0.008,-0.0078 0.008,-0.02535 0,-0.03318 -0.0132,-0.01318 -0.23935,-0.05291 -0.29857,-0.03317 -0.0932,0.03107 -0.12057,0.118793 -0.19904,0.16587 -0.03,0.01799 -0.0682,0.01754 -0.0995,0.03317 -0.0564,0.0282 -0.11233,0.09701 -0.16587,0.132697 -0.10852,0.07234 -0.25013,0.07531 -0.36491,0.132696 -0.0843,0.04216 -0.18466,0.09233 -0.26539,0.132694 -0.0134,0.0067 -0.22927,0.193146 -0.23222,0.199044 -0.005,0.0099 0.0105,0.02968 0,0.03318 -0.0315,0.01048 -0.067,-0.0065 -0.0995,0 -0.0679,0.0136 -0.17355,0.06041 -0.23222,0.09952 -0.026,0.01736 -0.0384,0.05236 -0.0663,0.06635 -0.11205,0.05603 -0.22242,0.100277 -0.33174,0.16587 -0.12254,0.07353 -0.22663,0.186124 -0.36491,0.232219 -0.22068,0.07356 -0.45922,0.109662 -0.66348,0.232217 -0.14394,0.08636 -0.25015,0.214027 -0.39809,0.298564 -0.21316,0.121809 -0.44631,0.189982 -0.66347,0.298567 -0.30623,0.153114 -0.70609,0.350684 -1.0284,0.43126 -0.11642,0.02911 -0.21093,0.135668 -0.33173,0.16587 -0.0215,0.0054 -0.0454,-0.007 -0.0663,0 -0.0297,0.0099 -0.0384,0.05236 -0.0663,0.06635 -0.0284,0.01418 -0.0711,0.019 -0.0995,0.03318 -0.20583,0.102912 -0.0332,0.537757 -0.0332,0.729824 0,0.475493 0,0.950986 0,1.42648 0,0.176141 0.0376,0.546309 0,0.69665 -0.0475,0.189966 -0.0745,0.397047 -0.0995,0.597133 -0.0116,0.09272 -0.0652,0.629195 -0.0663,0.630304 -0.008,0.0078 -0.0253,-0.0078 -0.0332,0 -0.058,0.058 0.0571,0.739068 0,0.796173 -0.0421,0.04207 -0.84923,-0.04866 -0.99522,0 -0.033,0.01101 -0.0665,0.05533 -0.0995,0.06635 -0.0826,0.02754 -0.63969,0.07825 -0.72982,0.03318 -0.10782,-0.05391 -0.30277,-0.05153 -0.43127,-0.03318 -0.0558,0.008 -0.10992,0.02619 -0.16586,0.03318 -0.13644,0.01704 -0.29791,-0.03334 -0.43127,0 -0.29909,0.07477 -0.64861,0.03317 -0.96204,0.03317 -0.2074,0 -0.4246,-0.02058 -0.6303,0 -0.11624,0.01162 -0.22393,0.04479 -0.33174,0.06635 -0.22321,0.04464 -0.47207,-0.03743 -0.69666,0 -0.25386,0.04231 -0.50953,0.03467 -0.763,0.06635 -0.28489,0.03561 -0.60703,0.06926 -0.89569,0.03318 -0.11896,-0.01487 -0.21948,-0.07146 -0.33174,-0.09952 -0.019,-0.0048 -0.14902,0.01685 -0.16587,0 -0.015,-0.01498 0,-0.75211 0,-0.862521 0,-0.09702 -0.0107,-0.142192 -0.0332,-0.232219 -0.032,-0.127847 0,-0.296966 0,-0.431261 0,-0.32068 0,-0.641363 0,-0.962043 0,-0.33174 0,-0.663477 0,-0.995217 0,-0.241901 -0.0242,-0.500343 0.0332,-0.729827 0.049,-0.195969 -0.0174,-0.669988 0,-0.895696 -0.0107,-0.170151 0.0512,-0.330957 0.0663,-0.497608 0.0276,-0.303262 0,-0.623189 0,-0.92887 0,-0.07522 -0.0234,-0.195183 0,-0.26539 0.0144,-0.04325 0.0188,-0.08944 0.0332,-0.132696 0.005,-0.01484 0.0282,-0.01834 0.0332,-0.03317 0.0474,-0.142166 -0.0267,-0.112567 0.0663,-0.298566 z"
       id="path10" /></g></svg>
