<?xml version="1.0" encoding="UTF-8" standalone="no"?>
<!-- Created with Inkscape (http://www.inkscape.org/) -->

<svg
   width="63.991928"
   height="34.72905"
   viewBox="0 0 16.931198 9.1887276"
   version="1.1"
   id="svg1"
   xml:space="preserve"
   xmlns="http://www.w3.org/2000/svg"
   xmlns:svg="http://www.w3.org/2000/svg"><defs
     id="defs1" /><g
     id="layer1"
     transform="translate(-15.203595,-67.362592)"><path
       style="fill:#000000;fill-opacity:0.498525;stroke-width:0.264583"
       d="m 18.033721,70.950187 c 0.0648,0.513067 -0.04914,0.673944 -0.197449,1.11888 -0.02223,0.06668 0.04698,0.282104 0,0.329084 -0.01551,0.0155 -0.0503,-0.01551 -0.06582,0 -0.03941,0.03941 -0.09619,0.258207 -0.131633,0.329083 -0.01445,0.0289 -0.05137,0.102735 -0.06582,0.131633 -0.01962,0.03925 0.04388,0.131633 0,0.131633 -0.03103,0 -0.03807,-0.05194 -0.06582,-0.06582 -0.210613,-0.105307 -0.579185,0.105307 -0.789798,0 -0.02775,-0.01386 -0.03807,-0.05194 -0.06582,-0.06582 -0.193786,-0.09689 -0.697901,0.07451 -0.921431,0 -0.02943,-0.0098 -0.03807,-0.05194 -0.06582,-0.06582 -0.06921,-0.0346 -0.250028,0 -0.329082,0 -0.04388,0 -0.131633,-0.04387 -0.131633,0 0,0.05033 0.196978,0.131281 0.197449,0.131633 0.251579,0.188685 0.46571,0.397397 0.723982,0.526534 0.273912,0.136957 -0.07036,-0.0046 0.06582,0.131633 0.01551,0.01551 0.04619,-0.0098 0.06582,0 8.46e-4,5.29e-4 0.396472,0.462288 0.460715,0.526532 0.04673,0.04673 0.119941,0.185756 0.131633,0.197448 0.02743,0.02743 0.191048,0.01281 0.131633,0.131632 -0.03265,0.0653 -0.108908,0.129278 -0.131633,0.197451 -0.02081,0.06244 0.02081,0.135012 0,0.197451 -0.03074,0.09223 -0.158988,0.449609 -0.197449,0.526531 -0.01388,0.02775 -0.05829,0.03572 -0.06582,0.06582 -0.01596,0.06385 0.01291,0.132914 0,0.197451 -0.04486,0.224319 -0.131633,0.351872 -0.131633,0.592349 0,0.06112 -0.171368,0.289346 -0.131633,0.329081 0.05973,0.05973 0.461813,-0.296723 0.526532,-0.329081 0.20025,-0.100126 0.329721,-0.296495 0.526532,-0.394899 0.111858,-0.05593 0.449771,-0.120689 0.526532,-0.19745 0.03815,-0.03815 0.09349,-0.225118 0.131633,-0.263266 0.06778,-0.06778 0.281303,0.03396 0.329083,0.06582 0.1421,0.09473 0.24278,0.04036 0.394899,0.131633 0.05321,0.03193 0.08199,0.0944 0.131633,0.131636 0.156027,0.117019 0.309098,0.121639 0.460715,0.197447 0.0555,0.02775 0.07613,0.103884 0.131633,0.131633 0.05423,0.02712 0.09252,0.0267 0.131633,0.06582 0.01551,0.0155 -0.01551,0.0503 0,0.06582 0.03297,0.03297 0.220118,0.02267 0.263266,0.06582 0.02194,0.02193 0.04388,0.08775 0.06582,0.06582 0.07167,-0.07167 -0.03964,-0.210915 -0.06582,-0.263266 -0.145055,-0.29011 -0.182907,-0.629078 -0.329082,-0.92143 -0.0351,-0.0702 0.0351,-0.193061 0,-0.263265 -0.01387,-0.02775 -0.056,-0.03638 -0.06582,-0.06582 -0.02081,-0.06244 0.02943,-0.138581 0,-0.197448 -0.02875,-0.0575 -0.168208,-0.190116 -0.131633,-0.263268 0.08091,-0.16182 0.329248,-0.19753 0.460716,-0.263266 0.0555,-0.02775 0.07613,-0.103881 0.131633,-0.131633 0.03989,-0.01995 0.169869,-0.03824 0.197449,-0.06582 0.01551,-0.01551 -0.01551,-0.0503 0,-0.06582 0.01551,-0.0155 0.04619,0.0098 0.06582,0 0.104468,-0.05223 0.154016,-0.219832 0.197449,-0.263266 0.03291,-0.03291 0.09873,-0.03291 0.131633,-0.06582 0.03291,-0.03291 0.03291,-0.09873 0.06582,-0.131635 0.03291,-0.03291 0.09872,-0.03291 0.131633,-0.06582 0.01551,-0.01551 -0.01551,-0.0503 0,-0.06582 0.06148,-0.06148 0.267604,-0.07015 0.329082,-0.131633 0.01551,-0.0155 -0.01551,-0.0503 0,-0.06582 0.03291,-0.03291 0.164542,0.03291 0.19745,0 0.01551,-0.0155 -0.01551,-0.0503 0,-0.06582 0.05506,-0.05506 0.332679,-0.0036 0.394899,-0.06582 0.01551,-0.0155 -0.01551,-0.05031 0,-0.06582 0.03103,-0.03102 0.09239,0.01963 0.131633,0 0.02775,-0.01386 0.03807,-0.05194 0.06582,-0.06582 0.210613,-0.105306 0.579185,0.105307 0.789798,0 0.138565,-0.06928 0.218793,-0.06582 0.394899,-0.06582 0.274171,0 0.509754,-0.06582 0.789798,-0.06582 0.05154,0 0.296242,0.03284 0.329083,0 0.01551,-0.01551 0.02194,-0.06582 0,-0.06582 -0.06582,0 0,0.131633 0,0.19745 0,0.219388 0,0.438777 0,0.658165 0,0.526531 0,1.053062 0,1.579596 0,0.11969 0.301985,0.0844 0.394899,0.06582 0.0481,-0.0096 0.08307,-0.05888 0.131633,-0.06582 0.562418,-0.08035 1.140267,-0.06582 1.711229,-0.06582 0.240874,0 0.628542,-0.07569 0.855615,0 0.476737,0.158911 -0.103767,-0.01897 0.197448,0.131633 0.06317,0.03158 0.20006,-0.02106 0.263266,0 0.02943,0.0098 0.03638,0.05601 0.06582,0.06582 0.110212,0.03674 1.916369,0.01937 1.974495,0 0.136088,-0.04536 0.133572,-0.06582 0.263266,-0.06582 0.154495,0 0.383648,-0.04763 0.526531,0 0.02943,0.0098 0.03807,0.05194 0.06582,0.06582 0.03273,0.01635 0.372496,0.02241 0.394898,0 0.02635,-0.02635 0.03564,-0.08364 0.131633,-0.131633 0.03925,-0.01963 0.100606,0.03103 0.131633,0 0.136176,-0.136178 -0.208097,0.0053 0.06582,-0.131632 0.01963,-0.0098 0.05031,0.0155 0.06582,0 0.01551,-0.01551 -0.01551,-0.05031 0,-0.06582 0.136176,-0.136176 -0.0053,0.208097 0.131633,-0.06582 0.07749,-0.154975 0,-0.555048 0,-0.723982 0,-0.636228 0,-1.272453 0,-1.908681 0,-0.210526 -0.06809,-0.585515 0,-0.789797 0.0098,-0.02943 0.04388,-0.04388 0.06582,-0.06582 0.02193,-0.08776 0.0546,-0.173508 0.06582,-0.263268 0.02964,-0.237128 -0.03379,-0.48745 0,-0.723979 0.08672,-0.607018 0.693962,-1.244738 0.394898,-1.842863 -0.03495,-0.0699 -0.0071,-0.204597 -0.06582,-0.263266 -0.0155,-0.0155 -0.05031,0.0155 -0.06582,0 -0.03042,-0.03042 0.01987,-0.157713 0,-0.19745 -0.02193,-0.04388 -0.03113,-0.09694 -0.06582,-0.131633 -0.0062,-0.0062 -0.730123,0 -0.789799,0 -0.702043,0 -1.404086,0 -2.106129,0 -0.124841,0 -0.751287,0.05216 -0.855612,0 -0.183412,-0.09171 -0.380471,-0.155073 -0.592349,-0.197448 -0.137139,-0.02743 -0.326295,0.0448 -0.460716,0 -0.274707,-0.09157 -0.5632,-0.07315 -0.855614,-0.131636 -0.259644,-0.05193 -1.388772,-0.151363 -1.645413,-0.06582 -0.09382,0.03127 -0.09477,0.09477 -0.131633,0.131633 -0.0565,0.05649 -0.215471,0.03604 -0.263266,0.131633 -0.121374,0.242747 -0.109845,1.073949 -0.06582,1.382146 0.05966,0.41765 0.221231,0.830154 0.263266,1.250514 0.02558,0.255772 0,0.531135 0,0.789799 0,0.174694 0.08126,0.627272 0,0.789797 -0.04535,0.0907 -0.154357,0.08854 -0.197449,0.131633 -0.08775,0.08776 0.02194,0.37296 -0.06582,0.460717 -0.06993,0.06993 -0.854757,-0.06625 -0.987247,0 -0.02775,0.01386 -0.03807,0.05194 -0.06582,0.06582 -0.04993,0.02498 -0.666429,0.0083 -0.723981,0.06582 -0.01551,0.0155 0.01551,0.0503 0,0.06582 -0.09494,0.09494 -0.467446,-0.06245 -0.592349,0 -0.07667,0.03834 -0.120781,0.0933 -0.197449,0.131632 -0.07562,0.03781 -0.396068,0.0011 -0.460716,0.06582 -0.01551,0.0155 0.01551,0.0503 0,0.06582 -0.01867,0.01868 -1.543945,0 -1.711229,0 -0.09427,0 -0.532349,0.06 -0.592348,0 -0.08775,-0.08775 0.109694,-0.06582 -0.06582,-0.06582 -0.111603,0 -0.140841,-0.15005 -0.197449,-0.263265 -0.07011,-0.140222 0,-0.503997 0,-0.658167 0,-0.0271 0.01742,-0.180026 0,-0.197448 -0.01551,-0.01551 -0.0503,0.0155 -0.06582,0 -0.0086,-0.0086 -0.114982,-0.50572 -0.131633,-0.526532 -0.07753,-0.09691 -0.17551,-0.175511 -0.263266,-0.263268 z"
       id="path6" /></g></svg>
