<?xml version="1.0" encoding="UTF-8" standalone="no"?>
<!-- Created with Inkscape (http://www.inkscape.org/) -->

<svg
   width="38.329155"
   height="53.996433"
   viewBox="0 0 10.141256 14.286556"
   version="1.1"
   id="svg1"
   xml:space="preserve"
   xmlns="http://www.w3.org/2000/svg"
   xmlns:svg="http://www.w3.org/2000/svg"><defs
     id="defs1" /><g
     id="layer1"
     transform="translate(-183.74024,-76.86698)"><path
       style="fill:#000000;fill-opacity:0.498525;stroke-width:0.264583"
       d="m 187.68546,77.200934 c 0.0354,0.07089 0.0354,0.248118 0.10634,0.212674 0.0709,-0.03545 -0.15389,-0.276082 -0.10634,-0.212674 0.10032,0.133757 0.18465,0.279191 0.26585,0.425349 0.009,0.01551 -0.0126,0.04063 0,0.05317 0.0125,0.01254 0.0406,-0.01254 0.0532,0 0.0126,0.01254 -0.0125,0.04064 0,0.05317 0.0298,0.02978 0.0811,0.03055 0.10634,0.106339 0.0112,0.03363 -0.0112,0.07271 0,0.106336 0.0341,0.102428 0.17853,0.216582 0.21268,0.319013 0.0112,0.03363 -0.009,0.07195 0,0.106336 0.005,0.01887 0.20852,0.421196 0.21267,0.42535 0.11001,0.110008 -0.004,-0.168106 0.10634,0.05317 0.0857,0.171376 0.22721,0.348078 0.31901,0.531688 0.1254,0.250785 0.25025,0.500502 0.37218,0.74436 0.11064,0.221276 -0.004,-0.05684 0.10634,0.05317 0.028,0.02802 0.0251,0.07831 0.0532,0.106336 0.0925,0.09252 0.26109,0.203179 0.31901,0.319013 0.0623,0.124579 0.14126,0.203552 0.26584,0.265843 0.12858,0.06429 0.26613,0.372372 0.42535,0.478517 0.29656,0.197708 -0.0751,-0.06193 0.21268,0.05317 0.072,0.02878 0.53061,0.264763 0.58485,0.319011 0.028,0.02802 0.0251,0.07831 0.0532,0.106339 0.12312,0.123118 0.33463,0.223086 0.47852,0.31901 0.0787,0.05244 0.1285,0.170588 0.21268,0.212675 0.0159,0.0079 0.0406,-0.01254 0.0532,0 0.023,0.02302 0.0835,0.178361 0.10634,0.212675 0.0806,0.120922 0.2491,0.290126 0.37218,0.372181 0.12426,0.08284 0.33917,0.136568 0.42535,0.265843 0.16172,0.242575 0.19514,0.549794 0.31901,0.797531 0.17794,0.355875 0.30623,0.771961 0.47852,1.116542 0.0567,0.113426 -0.0567,0.311922 0,0.425349 0.0567,0.113316 0.1191,0.452993 0.0532,0.584856 -0.0356,0.07121 -0.12684,0.07367 -0.15951,0.106336 -0.0125,0.01254 0.008,0.03732 0,0.05317 -0.0356,0.07121 -0.12684,0.07367 -0.1595,0.106336 -0.11001,0.110008 0.16811,-0.0043 -0.0532,0.106339 -0.0733,0.03667 -0.0476,-0.06439 -0.10634,0.05317 -0.008,0.01585 0.0125,0.04064 0,0.05317 -0.0125,0.01254 -0.0406,-0.01254 -0.0532,0 -0.0307,0.03074 -0.25242,0.531174 -0.26584,0.584856 -0.0204,0.08153 0.0265,0.186272 0,0.265843 -0.11866,0.355983 -0.0403,0.759081 -0.1595,1.116541 -0.0266,0.07975 0.0266,0.186092 0,0.265846 -0.008,0.02379 -0.042,0.03075 -0.0532,0.05317 -0.0948,0.189693 0.0946,1.246338 0,1.435555 -0.0112,0.02241 -0.042,0.03075 -0.0532,0.05317 -0.0875,0.174918 0.0965,0.297362 -0.15951,0.425349 -0.0988,0.04941 -0.26647,-0.03524 -0.37218,0 -0.10083,0.03361 -0.22893,0.147201 -0.26584,0.159507 -0.0779,0.02596 -0.18615,-0.01992 -0.26585,0 -0.11428,0.02857 -0.22418,0.112091 -0.31901,0.159507 -0.10078,0.05039 -0.59949,0 -0.74436,0 -0.69076,0 -1.34787,0.02817 -2.02041,-0.106339 -0.13351,-0.0267 -0.20987,-0.123127 -0.31901,-0.159507 -0.0336,-0.01122 -0.0727,0.01122 -0.10634,0 -0.11331,-0.03777 -0.21318,-0.106587 -0.31901,-0.159504 -0.0744,-0.0372 -0.18809,-0.01429 -0.26584,-0.05317 -0.0851,-0.04253 -0.12761,-0.170137 -0.21268,-0.212674 -0.0317,-0.01585 -0.0746,0.01585 -0.10634,0 -0.0448,-0.02241 -0.0646,-0.07853 -0.10633,-0.106336 -0.23222,-0.154811 0.0175,0.02357 -0.21268,-0.05317 -0.0476,-0.01585 -0.0588,-0.09049 -0.10634,-0.106339 -0.0788,-0.02625 -0.31706,-0.02561 -0.37218,-0.05317 -0.0159,-0.0079 0.0159,-0.04524 0,-0.05317 -0.0317,-0.01585 -0.0727,0.01122 -0.10634,0 -0.0682,-0.02273 -0.14446,-0.0836 -0.21267,-0.106339 -0.0336,-0.01122 -0.0727,0.01122 -0.10634,0 -0.0529,-0.01765 -0.10656,-0.08869 -0.1595,-0.106336 -0.0229,-0.0076 -0.20284,-0.04333 -0.21268,-0.05317 -0.009,-0.0094 -0.0686,-0.121751 -0.10634,-0.159505 -0.0572,-0.05716 -0.16763,-0.0613 -0.21267,-0.106338 -0.0125,-0.01254 0.0125,-0.04064 0,-0.05317 -0.0281,-0.02813 -0.22921,-0.04401 -0.26584,-0.05317 -0.116,-0.029 -0.27247,-0.146201 -0.37218,-0.212675 -0.12215,-0.08143 0.0228,-0.03037 -0.10634,-0.159507 -0.12914,-0.129138 -0.0781,0.01582 -0.15951,-0.106338 -0.10178,-0.152668 -0.20906,-0.278755 -0.31901,-0.42535 -0.0796,-0.10618 -0.0643,-0.213942 -0.10634,-0.319011 -0.0237,-0.05933 -0.0778,-0.102351 -0.10634,-0.159506 -0.0462,-0.09246 -0.0857,-0.268838 -0.10633,-0.372182 -0.0174,-0.08689 0.0174,-0.178948 0,-0.265842 -0.0248,-0.124159 -0.0572,-0.220835 -0.10634,-0.319014 -0.0182,-0.03641 -0.01,-0.71583 0,-0.74436 0.008,-0.02379 0.042,-0.03075 0.0532,-0.05317 0.0454,-0.09082 0.0206,-0.274444 0.0532,-0.372182 0.008,-0.02379 0.0452,-0.02939 0.0532,-0.05317 0.0291,-0.08739 -0.0413,-0.236444 0,-0.319013 0.0995,-0.19908 0.10197,-0.407908 0.1595,-0.638024 0.0532,-0.212863 0.22989,-0.422291 0.26585,-0.638024 0.0366,-0.219824 0.0379,-0.43257 0.10633,-0.638025 0.0159,-0.04756 0.0905,-0.05878 0.10634,-0.106336 0.0112,-0.03363 -0.0112,-0.07271 0,-0.106338 0.0159,-0.04756 0.0839,-0.0615 0.10634,-0.106336 0.0238,-0.04756 -0.0168,-0.109067 0,-0.159507 0.0362,-0.108514 0.11853,-0.196099 0.1595,-0.319013 0.0582,-0.174528 -0.0446,-0.406443 0,-0.584854 0.17854,-0.714134 -0.019,-1.519163 0.15951,-2.233086 0.0586,-0.234259 0.18246,-0.502687 0.21267,-0.744363 0.0238,-0.190711 -0.0372,-0.350999 0.0532,-0.531685 0.0651,-0.1303 0.24503,-0.167193 0.31902,-0.265843 0.0729,-0.09726 0.0866,-0.274918 0.1595,-0.372181 0.0238,-0.0317 0.0746,-0.02939 0.10634,-0.05317 0.18605,-0.139536 0.0431,-0.05741 0.15951,-0.212675 0.10416,-0.138883 0.26091,-0.23867 0.37218,-0.372182 0.0847,-0.101663 0.31774,-0.425349 0.47851,-0.425349 0.0405,0 0.23543,0.03042 0.26585,0 0.0125,-0.01254 -0.0125,-0.04064 0,-0.05317 0.0125,-0.01254 0.0373,0.0079 0.0532,0 0.15522,-0.07761 0.29439,-0.01429 0.37218,-0.05317 0.026,-0.01299 0.1096,-0.103073 0.1595,-0.05317 0.0125,0.01254 0,0.03545 0,0.05317 0.0177,0 0.0406,-0.01254 0.0532,0 0.0639,0.0639 -0.0312,0.178173 -0.0532,0.265846 z"
       id="path16" /></g></svg>
