<?xml version="1.0" encoding="UTF-8" standalone="no"?>
<!-- Created with Inkscape (http://www.inkscape.org/) -->

<svg
   width="16.840498"
   height="38.489594"
   viewBox="0 0 4.4557151 10.183705"
   version="1.1"
   id="svg1"
   xml:space="preserve"
   xmlns="http://www.w3.org/2000/svg"
   xmlns:svg="http://www.w3.org/2000/svg"><defs
     id="defs1" /><g
     id="layer1"
     transform="translate(-270.62513,-77.536923)"><path
       style="fill:#000000;fill-opacity:0.498525;stroke-width:0.264583"
       d="m 270.62948,77.587051 c 0.0314,0.112149 -0.0188,0.231066 0,0.344257 0.035,0.209878 0.14925,0.395994 0.25818,0.559416 0.005,0.008 0.0386,0.167722 0.043,0.17213 0.0101,0.01013 0.0329,-0.01013 0.043,0 0.0251,0.02519 0.074,0.228013 0.0861,0.258194 0.0692,0.172958 0.1551,0.318699 0.25821,0.473353 0.0659,0.09886 0.0246,-0.01844 0.12909,0.08607 0.0228,0.02267 0.0204,0.06338 0.043,0.08606 0.0228,0.02268 0.0594,0.02524 0.0861,0.04303 0.0954,0.06359 0.22823,0.209984 0.30123,0.301225 0.0235,0.02928 0.38089,0.583234 0.38729,0.602451 0.10073,0.302244 -0.0915,-0.07274 0.043,0.129096 0.10975,0.164629 0.0337,0.273351 0.0861,0.430323 0.006,0.01923 0.0381,0.02336 0.043,0.04303 0.014,0.05566 -0.018,0.117697 0,0.172127 0.0243,0.07335 0.0204,0.14717 0.043,0.215162 0.009,0.02627 0.0773,0.102836 0.0861,0.129096 0.0183,0.05443 -0.014,0.116467 0,0.17213 0.0363,0.145314 0.0566,0.283048 0.086,0.430321 0.0622,0.311102 0.20418,0.622543 0.25821,0.946708 0.005,0.0283 0,0.05738 0,0.08607 0,0.04303 -0.007,0.08665 0,0.129096 0.0387,0.232193 0.0861,0.39946 0.0861,0.645483 0,0.06052 0.019,0.158242 0,0.215161 -0.0317,0.09515 -0.10538,0.16332 -0.12912,0.258194 -0.007,0.02783 0.009,0.05885 0,0.08606 -0.0193,0.05773 -0.10186,0.07466 -0.12909,0.129095 -0.0127,0.02566 0.009,0.05885 0,0.08607 -0.019,0.05688 -0.10165,0.117277 -0.12909,0.172128 -0.013,0.02609 -0.0251,0.111064 -0.043,0.129098 -0.0101,0.01013 -0.0302,-0.0064 -0.043,0 -0.12501,0.06251 -0.22614,0.222483 -0.34425,0.301225 -0.11305,0.07537 -0.23119,0.139785 -0.34425,0.21516 -0.057,0.03797 -0.44069,0.494061 -0.47336,0.559419 -0.0594,0.118694 -0.0721,0.273325 -0.12909,0.387289 -0.0196,0.039 0,0.176974 0,0.215162 0,0.08705 -0.0204,0.219413 0,0.301225 0.0339,0.135631 0.61426,0.4499 0.73155,0.473353 0.0422,0.0084 0.0873,-0.01043 0.12909,0 0.0204,0.0051 0.10863,0.08095 0.12909,0.08607 0.14173,0.03543 0.65749,0.0964 0.81761,0.04303 0.26951,-0.08984 0.49543,-0.272912 0.73155,-0.430324 0.0901,-0.06006 0.082,-0.155096 0.17214,-0.215159 0.16041,-0.10695 0.28032,-0.226869 0.38729,-0.387292 0.0659,-0.09886 0.0246,0.01844 0.12909,-0.08606 0.0444,-0.04441 0.0625,-0.125058 0.0861,-0.172128 0.0429,-0.08584 0.1292,-0.172352 0.17211,-0.258193 0.0596,-0.119168 0.098,-0.262909 0.12909,-0.387289 0.0188,-0.07494 0.0709,-0.139417 0.0861,-0.215162 0.014,-0.07033 -0.0227,-0.147122 0,-0.215162 0.028,-0.08403 0.089,-0.177959 0.12912,-0.258194 0.0427,-0.08551 0,-1.15712 0,-1.333997 0,-0.327038 0.0233,-0.664641 0,-0.98974 -0.019,-0.268121 -0.10864,-0.563639 -0.17214,-0.817613 -0.0703,-0.28094 -0.023,0.162584 -0.0861,-0.215159 -0.0188,-0.111988 -0.0156,-0.234122 -0.043,-0.344257 -0.0366,-0.1464 -0.12454,-0.287507 -0.17214,-0.430324 -0.0167,-0.05002 -0.0201,-0.126558 -0.043,-0.172127 -0.18817,-0.376322 -0.59087,-0.590844 -0.86066,-0.860645 -0.0228,-0.02267 -0.0204,-0.06338 -0.043,-0.08606 -0.10869,-0.108697 -0.0496,-0.01654 -0.12909,-0.04303 -0.0491,-0.01635 -0.0789,-0.07352 -0.12912,-0.08607 -0.15819,-0.03955 -0.0928,0.04873 -0.21516,-0.04303 -0.17034,-0.127755 -0.003,-0.04578 -0.17211,-0.215162 -0.0366,-0.03657 -0.096,-0.04633 -0.12912,-0.08606 -0.0411,-0.04928 -0.0488,-0.119928 -0.086,-0.172127 -0.066,-0.09234 -0.20897,-0.227407 -0.30123,-0.301226 -0.15875,-0.126987 -0.34935,-0.189875 -0.51638,-0.301225 -0.0684,-0.04561 -0.0829,-0.11054 -0.1291,-0.17213 -0.0998,-0.133096 -0.26442,-0.137375 -0.38729,-0.301226 -0.0614,-0.08189 -0.11073,-0.176305 -0.17214,-0.258193 -0.0554,-0.07384 -0.22138,-0.218274 -0.30123,-0.258191 -0.013,-0.0064 -0.0329,0.01013 -0.043,0 -0.01,-0.01013 0.0101,-0.03289 0,-0.04304 -0.0288,-0.02884 -0.28231,0.03925 -0.30123,0.04304 z"
       id="path33" /></g></svg>
