<?xml version="1.0" encoding="UTF-8" standalone="no"?>
<!-- Created with Inkscape (http://www.inkscape.org/) -->

<svg
   width="379.44693"
   height="171.33086"
   viewBox="0 0 100.39533 45.331288"
   version="1.1"
   id="svg1"
   xml:space="preserve"
   xmlns="http://www.w3.org/2000/svg"
   xmlns:svg="http://www.w3.org/2000/svg"><defs
     id="defs1" /><g
     id="layer1"
     transform="translate(-129.73572,-38.544751)"><path
       style="fill:#000000;fill-opacity:0.498525;stroke-width:0.264583"
       d="m 132.3116,41.174164 c -0.24045,0.09739 -0.63944,-0.115779 -0.871,0 -0.14242,0.07121 -0.23467,0.472221 -0.31672,0.554268 -0.0187,0.01865 -0.0605,-0.01865 -0.0792,0 -0.0187,0.01865 0.0187,0.06052 0,0.07918 -0.0187,0.01865 -0.0605,-0.01865 -0.0792,0 -0.0187,0.01865 0.0118,0.05557 0,0.07918 -0.0334,0.06677 -0.12498,0.09159 -0.15837,0.158361 -0.0777,0.155339 0,1.7023 0,1.979527 0,0.211066 0.0923,0.686306 0,0.870993 -0.0866,0.173257 -0.10859,0.454723 -0.15836,0.554268 -0.0334,0.06677 -0.13475,0.08754 -0.15836,0.158361 -0.0167,0.05008 0.0236,0.111148 0,0.158361 -0.079,0.158075 -0.3959,0.351178 -0.3959,0.475088 0,0.139727 -0.23268,0.227812 -0.31673,0.395904 -0.0946,0.189241 0,0.651314 0,0.870993 0,0.05279 -0.0373,0.121036 0,0.158363 0.0186,0.01865 0.0605,-0.01865 0.0792,0 0.0264,0.02641 0.0528,0.211148 0.0792,0.237543 0.0264,0.02641 0.21115,0.05279 0.23755,0.07918 0.0187,0.01865 -0.0187,0.06052 0,0.07918 0.11403,0.114033 0.29533,0.165873 0.3959,0.316725 0.11627,0.174403 0.10004,0.220924 0.15836,0.395904 0.0236,0.07082 0.12498,0.09159 0.15837,0.158364 0.0422,0.08446 -0.0422,0.232264 0,0.316724 0.0118,0.0236 0.0674,-0.0236 0.0792,0 0.12552,0.25104 -0.14771,1.356731 -0.0792,1.425261 0.106,0.106005 1.02311,0.347281 1.18771,0.237542 0.0491,-0.03274 0.0301,-0.125626 0.0792,-0.158363 0.0439,-0.02928 0.10829,0.01669 0.15837,0 0.13943,-0.04648 0.11864,-0.158361 0.23754,-0.158361 0.12917,0 0.40609,-0.05882 0.47508,0.07918 0.048,0.09595 0.12149,0.28526 0.15837,0.395904 0.0454,0.136138 0.026,2.376511 0,2.454613 -0.0118,0.03541 -0.0674,0.04377 -0.0792,0.07918 -0.094,0.281863 -0.36157,1.810668 -0.23755,2.058707 0.035,0.06997 0.91066,0.851236 0.95018,0.870992 0.11445,0.05723 0.37322,0.01127 0.47508,0.07918 0.0491,0.03274 0.0375,0.116629 0.0792,0.158361 0.0933,0.09332 0.20692,0.164341 0.31673,0.237543 0.0999,0.0666 0.40537,0.08864 0.47508,0.158364 0.0187,0.01865 -0.0187,0.06052 0,0.07918 0.0238,0.02376 0.95037,0.10564 1.10854,0.158364 0.5273,0.175765 1.00001,0.460412 1.50444,0.712629 0.17993,0.08997 0.44432,0.348623 0.63345,0.395906 0.60404,0 -0.0625,-0.03541 0.3959,0.07918 0.34723,0.0868 1.38758,-0.02074 1.66281,-0.158364 0.12485,-0.06242 0.40764,0 0.55427,0 0.3098,0 0.64904,-0.03011 0.95017,0 0.0831,0.0083 0.15472,0.06883 0.23754,0.07918 0.13095,0.01638 0.26496,-0.01638 0.39591,0 0.2636,0.03295 0.52892,0.114549 0.79181,0.158361 0.17322,0.02887 0.3833,-0.04274 0.55426,0 0.22647,0.05662 0.43704,0.139335 0.63345,0.237543 0.13395,0.06698 0.38006,-0.04751 0.63345,0.07918 0.23227,0.116134 0.63873,-0.116131 0.87099,0 0.31936,0.159676 0.80124,0.267078 1.18772,0.395907 0.11641,0.0388 0.21917,0.213151 0.31673,0.237543 0.24123,0.06031 0.47203,0.03806 0.71262,0.158361 0.1807,0.09035 0.21814,0.178287 0.39591,0.237543 0.10324,0.03441 0.2167,0.03631 0.31673,0.07918 0.32126,0.137684 0.58409,0.442183 0.87099,0.63345 0.19833,0.132223 0.44892,0.248282 0.63345,0.395904 0.18606,0.148855 0.28895,0.271817 0.47508,0.395907 0.40001,0.26667 0.002,5.29e-4 0.23754,0.07918 0.16153,0.05384 0.26007,0.169625 0.39591,0.237543 0.11458,0.05729 0.27319,0.0485 0.39591,0.07918 0.26009,0.06502 0.48176,0.201289 0.71263,0.316724 0.26281,0.131406 1.02689,-0.07979 1.34607,0 0.18603,0.04651 0.59189,0.179144 0.79181,0.07918 0.24209,-0.121041 1.41096,-0.48224 1.74199,-0.316725 0.2021,0.101053 0.19937,0.01368 0.3959,0.07918 0.0354,0.0118 0.0438,0.06738 0.0792,0.07918 0.16135,0.05378 0.59774,0.02175 0.71262,0.07918 0.40627,0.203134 1.22476,0.109514 1.66281,0 0.27686,-0.06921 1.77183,-0.03586 2.05871,0 0.38369,0.04796 0.57813,0.249476 0.87099,0.395907 0.13815,0.06908 2.63716,0.04472 2.77133,0 0.12185,-0.04062 0.4849,-0.168172 0.55427,-0.237543 0.0187,-0.01865 -0.0118,-0.05558 0,-0.07918 0.059,-0.117985 0.35711,-0.416094 0.47509,-0.475086 0.0236,-0.0118 0.0605,0.01865 0.0792,0 0.0187,-0.01865 -0.0187,-0.06052 0,-0.07918 0.0308,-0.03085 0.26841,0 0.31673,0 0.3805,0 1.45409,-0.09596 1.74198,0 0.13963,0.04654 0.23734,0.184689 0.3959,0.237542 0.025,0.0083 0.0605,-0.01865 0.0792,0 0.16383,0.163828 -0.25036,-0.0064 0.0792,0.158361 0.0236,0.0118 0.0528,0 0.0792,0 0.0528,0.02641 0.10925,0.04644 0.15836,0.07918 0.12326,0.08218 0.15996,0.200345 0.23754,0.316725 0.056,0.08397 0.22706,0.271891 0.31673,0.316725 0.0236,0.0118 0.0605,-0.01865 0.0792,0 0.0187,0.01865 -0.0187,0.06052 0,0.07918 0.10557,0.105574 0.076,-0.167971 0.15836,0.07918 0.0167,0.05008 -0.0167,0.108283 0,0.158364 0.034,0.101965 0.20356,0.214757 0.23754,0.316724 0.0167,0.05008 -0.0167,0.108284 0,0.158361 0.0421,0.126162 0.20066,0.248352 0.23755,0.395907 0.0128,0.05121 -0.0167,0.108283 0,0.158361 0.0349,0.104667 0.18708,0.215794 0.23754,0.316725 0.0343,0.06853 0.0352,0.431157 0.0792,0.475086 0.0317,0.03169 0.10063,0.04288 0.15837,0.158361 0.0118,0.0236 -0.0187,0.06052 0,0.07918 0.0186,0.01865 0.0605,-0.01865 0.0792,0 0.004,0.0043 0.15408,0.233254 0.15837,0.237543 0.16383,0.16383 -0.006,-0.250352 0.15836,0.07918 0.0118,0.0236 -0.0186,0.06052 0,0.07918 0.0638,0.0638 0.50922,0.0454 0.55427,0.07918 0.27683,0.207622 0.52491,0.49022 0.79181,0.712632 0.23498,0.195813 0.57692,0.339381 0.79181,0.554268 0.0417,0.04173 0.0464,0.109254 0.0792,0.158361 0.12531,0.187965 0.38244,0.346217 0.55427,0.475085 0.10162,0.07622 0.75599,0.446337 0.87099,0.475089 0.0512,0.01281 0.10828,-0.01669 0.15836,0 0.0354,0.0118 0.0528,0.05279 0.0792,0.07918 0.0528,0.02641 0.10238,0.06052 0.15836,0.07918 0.0501,0.01669 0.11115,-0.0236 0.15837,0 0.0785,0.03928 0.15552,0.131024 0.23754,0.158364 0.0751,0.02503 0.16672,-0.03541 0.23754,0 0.17913,0.08956 0.29105,0.09701 0.47509,0.158361 0.0354,0.0118 0.0438,0.06738 0.0792,0.07918 0.30091,0.1003 0.7888,0 1.10854,0 0.22794,0 1.09939,0.08375 1.26689,0 0.13405,-0.06703 0.4429,-0.284539 0.55427,-0.395907 0.0187,-0.01865 -0.0236,-0.06738 0,-0.07918 0.0472,-0.0236 0.11115,0.0236 0.15836,0 0.0236,-0.0118 -0.0118,-0.05557 0,-0.07918 0.0575,-0.115001 0.24876,-0.0904 0.31673,-0.158364 0.0187,-0.01865 -0.0187,-0.06052 0,-0.07918 0.0345,-0.03456 0.39864,-0.199321 0.47509,-0.237546 0.0472,-0.0236 0.11114,0.0236 0.15836,0 0.0705,-0.03524 1.10048,-0.934074 1.10853,-0.950171 0.0118,-0.0236 -0.0187,-0.06052 0,-0.07918 0.0186,-0.01865 0.0605,0.01865 0.0792,0 0.16778,-0.167775 -0.32367,-0.884894 -0.3959,-1.029354 -0.0457,-0.09145 0,-0.378502 0,-0.475085 0,-0.277162 -0.16427,-0.413629 -0.23755,-0.63345 -0.0167,-0.05008 0.0167,-0.108283 0,-0.158361 -0.0611,-0.183182 -0.33286,-0.365128 -0.3959,-0.554268 -0.0831,-0.249441 -0.0404,-0.555876 -0.15836,-0.79181 -0.0236,-0.04722 0.0236,-0.111149 0,-0.158364 -0.0167,-0.03339 -0.0674,-0.04377 -0.0792,-0.07918 -0.0427,-0.128026 0,-0.335018 0,-0.475086 0,-0.02641 -0.025,-0.08753 0,-0.07918 0.27169,0.09056 0.40244,0.359582 0.63345,0.475089 0.0236,0.0118 0.0605,-0.01865 0.0792,0 0.0187,0.01865 -0.0187,0.06052 0,0.07918 0.0187,0.01865 0.0556,-0.0118 0.0792,0 0.095,0.04751 0.14252,0.190037 0.23754,0.237546 0.0708,0.03541 0.16243,-0.02503 0.23754,0 0.12403,0.04134 0.25711,0.158361 0.39591,0.158361 0.18569,0 -0.0373,-0.01865 0.15836,0.07918 0.0634,0.03167 0.1742,-0.03167 0.23754,0 0.22675,0.113374 1.04615,1.746752 1.10854,2.058707 0.0207,0.103526 -0.0334,0.216566 0,0.316724 0.0957,0.287089 0.44403,0.666047 0.63345,0.950175 0.0861,0.129114 0.43702,0.440086 0.47508,0.554267 0.0167,0.05008 -0.0167,0.108284 0,0.158361 0.0236,0.07082 0.11696,0.09625 0.15837,0.158362 0.0972,0.145859 0.16842,0.336838 0.23754,0.475088 0.10495,0.209907 0.48069,0.333539 0.55427,0.554268 0.0167,0.05008 -0.0167,0.108283 0,0.158361 0.0118,0.03541 0.0625,0.0458 0.0792,0.07918 0.14551,0.291017 0.14963,0.671692 0.31672,0.950171 0.0384,0.06402 0.11695,0.09625 0.15836,0.158364 0.0899,0.134874 0.0852,0.487135 0.15837,0.633447 0.10556,0.211135 0.29034,0.343135 0.3959,0.554268 0.0636,0.127129 0.0893,0.271658 0.15837,0.395906 0.0641,0.115361 0.15836,0.211148 0.23754,0.316725 0.0792,0.131969 0.1628,0.261371 0.23754,0.395904 0.12517,0.225298 0.17518,0.500319 0.31673,0.712631 0.0414,0.06211 0.12497,0.09159 0.15836,0.158361 0.0118,0.0236 -0.0187,0.06052 0,0.07918 0.16649,0.166489 0.49992,0.195623 0.63345,0.395904 0.27989,0.419846 0.76297,1.142095 1.18771,1.42526 0.17092,0.113948 0.66973,0.353007 0.79181,0.475086 0.0897,0.08974 0.10631,0.251108 0.23755,0.316725 0.10921,0.05461 0.0708,-0.09589 0.15836,0.07918 0.024,0.04799 0.046,0.204361 0.0792,0.237543 0.0187,0.01865 0.0674,-0.0236 0.0792,0 0.0236,0.04721 -0.0236,0.111148 0,0.158361 0.0118,0.0236 0.0605,-0.01865 0.0792,0 0.0549,0.05486 0.0243,0.341045 0.0792,0.395906 0.0396,0.03959 0.11877,0.03959 0.15836,0.07918 0.0373,0.03732 -0.0236,0.111146 0,0.158361 0.0627,0.125357 0.23864,0.199583 0.31673,0.316725 0.0932,0.139801 0.16832,0.296968 0.31672,0.395907 0.17345,0.115625 0.32527,0.166901 0.47509,0.316722 0.53816,0.53816 0.37811,1.354084 0.55427,2.058709 0.0256,0.102423 -0.0256,0.214302 0,0.316725 0.009,0.03767 0.14894,0.199874 0.15836,0.237543 0.0322,0.128823 0.13121,1.031637 0.0792,1.187715 -0.0118,0.03541 -0.0625,0.0458 -0.0792,0.07918 -0.005,0.01072 -0.1186,1.26725 -0.0792,1.346078 0.11815,0.236299 0.43345,0.731403 0.71263,0.870992 0.10489,0.05244 0.43032,0 0.55427,0 0.0951,0 0.31264,0.04163 0.3959,0 0.38998,-0.19499 1.42125,-0.07918 1.90035,-0.07918 0.69842,0 1.36437,-0.168108 2.05871,-0.237543 0.23901,-0.02389 0.55554,0.05907 0.79181,0 0.0377,-0.0094 0.19987,-0.148944 0.23754,-0.158361 0.26835,-0.06709 0.60944,0.08718 0.87099,0 0.16257,-0.05419 0.2295,-0.195942 0.39591,-0.237543 0.0512,-0.01281 0.10828,0.0167 0.15836,0 0.16574,-0.05525 0.30934,-0.340658 0.47509,-0.395906 0.0501,-0.01669 0.10715,0.01281 0.15836,0 0.25796,-0.06449 0.4193,-0.288833 0.63345,-0.395904 0.0677,-0.03386 0.16982,-0.04532 0.23754,-0.07918 0.0668,-0.03338 0.0875,-0.134755 0.15836,-0.158364 0.0501,-0.0167 0.11115,0.0236 0.15837,0 0.0236,-0.0118 -0.0187,-0.06052 0,-0.07918 0.0187,-0.01865 0.0556,0.0118 0.0792,0 0.095,-0.04751 0.14252,-0.190034 0.23754,-0.237543 0.12824,-0.06412 0.26277,-0.148786 0.3959,-0.237545 0.19539,-0.130255 1.21344,-0.580494 1.42526,-0.633447 0.27397,-0.06849 0.54123,-0.05855 0.79182,-0.237543 0.96885,-0.692039 -0.33074,0.123121 0.3959,-0.395907 0.28526,-0.203758 0.62075,-0.383206 0.87099,-0.633449 0.0673,-0.06729 0.0911,-0.170252 0.15837,-0.237543 0.23162,-0.231624 0.75377,-0.258117 1.02935,-0.395904 0.11522,-0.05761 0.41634,-0.303956 0.55427,-0.395907 0.19695,-0.131305 0.009,-0.0182 0.0792,-0.158361 0.0792,-0.158364 0.31672,-0.237543 0.3959,-0.395906 0.27785,-0.555689 0.58814,-1.176274 0.87099,-1.741983 0.12658,-0.25315 0.54248,-0.530685 0.71264,-0.870992 0.0264,-0.05279 0.13196,-0.02641 0.15836,-0.07918 0.0236,-0.04721 -0.0167,-0.108283 0,-0.158361 0.0317,-0.09502 0.20587,-0.142526 0.23754,-0.237543 0.0558,-0.167468 0.0476,-0.308917 0.15836,-0.475088 0.19181,-0.287703 0.46615,-0.298842 0.63345,-0.633447 0.0929,-0.185756 0.18944,-0.442527 0.31673,-0.63345 0.0687,-0.103095 0.18294,-0.207523 0.23754,-0.316725 0.0333,-0.06654 0.0332,-0.270705 0.0792,-0.316724 0.0186,-0.01865 0.0605,0.01865 0.0792,0 0.0373,-0.03732 -0.0236,-0.111147 0,-0.158361 0.0572,-0.114322 0.1012,-0.202404 0.15836,-0.316725 0.0669,-0.133752 0,-0.845082 0,-1.029354 0,-0.548365 0.0792,-1.035108 0.0792,-1.583621 0,-0.03261 0.021,-0.216585 0,-0.237546 -0.0844,-0.08439 -0.32785,0.112581 -0.23754,-0.158361 0.0523,-0.156868 0.1996,-0.437144 0.31673,-0.554267 0.0417,-0.04173 0.11663,-0.03745 0.15836,-0.07918 0.0417,-0.04173 0.0374,-0.116628 0.0792,-0.158361 0.16383,-0.16383 -0.006,0.250351 0.15836,-0.07918 0.0118,-0.0236 -0.0187,-0.06052 0,-0.07918 0.42628,-0.426281 1.89488,-0.237543 2.45461,-0.237543 0.37581,0 0.67634,-0.22847 1.02936,-0.316725 0.17389,-0.04347 0.38038,0.04347 0.55427,0 0.29608,-0.07402 0.86944,-0.185269 1.18771,-0.07918 0.0789,0.02627 0.15869,0.132078 0.23755,0.158361 0.0244,0.0081 0.29233,0.07105 0.31672,0.07918 0.28505,0.09502 0.66512,-0.09502 0.95017,0 0.4163,0.138766 0.9178,0.559075 1.2669,0.791811 0.0901,0.06008 0.21266,0.0445 0.31673,0.07918 0.0708,0.0236 0.0916,0.124976 0.15836,0.158361 0.0633,0.03167 0.1742,-0.03167 0.23754,0 0.32953,0.164766 -0.0846,-0.0055 0.0792,0.158363 0.0417,0.04173 0.11663,0.03745 0.15836,0.07918 0.07,0.06999 0.20118,0.359542 0.23755,0.395906 0.0186,0.01865 0.0605,-0.01865 0.0792,0 0.0528,0.05281 -0.0528,0.105556 0,0.158361 0.0468,0.04682 0.59639,0.01236 0.63345,0 0.16072,-0.05357 0.24236,-0.319135 0.3959,-0.395904 0.17182,-0.08591 0.29688,-0.3068 0.47509,-0.395906 0.0236,-0.0118 0.0605,0.01865 0.0792,0 0.0187,-0.01865 0,-0.05279 0,-0.07918 0.0264,-0.02641 0.0481,-0.05848 0.0792,-0.07918 0.16377,-0.109181 0.3085,-0.102833 0.47509,-0.158364 0.0354,-0.0118 0.0438,-0.06738 0.0792,-0.07918 0.076,-0.02535 0.24073,0.038 0.31672,0 0.2751,-0.137549 0.44032,-0.422931 0.63345,-0.712632 0.0366,-0.05494 -0.0298,-0.177993 0,-0.237543 0.0474,-0.09474 0.14539,-0.263493 0.0792,-0.395904 -0.19844,-0.396877 -0.47784,-0.812056 -0.71263,-1.187717 -0.0699,-0.111908 -0.17852,-0.198689 -0.23754,-0.316725 -0.23174,-0.463468 0.0445,-0.170857 -0.15836,-0.475085 -0.096,-0.144061 -0.1603,-0.0019 -0.23755,-0.07918 -0.005,-0.0049 -0.21875,-0.358323 -0.23754,-0.395904 -0.0343,-0.06863 -0.0427,-0.627166 0,-0.712632 0.0577,-0.11548 0.12667,-0.126666 0.15836,-0.158361 0.0186,-0.01865 -0.0187,-0.06052 0,-0.07918 0.0861,-0.08615 0.50988,-0.175754 0.63345,-0.237542 0.16424,-0.08212 0.36441,-0.269262 0.55427,-0.316725 0.25746,-0.06437 0.47827,-0.120367 0.71263,-0.237543 0.20027,-0.100137 0.87957,0.141203 1.02935,-0.158364 0.0236,-0.04721 -0.0196,-0.109349 0,-0.158361 0.10615,-0.265377 0.27113,-0.463074 0.39591,-0.712629 0.18977,-0.379539 0.30275,-0.756414 0.55427,-1.108535 0.18239,-0.255355 0.45941,-0.451578 0.63345,-0.712631 0.26275,-0.394126 0.87099,-1.531864 0.87099,-1.979526 0,-0.118448 0.068,-0.565435 0,-0.633449 -0.0187,-0.01865 -0.0556,0.0118 -0.0792,0 -0.21317,-0.106585 -0.37201,-0.02764 -0.47509,-0.07918 -0.0668,-0.03339 -0.0962,-0.116951 -0.15836,-0.158361 -0.0993,-0.06619 -0.32566,-0.08812 -0.39591,-0.158364 -0.0187,-0.01865 0.0118,-0.05557 0,-0.07918 -0.0656,-0.131233 -0.22698,-0.147804 -0.31672,-0.237545 -0.14028,-0.140277 -0.17353,-0.411068 -0.31673,-0.554265 -0.0396,-0.03959 -0.11877,-0.03959 -0.15836,-0.07918 -0.0187,-0.01865 0.0186,-0.06052 0,-0.07918 -0.0187,-0.01865 -0.0556,0.0118 -0.0792,0 -0.12079,-0.06039 -0.19863,-0.178499 -0.31673,-0.237543 -0.0472,-0.0236 -0.10828,0.01669 -0.15836,0 -0.12792,-0.04264 -0.43238,-0.194845 -0.47508,-0.237543 -0.0295,-0.02949 0.009,-1.038109 0.0792,-1.108535 0.10356,-0.103566 0.24013,-0.163537 0.31672,-0.316725 0.0718,-0.143597 0.0331,-0.32131 0.0792,-0.475086 0.0648,-0.215998 0.1538,-0.424072 0.23755,-0.63345 0.0685,-0.17123 0.25616,-0.433154 0.31672,-0.554267 0.25699,-0.513982 0.57394,-1.068697 0.79181,-1.50444 0.17664,-0.353269 -0.19903,-0.477239 -0.31672,-0.712631 -0.0118,-0.0236 0.0187,-0.06052 0,-0.07918 -0.0187,-0.01865 -0.0605,0.01865 -0.0792,0 -0.0475,-0.04753 -0.0648,-0.175162 -0.15837,-0.237546 -0.0993,-0.06621 -0.25638,-0.116856 -0.31672,-0.237543 -0.0472,-0.09434 -0.0869,-0.3244 -0.15836,-0.395904 -0.0186,-0.01865 -0.0605,0.01865 -0.0792,0 -0.005,-0.0049 -0.21876,-0.358322 -0.23755,-0.395906 -0.0236,-0.04722 0.0236,-0.111146 0,-0.158361 -0.0687,-0.13742 -0.23091,-0.303472 -0.31672,-0.475089 -0.0559,-0.111773 -0.15587,-0.117525 -0.23754,-0.158361 -0.32954,-0.164766 0.0846,0.0055 -0.0792,-0.158361 -0.0264,-0.02641 -0.21114,-0.05279 -0.23754,-0.07918 -0.0406,-0.04065 -0.17304,-0.324064 -0.31672,-0.395906 -0.10091,-0.05045 -0.53254,-0.107908 -0.63345,-0.158361 -0.13237,-0.06618 -0.25692,-0.191212 -0.39591,-0.237543 -0.0501,-0.0167 -0.10828,0.01669 -0.15836,0 -0.16783,-0.05594 -0.31531,-0.157655 -0.47509,-0.237543 -0.28088,-0.140441 -1.38262,0.140086 -1.6628,0 -0.23301,-0.116509 0.12291,-0.07918 -0.23754,-0.07918 -0.22633,0 -0.57773,0.07136 -0.79181,0 -0.24129,-0.08043 -0.49975,-0.131098 -0.71263,-0.237543 -0.16699,-0.0835 -0.66489,0.126921 -0.79181,0 -0.0187,-0.01865 0.0187,-0.06052 0,-0.07918 -0.0373,-0.03732 -0.10558,0 -0.15837,0 -0.14193,0 -0.50526,-0.06409 -0.63345,0 -0.0668,0.03339 -0.0916,0.124976 -0.15836,0.158364 -0.0472,0.0236 -0.11115,-0.0236 -0.15836,0 -0.0442,0.02209 -0.2953,0.216119 -0.31672,0.237543 -0.25109,0.251087 -0.19239,0.769233 -0.55427,0.950171 -0.13045,0.06523 -0.92271,0 -1.02935,0 -0.62982,0 -1.35224,0.115695 -1.90035,-0.158361 -0.1332,-0.0666 -0.54195,-0.02228 -0.71263,-0.07918 -0.19322,-0.06441 -0.37076,-0.224968 -0.55427,-0.316725 -0.0841,-0.04205 -0.24614,-0.0086 -0.31672,-0.07918 -0.0187,-0.01865 0.0187,-0.06052 0,-0.07918 -0.0962,-0.09619 -0.35526,-0.256808 -0.47509,-0.316725 -0.0236,-0.0118 -0.0528,0 -0.0792,0 -0.0528,-0.02641 -0.10926,-0.04645 -0.15836,-0.07918 -0.0621,-0.04141 -0.0916,-0.124976 -0.15836,-0.158361 -0.0472,-0.0236 -0.12104,0.03733 -0.15837,0 -0.0187,-0.01865 0.0118,-0.05557 0,-0.07918 -0.0729,-0.145772 -0.16465,-0.01259 -0.23754,-0.158361 -0.0706,-0.141123 -0.16469,-0.329377 -0.23754,-0.475088 -0.0236,-0.04721 0.0373,-0.121034 0,-0.158361 -0.0187,-0.01865 -0.0605,0.01865 -0.0792,0 -0.0187,-0.01865 0.0118,-0.05557 0,-0.07918 -0.0334,-0.06677 -0.12498,-0.09159 -0.15837,-0.158361 -0.0118,-0.0236 0.0187,-0.06052 0,-0.07918 -0.30902,-0.309023 -0.0425,0.01834 -0.23754,-0.07918 -0.0668,-0.03339 -0.0916,-0.124979 -0.15836,-0.158364 -0.12015,-0.06008 -0.26774,-0.07292 -0.39591,-0.158361 -0.10894,-0.07263 -0.2766,-0.276958 -0.3959,-0.316725 -0.0501,-0.01669 -0.10829,0.01669 -0.15836,0 -0.14266,-0.04755 -0.27359,-0.304168 -0.39591,-0.395907 -0.0761,-0.0571 -0.17025,-0.09107 -0.23754,-0.158361 -0.0417,-0.04173 -0.0375,-0.116631 -0.0792,-0.158363 -0.059,-0.05902 -0.17852,-0.02016 -0.23754,-0.07918 -0.0187,-0.01865 0.0187,-0.06052 0,-0.07918 -0.0366,-0.0366 -0.18973,0.02389 -0.23754,0 -0.0719,-0.03597 -0.52043,-0.407416 -0.55427,-0.475086 -0.0236,-0.04722 0.0167,-0.108284 0,-0.158364 -0.0655,-0.19653 -0.15159,-0.382363 -0.23754,-0.554268 -0.0332,-0.06635 0.006,-0.368257 0,-0.395904 -0.0232,-0.115744 -0.11453,-0.207131 -0.15837,-0.316724 -0.0959,-0.239808 -0.13389,-0.505339 -0.23754,-0.712629 -0.0239,-0.04781 0.0366,-0.200943 0,-0.237546 -0.0186,-0.01865 -0.0605,0.01865 -0.0792,0 -0.0478,-0.04781 0,-0.399997 0,-0.475085 0,-0.645809 0.0675,-1.431111 -0.55427,-1.741983 -0.0633,-0.03167 -0.17419,0.03167 -0.23754,0 -0.43621,-0.218104 -0.53315,-0.04223 -0.71263,0.316722 -0.0393,0.07856 -0.13102,0.155528 -0.15836,0.237546 -0.13312,0.399338 0.10853,0.891463 -0.0792,1.266896 -0.0536,0.107149 0.0384,0.28075 0,0.395904 -0.12425,0.372759 -0.23207,0.701683 -0.39591,1.029357 -0.0406,0.08118 0.0223,0.227631 0,0.316724 -0.0634,0.253582 -0.15696,0.470892 -0.23754,0.712629 -0.0201,0.0603 -0.0641,0.460007 -0.0792,0.475086 -0.0961,0.09611 -0.47155,-0.0035 -0.55427,0.07918 -0.0187,0.01865 0.0187,0.06052 0,0.07918 -0.0187,0.01865 -0.0556,-0.0118 -0.0792,0 -0.0668,0.03339 -0.0916,0.124975 -0.15836,0.158361 -0.0472,0.0236 -0.11115,-0.0236 -0.15837,0 -0.19392,0.09696 -0.41093,0.08419 -0.63344,0.158361 -0.11878,0.03959 -0.0792,-0.07918 -0.23755,0 -0.0236,0.0118 0.0187,0.06052 0,0.07918 -0.059,0.05902 -0.15836,0.05279 -0.23754,0.07918 -0.0967,0.03224 -0.40697,-0.06811 -0.47509,0 -0.0529,0.05292 0.0529,0.105445 0,0.158361 -0.0373,0.03733 -0.11115,-0.0236 -0.15836,0 -0.15836,0.07918 -0.32326,0.14645 -0.47509,0.237543 -0.1148,0.06889 -0.41626,0.278263 -0.47508,0.395907 -0.0118,0.0236 0.0236,0.06738 0,0.07918 -0.0472,0.0236 -0.10829,-0.01669 -0.15836,0 -0.0903,0.03009 -0.15243,0.115803 -0.23755,0.158361 -0.38186,0.190929 -0.84692,0.34776 -1.02935,0.712629 -0.031,0.06195 -0.0179,0.421259 0,0.475088 0.0353,0.106045 0.66124,1.162024 0.71263,1.187715 0.11791,0.05896 0.38546,0.06874 0.47509,0.158363 0.16382,0.163828 -0.25036,-0.0064 0.0792,0.158361 0.10921,0.05461 0.0708,-0.09589 0.15836,0.07918 0.0118,0.0236 0,0.05279 0,0.07918 0.0264,0.05279 0.0464,0.109255 0.0792,0.158361 0.13231,0.198467 0.33627,0.394917 0.3959,0.63345 0.0373,0.149082 -0.0302,0.324218 0,0.475086 0.039,0.194823 0.0792,0.225406 0.0792,0.395906 0,0.100709 0.0641,0.569346 0,0.633447 -0.0187,0.01865 -0.0605,-0.01865 -0.0792,0 -0.0187,0.01865 0.0118,0.05558 0,0.07918 -0.0533,0.106635 -0.22482,0.191593 -0.31672,0.237543 -0.0819,0.04096 -1.53583,-0.05528 -1.58362,-0.07918 -0.19569,-0.09784 0.0273,-0.07918 -0.15836,-0.07918 -0.0326,0 -0.21659,0.02096 -0.23755,0 -0.0187,-0.01865 0.0187,-0.06052 0,-0.07918 -0.13196,-0.131969 -0.65984,0.131969 -0.79181,0 -0.0172,-0.01717 -0.0637,-0.150643 -0.0792,-0.158361 -0.0625,-0.07082 -0.16672,0.03541 -0.23754,0 -0.0668,-0.03339 -0.0916,-0.124979 -0.15837,-0.158364 -0.0472,-0.0236 -0.11114,0.0236 -0.15836,0 -0.14577,-0.07289 -0.30297,-0.180173 -0.47508,-0.237543 -0.14945,-0.04982 -0.32451,-0.0039 -0.47509,-0.07918 -0.0334,-0.01669 -0.0438,-0.06738 -0.0792,-0.07918 -0.0501,-0.01669 -0.10829,0.01669 -0.15836,0 -0.0708,-0.0236 -0.0916,-0.124978 -0.15836,-0.158364 -0.154,-0.077 -0.32288,-0.161435 -0.47509,-0.237542 -0.0334,-0.0167 -0.0528,-0.05279 -0.0792,-0.07918 -0.0264,-0.02641 -0.0458,-0.06249 -0.0792,-0.07918 -0.0236,-0.0118 -0.0528,0 -0.0792,0 -0.0792,-0.02641 -0.16597,-0.03624 -0.23754,-0.07918 -0.064,-0.03841 -0.0943,-0.119954 -0.15836,-0.158364 -0.1295,-0.0777 -0.34759,-0.09461 -0.47509,-0.158361 -0.2033,-0.10165 -0.42214,-0.211074 -0.63345,-0.316725 -0.14051,-0.07026 -0.24643,-0.187719 -0.3959,-0.237543 -0.0751,-0.02503 -0.16073,0.01921 -0.23754,0 -0.38236,-0.09559 0.004,-0.03763 -0.23755,-0.158361 -0.13374,-0.06687 -1.33144,0 -1.58362,0 -0.28797,0 -0.51054,-0.03231 -0.79181,-0.07918 -0.39633,-0.06606 -0.86064,0 -1.2669,0 -0.0797,0 -0.32054,-0.02511 -0.3959,0 -0.0354,0.0118 -0.0438,0.06738 -0.0792,0.07918 -0.0118,0.0039 -0.30692,0.07591 -0.31673,0.07918 -0.15827,0.05276 -0.46253,0 -0.63345,0 -0.72213,0 -1.82818,-0.129627 -2.45461,0.07918 -0.0751,0.02503 -0.16243,-0.02503 -0.23755,0 -0.0354,0.0118 -0.0458,0.06249 -0.0792,0.07918 -0.1307,0.06535 -0.34212,0.0127 -0.47509,0.07918 -0.49073,0.245364 -0.93443,0.451467 -1.2669,0.950175 -0.24691,0.370371 -0.27436,0.944636 -0.47509,1.346078 -0.0627,0.125357 -0.23863,0.199583 -0.31672,0.316725 -0.13169,0.197527 -0.22298,0.366781 -0.31672,0.554267 -0.0334,0.06677 -0.13476,0.08754 -0.15837,0.158361 -0.0517,0.155126 -0.0268,0.31795 -0.0792,0.475089 -0.20113,0.603393 -0.39584,1.227143 -0.63345,1.821164 -0.12927,0.323178 -0.25106,0.660498 -0.3959,0.950172 -0.0236,0.04721 0.0236,0.111148 0,0.158363 -0.0803,0.16052 -0.18908,0.281242 -0.23754,0.475086 -0.13978,0.559086 -0.21345,1.115436 -0.39591,1.662803 -0.0688,0.206481 -0.22806,0.376928 -0.31673,0.554268 -0.0383,0.07652 -0.24019,0.278463 -0.31672,0.316725 -0.0236,0.0118 -0.0605,-0.01865 -0.0792,0 -0.0186,0.01865 0.0118,0.05557 0,0.07918 -0.16477,0.329531 0.005,-0.08465 -0.15836,0.07918 -0.0187,0.01865 0.0187,0.06052 0,0.07918 -0.059,0.05902 -0.1681,0.03288 -0.23755,0.07918 -0.2132,0.142137 -0.4072,0.282784 -0.63345,0.395904 -0.076,0.03799 -0.14948,-0.0044 -0.31672,0.07918 -0.099,0.04948 -1.85123,0.02455 -1.90034,0 -0.21659,-0.108291 -0.41687,-0.208433 -0.63345,-0.316725 -0.16158,-0.08078 -1.74249,0.07969 -1.82117,0.158364 -0.0187,0.01865 0.0187,0.06052 0,0.07918 -0.0207,0.02074 -0.85176,0 -0.95017,0 -0.0951,0 -0.31265,0.04163 -0.39591,0 -0.11809,-0.05904 -0.19594,-0.177149 -0.31672,-0.237543 -0.12015,-0.06008 -0.26774,-0.07292 -0.39591,-0.158361 -0.26407,-0.176051 -0.50818,-0.412453 -0.79181,-0.554267 -0.0845,-0.04223 -0.23226,0.04223 -0.31672,0 -0.11809,-0.05905 -0.19594,-0.177152 -0.31673,-0.237543 -0.0472,-0.0236 -0.10828,0.01669 -0.15836,0 -0.2394,-0.0798 -0.39404,-0.236924 -0.63345,-0.316725 -0.10437,-0.03479 -0.3066,-0.03453 -0.3959,-0.07918 -0.0236,-0.0118 0.0187,-0.06052 0,-0.07918 -0.0443,-0.04434 -0.34433,0.0172 -0.39591,0 -0.12451,-0.04151 -0.2695,-0.195408 -0.3959,-0.237543 -0.13836,-0.04612 -0.25756,-0.03306 -0.39591,-0.07918 -0.0996,-0.0332 -0.19989,-0.119418 -0.31672,-0.158362 -0.0916,-0.03054 -0.23164,0.04254 -0.31673,0 -0.19936,-0.09968 -0.28087,-0.03063 -0.47508,-0.07918 -0.15115,-0.03779 -0.27166,-0.09624 -0.39591,-0.158361 -0.12669,-0.06334 -0.3484,0.06334 -0.47509,0 -0.16395,-0.08198 -0.31306,-0.156536 -0.47508,-0.237543 -0.21115,-0.105574 -0.58066,0.105574 -0.79181,0 -0.25092,-0.12546 -0.56992,-0.07918 -0.871,-0.07918 -0.50052,0 -0.92805,0.107712 -1.34607,0.316725 -0.0236,0.0118 -0.0605,-0.01865 -0.0792,0 -0.0187,0.01865 0.0187,0.06052 0,0.07918 -0.0187,0.01865 -0.0528,0 -0.0792,0 -0.0264,0.02641 -0.0585,0.04812 -0.0792,0.07918 -0.0327,0.04911 -0.0375,0.116631 -0.0792,0.158363 -0.0141,0.01408 -0.18132,0.102137 -0.23754,0.158361 -0.13398,0.133983 -0.30709,0.391089 -0.47509,0.475086 -0.0236,0.0118 -0.0605,-0.01865 -0.0792,0 -0.0187,0.01865 0.0186,0.06052 0,0.07918 -0.0525,0.0525 -0.39188,0 -0.47508,0 -0.33956,0 -0.74431,-0.06335 -1.02936,0.07918 -0.14781,0.0739 -0.40646,-0.0739 -0.55427,0 -0.0334,0.01669 -0.0458,0.06249 -0.0792,0.07918 -0.0692,0.03462 -1.09218,0.0082 -1.10853,0 -0.33101,-0.165502 -0.57029,-0.375701 -0.871,-0.63345 -0.36334,-0.311436 -0.80139,-0.519469 -1.18771,-0.712628 -0.0708,-0.03541 -0.1599,0.01553 -0.23755,0 -0.37559,-0.07512 -0.73106,-0.253813 -1.10853,-0.316725 -0.54956,-0.09159 0.11854,0.145087 -0.55427,-0.07918 -0.13484,-0.04495 -0.26877,-0.0948 -0.3959,-0.158361 -0.0668,-0.03339 -0.0916,-0.124979 -0.15837,-0.158364 -0.0944,-0.04722 -0.2132,0.02072 -0.31672,0 -0.25128,-0.05025 -0.63946,-0.200959 -0.87099,-0.316725 -0.0851,-0.04256 -0.14727,-0.128267 -0.23754,-0.158361 -0.0751,-0.02503 -0.15991,0.01553 -0.23755,0 -0.0579,-0.01159 -0.10237,-0.06052 -0.15836,-0.07918 -0.0917,-0.03058 -0.22461,0.02302 -0.31673,0 -0.14602,-0.03651 -0.20171,-0.100859 -0.31672,-0.158361 -0.0472,-0.0236 -0.12103,0.03732 -0.15836,0 -0.0941,-0.09407 0.0653,-0.364902 0.15836,-0.395906 0.0501,-0.01669 0.10829,0.01669 0.15836,0 0.0354,-0.0118 0.0458,-0.06249 0.0792,-0.07918 0.52961,-0.264808 0.72222,-0.355092 0.87099,-0.950172 0.0349,-0.139739 0,-0.327956 0,-0.475086 0,-0.134051 0.0587,-0.436959 0,-0.554267 -0.15274,-0.30548 -0.45488,-0.613238 -0.71263,-0.870993 -0.0921,-0.09212 -0.0491,-0.164674 -0.15836,-0.237543 -0.0528,-0.0264 -0.10558,-0.05279 -0.15837,-0.07918 -0.0528,0 -0.11114,0.0236 -0.15836,0 -0.0528,-0.02641 -0.0375,-0.116631 -0.0792,-0.158362 -0.0642,-0.06424 -0.19721,-0.156868 -0.23754,-0.237542 -0.0975,-0.195022 0.22984,0.07148 -0.0792,-0.237546 -0.0282,-0.02819 -0.23475,-0.07639 -0.23754,-0.07918 -0.16383,-0.16383 0.25035,0.0064 -0.0792,-0.158364 -0.2912,-0.1456 -1.67644,-0.07918 -1.97953,-0.07918 -0.10557,0 -0.24207,-0.07465 -0.31672,0 -0.0607,0.06066 0.0257,0.0706 -0.23754,0.158361 -0.15916,0.05305 -0.46454,0 -0.63345,0 -0.0811,0 -0.37209,0.182179 -0.47509,0.07918 -0.0187,-0.01865 0.0187,-0.06052 0,-0.07918 -0.0469,-0.04688 -0.6148,0.01222 -0.71263,0 -0.0828,-0.01035 -0.15492,-0.06738 -0.23754,-0.07918 -0.10452,-0.01492 -0.21259,0.01736 -0.31673,0 -0.11643,-0.01939 -0.20221,-0.129733 -0.31672,-0.158361 -0.10242,-0.02561 -0.21657,0.03338 -0.31673,0 -0.0354,-0.0118 -0.0458,-0.06249 -0.0792,-0.07918 -0.0633,-0.03167 -0.1742,0.03167 -0.23754,0 -0.0922,-0.04612 -0.14531,-0.112244 -0.23754,-0.158361 -0.0659,-0.03296 -0.2665,0.05023 -0.31673,0 -0.0186,-0.01865 0.0187,-0.06052 0,-0.07918 -0.0263,-0.02635 -0.30074,0.0053 -0.31672,0 -0.0282,-0.0094 -0.47198,-0.234434 -0.47509,-0.237543 -0.0186,-0.01865 0.0187,-0.06052 0,-0.07918 -0.0186,-0.01865 -0.0605,0.01865 -0.0792,0 -0.16383,-0.163827 0.25035,0.0064 -0.0792,-0.158361 -0.0236,-0.0118 -0.0674,0.0236 -0.0792,0 -0.0236,-0.04721 0.0167,-0.108283 0,-0.158363 -0.0118,-0.03541 -0.0625,-0.04579 -0.0792,-0.07918 -0.1344,-0.268791 -0.0945,-0.536216 -0.15837,-0.791814 -0.0143,-0.05726 -0.0676,-0.100488 -0.0792,-0.158361 -0.0451,-0.2257 0.0558,-0.489445 0,-0.712629 -0.0664,-0.265591 -0.0712,-0.530441 -0.15836,-0.79181 -0.0444,-0.133289 0.0224,-0.340477 0,-0.475089 -0.0353,-0.211971 -0.17228,-0.35847 -0.23754,-0.554267 -0.0167,-0.05008 0.0236,-0.111146 0,-0.158361 -0.0334,-0.06677 -0.12498,-0.09159 -0.15836,-0.158361 -0.0118,-0.0236 0.0187,-0.06052 0,-0.07918 -0.0187,-0.01865 -0.0605,0.01865 -0.0792,0 -0.0187,-0.01865 0.0187,-0.06052 0,-0.07918 -0.056,-0.05599 -0.16242,0.02503 -0.23754,0 -0.0354,-0.0118 -0.0458,-0.06249 -0.0792,-0.07918 -0.0472,-0.0236 -0.11115,0.0236 -0.15836,0 -0.10697,-0.05348 -0.21399,-0.106992 -0.31673,-0.158361 -0.0668,-0.03339 -0.0916,-0.124976 -0.15836,-0.158361 -0.0236,-0.0118 -0.0605,0.01865 -0.0792,0 -0.0128,-0.01283 -0.0696,-0.232746 -0.0792,-0.237546 -0.14931,-0.07465 -0.32578,-0.08371 -0.47509,-0.158361 -0.11803,-0.05902 -0.20136,-0.173453 -0.31672,-0.237543 -0.12425,-0.06903 -0.2725,-0.08784 -0.39591,-0.158363 -0.0648,-0.03704 -0.0943,-0.119952 -0.15836,-0.158361 -0.47222,-0.283332 -1.08844,-0.46504 -1.58362,-0.712629 -0.0878,-0.04392 -0.97301,-0.146942 -1.10854,-0.07918 -0.42642,0.213212 -0.9183,0.419558 -1.34607,0.63345 -0.0845,0.04223 -0.23227,-0.04223 -0.31673,0 -0.14643,0.07321 -0.30033,0.114673 -0.47508,0.158361 -0.10243,0.02561 -0.21657,-0.03339 -0.31673,0 -0.22826,0.07609 -0.64333,0.390966 -0.95017,0.237543 -0.10156,-0.05078 -0.2113,-0.202401 -0.31673,-0.237543 -0.0501,-0.0167 -0.11114,0.0236 -0.15836,0 -0.0236,-0.0118 0.0187,-0.06052 0,-0.07918 -0.0417,-0.04173 -0.11663,-0.03745 -0.15836,-0.07918 -0.0417,-0.04173 -0.0464,-0.109257 -0.0792,-0.158364 -0.0472,-0.07082 -0.49377,-0.365654 -0.55427,-0.395904 -0.0378,-0.01889 -0.25921,-0.367152 -0.31672,-0.395907 -0.048,-0.024 -0.20437,-0.046 -0.23755,-0.07918 -0.16382,-0.163827 0.25035,0.0064 -0.0792,-0.158361 -0.0236,-0.0118 -0.0605,0.01865 -0.0792,0 -0.0187,-0.01865 0.0118,-0.05557 0,-0.07918 -0.0475,-0.09502 -0.19003,-0.142525 -0.23754,-0.237542 -0.0339,-0.06772 -0.0453,-0.169826 -0.0792,-0.237543 -0.15939,-0.318781 -0.44697,-0.42654 -0.79181,-0.63345 z"
       id="path17" /></g></svg>
