<?xml version="1.0" encoding="UTF-8" standalone="no"?>
<!-- Created with Inkscape (http://www.inkscape.org/) -->

<svg
   width="55.055"
   height="30.433765"
   viewBox="0 0 14.566636 8.052267"
   version="1.1"
   id="svg1"
   xml:space="preserve"
   xmlns="http://www.w3.org/2000/svg"
   xmlns:svg="http://www.w3.org/2000/svg"><defs
     id="defs1" /><g
     id="layer1"
     transform="translate(-254.77641,-100.56562)"><path
       style="fill:#000000;fill-opacity:0.498525;stroke-width:0.264583"
       d="m 264.32637,106.30355 c 0.23151,-0.0321 0.49088,-0.23568 0.59687,-0.44766 0.0699,-0.13983 -0.0323,-0.0728 0.14923,-0.2089 0.0974,-0.0731 0.22725,-0.0819 0.32829,-0.14922 0.0396,-0.0264 0.0748,-0.10452 0.11935,-0.11938 0.0188,-0.006 0.0408,0.006 0.0597,0 0.0267,-0.009 0.0345,-0.0471 0.0597,-0.0597 0.0254,-0.0128 0.064,-0.0171 0.0895,-0.0298 0.0251,-0.0126 0.0363,-0.0441 0.0597,-0.0597 0.1044,-0.0696 0.18955,-0.12421 0.32829,-0.0895 0.10695,0.0267 0.3737,0.26898 0.4775,0.32828 0.0273,0.0156 0.0614,0.0158 0.0895,0.0298 0.15788,0.0789 0.0251,0.0392 0.17905,0.14922 0.0764,0.0545 0.15917,0.0995 0.23876,0.14922 0.11027,0.0689 0.22537,0.12658 0.32829,0.2089 0.0766,0.0613 0.23551,0.2686 0.32827,0.2686 0.0796,0 -0.0101,-0.01 0.0298,0.0298 0.0238,0.0238 0.17521,0 0.20892,0 0.0106,0 0.11761,0.005 0.11935,0 0.0601,-0.18028 -0.19267,-0.6051 -0.29842,-0.74609 -0.13647,-0.18197 -0.0543,0.0125 -0.14923,-0.20891 -0.0296,-0.069 -0.0748,-0.16498 -0.0895,-0.23875 -0.0188,-0.0934 0.0415,-0.2452 0,-0.32828 -0.0391,-0.0783 -0.21812,-0.34428 -0.1492,-0.44766 0.0154,-0.0228 0.24273,-0.18628 0.26858,-0.20891 0.2291,-0.20045 0.44492,-0.40152 0.71625,-0.53718 0.0958,-0.0479 0.20299,-0.0323 0.29845,-0.0895 0.0915,-0.0549 0.23985,-0.32994 0.29843,-0.41782 0.0164,-0.0247 0.36681,-0.37928 0.32829,-0.41781 -0.007,-0.007 -0.35965,0 -0.38798,0 -0.20177,0 -0.39855,-0.005 -0.59688,-0.0298 -0.37007,-0.0463 0.0884,-0.0101 -0.20891,-0.0597 -0.12579,-0.021 -0.26168,0.018 -0.38796,0 -0.39391,-0.0563 0.13891,-0.002 -0.14923,-0.0597 -0.0698,-0.014 -0.54353,0.0235 -0.56702,0 -0.0352,-0.0352 0.006,-0.0999 0,-0.14922 -0.0385,-0.30825 -0.30883,-1.10813 -0.50734,-1.37281 -0.0167,-0.0223 -0.2241,-0.26912 -0.23876,-0.29844 -0.004,-0.007 -0.03,-0.1639 -0.0597,-0.11937 -0.0702,0.10534 0.005,0.0858 -0.0299,0.2089 -0.01,0.0345 -0.0455,0.0566 -0.0597,0.0895 -0.0397,0.0927 -0.0486,0.20628 -0.0895,0.29844 -0.15824,0.35604 -0.0241,-0.0748 -0.17907,0.32828 -0.0259,0.0676 -0.0356,0.14062 -0.0597,0.20891 -0.0535,0.15155 -0.13287,0.29372 -0.17907,0.44765 -0.0143,0.048 -0.0358,0.25067 -0.0597,0.29844 0,8e-4 -0.15002,0.075 -0.17904,0.0895 -0.0434,0.0217 -0.0341,0.0938 -0.0597,0.11938 -0.0212,0.0211 -0.41733,-0.11078 -0.47752,-0.11938 -0.14761,-0.0211 -0.35868,-0.0212 -0.50733,0 -0.10868,0.0155 -0.0628,0.0309 -0.14922,0.0597 -0.10208,0.034 -0.15525,-0.0318 -0.23875,-0.0597 -0.0661,-0.022 -0.23572,-0.0125 -0.29844,0 -0.0987,0.0197 -0.1552,0.0478 -0.23875,0.0895 -0.0504,0.0252 -0.17915,0 -0.23875,0 -0.0298,0 -0.0628,-0.0133 -0.0895,0 -0.009,0.004 0,0.0398 0,0.0298 0,-0.30375 -0.13696,-0.5777 -0.20891,-0.86547 -0.0123,-0.0492 -0.008,-0.13506 -0.0298,-0.17906 -0.0587,-0.11731 -0.19783,-0.16245 -0.26859,-0.2686 -0.0256,-0.0384 -0.0655,-0.15501 -0.0895,-0.17906 -0.01,-0.01 -0.72875,-0.0283 -0.74609,-0.0298 -0.25879,-0.0235 -0.6083,-0.0978 -0.86547,-0.14922 -0.10285,-0.0206 -0.258,0 -0.35813,0 -0.38188,0 -0.78491,0.0379 -1.1639,0 -0.1302,-0.013 -0.25767,-0.0478 -0.38797,-0.0597 -0.0892,-0.008 -0.17951,0.009 -0.2686,0 -0.17087,-0.0171 -0.33895,-0.0558 -0.50734,-0.0895 -0.0617,-0.0123 -0.117,-0.0494 -0.17906,-0.0597 -0.17758,-0.0296 -0.38682,0 -0.56703,0 -0.31562,0 -0.64045,-0.021 -0.95501,0 -0.20078,0.0134 -0.39787,0.0431 -0.59687,0.0597 -0.27157,0.0226 -0.511,0.1349 -0.77594,0.17906 -0.0393,0.007 -0.0816,-0.0126 -0.11937,0 -0.0474,0.0158 -0.0529,0.0298 -0.11938,0.0298 -0.0298,0 -0.0597,0 -0.0895,0 -0.01,0 -0.0298,-0.01 -0.0298,0 0,0.0141 0.0236,0.0173 0.0298,0.0298 0.0448,0.0895 0.10815,0.25545 0.14922,0.35812 0.0813,0.2033 0.10326,0.42459 0.17906,0.62672 0.0828,0.22067 0.16392,0.43163 0.20891,0.65657 0.0369,0.1844 0,0.46334 0,0.65656 0,0.21885 0,0.43771 0,0.65656 0,0.0247 0.0103,0.18715 0,0.23875 -0.0616,0.30799 -0.10833,0.61864 -0.17907,0.92516 -0.0533,0.2309 -0.11597,0.45367 -0.14921,0.68641 -0.0388,0.27168 -0.17846,0.53171 -0.20891,0.80578 -0.0332,0.29853 0,0.62343 0,0.92516 0,0.0668 -0.006,0.50179 0.0298,0.53719 0.007,0.007 0.0228,-0.007 0.0299,0 0.0617,0.0617 -0.0944,-0.002 0.0298,0.0597 0.0706,0.0353 0.6238,0 0.71625,0 0.0995,0 0.19957,-0.011 0.29844,0 0.0815,0.009 0.15767,0.0472 0.23875,0.0597 0.20459,0.0315 0.29585,0.0404 0.50734,0.0298 0.28172,-0.0141 0.58311,-0.11777 0.86547,-0.0895 0.16188,0.0162 0.21207,0.1054 0.35813,0.14922 0.24423,0.0733 0.50155,-0.0137 0.74609,0.0597 0.12845,0.0385 0.25673,0.1552 0.38797,0.17906 0.23494,0.0427 0.59747,-0.0115 0.83563,-0.0298 0.097,-0.007 0.96678,-0.0259 1.04453,0 0.0133,0.004 0.0172,0.0235 0.0298,0.0298 0.0626,0.0313 0.26652,0.0103 0.32828,0 0.23368,-0.0389 0.0158,-0.007 0.20891,-0.0895 0.14482,-0.0621 0.31233,-0.1114 0.44766,-0.17906 0.0106,-0.005 0.0491,-0.0544 0.0597,-0.0597 0.0387,-0.0194 0.0791,-0.0395 0.11938,-0.0597 0.0178,-0.009 0.0456,0.0141 0.0597,0 0.007,-0.007 -0.007,-0.0228 0,-0.0298 0.0141,-0.0141 0.0414,0.008 0.0597,0 0.0613,-0.0263 0.1171,-0.0648 0.17906,-0.0895 0.0381,-0.0152 0.0819,-0.0132 0.11937,-0.0298 0.0943,-0.0566 0.1687,-0.1064 0.2686,-0.14922 0.0578,-0.0248 0.12279,-0.0315 0.17906,-0.0597 0.0982,-0.0491 0.14282,-0.15135 0.23875,-0.20891 0.10489,-0.0629 0.22824,-0.099 0.32828,-0.17906 0.10144,-0.0812 0.14049,-0.19581 0.20891,-0.29844 0.0597,-0.0895 0,0.0597 0.0895,-0.0895 0.0162,-0.027 0.0136,-0.0626 0.0298,-0.0895 0.0415,-0.0692 0.11398,-0.10857 0.14922,-0.17906 0.0183,-0.0367 0.0146,-0.0813 0.0299,-0.11938 0.0167,-0.0418 0.0645,-0.18383 0.0895,-0.20891 0.007,-0.007 0.0228,0.007 0.0298,0 0.007,-0.007 -0.004,-0.0209 0,-0.0298 0.043,-0.0861 0.0749,-0.0972 0.17906,-0.14922 z"
       id="path28" /></g></svg>
