<?xml version="1.0" encoding="UTF-8" standalone="no"?>
<!-- Created with Inkscape (http://www.inkscape.org/) -->

<svg
   width="96.449547"
   height="207.92413"
   viewBox="0 0 25.518943 55.013259"
   version="1.1"
   id="svg1"
   xml:space="preserve"
   xmlns="http://www.w3.org/2000/svg"
   xmlns:svg="http://www.w3.org/2000/svg"><defs
     id="defs1" /><g
     id="layer1"
     transform="translate(-177.97799,-85.641106)"><path
       style="fill:#000000;fill-opacity:0.498525;stroke-width:0.264583"
       d="m 178.87103,140.51099 c 0.11249,-0.0503 1.14575,0.24333 1.28223,0.10685 0.18923,-0.18923 -0.30169,-0.89256 -0.21371,-1.06852 0.12086,-0.24172 0.13092,-0.39276 0.21371,-0.64112 0.0369,-0.11067 0.1607,-0.21455 0.2137,-0.32055 0.0319,-0.0637 -0.0319,-0.14999 0,-0.21371 0.0451,-0.0901 0.15783,-0.12988 0.21371,-0.2137 0.0356,-0.0712 0.0712,-0.14247 0.10685,-0.21371 0.0356,0 0.0817,0.0252 0.10685,0 0.0252,-0.0252 -0.0252,-0.0817 0,-0.10685 0.048,-0.0479 0.90655,-0.10685 1.06852,-0.10685 0.0837,0 0.48095,0.0533 0.53427,0 0.0252,-0.0252 -0.0252,-0.0817 0,-0.10686 0.0965,-0.0965 0.40695,-0.15004 0.53426,-0.2137 0.28632,-0.14316 0.62694,-0.82647 0.74797,-1.06852 0.11585,-0.23171 0,-0.80159 0,-1.06853 0,-0.044 -0.0283,-0.29227 0,-0.32056 0.0252,-0.0252 0.0817,0.0252 0.10685,0 0.0742,-0.0742 -0.0855,-1.30385 -0.10685,-1.38908 -0.081,-0.32399 -0.17153,-0.77047 -0.32056,-1.06852 -0.0225,-0.0451 -0.0909,-0.0591 -0.10685,-0.10686 -0.0338,-0.10137 0.0478,-0.22498 0,-0.32055 -0.21846,-0.43691 -0.22449,-1.47437 0,-1.92335 0.16599,-0.33199 0.44271,-0.51903 0.74796,-0.74796 0.0806,-0.0605 0.12989,-0.15783 0.21371,-0.21371 0.23162,-0.15441 1.12806,0.0771 1.49593,-0.10685 0.34341,-0.1717 0.84797,-0.63083 1.06853,-0.96167 0.046,-0.069 0.16743,-0.38114 0.2137,-0.42741 0.0252,-0.0252 0.0817,0.0252 0.10686,0 0.22108,-0.22108 -0.33785,0.009 0.10685,-0.21371 0.14739,-0.0737 0.0956,0.1294 0.2137,-0.10685 0.0159,-0.0319 -0.0252,-0.0817 0,-0.10685 0.0448,-0.0448 0.2558,-0.0745 0.32056,-0.10686 0.4447,-0.22234 -0.11423,0.007 0.10685,-0.2137 0.0252,-0.0252 0.075,0.0159 0.10686,0 0.0901,-0.0451 0.11813,-0.18185 0.2137,-0.21371 0.0676,-0.0225 0.16334,0.0504 0.21371,0 0.0504,-0.0504 -0.0504,-0.16333 0,-0.2137 0.0504,-0.0504 0.14612,0.0225 0.2137,0 0.23915,-0.0797 1.37511,-1.46799 1.49594,-1.70964 0.0457,-0.0914 0.0612,-0.22918 0.10685,-0.32056 0.045,-0.0901 0.16865,-0.1236 0.2137,-0.2137 0.0467,-0.0934 -0.0226,-0.33718 0,-0.42741 0.20064,-0.80255 0.53697,-1.62442 0.64112,-2.45761 0.0353,-0.28274 -0.0403,-0.57274 0,-0.85482 0.14241,-0.99691 0.32056,-1.96988 0.32056,-2.99187 0,-0.13178 0.0874,-0.76738 0,-0.85482 -0.0534,-0.0534 -0.16028,-0.0534 -0.21371,-0.10685 -0.0252,-0.0252 0.0252,-0.0817 0,-0.10685 -0.0356,-0.0356 -0.28494,-0.0712 -0.32056,-0.10685 -0.0252,-0.0252 0.0252,-0.0817 0,-0.10686 -0.0448,-0.0448 -0.2558,-0.0745 -0.32056,-0.10685 -0.14311,-0.0716 -0.14805,-0.25491 -0.2137,-0.32056 -0.0534,-0.0534 -0.16028,-0.0534 -0.2137,-0.10685 -0.14046,-0.14046 -0.25885,-0.82168 -0.32056,-1.06852 -0.0644,-0.25778 -0.0591,-1.31866 0,-1.49594 0.0159,-0.0478 0.0843,-0.0618 0.10685,-0.10685 0.0502,-0.10044 0.0317,-0.65294 0,-0.74797 -0.0159,-0.0478 -0.0909,-0.0591 -0.10685,-0.10685 -0.0321,-0.0962 0.032,-0.22439 0,-0.32056 -0.15723,-0.4717 -0.45357,-1.81869 -0.32056,-2.35075 0.12866,-0.51465 0.30181,-1.35159 0.53426,-1.81649 0.22235,-0.4447 -0.007,0.11422 0.21371,-0.10686 0.0252,-0.0252 -0.0159,-0.075 0,-0.10685 0.0253,-0.0506 0.43769,-0.33084 0.53426,-0.42741 0.24476,-0.24476 0.39426,-0.46796 0.53426,-0.74797 0.12341,-0.24681 0.40393,-0.23191 0.53427,-0.42741 0.1449,-0.21735 0.2825,-0.42376 0.4274,-0.64111 0.0756,-0.11332 0.30641,-0.36691 0.42741,-0.42741 0.0319,-0.0159 0.0817,0.0252 0.10686,0 0.0252,-0.0252 -0.0159,-0.075 0,-0.10685 0.22234,-0.4447 -0.007,0.11423 0.2137,-0.10686 0.0252,-0.0252 0,-0.0712 0,-0.10685 0.0356,-0.0356 0.0649,-0.0789 0.10685,-0.10685 0.13403,-0.0893 0.34598,-0.1577 0.42742,-0.32056 0.18233,-0.36467 0.82583,-1.36976 1.17537,-1.60278 0.33814,-0.22543 0.7147,-0.37752 0.96167,-0.74797 0.29939,-0.44909 0.81499,-1.07759 1.28223,-1.38909 0.0663,-0.0442 0.15739,-0.0505 0.21371,-0.10685 0.0252,-0.0252 -0.0252,-0.0817 0,-0.10685 0.0563,-0.0563 0.15739,-0.0505 0.2137,-0.10685 0.0563,-0.05632 0.0627,-0.14744 0.10685,-0.213708 0.137,-0.205486 0.39728,-0.328776 0.53427,-0.534262 0.11515,-0.17272 0.25063,-0.357487 0.42741,-0.534263 0.19393,-0.193929 1.20269,-1.230003 1.28223,-1.389081 0.0637,-0.127428 -0.0451,-0.292251 0,-0.42741 0.0974,-0.292203 0.41084,-0.673688 0.53426,-0.961673 0.0887,-0.20705 0.0978,-0.447951 0.21371,-0.641115 0.0518,-0.08638 0.16187,-0.12732 0.2137,-0.213704 0.21715,-0.36191 0.3636,-0.834054 0.53426,-1.175377 0.10267,-0.205332 0.32475,-0.328933 0.42741,-0.534262 0.11882,-0.237647 0.20174,-0.510321 0.32056,-0.747967 0.0451,-0.09011 0.16865,-0.1236 0.2137,-0.213706 0.0909,-0.181782 -0.10366,-0.216893 0.10686,-0.427408 0.0252,-0.02519 0.0817,0.02519 0.10685,0 0.0504,-0.05037 -0.0319,-0.149993 0,-0.213707 0.18736,-0.374716 0.35393,-0.814713 0.53426,-1.175377 0.0438,-0.08752 -0.0163,-0.345789 0,-0.427411 0.0946,-0.473128 0.13645,-1.341413 0.32056,-1.709637 0.0427,-0.08548 -0.0427,-0.235077 0,-0.320558 0.0684,-0.136819 0.16621,-0.284938 0.2137,-0.427411 0.11214,-0.336407 0,-1.287015 0,-1.709639 0,-0.044 0.0283,-0.292272 0,-0.320556 -0.0667,-0.06673 -0.76799,-0.02894 -0.85482,0 -0.20206,0.06735 -0.52982,0.320556 -0.74796,0.320556 -0.66145,0 -0.82972,-0.04088 -1.38908,-0.320556 -0.22618,-0.113086 -1.30257,0 -1.60279,0 -0.39712,0 -1.02072,-0.122788 -1.38909,0 -0.37261,0.124203 -0.75299,0.0016 -1.06852,0.106852 -0.36834,0.12278 -0.0792,0.106852 -0.32056,0.106852 -0.31156,0 -2.08388,-0.08001 -2.2439,0 -0.26407,0.132037 0.0369,0.106852 -0.2137,0.106852 -0.0353,0 -0.42285,0.306869 -0.42741,0.320558 -0.0225,0.06758 0.0225,0.146124 0,0.213704 -0.0354,0.106098 -0.16245,0.324895 -0.21371,0.427411 -0.12523,0.25047 -0.0328,0.344964 -0.10685,0.641114 -0.0122,0.04887 -0.0909,0.05907 -0.10685,0.106852 -0.0884,0.265221 0.0295,0.26153 -0.10686,0.534263 -0.0756,0.151297 -0.0502,1.879515 0,2.030198 0.0665,0.199342 0.1331,0.266179 0.21371,0.427408 0.0319,0.06371 -0.0504,0.163335 0,0.213707 0.0252,0.02519 0.0817,-0.02519 0.10685,0 0.0799,0.07994 -0.0755,1.024268 0,1.175377 0.0225,0.04505 0.0843,0.0618 0.10685,0.106852 0.11187,0.223739 0.0413,1.240922 -0.10685,1.389081 -0.0252,0.02519 -0.0817,-0.02519 -0.10685,0 -0.0908,0.09081 -0.15628,0.205695 -0.21371,0.320558 -0.0318,0.06371 0.0504,0.163335 0,0.213704 -0.0356,0.03562 -0.28494,0.07124 -0.32055,0.106852 -0.14247,0.14247 0.22666,0.102531 -0.10686,0.213707 -0.0676,0.02252 -0.14999,-0.03186 -0.2137,0 -0.0319,0.01593 0.0252,0.08167 0,0.106852 -0.0252,0.02519 -0.075,-0.01593 -0.10685,0 -0.23329,0.116644 -0.74797,0.609679 -0.74797,0.854818 0,0.234273 -0.17511,0.03413 -0.32056,0.106855 -0.21583,0.107915 -0.27903,0.385884 -0.42741,0.534262 -0.22108,0.221081 0.009,-0.337844 -0.2137,0.106852 -0.0159,0.03186 0.0252,0.08167 0,0.106852 -0.0252,0.02519 -0.0817,-0.02519 -0.10685,0 -0.0252,0.02519 0.0252,0.08167 0,0.106852 -0.0728,0.0728 -0.40594,0.08538 -0.42741,0.106852 -0.0252,0.02519 0.0252,0.08167 0,0.106855 -0.11439,0.114379 -0.47504,0.154474 -0.74797,0.427408 -0.11263,0.112633 -0.10107,0.314777 -0.21371,0.42741 -0.0252,0.02519 -0.0712,0 -0.10685,0 -0.0356,0.03562 -0.0789,0.06494 -0.10685,0.106852 -0.14222,0.213326 -0.17291,0.41964 -0.32056,0.641115 -0.0822,0.123293 -0.23836,0.197268 -0.32056,0.320558 -0.23541,0.05381 -0.0565,0.219816 -0.10685,0.320556 -0.10585,0.211701 -0.40235,0.336399 -0.53426,0.534263 -0.0625,0.09371 -0.0272,0.240916 -0.10685,0.320558 -0.0252,0.02519 -0.0817,-0.02519 -0.10686,0 -0.003,0.0031 -0.51393,1.00753 -0.53426,1.06853 -0.0225,0.0676 0.0225,0.14612 0,0.2137 -0.0471,0.14124 -0.25245,0.29121 -0.32056,0.42741 -0.31516,0.63034 -0.0776,1.86483 -0.2137,2.13705 -0.0771,0.15427 -0.13657,0.27313 -0.21371,0.42741 -0.0478,0.0956 0.0338,0.21919 0,0.32056 -0.0727,0.21812 -0.24856,0.42514 -0.32055,0.64111 -0.0244,0.0732 -0.0618,0.59608 -0.10686,0.64112 -0.0252,0.0252 -0.0817,-0.0252 -0.10685,0 -0.0504,0.0504 0.0504,0.16333 0,0.2137 -0.0252,0.0252 -0.0817,-0.0252 -0.10685,0 -0.0466,0.0466 -0.26898,0.53796 -0.32056,0.64111 -0.0342,0.0685 -0.21042,0.7447 -0.2137,0.74797 -0.0428,0.0428 -0.13579,0.0579 -0.21371,0.21371 -0.0319,0.0637 0.0319,0.14999 0,0.2137 -0.0622,0.12447 -0.15147,0.19609 -0.2137,0.32056 -0.0319,0.0637 0.0319,0.14999 0,0.2137 -0.1289,0.25781 -0.21258,0.21032 -0.32056,0.53427 -0.0321,0.0962 0.032,0.22439 0,0.32055 -0.26203,0.78609 -0.26313,1.63623 -0.42741,2.45761 -0.14798,0.73991 0.1353,1.51744 -0.10685,2.2439 -0.13768,0.41303 0.17973,1.35017 0,1.70964 -0.11063,0.22125 -0.21124,0.42248 -0.32056,0.64112 -0.0319,0.0637 0.0504,0.16333 0,0.2137 -0.0252,0.0252 -0.0817,-0.0252 -0.10685,0 -0.0504,0.0504 0.0319,0.14999 0,0.21371 -0.17466,0.34932 -0.35341,0.70681 -0.53427,1.06852 -0.0997,0.19946 0.0997,0.54851 0,0.74797 -0.0225,0.0451 -0.0909,0.0591 -0.10685,0.10685 -0.0248,0.0743 -0.0468,3.32578 0,3.41928 0.14553,0.29105 0.22598,0.11913 0.32056,0.2137 0.0534,0.0534 0.0534,0.16028 0.10685,0.21371 0.0252,0.0252 0.0817,-0.0252 0.10686,0 0.0504,0.0504 -0.0319,0.14999 0,0.2137 0.0919,0.18375 0.12183,0.35052 0.2137,0.53427 0.0215,0.043 0.0215,1.66668 0,1.70964 -0.0771,0.15427 -0.13657,0.27313 -0.2137,0.42741 -0.0319,0.0637 0.0318,0.14999 0,0.2137 -0.0225,0.0451 -0.0909,0.0591 -0.10686,0.10685 -0.0338,0.10137 0.0478,0.22499 0,0.32056 -0.0622,0.12447 -0.15147,0.19609 -0.2137,0.32056 -0.0319,0.0637 0.0319,0.14999 0,0.2137 -0.0451,0.0901 -0.16865,0.1236 -0.21371,0.21371 -0.0159,0.0319 0.0252,0.0817 0,0.10685 -0.0534,0.0534 -0.16028,0.0534 -0.2137,0.10685 -0.0252,0.0252 0.0159,0.075 0,0.10686 -0.0716,0.14311 -0.25491,0.14806 -0.32056,0.2137 -0.0252,0.0252 0.0252,0.0817 0,0.10685 -0.0252,0.0252 -0.0817,-0.0252 -0.10685,0 -0.0252,0.0252 0.0252,0.0817 0,0.10686 -0.0356,0.0356 -0.28494,0.0712 -0.32056,0.10685 -0.0252,0.0252 0.0252,0.0817 0,0.10685 -0.0504,0.0504 -0.16333,-0.0504 -0.2137,0 -0.0504,0.0504 0.0504,0.16333 0,0.21371 -0.0252,0.0252 -0.0817,-0.0252 -0.10686,0 -0.0252,0.0252 0.0159,0.075 0,0.10685 -0.0451,0.0901 -0.16865,0.1236 -0.2137,0.2137 -0.0319,0.0637 0.0319,0.14999 0,0.21371 -0.0703,0.14055 -0.16554,0.2829 -0.21371,0.42741 -0.045,0.13516 0.0451,0.29225 0,0.42741 -0.0159,0.0478 -0.0843,0.0618 -0.10685,0.10685 -0.0319,0.0637 0.0319,0.14999 0,0.21371 -0.0771,0.15427 -0.13657,0.27313 -0.2137,0.42741 -0.0548,0.10955 0.0301,0.30718 0,0.42741 -0.0882,0.35279 -0.26751,0.74872 -0.42741,1.06852 -0.0574,0.11486 -0.1731,0.19873 -0.21371,0.32056 -0.0225,0.0676 0.0225,0.14612 0,0.2137 -0.0579,0.17362 -0.2665,0.21118 -0.32056,0.42741 -0.15172,0.6069 -0.54503,1.10086 -0.74796,1.70964 0.0644,0.1934 -0.1731,0.19873 -0.21371,0.32056 -0.0225,0.0676 0.0173,0.14459 0,0.2137 -0.0466,0.18631 -0.16713,0.34796 -0.2137,0.53427 -0.086,0.34381 0,0.81518 0,1.17537 0,0.10038 -0.0793,0.77549 0,0.85482 0.0252,0.0252 0.0817,-0.0252 0.10685,0 0.0712,0.0712 -0.0713,0.14246 0,0.21371 0.0252,0.0252 0.0817,-0.0252 0.10685,0 0.11014,0.11013 -0.003,0.63783 0.10685,0.74797 0.0252,0.0252 0.0817,-0.0252 0.10686,0 0.11545,0.11545 -0.1167,1.48609 0,1.60278 0.0252,0.0252 0.0817,-0.0252 0.10685,0 0.0494,0.0494 -0.0323,0.25605 0,0.32056 0.0929,0.18576 0.2137,0.35618 0.32056,0.53426 z"
       id="path15" /></g></svg>
