<?xml version="1.0" encoding="UTF-8" standalone="no"?>
<!-- Created with Inkscape (http://www.inkscape.org/) -->

<svg
   width="95.551682"
   height="121.88627"
   viewBox="0 0 25.281383 32.249075"
   version="1.1"
   id="svg1"
   xml:space="preserve"
   xmlns="http://www.w3.org/2000/svg"
   xmlns:svg="http://www.w3.org/2000/svg"><defs
     id="defs1" /><g
     id="layer1"
     transform="translate(-162.94935,-35.154272)"><path
       style="fill:#000000;fill-opacity:0.498525;stroke-width:0.264583"
       d="m 167.1381,35.15428 c -0.36471,0.05199 -0.0406,0.309361 -0.12422,0.434768 -0.0257,0.03852 -0.0985,0.0236 -0.12422,0.06211 -0.023,0.03445 0.0131,0.08494 0,0.124219 -0.0185,0.05555 -0.098,0.07184 -0.12422,0.124222 -0.009,0.01852 0.0146,0.04747 0,0.06211 -0.0146,0.01463 -0.0475,-0.01463 -0.0621,0 -0.0146,0.01463 0.0146,0.04747 0,0.06211 -0.003,0.0034 -0.18296,0.120854 -0.18633,0.12422 -0.12851,0.128508 0.19638,-0.005 -0.0621,0.124222 -0.0641,0.03203 -0.14249,0.03654 -0.18633,0.124219 -0.0699,0.13984 -0.1371,0.08788 -0.18633,0.18633 -0.009,0.01852 0.0146,0.04747 0,0.06211 -0.0146,0.01463 -0.0475,-0.01463 -0.0621,0 -0.0328,0.03281 -0.15352,0.277738 -0.18633,0.310549 -0.0293,0.02928 -0.0949,-0.02928 -0.12422,0 -0.0146,0.01463 0.0146,0.04747 0,0.06211 -0.0293,0.02928 -0.0872,-0.01852 -0.12422,0 -0.0524,0.02619 -0.0719,0.09803 -0.12422,0.124219 -0.0384,0.01918 -0.22542,0.03909 -0.24844,0.06211 -0.0146,0.01463 0.0146,0.04747 0,0.06211 -0.0146,0.01463 -0.0436,-0.0093 -0.0621,0 -0.0769,0.03847 -0.30887,0.214868 -0.37266,0.310552 -0.10757,0.161358 -0.0941,0.253994 -0.12422,0.434768 0.0216,0.126373 -0.10236,0.201224 -0.12422,0.31055 -0.0753,0.376504 -0.10763,0.765955 -0.24844,1.117981 -0.0901,0.225152 -0.15844,0.458216 -0.24844,0.683212 -0.06,0.149937 -0.18279,0.241353 -0.24844,0.372658 -0.0185,0.03704 0.01,0.08405 0,0.124222 -0.10459,0.418356 -0.001,0.0011 -0.12422,0.124219 -0.0293,0.02928 0.0185,0.08718 0,0.124219 -0.0422,0.08442 -0.14412,0.164023 -0.18633,0.248441 -0.0215,0.04295 -0.18336,0.422868 -0.18633,0.434771 -0.0151,0.06025 0.0151,0.126074 0,0.186331 -0.007,0.0284 -0.0414,0.0414 -0.0621,0.06211 -0.0207,0.06211 -0.0513,0.121751 -0.0621,0.18633 -0.0429,0.25768 -0.12422,0.613495 -0.12422,0.869543 0,0.08048 -0.14959,0.471511 -0.0621,0.558987 0.10622,0.106228 0.26893,-0.248438 0.31055,-0.248438 0.0366,0 -0.0389,0.09287 0,0.248438 0.027,0.108165 0.0861,0.205772 0.12422,0.310552 0.12115,0.333153 0.22511,0.652013 0.31055,0.99376 0.12877,0.515085 0.2369,1.058084 0.43477,1.552752 0.10892,0.272301 0.2448,0.544457 0.31055,0.807429 0.0376,0.150341 0.0935,0.124698 0.18633,0.248441 0.1095,0.146008 0.26635,0.444286 0.31055,0.621101 0.0201,0.08034 -0.0162,0.167233 0,0.248439 0.0512,0.256024 0.18651,0.497615 0.24844,0.74532 0.01,0.04017 -0.0131,0.08494 0,0.12422 0.009,0.02778 0.0414,0.04141 0.0621,0.06211 0.0207,0.06211 0.0493,0.122131 0.0621,0.18633 0.12655,0.632724 0.28268,1.142934 0.68321,1.676971 0.0448,0.05972 0.0908,0.119563 0.12422,0.18633 0.009,0.01852 -0.0146,0.04747 0,0.06211 0.10146,0.101462 0.17044,-0.108334 0.18633,-0.12422 0.0146,-0.01463 0.0475,0.01463 0.0621,0 0.0293,-0.02928 -0.0293,-0.09494 0,-0.124219 0.0146,-0.01463 0.0436,0.0093 0.0621,0 0.10207,-0.05103 0.0865,-0.172984 0.12422,-0.248441 0.0416,-0.08319 0.14817,-0.08606 0.18633,-0.124219 0.0146,-0.01463 -0.0146,-0.04747 0,-0.06211 0.0293,-0.02928 0.0949,0.02928 0.12422,0 0.0146,-0.01463 -0.0146,-0.04747 0,-0.06211 0.0287,-0.02871 0.14883,0.01876 0.18633,0 0.0524,-0.02619 0.0687,-0.105704 0.12422,-0.124222 0.0393,-0.0131 0.0849,0.0131 0.12422,0 0.28548,-0.09516 0.65626,-0.421294 0.93165,-0.558991 0.0185,-0.0093 0.0414,0 0.0621,0 0.0414,-0.02069 0.0857,-0.03643 0.12422,-0.06211 0.12489,-0.08326 0.4425,-0.458052 0.55899,-0.496882 0.0393,-0.0131 0.0849,0.0131 0.12422,0 0.0556,-0.01852 0.0719,-0.09803 0.12422,-0.124219 0.0185,-0.0093 0.0475,0.01463 0.0621,0 0.0146,-0.01463 -0.0146,-0.04747 0,-0.06211 0.0293,-0.02928 0.0949,0.02928 0.12422,0 0.0146,-0.01463 -0.0146,-0.04747 0,-0.06211 0.0348,-0.03478 0.27009,0.01349 0.31055,0 0.17282,-0.05761 0.41253,-0.423648 0.55899,-0.496882 0.0384,-0.01918 0.22542,-0.03909 0.24844,-0.06211 0.0146,-0.01463 -0.0146,-0.04747 0,-0.06211 0.0521,-0.05211 0.2318,0.02625 0.31055,0 0.11587,-0.03862 0.15472,-0.07736 0.24844,-0.124219 0.0652,-0.03262 0.49924,-0.02987 0.55899,0 0.0185,0.0093 -0.009,0.04359 0,0.06211 0.12925,0.258487 -0.004,-0.0664 0.12422,0.06211 0.056,0.05597 0.0872,0.236492 0.12422,0.310549 0.12925,0.258488 -0.004,-0.0664 0.12422,0.06211 0.0554,0.05537 0.0291,0.182478 0.0621,0.248441 0.0744,0.148807 0.16551,0.35174 0.24844,0.49688 0.0514,0.08988 0.14004,0.155853 0.18633,0.248441 0.0185,0.03703 -0.0131,0.08494 0,0.124219 0.0248,0.07453 0.16149,0.111797 0.18633,0.18633 0.0131,0.03928 -0.0131,0.08494 0,0.12422 0.0328,0.09852 0.19011,0.127992 0.24844,0.18633 0.0327,0.03273 0.0207,0.103518 0.0621,0.124222 0.0926,0.04629 0.20704,0 0.31055,0 0.26396,0 0.48936,0.01093 0.74532,0.06211 0.1142,0.02283 0.2626,-0.03669 0.37266,0 0.0278,0.0093 0.0359,0.04902 0.0621,0.06211 0.0663,0.03313 0.18219,-0.03313 0.24845,0 0.1876,0.0938 0.43443,0.09299 0.62109,0.18633 0.0909,0.04543 0.25345,-0.02855 0.43478,0.06211 0.19761,0.09881 0.53411,-0.0704 0.74532,0 0.26015,0.08672 0.9074,0.130281 1.18009,0.06211 0.0449,-0.01122 0.0788,-0.05303 0.12422,-0.06211 0.18115,-0.03623 0.24154,0.04831 0.43477,0 0.0898,-0.02246 0.16333,-0.08775 0.24844,-0.124219 0.15359,-0.06583 0.33543,-0.08386 0.49688,-0.124219 0.17608,-0.04402 0.46167,0.07972 0.6211,0 0.19656,-0.09828 0.39781,-0.174011 0.6211,-0.248441 0.0524,-0.01746 0.13728,0.02453 0.18633,0 0.12605,-0.06303 0.24804,-0.144788 0.37266,-0.18633 0.0723,-0.02408 1.01565,-0.02011 1.05587,0 0.0414,0.02069 0.0915,0.02938 0.12422,0.06211 0.0146,0.01463 -0.0185,0.05285 0,0.06211 0.037,0.01852 0.0849,-0.0131 0.12422,0 0.10812,0.03604 0.25829,0.129141 0.37266,0.186331 0.54254,0.271266 -0.2631,-0.108405 0.24844,0.06211 0.0736,0.02453 0.11649,0.15141 0.18633,0.18633 0.0857,0.04284 0.0556,-0.07522 0.12422,0.06211 0.0557,0.111321 0.13067,0.26134 0.18633,0.37266 0.0262,0.05237 0.11002,0.06741 0.12422,0.12422 0.0151,0.06026 -0.0102,0.125065 0,0.18633 0.0215,0.129159 0.10269,0.243501 0.12422,0.37266 0.0102,0.06126 -0.0102,0.125066 0,0.18633 0.0215,0.129159 0.0985,0.244264 0.12422,0.372661 0.1033,0.516485 -0.0745,1.093192 0,1.61486 0.0619,0.433433 0.14039,0.945261 0,1.366422 -0.0301,0.09033 0.042,0.226502 0,0.31055 -0.056,0.112059 -0.12003,0.177956 -0.18633,0.310549 -0.009,0.01852 0,0.04141 0,0.06211 -0.0207,0.04141 -0.0364,0.0857 -0.0621,0.124219 -0.0369,0.05538 -0.26851,0.351642 -0.31055,0.37266 -0.0679,0.03397 -0.18434,0.06012 -0.24844,0.12422 -0.0146,0.01463 0.0146,0.04747 0,0.06211 -0.0655,0.06547 -0.18297,0.05875 -0.24844,0.124219 -0.15085,0.150855 0.0185,0.0912 -0.12422,0.18633 -0.0545,0.03632 -0.14004,0.01582 -0.18633,0.06211 -0.0146,0.01463 0.009,0.04359 0,0.06211 -0.034,0.06792 -0.84994,0.939287 -0.93165,0.993759 -0.083,0.0553 -0.24071,0.116491 -0.31055,0.18633 -0.0861,0.08606 -0.1262,0.187323 -0.24844,0.248441 -0.0377,0.01881 -0.16031,0.03608 -0.18633,0.06211 -0.0146,0.01463 0.0146,0.04747 0,0.06211 -0.0311,0.03105 -0.15528,-0.03106 -0.18633,0 -0.0146,0.01463 0.0146,0.04747 0,0.06211 -0.0376,0.03761 -0.32743,0 -0.37266,0 -0.17834,0 -0.38266,0.02519 -0.55899,0 -0.61148,-0.08735 -1.12143,-0.532865 -1.73908,-0.621101 -0.11295,-0.01614 -0.51515,-0.05298 -0.6211,0 -0.0414,0.02069 -0.0915,0.02938 -0.12422,0.06211 -0.0146,0.01463 0.0185,0.05285 0,0.06211 -0.0662,0.03312 -0.18219,-0.03313 -0.24844,0 -0.17378,0.08688 -0.36062,0.120205 -0.55899,0.18633 -0.18633,0.06211 -0.43477,-0.06211 -0.62111,0 -0.0947,0.03156 -0.19874,0.09627 -0.31054,0.124219 -0.22272,0.05568 -1.76761,0.03156 -1.92542,0 -0.31452,-0.0629 -0.61638,-0.09625 -0.93165,-0.18633 -0.20144,-0.05756 -0.36406,-0.183465 -0.55899,-0.248441 -0.155,-0.05167 -0.33749,-0.04452 -0.49688,-0.124219 -0.0844,-0.04221 -0.16402,-0.144121 -0.24844,-0.18633 -0.0662,-0.03313 -0.18219,0.03312 -0.24844,0 -0.0897,-0.04484 -0.15876,-0.07938 -0.24844,-0.12422 -0.0994,-0.04969 -0.27328,0.04969 -0.37266,0 -0.11508,-0.05754 -0.23714,-0.141157 -0.37266,-0.18633 -0.0559,-0.01863 -0.13043,0.01863 -0.18633,0 -0.0828,-0.02761 -0.16891,-0.08446 -0.24844,-0.124222 -0.0497,-0.02484 -0.13664,0.02484 -0.18633,0 -0.18941,-0.0947 0.1136,-0.04924 -0.18633,-0.124219 -0.36971,-0.09243 -0.74826,-0.156011 -1.11798,-0.248441 -0.25703,-0.06426 -0.49543,-0.227253 -0.74532,-0.310549 -0.38737,-0.129122 -0.76445,0.116268 -1.05587,0.310549 -0.0995,0.06637 -0.097,0.203761 -0.18633,0.248441 -0.0532,0.02662 -0.13435,0.04625 -0.18633,0.124219 -0.0906,0.135822 -0.15079,0.304578 -0.24844,0.434772 -0.0527,0.07027 -0.14705,0.107767 -0.18633,0.18633 -0.0549,0.109876 0,0.382214 0,0.496879 0,0.228418 0.0277,0.366017 0.12422,0.558991 0.0262,0.05238 0.098,0.07185 0.12422,0.124219 0.19064,0.381288 0.57835,0.375428 0.99376,0.434771 0.47714,0.06816 1.07018,0.10032 1.49064,0.31055 0.13902,0.06951 0.15391,0.170119 0.31055,0.248441 0.0376,0.01881 0.16031,0.03608 0.18633,0.06211 0.12851,0.128508 -0.19638,-0.005 0.0621,0.124219 0.62042,0.310208 1.36338,0.720558 1.80119,1.304311 0.18139,0.241845 0.0698,0.535146 0.12422,0.807429 0.0291,0.145611 0.088,0.289891 0.12422,0.434771 0.0391,0.156247 -0.0391,0.09219 0,0.248441 0.0378,0.151157 0.14848,0.283337 0.18633,0.434769 0.0101,0.04017 -0.0131,0.08494 0,0.124219 0.008,0.02331 0.97408,1.033725 0.99376,1.055873 0.31491,0.354274 0.61931,0.756309 0.99376,1.05587 0.0723,0.05784 0.17437,0.06867 0.24844,0.124219 0.0469,0.03513 0.074,0.09409 0.12422,0.124222 0.20877,0.125259 0.14297,-0.0016 0.31055,0.124219 0.0469,0.03513 0.0719,0.09803 0.12422,0.12422 0.037,0.01852 0.0849,-0.0131 0.12422,0 0.0556,0.01852 0.0718,0.09803 0.12422,0.124219 0.10986,0.05493 0.31709,-0.02942 0.43477,0 0.0851,0.02127 0.17759,0.106508 0.24845,0.124222 0.15588,0.03897 0.34099,-0.03897 0.49688,0 0.22966,0.05742 0.44418,0.138525 0.68321,0.18633 0.13193,0.02638 0.30704,-0.04258 0.43477,0 0.0278,0.0093 0.0343,0.05285 0.0621,0.06211 0.0393,0.0131 0.084,-0.01003 0.12423,0 0.16805,0.04202 0.35162,0.175811 0.49688,0.248441 0.15581,0.07791 0.38908,0.09024 0.55899,0.12422 0.12839,0.02569 0.2435,0.102695 0.37266,0.124221 0.32983,0.05497 1.11697,-0.06171 1.42853,-0.18633 0.0839,-0.03355 0.16665,-0.145436 0.24844,-0.18633 0.0185,-0.0093 0.0414,0 0.0621,0 0.0414,-0.02069 0.0857,-0.03643 0.12422,-0.06211 0.095,-0.06332 0.0488,-0.08576 0.12422,-0.18633 0.18214,-0.242864 0.40518,-0.467294 0.6211,-0.68321 0.12422,-0.124219 0.22971,-0.270552 0.37266,-0.37266 0.0753,-0.05382 0.1714,-0.07286 0.24844,-0.124219 0.0831,-0.0554 0.44586,-0.51907 0.49688,-0.621102 0.009,-0.01852 -0.0146,-0.04747 0,-0.06211 0.0146,-0.01463 0.0475,0.01463 0.0621,0 0.0146,-0.01463 -0.009,-0.04359 0,-0.06211 0.0463,-0.09255 0.28011,-0.326387 0.37266,-0.37266 0.0185,-0.0093 0.0475,0.01463 0.0621,0 0.0293,-0.02928 -0.0293,-0.09494 0,-0.124222 0.031,-0.03105 0.0932,-0.03105 0.12422,-0.06211 0.026,-0.02603 0.0433,-0.148688 0.0621,-0.186331 0.0451,-0.09022 0.14369,-0.163168 0.18633,-0.248441 0.0621,-0.124219 0.24844,-0.18633 0.31055,-0.310549 0.0285,-0.057 0.26553,-0.412261 0.31055,-0.434771 0.0425,-0.02125 0.14987,-0.0513 0.18633,-0.12422 0.0387,-0.07744 0.16898,-0.301876 0.31055,-0.37266 0.0185,-0.0093 0.0475,0.01463 0.0621,0 0.0207,-0.02069 0.0414,-0.165626 0.0621,-0.18633 0.031,-0.03105 0.0932,-0.03105 0.12422,-0.06211 0.031,-0.03105 0.031,-0.09316 0.0621,-0.124219 0.0328,-0.03281 0.27774,-0.153519 0.31055,-0.18633 0.0146,-0.01463 -0.0146,-0.04747 0,-0.06211 0.0207,-0.02069 0.16563,-0.0414 0.18633,-0.06211 0.0146,-0.01463 -0.0146,-0.04747 0,-0.06211 0.031,-0.03105 0.0932,-0.03105 0.12422,-0.06211 0.0311,-0.03105 0.0311,-0.09316 0.0621,-0.124219 0.0146,-0.01463 0.0475,0.01463 0.0621,0 0.12851,-0.128508 -0.19638,0.005 0.0621,-0.124219 0.0185,-0.0093 0.0475,0.01463 0.0621,0 0.019,-0.019 0.16488,-0.886508 0.18633,-0.993762 0.0277,-0.138395 -0.0342,-0.298116 0,-0.434768 0.0379,-0.15154 0.07,-0.442643 0.18633,-0.558991 0.0146,-0.01463 0.0475,0.01463 0.0621,0 0.0439,-0.04392 0,-0.124222 0,-0.18633 0,-0.140322 -0.009,0.02778 0.0621,-0.18633 0.0424,-0.127254 0,-0.363503 0,-0.496882 0,-0.190313 -0.0157,-0.341247 0.0621,-0.49688 0.0504,-0.100711 -0.036,-0.264615 0,-0.37266 0.14996,-0.449887 -0.0179,0.09792 0.12422,-0.18633 0.0586,-0.117116 0.0568,-0.26038 0.12422,-0.372661 0.0301,-0.05021 0.0828,-0.08281 0.12422,-0.124219 0.0414,-0.06211 0.0872,-0.121518 0.12422,-0.18633 0.12618,-0.220813 0.23179,-0.471906 0.37266,-0.68321 0.0325,-0.04872 0.0941,-0.07401 0.12422,-0.124222 0.12068,-0.201128 0.1216,-0.555053 0.24844,-0.745318 0.0678,-0.101632 0.2096,-0.194027 0.24844,-0.310552 0.0131,-0.03928 -0.0185,-0.08718 0,-0.124219 0.009,-0.01852 0.0475,0.01463 0.0621,0 0.0146,-0.01463 -0.009,-0.04359 0,-0.06211 0.0262,-0.05237 0.1057,-0.06867 0.12422,-0.124219 0.0205,-0.06147 0.0136,-0.199898 0.0621,-0.248441 0.0135,-0.01347 0.11817,-0.05 0.12422,-0.06211 0.0185,-0.03704 -0.0131,-0.08494 0,-0.124221 0.0384,-0.115208 0.23965,-0.278125 0.31055,-0.372661 0.16134,-0.215111 0.44636,-0.803272 0.49688,-1.05587 0.0354,-0.17704 -0.0438,-0.383923 0,-0.55899 0.0796,-0.318403 0.20645,-0.65781 0.24844,-0.993759 0.0469,-0.374994 0,-0.805294 0,-1.180092 0,-0.621149 0.11692,-1.4678 -0.0621,-2.049632 -0.28878,-0.938528 -0.0512,-0.04037 -0.37266,-0.68321 -0.16029,-0.320582 -0.30971,-1.158827 -0.6211,-1.366419 -0.13579,-0.09053 -0.2389,-0.22138 -0.37266,-0.310552 -0.0313,-0.136838 -0.12777,-0.03283 -0.18633,-0.06211 -0.0524,-0.02619 -0.0687,-0.105703 -0.12422,-0.124222 -0.0589,-0.01963 -0.13078,0.02778 -0.18633,0 -0.0524,-0.02619 -0.0718,-0.09803 -0.12422,-0.124219 -0.0621,-0.03106 -0.33323,-0.07345 -0.43477,-0.124219 -0.0886,-0.04428 -0.16853,-0.133056 -0.24844,-0.18633 -0.23269,-0.155131 -0.55022,-0.207666 -0.80743,-0.31055 -0.0808,0.03456 -0.13549,-0.0988 -0.18633,-0.124221 -0.23645,-0.118227 -1.13844,0.11399 -1.49064,-0.06211 -0.12422,-0.06211 -0.2571,-0.109294 -0.37266,-0.18633 -0.20508,-0.136721 -0.34746,-0.355859 -0.55899,-0.496882 -0.077,-0.05136 -0.17437,-0.06867 -0.24844,-0.124219 -0.0468,-0.03513 -0.0698,-0.102473 -0.12422,-0.12422 -0.0577,-0.02307 -0.12543,0.01217 -0.18633,0 -0.13148,-0.0263 -0.24241,-0.153767 -0.37266,-0.18633 -0.21517,-0.05379 -1.03048,-0.03529 -1.2422,0 -0.0457,0.0076 -0.0828,0.04141 -0.12422,0.06211 -0.0621,0.02069 -0.12175,0.05135 -0.18633,0.06211 -0.16008,0.02668 -0.3378,-0.03182 -0.49688,0 -0.12423,0.02484 -0.24843,0.09937 -0.37266,0.124219 -0.0906,0.01812 -0.41853,0.02294 -0.49688,0.06211 -0.0616,0.03081 -0.122,0.102774 -0.18633,0.124219 -0.14049,0.04683 -0.28894,0.0513 -0.43477,0.124222 -0.18941,0.0947 0.11359,0.04924 -0.18633,0.124219 -0.0402,0.01005 -0.0872,-0.01852 -0.12422,0 -0.0414,0.02069 -0.0207,0.103516 -0.0621,0.124219 -0.037,0.01852 -0.0849,-0.0131 -0.12422,0 -0.11242,-0.03744 -0.11552,0.100616 -0.18633,0.124222 -0.0913,0.03044 -0.22474,0.01921 -0.31055,0.06211 -0.0616,0.03081 -0.122,0.102775 -0.18633,0.124222 -0.0393,0.0131 -0.0872,-0.01852 -0.12423,0 -0.0524,0.02619 -0.074,0.09409 -0.12421,0.124219 -0.0561,0.03368 -0.12778,0.03283 -0.18633,0.06211 -0.13354,0.06676 -0.23103,0.201229 -0.37267,0.248439 -0.0589,0.01963 -0.12607,-0.01506 -0.18633,0 -0.0284,0.0071 -0.0343,0.05285 -0.0621,0.06211 -0.0589,0.01963 -0.14242,-0.04392 -0.18633,0 -0.0146,0.01463 0.0146,0.04747 0,0.06211 -0.0174,0.01741 -0.28515,0.0127 -0.31056,0 -0.26251,-0.13126 -0.48979,-0.388641 -0.74532,-0.558991 -0.28102,-0.187351 -0.5884,-0.309459 -0.86954,-0.496882 -0.10989,-0.07326 -0.19637,-0.206417 -0.24844,-0.310549 -0.0331,-0.06625 0.0331,-0.18219 0,-0.248441 -0.0131,-0.02619 -0.049,-0.03592 -0.0621,-0.06211 -0.0483,-0.09669 -0.0131,-1.101696 0,-1.180092 0.0421,-0.25255 0.15012,-0.491823 0.18633,-0.74532 0.0532,-0.37238 0.0953,-0.753724 0.18633,-1.117981 0.0423,-0.16904 0.29119,-0.349266 0.18633,-0.558988 -0.0621,-0.124222 -0.24844,-0.18633 -0.31055,-0.310552 -0.0701,-0.140288 -0.20614,-0.413621 -0.37265,-0.49688 -0.0185,-0.0093 -0.0475,0.01463 -0.0621,0 -0.12632,-0.126328 -0.16648,-0.321117 -0.37266,-0.37266 -0.0974,-0.02437 -0.21312,0.02437 -0.31055,0 -0.0898,-0.02246 -0.15765,-0.106061 -0.24844,-0.124219 -0.18849,-0.0377 -0.33488,-0.04322 -0.49688,-0.124222 -0.0755,-0.03774 -0.26255,-0.0141 -0.31055,-0.06211 -0.0146,-0.01463 0.0146,-0.04747 0,-0.06211 -0.0146,-0.01463 -0.0475,0.01463 -0.0621,0 -0.0146,-0.01463 0.009,-0.04359 0,-0.06211 -0.002,-0.0036 -0.36365,-0.425757 -0.37266,-0.434769 -0.0146,-0.01463 -0.0436,0.0093 -0.0621,0 -0.18415,-0.09208 -0.2549,-0.251672 -0.37266,-0.310549 -0.11434,-0.05717 -0.01,-0.129159 -0.12422,-0.18633 -0.13984,-0.06992 -0.0879,-0.137105 -0.18633,-0.186331 -0.0185,-0.0093 -0.0475,0.01463 -0.0621,0 -0.0146,-0.01463 0.0146,-0.04747 0,-0.06211 -0.0146,-0.01463 -0.0475,0.01463 -0.0621,0 -0.0382,-0.03816 -0.041,-0.144737 -0.12422,-0.18633 -0.0185,-0.0093 -0.0475,0.01463 -0.0621,0 -0.0206,-0.02061 -0.10588,-0.211767 -0.12422,-0.248441 -0.0436,-0.08729 -0.35304,-0.269687 -0.43477,-0.310549 -0.17054,-0.08527 -0.27653,-0.329279 -0.43477,-0.434772 -0.077,-0.05136 -0.1714,-0.07286 -0.24844,-0.124219 -0.0685,-0.04568 -0.11295,-0.149643 -0.18633,-0.18633 -0.0185,-0.0093 -0.0475,0.01463 -0.0621,0 -0.0146,-0.01463 0.0146,-0.04747 0,-0.06211 -0.0146,-0.01463 -0.0436,0.0093 -0.0621,0 -0.0745,-0.03726 -0.1118,-0.149063 -0.18633,-0.18633 -0.23755,-0.118774 -0.30394,-0.185007 -0.6211,-0.248438 z"
       id="path20" /></g></svg>
