<?xml version="1.0" encoding="UTF-8" standalone="no"?>
<!-- Created with Inkscape (http://www.inkscape.org/) -->

<svg
   width="105.43146"
   height="93.337708"
   viewBox="0 0 27.895407 24.695601"
   version="1.1"
   id="svg1"
   xml:space="preserve"
   xmlns="http://www.w3.org/2000/svg"
   xmlns:svg="http://www.w3.org/2000/svg"><defs
     id="defs1" /><g
     id="layer1"
     transform="translate(-223.9032,-53.285935)"><path
       style="fill:#000000;fill-opacity:0.498525;stroke-width:0.264583"
       d="m 229.74707,77.915933 c -0.0112,-0.486712 -0.0131,-0.970714 0.0656,-1.442887 0.018,-0.107823 -0.0346,-0.224229 0,-0.327929 0.0196,-0.05866 0.10352,-0.07586 0.13118,-0.13117 0.01,-0.01955 -0.0155,-0.05013 0,-0.06559 0.0241,-0.02405 1.07419,-0.118758 1.18054,-0.06558 0.0787,0.03935 0.11806,0.157406 0.19676,0.196758 0.0195,0.0098 0.0437,0 0.0656,0 0.0437,0.02185 0.0905,0.03847 0.13118,0.06558 0.0514,0.0343 0.0759,0.103518 0.13117,0.131172 0.0391,0.01955 0.0921,-0.01955 0.13117,0 0.15326,0.07663 0.29538,0.180486 0.4591,0.262342 0.15353,0.07677 0.35986,0.07623 0.52468,0.131173 0.37301,0.124335 1.3048,-0.113043 1.63965,-0.196758 0.31766,-0.07941 0.68194,0.08534 0.98379,-0.06558 0.28027,-0.140139 -0.14911,0.009 0.13117,-0.131172 0.16768,-0.08384 0.43503,-0.203732 0.59027,-0.32793 0.0382,-0.03054 0.031,-0.0966 0.0656,-0.13117 0.0747,-0.0747 0.55925,-0.32793 0.65586,-0.32793 0.71072,0 1.39262,0.06558 2.09874,0.06558 0.27693,0 1.07761,-0.07804 1.31172,0 0.21338,0.07113 0.37609,0.256535 0.59027,0.32793 0.23291,0.07764 1.3829,0 1.70523,0 0.0728,0 0.41272,-0.04638 0.4591,0 0.0155,0.01545 -0.0154,0.05013 0,0.06558 0.0873,0.08734 0.54005,0.08096 0.59027,0.131173 0.0292,0.02915 -0.051,0.123883 0.0656,0.06558 0.25169,-0.125847 0.43655,-0.360204 0.65586,-0.524685 0.0626,-0.04694 0.3522,-0.155451 0.39351,-0.196757 0.0155,-0.01545 -0.0154,-0.05013 0,-0.06559 0.0215,-0.02151 0.2134,-0.106699 0.26234,-0.13117 0.0391,-0.01955 0.0921,0.01955 0.13118,0 0.35261,-0.176308 0.94217,-0.638223 1.11496,-0.983787 0.10866,-0.217337 0.13117,-0.892188 0.13117,-1.180544 0,-0.108225 -0.033,-0.294532 0,-0.393515 0.0308,-0.09244 0.16144,-0.277479 0.26234,-0.32793 0.228,-0.114001 0.97981,-0.219945 1.24613,-0.131172 0.0293,0.0098 0.0363,0.05581 0.0656,0.06559 0.2996,0.09987 1.2155,-0.03352 1.50847,-0.131172 0.0202,-0.0067 0.24214,-0.05885 0.26234,-0.06558 0.0903,-0.0301 0.35048,-0.438624 0.39352,-0.524687 0.0439,-0.08785 0.15646,-0.09088 0.19676,-0.131173 0.0309,-0.03092 -0.0309,-0.100253 0,-0.13117 0.0154,-0.01545 0.0501,0.01545 0.0656,0 0.0928,-0.09277 -0.0869,-0.941157 0,-1.114959 0.0799,-0.159867 0.18241,-0.299233 0.26234,-0.459103 0.0348,-0.0695 -0.0248,-0.188028 0,-0.262342 0.0408,-0.122356 0.0817,-0.16338 0.13118,-0.262342 0.01,-0.01955 -0.0155,-0.05013 0,-0.06559 0.0219,-0.02185 0.17489,-0.04372 0.19675,-0.06558 0.0155,-0.01545 -0.0154,-0.05013 0,-0.06559 0.0155,-0.01545 0.0501,0.01545 0.0656,0 0.0154,-0.01545 -0.0154,-0.05013 0,-0.06559 0.0154,-0.01545 0.0501,0.01545 0.0656,0 0.0155,-0.01545 -0.0155,-0.05012 0,-0.06558 0.0155,-0.01545 0.046,0.0098 0.0656,0 0.0566,-0.0283 0.30684,-0.372425 0.39351,-0.4591 0.0594,-0.05943 0.19655,-0.262136 0.19676,-0.262345 0.0154,-0.01545 0.0501,0.01545 0.0656,0 0.0223,-0.02233 0.0163,-0.360899 0,-0.393514 -0.0261,-0.05225 -0.14786,-0.164159 -0.19676,-0.196758 -0.0122,-0.0081 -0.25562,-0.05887 -0.26234,-0.06558 -0.0155,-0.01545 0.0154,-0.05013 0,-0.06558 -0.0275,-0.02748 -0.15701,-0.04571 -0.19676,-0.06559 -0.1115,-0.05575 -0.22209,-0.191781 -0.32793,-0.262343 -0.23553,-0.157019 -0.52511,-0.196863 -0.78703,-0.262342 -0.20599,-0.0515 -0.44734,0.0417 -0.65586,0 -0.16462,-0.03293 -0.36797,-0.06849 -0.52468,-0.131172 -0.0732,-0.02927 -0.12198,-0.106246 -0.19676,-0.131173 -0.0622,-0.02074 -0.1381,0.02933 -0.19676,0 -0.1672,-0.0836 -0.49138,-0.195736 -0.59027,-0.393515 -0.01,-0.01955 0.0155,-0.05012 0,-0.06558 -0.0347,-0.03466 -0.8106,-0.405302 -0.9182,-0.459099 -0.0525,-0.02625 -0.14429,0.02625 -0.19676,0 -0.31971,-0.159859 -0.62286,-0.377018 -0.9182,-0.524688 -0.0745,-0.03726 -0.16862,0.01408 -0.32793,-0.06558 -0.0697,-0.03483 -0.18517,0.01929 -0.26234,0 -0.44267,-0.110668 -1.05006,-0.122889 -1.50848,-0.06559 -0.39919,0.0499 -0.7987,0.12728 -1.18054,0 -0.0553,-0.01844 -0.14497,0.0259 -0.19676,0 -0.21589,-0.107945 -0.42543,-0.17431 -0.65585,-0.327927 -0.23321,-0.155467 -0.36509,-0.543267 -0.59028,-0.65586 -0.13217,-0.06608 -0.19547,-0.163002 -0.32793,-0.262342 -0.0876,-0.06569 -0.28742,-0.170233 -0.39351,-0.196758 -0.0424,-0.01061 -0.0921,0.01955 -0.13117,0 -0.0553,-0.02765 -0.0759,-0.103518 -0.13117,-0.131172 -0.0391,-0.01955 -0.0888,0.01061 -0.13118,0 -0.13501,-0.03375 -0.2585,-0.09742 -0.39351,-0.13117 -0.26749,-0.06687 -0.58513,0.06687 -0.85262,0 -0.37611,-0.09403 -0.8516,-0.294629 -1.18054,-0.459102 -0.0587,-0.02933 -0.13454,0.02074 -0.19676,0 -0.0293,-0.0098 -0.0362,-0.05581 -0.0656,-0.06558 -0.15714,-0.05238 -0.3641,-0.01206 -0.52468,-0.06558 -0.1836,-0.0612 -0.34319,-0.26743 -0.52469,-0.32793 -0.0622,-0.02074 -0.13809,0.02933 -0.19675,0 -0.11339,-0.05669 -0.14721,-0.1104 -0.26235,-0.196757 -0.20846,-0.156348 -0.53196,-0.204031 -0.72144,-0.393515 -0.0154,-0.01545 0.0155,-0.05013 0,-0.06558 -0.0154,-0.01545 -0.0656,0.02185 -0.0656,0 0,-0.05808 0.23827,-0.11312 0.26235,-0.131173 0.0495,-0.0371 0.0737,-0.108206 0.13117,-0.131172 0.12388,-0.04955 0.39465,-0.0034 0.4591,-0.196757 0.0138,-0.04148 -0.0138,-0.08969 0,-0.13117 0.0511,-0.153451 0.29867,-0.316836 0.39351,-0.459103 0.24388,-0.365818 -0.0764,0.09261 0.0656,-0.262342 0.0293,-0.07319 0.0959,-0.126256 0.13117,-0.196757 0.0618,-0.123669 0.0693,-0.269846 0.13117,-0.393515 0.0352,-0.0705 0.1019,-0.123571 0.13117,-0.196758 0.0162,-0.0406 -0.0162,-0.09057 0,-0.131172 0.0293,-0.07319 0.1019,-0.123571 0.13118,-0.196757 0.19826,-0.495655 -0.27254,-2.043356 -0.59028,-2.361089 -0.0275,-0.02748 -0.15701,-0.04571 -0.19675,-0.06558 -0.27296,-0.136477 0.0701,0.0045 -0.0656,-0.131173 -0.0275,-0.02748 -0.15701,-0.04571 -0.19676,-0.06558 -0.007,-0.0034 -0.32385,-0.256236 -0.32793,-0.262345 -0.22088,-0.331325 -5.3e-4,-0.0016 -0.0656,-0.196758 -0.0642,-0.192653 -0.21049,-0.368096 -0.32793,-0.524684 -0.42377,-0.565031 -0.93174,-0.572164 -1.50848,-0.918202 -0.2386,-0.143164 -0.46378,-0.307626 -0.72144,-0.393515 -0.04,-0.01334 -0.15673,-0.11783 -0.19676,-0.131173 -0.095,-0.03166 -0.23502,-0.01913 -0.32792,-0.06558 -0.0651,-0.03253 -0.12883,-0.108526 -0.19676,-0.131172 -0.0415,-0.01384 -0.0921,0.01955 -0.13117,0 -0.0196,-0.0098 0.0154,-0.05013 0,-0.06558 -0.25597,-0.255963 -0.0352,0.01519 -0.19676,-0.06559 -0.0553,-0.02765 -0.0759,-0.103518 -0.13117,-0.131172 -0.12971,-0.06485 -0.32939,-0.06632 -0.4591,-0.131173 -0.18724,-0.09362 -0.37636,-0.27445 -0.59028,-0.327927 -0.16361,-0.0409 -1.15269,-0.05301 -1.31171,0 -0.11141,0.03714 -0.23518,0.08479 -0.32793,0.13117 -0.0553,0.02765 -0.0759,0.103518 -0.13117,0.131172 -0.0673,0.03363 -0.19509,0.03196 -0.26235,0.06558 -0.0553,0.02765 -0.0759,0.103518 -0.13117,0.131173 -0.19123,0.09562 -0.39532,0.263548 -0.59027,0.393514 -0.10012,0.06675 -0.0966,0.195594 -0.19676,0.262343 -0.13341,0.08894 -0.2601,0.173402 -0.39351,0.262345 -0.0956,0.06374 -0.42353,0.352388 -0.4591,0.459099 -0.0655,0.196342 -0.16285,0.935154 0.0656,1.049372 0.24436,0.122177 0.64217,0.141552 0.91821,0.196758 0.20242,0.04049 0.46074,-0.06504 0.65585,0 0.12919,0.04306 0.26125,0.104719 0.39352,0.131172 0.0643,0.01286 0.13313,-0.0159 0.19675,0 0.0998,0.02495 0.22931,0.163886 0.32793,0.196757 0.0622,0.02074 0.15039,-0.04638 0.19676,0 0.0328,0.03279 0.0328,0.09838 0.0656,0.131173 0.0154,0.01545 0.0501,-0.01545 0.0656,0 0.0464,0.04638 0,0.13117 0,0.196757 0,0.190201 0.0598,0.542177 0,0.721442 -0.01,0.02933 -0.0558,0.03626 -0.0656,0.06559 -0.0456,0.136702 -0.0194,0.320593 -0.0656,0.4591 -0.01,0.02933 -0.0558,0.03625 -0.0656,0.06558 -0.0138,0.04148 0.0106,0.08875 0,0.131172 -0.0614,0.245742 -0.21424,0.494086 -0.32792,0.721445 -0.0582,0.116387 -0.15549,0.20412 -0.19676,0.327927 -0.0254,0.07623 -0.0309,0.192892 -0.0656,0.262345 -0.0138,0.02765 -0.0558,0.03625 -0.0656,0.06558 -0.0138,0.04148 0.0138,0.08969 0,0.131172 -0.0196,0.05866 -0.10352,0.07586 -0.13118,0.131173 -0.0817,0.163375 -0.13437,0.337534 -0.19675,0.524684 -0.057,0.17103 -0.1889,0.312211 -0.26235,0.459103 -0.0276,0.05531 -0.11161,0.07251 -0.13117,0.13117 -0.0138,0.04148 0.0138,0.08969 0,0.131172 -0.0289,0.0867 -0.15495,0.178742 -0.19676,0.262342 -0.1376,0.275207 -0.33706,0.571183 -0.52468,0.852617 -0.0343,0.05145 -0.10352,0.07586 -0.13117,0.13117 -0.01,0.01955 0.0155,0.05013 0,0.06559 -0.1357,0.135699 0.005,-0.207367 -0.13117,0.06558 -0.01,0.01955 0.0155,0.05013 0,0.06558 -0.0309,0.03092 -0.10026,-0.03092 -0.13117,0 -0.0155,0.01545 0.0155,0.05013 0,0.06559 -0.0273,0.02725 -0.86791,0.158128 -0.98379,0.196758 -0.17935,0.05978 -0.34535,0.136974 -0.52469,0.196757 -0.0415,0.01384 -0.10025,-0.03092 -0.13117,0 -0.0155,0.01545 0.0154,0.05013 0,0.06558 -0.0513,0.05126 -0.19743,0.04395 -0.26234,0.06558 -0.0587,0.01955 -0.0759,0.103518 -0.13118,0.131172 -0.0391,0.01955 -0.0921,-0.01955 -0.13117,0 -0.079,0.03951 -0.37934,0.168424 -0.39351,0.196758 -0.0746,0.149132 0,0.492082 0,0.655857 0,1.189987 0.74448,1.751311 1.24613,2.754603 0.0891,0.178107 0.2153,0.336508 0.26234,0.524688 0.036,0.143991 0.0301,0.560173 -0.0656,0.655857 -0.0302,0.03015 -0.21077,0.105383 -0.26235,0.131172 -0.0391,0.01955 -0.10025,-0.03092 -0.13117,0 -0.0155,0.01545 0.0154,0.05013 0,0.06559 -0.0145,0.01447 -0.40285,0.05152 -0.4591,0.06559 -0.11871,-0.03953 -0.12198,0.106243 -0.19676,0.131169 -0.16726,0.05576 -0.3463,0.07171 -0.52468,0.131173 -0.13541,0.04514 -0.15182,0.141496 -0.26235,0.196757 -0.0196,0.0098 -0.0501,-0.01545 -0.0656,0 -0.10347,0.103466 -0.0656,0.439365 -0.0656,0.590273 0,1.114247 -0.0367,1.049371 1.11496,1.049371 0.0511,0 0.44146,-0.03527 0.4591,0 0.0351,0.0702 0.0132,0.288539 -0.0656,0.32793 -0.0196,0.0098 -0.0501,-0.01545 -0.0656,0 -0.0505,0.0505 -0.0874,0.225902 -0.19676,0.262345 -0.0415,0.01384 -0.0897,-0.01384 -0.13117,0 -0.0777,0.0259 -0.12301,0.159883 -0.19676,0.196758 -0.0195,0.0098 -0.0501,-0.01545 -0.0656,0 -0.10702,0.107013 -0.20515,0.507896 -0.13117,0.655857 0.0597,0.119335 0.44657,0.584009 0.59027,0.655857 0.13144,0.06572 0.26471,0.06795 0.39351,0.196757 0.0346,0.03457 0.031,0.0966 0.0656,0.131173 0.16188,0.161877 0.40517,0.204525 0.59027,0.32793 0.0515,0.0343 0.0725,0.111617 0.13117,0.131169 0.18852,0.06284 0.69746,0.03785 0.85262,-0.06558 0.12499,-0.08333 0.34592,-0.447484 0.39351,-0.590272 0.0671,-0.201178 -0.054,-0.410887 0.0656,-0.590272 0.0905,-0.135736 0.20263,-0.162105 0.32793,-0.262342 0.0854,-0.06832 0.11293,-0.220435 0.19675,-0.262345 0.0196,-0.0098 0.0501,0.01545 0.0656,0 0.0803,-0.08025 0.0987,-0.278887 0.19676,-0.327927 0.0618,-0.03092 0.17489,-0.131173 0.19675,-0.06559 0.0853,0.255786 -0.0853,0.596831 0,0.852617 0.01,0.02933 0.0558,0.03625 0.0656,0.06558 0.0276,0.08296 -0.0277,0.179382 0,0.262342 0.01,0.02933 0.0558,0.03626 0.0656,0.06559 0.0401,0.120155 0.10537,0.395711 0.13117,0.524685 0.0611,0.305464 0.0568,0.62077 0.13117,0.918202 0.053,0.211807 -0.0867,0.679167 0,0.852614 0.10392,0.207838 0.0656,0.472789 0.0656,0.721445 0,0.360246 0.0507,0.759746 0,1.114959 -0.0236,0.165024 -0.1555,0.541613 -0.0656,0.721442 0.0403,0.08049 0.18168,0.459103 0.32793,0.459103 0.11147,0 0.21862,-0.04372 0.32793,-0.06559 z"
       id="path24" /></g></svg>
