<?xml version="1.0" encoding="UTF-8" standalone="no"?>
<!-- Created with Inkscape (http://www.inkscape.org/) -->

<svg
   width="153.88203"
   height="68.66452"
   viewBox="0 0 40.714622 18.167487"
   version="1.1"
   id="svg1"
   xml:space="preserve"
   xmlns="http://www.w3.org/2000/svg"
   xmlns:svg="http://www.w3.org/2000/svg"><defs
     id="defs1" /><g
     id="layer1"
     transform="translate(-119.16588,-72.820013)"><path
       style="fill:#000000;fill-opacity:0.498525;stroke-width:0.264583"
       d="m 120.73694,78.783449 c 0.23061,-0.06663 0.50973,0.0582 0.74254,0 0.13694,-0.03424 0.18916,-0.09458 0.29701,-0.148508 0.0433,-0.02167 0.49013,-0.02964 0.51978,0 0.0161,0.01611 0.0598,0.141269 0.0742,0.148508 0.0633,0.03163 0.24002,0.01725 0.29702,0.07425 0.0508,0.05076 0.19332,0.416084 0.22276,0.445521 0.0175,0.01749 0.0568,-0.01749 0.0743,0 0.0311,0.03112 0.0518,0.177761 0.0743,0.222764 0.0439,0.08772 0.16815,0.140848 0.22276,0.22276 0.16359,0.03739 0.0392,0.152755 0.0742,0.222764 0.0743,0.148508 0.29702,0.22276 0.37127,0.371268 0.0512,0.102423 -0.0899,0.06642 0.0743,0.148508 0.0635,0.03175 0.15926,0.0425 0.22276,0.07426 0.13021,0.06511 0.2373,0.230031 0.37127,0.297016 0.11966,0.05983 0.24888,0.08731 0.37127,0.148508 0.0617,0.03083 0.22662,0 0.29701,0 0.38746,0 0.64945,-0.06484 0.96531,-0.222764 0.0792,-0.03961 0.0693,0.03961 0.14851,0 0.0952,-0.04762 0.19815,-0.189807 0.29701,-0.22276 0.047,-0.01566 0.10155,0.01566 0.14851,0 0.0664,-0.02215 0.0903,-0.109675 0.1485,-0.148508 0.32431,-0.216205 -0.0245,0.03291 0.29702,-0.07426 0.11808,-0.03936 0.1842,-0.166349 0.29702,-0.22276 0.045,-0.02252 0.19164,-0.04314 0.22276,-0.07426 0.0175,-0.01752 -0.0175,-0.05675 0,-0.07425 0.0616,-0.06162 0.42449,-0.05044 0.51978,-0.07426 0.11236,-0.02809 0.25891,-0.120417 0.37127,-0.148508 0.048,-0.01201 0.10423,0.02215 0.14851,0 0.0313,-0.01566 0.041,-0.06318 0.0743,-0.07425 0.0588,-0.01961 1.78889,-0.04724 1.9306,0 0.0332,0.01106 0.043,0.0586 0.0743,0.07425 0.17821,0.08911 0.49008,-0.0891 0.66829,0 0.2292,0.114605 0.51358,0.03403 0.74254,0.148508 0.11881,0.0594 0.32672,-0.0594 0.44553,0 0.0313,0.01566 0.0429,0.0586 0.0743,0.07426 0.0443,0.02214 0.1135,-0.035 0.14851,0 0.0456,0.04562 0.0491,0.173035 0.1485,0.22276 0.0222,0.01106 0.0568,-0.01749 0.0743,0 0.0175,0.01749 -0.0175,0.05675 0,0.07426 0.0408,0.04082 0.30888,0.04306 0.37127,0.07425 0.29303,0.146516 0.5393,0.306782 0.81679,0.445524 0.10572,0.05286 0.68215,-0.114847 0.8168,-0.148508 0.23172,-0.05793 0.992,-0.0267 1.1138,-0.148508 0.2898,-0.289793 -0.0172,-0.03988 0.0743,-0.22276 0.0674,-0.134745 0.33314,-0.258892 0.37127,-0.297016 0.0175,-0.01749 -0.0111,-0.05212 0,-0.07426 0.0313,-0.06262 0.1172,-0.08589 0.14851,-0.148508 0.0221,-0.04427 -0.035,-0.113503 0,-0.148508 0.0371,-0.03713 0.11138,-0.03713 0.1485,-0.07425 0.0175,-0.01749 -0.0175,-0.05675 0,-0.07426 0.0175,-0.01749 0.0521,0.01106 0.0743,0 0.0626,-0.03131 0.0859,-0.117199 0.1485,-0.148508 0.0443,-0.02214 0.10424,0.02215 0.14851,0 0.0626,-0.03131 0.0821,-0.126367 0.14851,-0.148507 0.27711,-0.09237 0.44659,0.0488 0.74254,-0.148506 0.11845,-0.07897 0.17081,-0.193103 0.22276,-0.297016 0.031,-0.06201 0.21817,-0.139311 0.22276,-0.148508 0.0221,-0.04428 -0.0157,-0.101547 0,-0.148508 0.0256,-0.07691 0.11168,-0.149098 0.14851,-0.222763 0.0396,-0.07922 -0.0396,-0.06929 0,-0.148508 0.0433,-0.08649 0.10526,-0.136266 0.14851,-0.222761 0.0268,-0.05368 0.0237,-1.117039 0,-1.188063 -0.13072,-0.392153 -0.538,-0.722966 -0.66828,-1.113809 -0.0397,-0.119047 -0.0476,-1.045202 0,-1.188064 0.0151,-0.04531 0.3526,-0.649623 0.37126,-0.668287 0.0441,-0.04413 0.0873,-0.04366 0.14851,-0.07425 0.30903,-0.154514 -0.0794,0.0051 0.0743,-0.148508 0.0247,-0.02474 0.19801,-0.0495 0.22276,-0.07425 0.0516,-0.05159 0.008,-0.226833 0.14851,-0.297016 0.26752,-0.13376 0.94347,-0.222761 1.26231,-0.222761 0.16584,0 0.43801,-0.05201 0.59403,0 0.13263,0.04421 0.25944,0.287393 0.37128,0.371269 0.13247,0.09935 0.33003,0.181525 0.44552,0.297016 0.0631,0.06311 0.0854,0.15966 0.14851,0.222763 0.0573,0.05729 0.37615,0.102259 0.44552,0.148508 0.0874,0.05825 0.14076,0.157163 0.22276,0.222761 0.11411,0.09129 0.90171,0.351578 1.03956,0.371271 0.016,0.0024 0.54247,-0.05156 0.59403,0 0.0175,0.01749 -0.0175,0.05675 0,0.07425 0.0175,0.01749 0.0537,-0.01373 0.0743,0 0.17535,0.116898 0.34228,0.252936 0.51978,0.371271 0.1471,-0.0074 0.0351,0.109371 0.0743,0.148508 0.10293,0.102918 0.2968,0.148064 0.37128,0.297016 0.003,0.0057 0.14421,0.218464 0.1485,0.222761 0.035,0.035 0.11351,-0.035 0.14851,0 0.0371,0.03713 0.0371,0.111381 0.0743,0.148508 0.0175,0.01749 0.0632,-0.02215 0.0743,0 0.0221,0.04427 -0.0222,0.104232 0,0.148508 0.0111,0.02214 0.0567,-0.01749 0.0742,0 0.0311,0.03111 0.0518,0.17776 0.0743,0.22276 0.0445,0.08911 0.17821,0.13366 0.22276,0.222764 0.0714,0.142742 0.15055,0.301111 0.22276,0.445524 0.0785,0.156998 0.32539,0.251137 0.44552,0.371268 0.0829,0.08292 0.193,0.24501 0.29702,0.297016 0.0963,0.04817 0.1967,0.09835 0.29702,0.148508 0.0792,0.0396 0.21781,-0.0396 0.29701,0 0.56336,0.281681 0.87795,0.297016 1.55933,0.297016 0.24209,0 0.56198,-0.275915 0.8168,-0.148508 0.12413,0.06207 0.24093,0.179316 0.37127,0.222763 0.047,0.01566 0.10423,-0.02214 0.14851,0 0.0221,0.01106 -0.0175,0.05675 0,0.07425 0.14017,0.140176 0.70885,0.08778 0.89104,0.148508 0.0934,0.03114 0.18746,0.111988 0.29702,0.148508 0.4797,0.159898 0.76925,-0.215821 1.11381,-0.445524 0.0374,-0.163592 0.15275,-0.03925 0.22276,-0.07425 0.0626,-0.03131 0.0859,-0.117199 0.14851,-0.148508 0.0443,-0.02214 0.1135,0.035 0.14851,0 0.0297,-0.02972 0.0402,-0.09436 0.14851,-0.148508 0.20556,-0.10278 0.44835,0.07567 0.59403,0.148508 0.0795,0.03973 0.47953,0.03401 0.51977,0.07425 0.0175,0.01749 -0.0175,0.05675 0,0.07425 0.035,0.035 0.10424,-0.02214 0.14851,0 0.11075,0.05537 0.18375,0.166127 0.29702,0.222761 0.11657,0.05829 0.98239,0.340823 1.11381,0.297016 0.0879,-0.02932 0.13926,-0.181015 0.22276,-0.222761 0.0635,-0.03175 0.15926,-0.0425 0.22276,-0.07425 0.10092,-0.05046 0.19609,-0.172299 0.29702,-0.222761 0.12811,-0.06406 0.26803,-0.02265 0.37127,-0.07425 0.11074,-0.05537 0.18374,-0.166127 0.29701,-0.222761 0.0619,-0.03096 1.32023,-0.0082 1.33657,0 0.0221,0.01106 -0.0221,0.06319 0,0.07425 0.0664,0.03321 0.17026,-0.0525 0.22277,0 0.0175,0.01749 -0.0175,0.05675 0,0.07426 0.0248,0.02474 0.198,0.0495 0.22276,0.07425 0.0175,0.01749 -0.0175,0.05675 0,0.07425 0.0175,0.01749 0.0521,-0.01106 0.0743,0 0.0994,0.04973 0.10289,0.177142 0.14851,0.222761 0.0175,0.01749 0.0568,-0.01749 0.0743,0 0.11302,0.113019 0.18926,1.02508 0.14851,1.188064 -0.0134,0.05369 -0.0568,0.096 -0.0743,0.148508 -0.0157,0.04696 0.035,0.113503 0,0.148508 -0.0371,0.03713 -0.11138,0.03713 -0.14851,0.07425 -0.0175,0.01749 0.0175,0.05675 0,0.07426 -0.0247,0.02474 -0.19801,0.0495 -0.22276,0.07425 -0.12827,0.12827 -0.18724,0.35351 -0.37127,0.445524 -0.0612,0.03059 -0.10438,0.03012 -0.14851,0.07426 -0.0456,0.04562 -0.0491,0.173035 -0.14851,0.22276 -0.0612,0.03059 -0.10437,0.03012 -0.14851,0.07426 -0.0175,0.01749 0.0175,0.05675 0,0.07425 -0.0175,0.01749 -0.0567,-0.01752 -0.0743,0 -0.15363,0.153636 0.23477,-0.006 -0.0742,0.148508 -0.0222,0.01106 -0.0568,-0.01749 -0.0743,0 -0.0175,0.01749 0.0175,0.05675 0,0.07426 -0.0175,0.01749 -0.0567,-0.01749 -0.0743,0 -0.0175,0.01749 0.0175,0.05675 0,0.07425 -0.15364,0.153636 0.006,-0.234772 -0.14851,0.07426 -0.0111,0.02214 0.0175,0.05675 0,0.07425 -0.0175,0.01749 -0.0567,-0.01749 -0.0743,0 -0.0239,0.02389 -0.33144,0.662874 -0.37127,0.74254 -0.0313,0.06262 -0.1172,0.08589 -0.14851,0.148508 -0.0627,0.125397 0.011,1.878325 0.0743,2.004856 0.0292,0.0584 0.11437,0.262877 0.14851,0.297016 0.0175,0.01749 0.0567,-0.01749 0.0743,0 0.0247,0.02474 0.0495,0.198012 0.0743,0.222764 0.0371,0.03713 0.11138,0.03713 0.14851,0.07425 0.0247,0.02474 0.0495,0.198012 0.0743,0.222764 0.004,0.004 0.21874,0.144483 0.22276,0.148508 0.035,0.035 -0.035,0.113503 0,0.148508 0.0175,0.01749 0.0567,-0.01749 0.0743,0 0.0372,0.0372 0.0256,0.248335 0.0742,0.297013 0.0175,0.01749 0.0568,-0.01749 0.0743,0 0.0175,0.01749 -0.0111,0.05212 0,0.07426 0.0313,0.06262 0.1172,0.08589 0.14851,0.148508 0.0221,0.04428 -0.035,0.113504 0,0.148508 0.0297,0.02972 0.0944,0.04021 0.14851,0.148508 0.1723,0.344601 0.0209,0.814541 0.0743,1.188064 0.0144,0.101026 0.0598,0.195987 0.0743,0.297016 0.0166,0.115866 -0.0555,1.466347 -0.0743,1.485077 -0.035,0.035 -0.1135,-0.035 -0.14851,0 -0.0175,0.01749 0.0175,0.05675 0,0.07426 -0.11902,0.119023 -0.58593,-0.0783 -0.74253,0 -0.0313,0.01566 -0.0429,0.0586 -0.0743,0.07425 -0.0443,0.02215 -0.1135,-0.035 -0.14851,0 -0.0175,0.01751 0.0175,0.05675 0,0.07425 -0.0299,0.02995 -0.36476,0.03387 -0.44552,0.07425 -0.0313,0.01566 -0.041,0.06319 -0.0742,0.07426 -0.13832,0.0461 -0.24362,0.01042 -0.37127,0.07425 -0.16329,0.08164 -0.50787,0.347453 -0.59404,0.519779 -0.0221,0.04428 0.0157,0.101545 0,0.148508 -0.0221,0.06641 -0.1172,0.08589 -0.1485,0.148508 -0.0394,0.07886 -0.008,0.230823 -0.0743,0.297016 -0.0175,0.01749 -0.0567,-0.01749 -0.0743,0 -0.0175,0.01749 0.0111,0.05212 0,0.07425 -0.0228,0.04557 -0.52545,0.411234 -0.59403,0.445524 -0.0706,0.03529 -1.30544,0.03513 -1.41083,0 -0.10584,-0.03528 -0.10692,-0.106924 -0.14851,-0.148508 -0.0505,-0.05049 -0.49901,-0.249508 -0.59403,-0.297016 -0.0626,-0.03131 -0.0859,-0.1172 -0.14851,-0.148508 -0.0221,-0.01106 -0.0567,0.01749 -0.0743,0 -0.0175,-0.01749 0.0175,-0.05675 0,-0.07425 -0.0175,-0.01749 -0.0567,0.01749 -0.0743,0 -0.0175,-0.01749 0.0175,-0.05675 0,-0.07425 -0.0662,-0.06619 -0.21816,-0.03482 -0.29702,-0.07425 -0.10829,-0.05415 -0.11878,-0.118787 -0.14851,-0.148508 -0.0175,-0.01749 -0.0567,0.01749 -0.0743,0 -0.0175,-0.01749 0.0175,-0.05675 0,-0.07425 -0.0175,-0.01749 -0.0567,0.01749 -0.0743,0 -0.035,-0.035 0.0222,-0.10423 0,-0.148508 -0.0488,-0.09767 -0.11503,-0.196596 -0.1485,-0.297016 -0.0423,-0.126807 0.0915,-0.576778 0,-0.668285 -0.0175,-0.01749 -0.0567,0.01749 -0.0743,0 -0.035,-0.035 0.0222,-0.104232 0,-0.148508 -0.0812,-0.162486 -0.24018,-0.275029 -0.29701,-0.445524 -0.0157,-0.04696 0.0221,-0.104229 0,-0.148508 -0.0111,-0.02214 -0.0568,0.01749 -0.0743,0 -0.0343,-0.03432 0.0224,-0.177929 0,-0.22276 -0.0891,-0.178194 -0.20862,-0.343001 -0.29701,-0.519779 -0.0313,-0.06262 -0.12637,-0.08209 -0.14851,-0.148508 -0.0157,-0.04696 0.0157,-0.101545 0,-0.148508 -0.0512,-0.153533 -0.22007,-0.291635 -0.29702,-0.445524 -0.011,-0.02215 0.0175,-0.05675 0,-0.07425 -0.0175,-0.01749 -0.0567,0.01752 -0.0743,0 -0.0175,-0.01749 0.0175,-0.05675 0,-0.07425 -0.049,-0.049 -0.23809,-0.1049 -0.29702,-0.222761 -0.0111,-0.02215 0.0175,-0.05675 0,-0.07425 -0.0671,-0.06705 -0.28279,-0.10427 -0.37127,-0.148508 -0.13186,-0.06593 -0.23318,-0.250987 -0.37127,-0.297016 -0.047,-0.01566 -0.10154,0.01566 -0.1485,0 -0.16196,-0.05398 -0.15821,-0.33899 -0.22277,-0.371269 -0.0443,-0.02214 -0.10423,0.02215 -0.1485,0 -0.14851,-0.07425 -0.11138,-0.148508 -0.22277,-0.22276 -0.18523,-0.123492 -0.34395,-0.209109 -0.51977,-0.297016 -0.0718,-0.03588 -0.26114,-0.225256 -0.29702,-0.297016 -0.0111,-0.02215 0.0175,-0.05675 0,-0.07426 -0.035,-0.035 -0.1135,0.035 -0.14851,0 -0.0175,-0.01749 0.0222,-0.06319 0,-0.07425 -0.0443,-0.02215 -0.10154,0.01566 -0.1485,0 -0.11422,-0.03807 -0.25706,-0.18469 -0.37127,-0.222764 -0.0939,-0.03131 -0.20309,0.03131 -0.29702,0 -0.0332,-0.01106 -0.041,-0.06319 -0.0742,-0.07425 -0.13466,-0.04489 -0.72897,-0.04724 -0.89105,-0.07426 -0.36029,-0.06005 -0.69714,-0.257132 -1.03956,-0.371268 -0.13366,-0.04455 -0.31186,0.04455 -0.44552,0 -0.0332,-0.01106 -0.0429,-0.0586 -0.0743,-0.07425 -0.11631,-0.05816 -1.193,0 -1.41082,0 -0.3326,0 -0.33207,0.01754 -0.59403,0.148507 -0.0222,0.01106 -0.0568,-0.01749 -0.0743,0 -0.0297,0.02972 -0.0402,0.09436 -0.1485,0.148508 -0.18289,0.09144 0.067,-0.21554 -0.22277,0.07426 -0.10336,0.103365 -0.24825,0.532527 -0.37126,0.594032 -0.0443,0.02214 -0.10424,-0.02215 -0.14851,0 -0.12064,0.06032 -0.44607,0.186444 -0.51978,0.297016 -0.0434,0.06512 -0.0189,0.167415 -0.0743,0.22276 -0.0408,0.04082 -0.30889,0.04306 -0.37128,0.07426 -0.0865,0.04325 -0.13626,0.105259 -0.22276,0.148508 -0.0664,0.03321 -0.15231,-0.02349 -0.22276,0 -0.0769,0.02564 -0.14909,0.111675 -0.22276,0.148505 -0.12141,0.06071 -0.81051,0 -0.9653,0 -0.21595,0 -0.70209,-0.09448 -0.89105,0 -0.23731,0.118655 -0.46761,0.154032 -0.74254,0.222763 -0.0983,0.02458 -0.35216,0.176083 -0.44552,0.222761 -0.0422,0.02111 -0.4376,0.347506 -0.44553,0.371271 -0.0425,0.127505 0.0651,0.153107 -0.0743,0.222761 -0.045,0.02252 -0.19165,0.04314 -0.22276,0.07425 -0.0297,0.02972 -0.0402,0.09436 -0.14851,0.148508 -0.0443,0.02215 -0.10423,-0.02215 -0.14851,0 -0.24026,0.120129 -0.48494,0.136898 -0.74254,0.222761 -0.0332,0.01106 -0.0411,0.06319 -0.0743,0.07426 -0.40123,0.133744 -1.06177,-0.105828 -1.48508,0 -0.0537,0.01341 -0.0948,0.06083 -0.14851,0.07425 -0.15196,0.03799 -2.36373,0.04022 -2.52463,0 -0.12824,-0.03206 -0.24558,-0.106609 -0.37127,-0.148508 -0.042,-0.014 -0.19294,0.02982 -0.22277,0 -0.0175,-0.01749 0.0175,-0.05675 0,-0.07425 -0.12375,-0.123756 -0.61878,0.123756 -0.74254,0 -0.0175,-0.01749 0.0175,-0.05675 0,-0.07425 -0.035,-0.035 -0.1135,0.035 -0.1485,0 -0.0175,-0.01749 0.0111,-0.05212 0,-0.07425 -0.0594,-0.118806 -0.23762,-0.17821 -0.29702,-0.297016 -0.0732,-0.146455 -0.14768,-0.295365 -0.22276,-0.445524 -0.0222,-0.04428 0.035,-0.113503 0,-0.148508 -0.0175,-0.01749 -0.0521,0.01106 -0.0743,0 -0.30903,-0.154514 0.0794,0.0051 -0.0743,-0.148508 -0.0341,-0.03414 -0.23862,-0.119311 -0.29701,-0.148508 -0.0792,-0.03961 -0.0693,0.03961 -0.14851,0 -0.15844,-0.07922 0.01,-0.06929 -0.14851,-0.148508 -0.28107,-0.140536 -1.01587,0.09506 -1.33657,0.148508 -0.4654,0.07757 -1.00952,0 -1.48508,0 -0.77997,0 -2.32552,0.136687 -2.8959,-0.148508 -0.11885,-0.05942 -0.84712,0 -0.96531,0 -0.30277,0 -0.99182,0.09016 -1.26231,0 -0.0332,-0.01106 -0.041,-0.06319 -0.0743,-0.07425 -0.0704,-0.02349 -0.15634,0.03321 -0.22276,0 -0.12338,-0.06169 -0.22441,-0.09956 -0.37127,-0.148508 -0.13657,-0.04553 -0.57217,0.09611 -0.66828,0 -0.13002,-0.130014 0.36499,-0.810517 0.44552,-0.891048 0.0175,-0.01749 0.0568,0.01749 0.0743,0 0.035,-0.03501 -0.035,-0.113507 0,-0.148508 0.0371,-0.03713 0.11138,-0.03713 0.14851,-0.07426 0.037,-0.03705 0,-0.313126 0,-0.371268 0,-0.25736 0.0325,-0.528979 -0.0743,-0.74254 -0.0247,-0.0495 -0.12376,-0.02474 -0.14851,-0.07426 -0.0221,-0.04428 0.0157,-0.101545 0,-0.148508 -0.0189,-0.05675 -0.12126,-0.168257 -0.14851,-0.222761 -0.0445,-0.0891 -0.17821,-0.133657 -0.22276,-0.222761 -0.0221,-0.04428 0.035,-0.113506 0,-0.148508 -0.0175,-0.01749 -0.0567,0.01749 -0.0743,0 -0.0343,-0.03433 0.0224,-0.177929 0,-0.222763 -0.0157,-0.03131 -0.0586,-0.04294 -0.0743,-0.07425 -0.0199,-0.03991 -0.0104,-1.082651 0,-1.113811 0.038,-0.113898 0.60147,-1.154655 0.66829,-1.188064 0.0912,-0.04561 0.3784,-0.08138 0.44552,-0.148508 0.0495,-0.04946 -0.0495,-0.09904 0,-0.148507 0.0175,-0.01749 0.0567,0.01749 0.0743,0 0.15114,-0.151133 -0.33612,-0.724967 0.37128,-0.371269 z"
       id="path12" /></g></svg>
