<?xml version="1.0" encoding="UTF-8" standalone="no"?>
<!-- Created with Inkscape (http://www.inkscape.org/) -->

<svg
   width="207.40327"
   height="121.14529"
   viewBox="0 0 54.87545 32.053023"
   version="1.1"
   id="svg1"
   xml:space="preserve"
   xmlns="http://www.w3.org/2000/svg"
   xmlns:svg="http://www.w3.org/2000/svg"><defs
     id="defs1" /><g
     id="layer1"
     transform="translate(-183.95699,-32.194642)"><path
       style="fill:#000000;fill-opacity:0.498525;stroke-width:0.264583"
       d="m 218.57736,63.130472 c 0.26104,-0.257993 0.22153,-0.558845 0.31724,-0.845969 0.20149,-0.604469 0.0202,0.639268 0.21149,-0.31724 0.0996,-0.49811 0.19218,-1.124577 0.42299,-1.586191 0.0847,-0.169333 0.12682,-0.04216 0.21149,-0.211494 0.0737,-0.147484 0.032,-0.381246 0.10575,-0.52873 0.12305,-0.246108 0.35028,-0.555149 0.42298,-0.845969 0.0561,-0.224319 0.18841,-0.885695 0.31724,-1.057462 0.0598,-0.07976 0.1602,-0.126003 0.21149,-0.211492 0.0573,-0.09558 0.0361,-0.230199 0.10575,-0.317238 0.0794,-0.09924 0.21557,-0.13524 0.31724,-0.211493 0.34811,-0.261088 0.84896,-0.743217 1.16321,-1.057462 0.46635,-0.466355 0.81626,-1.002414 1.3747,-1.374701 0.11724,-0.07817 0.40356,-0.381262 0.52873,-0.422984 0.0669,-0.0223 0.15283,0.0391 0.21149,0 0.0656,-0.04372 0.05,-0.155761 0.10574,-0.211492 0.18107,-0.181065 0.5352,-0.194223 0.74023,-0.317238 0.17098,-0.10259 0.26347,-0.303348 0.42298,-0.422987 0.2222,-0.166651 0.50867,-0.26861 0.74023,-0.422984 0.39337,-0.26225 0.73243,-0.630584 1.1632,-0.845968 0.51608,-0.258038 1.22721,-0.603166 1.69194,-0.951717 0.37995,-0.284964 0.78457,-0.561988 1.16321,-0.845971 0.17222,-0.129162 0.33453,-0.325885 0.52873,-0.422984 0.0997,-0.04985 0.22166,-0.0484 0.31724,-0.105746 0.32163,-0.192979 0.64959,-0.513633 0.95172,-0.740222 0.11963,-0.08973 0.18348,-0.25036 0.31724,-0.317238 0.26264,-0.131326 0.57599,-0.287997 0.84596,-0.422987 0.1269,-0.06345 0.19035,-0.253791 0.31724,-0.317238 0.0315,-0.01577 0.0808,0.02492 0.10575,0 0.0557,-0.05573 0.05,-0.15576 0.10575,-0.211492 0.19178,-0.191789 0.52313,-0.355055 0.74022,-0.52873 0.1557,-0.124563 0.26347,-0.303348 0.42298,-0.422987 0.14266,-0.106992 0.40347,-0.191971 0.52874,-0.317238 0.0557,-0.05573 0.05,-0.155758 0.10574,-0.211492 0.12462,-0.124624 0.27634,-0.219477 0.42299,-0.317238 0.13116,-0.08744 0.29182,-0.124053 0.42298,-0.211492 0.14548,-0.09698 0.10876,-0.163137 0.21149,-0.317238 0.16196,-0.242938 0.0604,0.04534 0.31724,-0.211495 0.0232,-0.02318 0.52328,-0.625385 0.52873,-0.634476 0.0573,-0.09558 0.0559,-0.21754 0.10575,-0.317238 0.14618,-0.29237 0.38254,-0.553601 0.52873,-0.845971 0.31934,-0.63868 -0.0152,-0.04477 0.10574,-0.52873 0.0702,-0.280823 0.24704,-0.565145 0.31724,-0.845968 0.12951,-0.518007 0,-2.302285 0,-2.855148 0,-0.283564 0.0829,-2.266315 0,-2.432161 -0.12335,-0.246705 -0.4034,-0.489572 -0.52873,-0.740225 -0.0158,-0.03153 0.0249,-0.08082 0,-0.105746 -0.0529,-0.05287 -0.15862,-0.05287 -0.21149,-0.105746 -0.0706,-0.07056 0.0706,-0.140938 0,-0.211492 -0.0249,-0.02492 -0.0808,0.02492 -0.10575,0 -0.0249,-0.02492 0.0158,-0.07422 0,-0.105746 -0.0708,-0.141631 -0.25227,-0.146526 -0.31723,-0.211492 -0.0249,-0.02492 0.0249,-0.08082 0,-0.105746 -0.0514,-0.05139 -0.76525,-0.382622 -0.84597,-0.422987 -0.0892,-0.04458 -0.12854,-0.156189 -0.2115,-0.211492 -0.1435,-0.09567 -0.29322,-0.146613 -0.42298,-0.211492 -0.16742,-0.08371 -0.26654,-0.31869 -0.42298,-0.422984 0.012,-0.200329 -0.24675,-0.0705 -0.31725,-0.105746 -0.25822,-0.129111 -0.45065,-0.412903 -0.74022,-0.528733 -0.0654,-0.02619 -0.14461,0.02231 -0.21149,0 -0.0473,-0.01577 -0.0612,-0.08345 -0.10575,-0.105746 -0.27768,-0.138837 -0.58239,-0.185451 -0.84597,-0.317238 -0.0946,-0.04729 -0.21692,0.03344 -0.31723,0 -0.0473,-0.01577 -0.0585,-0.08998 -0.10575,-0.105746 -0.0952,-0.03172 -0.22207,0.03172 -0.31724,0 -0.39618,-0.132059 -0.75652,-0.02442 -1.16321,-0.105746 -0.59821,-0.119642 -1.17897,-0.105746 -1.79768,-0.105746 -0.52966,0 -1.28413,-0.128389 -1.79769,0 -0.19034,0.04759 -0.36753,0.157758 -0.52873,0.211492 -0.10032,0.03344 -0.22265,-0.04729 -0.31724,0 -0.21941,0.109707 -0.2227,0.03899 -0.42298,0.105746 -0.12057,0.04019 -0.19667,0.171305 -0.31724,0.211492 -0.0669,0.02231 -0.14461,-0.02228 -0.21149,0 -0.1269,0.0423 -0.19035,0.274942 -0.31724,0.317241 -0.18361,0.0612 -0.44425,-0.03805 -0.63448,0 -0.66358,0.132715 -1.32341,0.211492 -2.00918,0.211492 -0.31723,0 -0.64394,0.07694 -0.95171,0 -0.41931,-0.104828 -0.83914,-0.596953 -1.26896,-0.740225 -0.1707,-0.0569 -0.62107,-0.04617 -0.74022,-0.105746 -0.12318,-0.06159 -0.19406,-0.149902 -0.31724,-0.211492 -0.29847,-0.149235 -2.03906,0.09977 -2.53791,0 -0.5617,-0.112342 -2.49739,-0.240744 -3.17238,-0.105746 -0.55393,0.110787 -1.15015,0.287536 -1.69194,0.422984 -0.36224,0.09056 -0.8451,0.475422 -1.16321,0.634479 -0.0892,0.04458 -0.12232,0.166905 -0.21149,0.211492 -0.32286,0.16143 -0.8485,0.318924 -1.16321,0.52873 -0.083,0.0553 -0.12232,0.166907 -0.21149,0.211492 -0.0631,0.03153 -0.14461,-0.0223 -0.21149,0 -0.12057,0.04019 -0.2115,0.140997 -0.31724,0.211492 -0.36809,0.245396 -0.69778,0.718876 -0.95172,1.057463 -0.25364,0.338188 -0.5937,0.615363 -0.84597,0.951714 -0.22245,0.296598 -0.32293,0.114295 -0.52873,0.422987 -0.19906,0.29859 -0.57706,0.731131 -0.74022,1.05746 -0.0762,0.152363 -0.13795,0.381638 -0.21149,0.528733 -0.10534,0.210669 -0.4567,0.41838 -0.52873,0.634476 -0.0223,0.06688 0.0223,0.144613 0,0.211492 -0.0158,0.04729 -0.0705,0.0705 -0.10575,0.105746 -0.0353,0.0705 -0.0866,0.135028 -0.10575,0.211492 -0.11339,0.453583 -0.22347,0.658437 -0.42298,1.057463 -0.0418,0.08351 0.0297,0.228058 0,0.317238 -0.0751,0.225139 -0.13645,0.40934 -0.21149,0.634479 -0.0334,0.100319 0.0256,0.214648 0,0.317238 -0.0461,0.184375 -0.1654,0.344352 -0.2115,0.52873 -0.0745,0.297918 -0.0828,0.588581 -0.21149,0.845968 -0.0414,0.08274 0.0125,0.348094 0,0.422987 0.0986,0.235228 -0.16195,0.436287 -0.21149,0.634476 -0.0426,0.170601 -0.0494,1.966878 0,2.114923 0.10389,0.311661 0.10946,0.645628 0.21149,0.951717 0.0158,0.04729 0.09,0.05845 0.10575,0.105746 0.0905,0.271433 -0.0205,0.593405 0.10574,0.845968 0.1131,0.226198 0.0984,-0.01471 0.2115,0.211495 0.0112,0.02233 0.0905,0.679296 0.10574,0.740222 0.0217,0.08689 0.0551,0.685104 0,0.740222 -0.0249,0.02492 -0.0808,-0.02492 -0.10574,0 -0.0671,0.06708 0.044,0.334944 0,0.422987 -0.12888,0.257759 -0.29411,0.482462 -0.42299,0.740222 -0.0423,0.0846 0.0423,0.232643 0,0.317238 -0.0771,0.154223 -0.16916,0.169167 -0.21149,0.211492 -0.0443,0.04431 -0.0737,0.253151 -0.10575,0.317241 -0.0446,0.08917 -0.1669,0.122319 -0.21149,0.211492 -0.0315,0.06306 0.0499,0.161642 0,0.211492 -0.0249,0.02492 -0.0808,-0.02492 -0.10574,0 -0.0249,0.02492 0.0249,0.08082 0,0.105746 -0.0615,0.06145 -0.27908,0.139536 -0.42299,0.211492 -0.38475,0.192376 -1.29245,-0.170371 -1.58619,-0.317238 -0.0631,-0.03153 -0.16165,0.04985 -0.2115,0 -0.081,-0.08101 0.0344,-0.09429 -0.31723,-0.211492 -0.10716,-0.03572 -0.57434,-0.0456 -0.63448,-0.105746 -0.0529,-0.05288 -0.0529,-0.158621 -0.10575,-0.211492 -0.0443,-0.04431 -0.25315,-0.0737 -0.31723,-0.105746 -0.16132,-0.08066 -0.26528,-0.238385 -0.42299,-0.317241 -0.14596,-0.07298 -0.38386,-0.03331 -0.52873,-0.105746 -0.0315,-0.01577 0.0315,-0.08998 0,-0.105746 -0.0631,-0.03153 -0.14462,0.0223 -0.21149,0 -0.15074,-0.05025 -0.15227,-0.15227 -0.2115,-0.211492 -0.0419,-0.04192 -0.56219,-0.244951 -0.63447,-0.317238 -0.0249,-0.02492 0.0249,-0.08082 0,-0.105746 -0.0249,-0.02492 -0.0742,0.01577 -0.10575,0 -0.16785,-0.08392 -0.24745,-0.353203 -0.31724,-0.422984 -0.21879,-0.218795 0.009,0.334343 -0.21149,-0.105746 -0.0158,-0.03153 0.0249,-0.08082 0,-0.105749 -0.0249,-0.02492 -0.0808,0.02492 -0.10575,0 -0.0352,-0.03525 -0.0705,-0.281988 -0.10574,-0.317238 -0.0249,-0.02492 -0.0808,0.02492 -0.10575,0 -0.0705,-0.0705 0.0705,-0.352486 0,-0.422984 -0.0249,-0.02492 -0.0808,0.02492 -0.10574,0 -0.0843,-0.08427 0.08,-1.003136 0,-1.163209 -0.12168,-0.243343 -0.40591,-0.388824 -0.52874,-0.634476 -0.19905,-0.398116 -0.30776,-0.615532 -0.52873,-1.057463 -0.19986,-0.399719 -2.22883,-1.06018 -2.5379,-1.163206 -0.27576,-0.09192 -0.57224,-0.113731 -0.84598,-0.211492 -0.58986,-0.210667 -1.35655,-0.572535 -1.90343,-0.845971 -0.14432,-0.07216 -0.99712,-0.05536 -1.16321,0 -0.13565,0.04522 -0.28732,0.166275 -0.42298,0.211492 -0.19369,0.06456 -0.39654,0.02643 -0.63448,0.105746 -0.12253,0.04085 -0.29996,-0.03076 -0.42298,0 -0.21645,0.05411 -0.54567,0.114215 -0.74022,0.211492 -0.19637,0.09818 -0.35654,0.39959 -0.52873,0.528733 -0.0631,0.04729 -0.15576,0.05001 -0.2115,0.105746 -0.0557,0.05573 -0.05,0.155757 -0.10574,0.211492 -0.0557,0.05573 -0.15576,0.05001 -0.2115,0.105746 -0.0896,0.08958 -0.0978,0.30929 -0.21149,0.422984 -0.16048,0.160486 -0.21374,0.533217 -0.31724,0.740225 -0.0594,0.118906 -0.27548,0.191976 -0.31724,0.317238 -0.0223,0.06688 0.0223,0.144613 0,0.211492 -0.0158,0.04729 -0.0834,0.06116 -0.10574,0.105746 -0.16799,0.335984 -0.22737,0.803717 -0.31724,1.163209 -0.0764,0.305556 0,0.739862 0,1.05746 0,0.685141 -0.0502,1.363882 -0.21149,2.009177 -0.0663,0.265403 0.0663,0.580567 0,0.845971 -0.0546,0.218469 -0.14004,0.420113 -0.2115,0.634476 -0.0317,0.09517 0.0317,0.222067 0,0.317241 -0.0158,0.04729 -0.09,0.05845 -0.10574,0.105746 -0.0334,0.100319 0.0334,0.216918 0,0.317238 -0.086,0.25795 -0.12558,0.482496 -0.21149,0.740222 -0.074,0.222067 0.074,0.518157 0,0.740225 -0.14963,0.448868 -0.2378,2.498457 0,2.855145 0.0582,0.0873 0.36718,0.472929 0.42298,0.528732 0.0788,0.07877 0.36324,0.151742 0.42299,0.211493 0.0249,0.02492 -0.0249,0.08082 0,0.105746 0.0498,0.04985 0.14843,-0.03153 0.21149,0 0.28468,0.14234 0.49681,0.03691 0.63447,0.105746 0.34896,0.174476 0.85117,0.105746 1.26896,0.105746 0.24629,0 0.83173,-0.112864 1.05746,0 0.57279,0.286395 2.06514,0.08086 2.32642,0.211492 0.0446,0.0223 0.0612,0.08345 0.10574,0.105746 0.16142,0.0807 2.1098,-0.0051 2.22067,0.105746 0.0249,0.02492 -0.0249,0.08082 0,0.105746 0.0306,0.03062 0.7096,0.03062 0.74023,0 0.14099,-0.140994 -0.17625,-0.105746 0.10574,-0.105746 0.19213,0 1.55886,0.02733 1.5862,0 0.0249,-0.02492 -0.0315,-0.08998 0,-0.105746 0.0638,-0.03192 0.60901,0 0.63447,0 0.22577,0 1.5565,0.120594 1.79769,0 0.12318,-0.06159 0.19406,-0.149903 0.31724,-0.211492 0.0421,-0.02106 1.8322,-0.03561 1.90343,0 0.70446,0.352231 1.5858,0.47566 2.32641,0.84597 0.0892,0.04458 0.12232,0.166905 0.2115,0.211492 0.51588,0.257943 1.04221,0.679726 1.58619,0.951715 0.28178,0.14089 0.65793,0.113564 0.95172,0.211492 0.196,0.06534 0.40704,0.260381 0.63447,0.31724 0.17098,0.04274 0.35426,-0.02492 0.52873,0 0.47994,0.06856 1.00802,0.09338 1.48045,0.211492 0.2321,0.05803 0.24118,0.226336 0.42298,0.317238 0.13,0.065 0.293,0.04075 0.42299,0.105746 0.26881,0.134403 0.58863,0.294318 0.84597,0.422985 0.0892,0.04459 0.11691,0.179964 0.21149,0.211492 0.16733,0.05578 0.72818,0.04685 0.84597,0.105746 0.31465,0.157326 0.6928,0.138562 1.05746,0.211492 0.0773,0.01545 0.13421,0.09029 0.21149,0.105746 0.20739,0.04148 0.42587,-0.03477 0.63448,0 0.49171,0.08195 0.97632,0.254225 1.48045,0.31724 0.26754,0.03344 0.58462,-0.06534 0.84597,0 0.0765,0.0191 0.1342,0.09029 0.21149,0.105746 0.30184,0.06037 1.82438,0.09685 2.11492,0 0.0946,-0.03153 0.12854,-0.156191 0.2115,-0.211492 0.19479,-0.129862 0.43854,-0.21927 0.63447,-0.31724 0.0631,-0.03153 0.16165,0.04985 0.21149,0 0.0249,-0.02492 -0.0158,-0.07422 0,-0.105746 0.11368,-0.227346 0.41652,-0.292209 0.63448,-0.422984 z"
       id="path23" /></g></svg>
