<?xml version="1.0" encoding="UTF-8" standalone="no"?>
<!-- Created with Inkscape (http://www.inkscape.org/) -->

<svg
   width="56.426952"
   height="29.402281"
   viewBox="0 0 14.929631 7.7793533"
   version="1.1"
   id="svg1"
   xml:space="preserve"
   xmlns="http://www.w3.org/2000/svg"
   xmlns:svg="http://www.w3.org/2000/svg"><defs
     id="defs1" /><g
     id="layer1"
     transform="translate(-190.93018,-53.377237)"><path
       style="fill:#000000;fill-opacity:0.498525;stroke-width:0.264583"
       d="m 192.28349,59.17213 c 0.0738,-0.134159 0.28263,-0.417978 0.415,-0.484166 0.0206,-0.01032 0.0529,0.0163 0.0692,0 0.008,-0.0081 -0.008,-0.02643 0,-0.03458 0.021,-0.02098 0.18242,-0.07867 0.2075,-0.103748 0.008,-0.0081 -0.008,-0.02643 0,-0.03458 0.02,-0.02005 0.11829,-0.04912 0.13833,-0.06917 0.0228,-0.02283 0.0489,-0.110887 0.10375,-0.138335 0.0251,-0.01254 0.19989,-0.09614 0.2075,-0.103748 0.0138,-0.01384 0.0187,-0.04395 0.0692,-0.06917 0.0206,-0.01032 0.0529,0.0163 0.0692,0 0.008,-0.0081 -0.008,-0.02643 0,-0.03458 0.0146,-0.01458 0.18381,-0.02668 0.2075,-0.03458 0.0309,-0.01032 0.04,-0.05458 0.0692,-0.06916 0.0103,-0.0052 0.0264,0.0081 0.0346,0 0.008,-0.0081 -0.0115,-0.03458 0,-0.03458 0.32825,0 0.63612,0.239634 0.89917,0.414999 0.073,0.04865 0.13026,0.04986 0.2075,0.06917 0.0691,0.01728 0.11609,0.07534 0.17292,0.103751 0.0206,0.01032 0.0529,-0.0163 0.0692,0 0.008,0.0081 -0.008,0.02643 0,0.03458 0.007,0.007 0.13783,0.01704 0.17292,0.03458 0.14393,0.07196 -0.037,-0.0024 0.0346,0.06917 0.008,0.0081 0.0264,-0.0081 0.0346,0 0.002,0.0019 0.0673,0.101875 0.0692,0.103751 0.0716,0.07155 -0.003,-0.109344 0.0692,0.03458 0.0251,0.05012 0.10718,0.151003 0.17292,0.172916 0.0219,0.0073 0.0468,-0.0056 0.0692,0 0.1296,0.0324 0.23002,0.149595 0.34583,0.207499 0.0326,0.0163 0.0711,0.01828 0.10375,0.03458 0.0624,0.0312 0.11227,0.108011 0.17292,0.138334 0.0496,0.02479 0.12042,0.03417 0.17291,0.06916 0.0407,0.02713 0.0646,0.07441 0.10375,0.103751 0.0467,0.03499 0.13195,0.06278 0.17292,0.103751 0.0182,0.01823 0.0163,0.05094 0.0346,0.06917 0.0294,0.02939 0.0722,0.04212 0.10375,0.06917 0.14248,0.122127 0.28231,0.247722 0.415,0.380418 0.0182,0.01823 0.0145,0.05306 0.0346,0.06917 0.0842,0.06735 0.15789,0.07098 0.24208,0.138332 0.0687,0.05498 0.12814,0.167817 0.2075,0.207499 0.0103,0.0052 0.0264,-0.0081 0.0346,0 0.0335,0.03347 0.0102,0.05489 0.0346,0.103751 0.0203,0.0406 0.0801,0.05733 0.10375,0.06917 0.0451,0.02254 0.14788,0.122851 0.17291,0.172915 0.005,0.01032 -0.008,0.02643 0,0.03458 0.008,0.0081 0.0264,-0.0081 0.0346,0 0.008,0.0081 -0.008,0.02643 0,0.03458 0.0244,0.02445 0.0692,0 0.10375,0 0.11527,0 0.23078,-0.0072 0.34583,0 0.13997,0.0088 0.27534,0.05647 0.415,0.06917 0.0574,0.0052 0.11586,-0.0081 0.17292,0 0.10521,0.01503 0.20604,0.05414 0.31125,0.06917 0.20773,0.02968 0.44621,0 0.65708,0 0.23056,0 0.46111,0 0.69167,0 0.097,0 0.21549,0.01595 0.31125,0 0.036,-0.006 0.0677,-0.02943 0.10375,-0.03458 0.0799,-0.0114 0.16249,0.01326 0.24208,0 0.10491,-0.01749 0.20635,-0.05168 0.31125,-0.06917 0.16542,-0.02757 0.35642,0.04058 0.51875,0 0.1434,-0.03585 0.2754,-0.0918 0.41501,-0.138335 0.0517,-0.01725 0.11988,0.01326 0.17291,0 0.025,-0.0062 0.0461,-0.02305 0.0692,-0.03458 0.023,-0.01154 0.0442,-0.02833 0.0692,-0.03458 0.0651,-0.01627 0.1416,0.01318 0.2075,0 0.21839,-0.04368 0.43126,-0.08117 0.65708,-0.103751 0.19758,-0.01976 0.60206,-0.02762 0.79542,0 0.0722,0.01032 0.136,0.05487 0.2075,0.06917 0.0947,0.01895 0.2133,0 0.31125,0 0.023,0 0.0588,0.02061 0.0692,0 0.0103,-0.02061 -0.003,-0.04634 0,-0.06917 0.008,-0.05819 0.0231,-0.115279 0.0346,-0.172918 0.027,-0.134972 0.0845,-0.280255 0.10375,-0.414999 0.0114,-0.07988 -0.0158,-0.162957 0,-0.242084 0.0272,-0.136162 0.10556,-0.249343 0.13833,-0.380417 0.0107,-0.04285 -0.0139,-0.09667 0,-0.138333 0.0835,-0.250502 -0.01,0.05452 0.0692,-0.103751 0.043,-0.08607 0,-0.287835 0,-0.380418 0,-0.276666 0,-0.553333 0,-0.83 0,-0.488058 0.0453,-1.007867 -0.0346,-1.487083 -0.029,-0.173762 0,-0.376901 0,-0.553333 0,-0.143426 0.028,-0.309603 0,-0.449586 -0.005,-0.02527 -0.0295,-0.04389 -0.0346,-0.06917 -0.0355,-0.177358 0.0298,-0.374825 0,-0.553334 -0.006,-0.03596 -0.0286,-0.06779 -0.0346,-0.103748 -0.02,-0.120092 -0.0403,-0.230233 -0.0692,-0.345834 -0.0355,-0.142 0,-0.339913 0,-0.484167 0,-0.0024 0.0161,-0.268613 0,-0.276667 -0.003,-0.0013 -0.80637,-0.0232 -0.89917,0 -0.0649,0.01622 -0.1193,0.04236 -0.17291,0.06916 -0.0855,0.04275 -0.66762,0 -0.79542,0 -0.10558,0 -0.24395,0.02548 -0.34583,0 -0.0158,-0.0039 -0.0188,-0.03063 -0.0346,-0.03458 -0.16323,-0.04081 -0.44558,0 -0.6225,0 -0.10321,0 -0.24649,-0.02484 -0.34583,0 -0.34157,0.08539 -0.75013,0.03458 -1.10667,0.03458 -0.24208,0 -0.48417,0 -0.72625,0 -0.1075,0 -0.23995,0.01765 -0.34583,0 -0.12814,-0.02135 -0.25285,-0.04365 -0.38042,-0.06916 -0.0565,-0.0113 -0.11606,0.0095 -0.17292,0 -0.27311,-0.04552 0.0623,-0.03458 -0.2075,-0.03458 -0.17039,0 -1.1162,-0.09421 -1.21042,0 -0.0408,0.04076 -0.063,0.09757 -0.10374,0.138332 -0.0522,0.05219 -0.12073,0.08614 -0.17292,0.138335 -0.0294,0.02939 -0.0426,0.07182 -0.0692,0.103751 -0.0626,0.07514 -0.14488,0.132355 -0.2075,0.207499 -0.0266,0.03193 -0.0398,0.07436 -0.0692,0.103748 -0.086,0.08604 -0.53098,0.417116 -0.55333,0.484169 -0.007,0.02188 0.006,0.0468 0,0.06916 -0.0361,0.144232 -0.1369,0.270947 -0.17292,0.415002 -0.0112,0.04462 -0.0382,0.211166 -0.0692,0.242083 -0.0743,0.07432 -0.63059,-0.199565 -0.72625,-0.242083 -0.17868,-0.07941 -0.3797,0.02328 -0.55334,-0.03458 -0.0155,-0.0052 -0.0191,-0.02943 -0.0346,-0.03458 -0.046,-0.01532 -0.12901,0.02196 -0.17292,0 -0.10446,-0.05223 -0.24189,-0.05178 -0.34583,-0.103748 -0.0363,-0.01815 -0.14532,0.0276 -0.17292,0 -0.0666,-0.06657 0.0214,-0.411607 0,-0.518753 -0.0232,-0.115887 -0.0746,-0.229367 -0.10375,-0.345831 -0.014,-0.05592 0.014,-0.116999 0,-0.172919 -0.004,-0.01582 -0.0294,-0.0191 -0.0346,-0.03458 -0.032,-0.09601 -0.007,-0.182875 -0.0692,-0.276667 -0.0621,-0.09311 -0.18001,-0.148974 -0.24208,-0.242083 -0.0356,-0.05334 -0.0122,-0.179004 -0.0692,-0.2075 -0.14447,-0.07224 -0.2263,0.07219 -0.27667,0.172916 -0.0532,0.106468 -0.12839,0.19994 -0.17291,0.31125 -0.0606,0.151538 -0.12287,0.308531 -0.2075,0.449586 -0.0934,0.155612 -0.18901,0.32495 -0.24209,0.484166 -0.0262,0.07876 -0.19401,0.270806 -0.2075,0.311251 -0.007,0.02188 0.007,0.04729 0,0.06917 -0.0103,0.03093 -0.0546,0.04 -0.0692,0.06917 -0.0168,0.03348 0.002,0.06566 -0.0346,0.138334 -0.0104,0.02088 0.016,0.08776 0,0.103749 -0.0223,0.0223 -0.25665,-0.0024 -0.27666,0 -0.10546,0.01318 -0.20604,0.05414 -0.31125,0.06917 -0.0671,0.0096 -0.14112,-0.01328 -0.2075,0 -0.0694,-0.0079 -0.1127,0.05411 -0.17292,0.06917 -0.053,0.01326 -0.12116,-0.01725 -0.17292,0 -0.0153,0.0051 -0.1192,0.02503 -0.13833,0.03458 -0.0146,0.0073 -0.0191,0.02943 -0.0346,0.03458 -0.10982,0.0366 -0.51517,0 -0.65709,0 -0.0469,0 -0.13093,0.014 -0.17292,0 -0.0244,-0.0081 -0.0922,-0.04611 -0.0692,-0.03458 0.11232,0.05616 0.24147,0.09838 0.34583,0.172916 0.13643,0.09745 0.24023,0.252376 0.38042,0.345834 0.21676,0.144505 0.42105,0.28171 0.6225,0.449583 0.0724,0.0603 0.11184,0.146426 0.17292,0.207502 0.0141,0.0141 0.18884,0.163587 0.2075,0.172916 0.0378,0.01892 0.10264,0.03348 0.13833,0.06917 0.0107,0.01072 0.002,0.166505 0,0.172916 -0.0376,0.150479 -0.10002,0.296317 -0.13833,0.449585 -0.0396,0.158274 0.0699,-0.03596 -0.0346,0.172916 -0.0419,0.0838 -0.0927,0.150807 -0.13833,0.242083 -0.0276,0.05526 -0.032,0.123315 -0.0692,0.172916 -0.0517,0.0689 -0.0828,0.05462 -0.10375,0.138335 -0.006,0.02236 0.0103,0.04855 0,0.06917 -0.0689,0.137803 -0.0692,1.51e-4 -0.10375,0.138332 -0.006,0.02236 0.007,0.04729 0,0.06917 -0.0184,0.05521 -0.0856,0.118533 -0.10375,0.172915 -0.024,0.07202 -0.003,0.24832 -0.0346,0.311251 -0.0272,0.0544 -0.0346,0.03921 -0.0346,0.103751"
       id="path18" /></g></svg>
