<?xml version="1.0" encoding="UTF-8" standalone="no"?>
<!-- Created with Inkscape (http://www.inkscape.org/) -->

<svg
   width="84.91362"
   height="31.897669"
   viewBox="0 0 22.466729 8.4395914"
   version="1.1"
   id="svg1"
   xml:space="preserve"
   xmlns="http://www.w3.org/2000/svg"
   xmlns:svg="http://www.w3.org/2000/svg"><defs
     id="defs1" /><g
     id="layer1"
     transform="translate(-129.75675,-83.369117)"><path
       style="fill:#000000;fill-opacity:0.498525;stroke-width:0.264583"
       d="m 129.79592,86.802877 c 0.12113,1.115039 -0.19787,2.327193 0.0743,3.415681 0.0154,0.06162 -0.0281,0.166513 0,0.222763 0.0359,0.07169 0.19036,0.413118 0.22276,0.445524 0.0175,0.01749 0.0632,-0.02215 0.0743,0 0.0221,0.04428 -0.0222,0.10423 0,0.148508 0.0247,0.0495 0.12375,0.02474 0.14851,0.07425 0.0467,0.09333 0.10264,0.236955 0.22276,0.297016 0.0221,0.01106 0.0568,-0.01752 0.0743,0 0.0175,0.01749 -0.0175,0.05675 0,0.07426 0.0384,0.03843 0.25858,0.03582 0.29702,0.07425 0.0175,0.01749 -0.0175,0.05675 0,0.07425 0.0343,0.03432 0.17793,-0.02241 0.22276,0 0.34627,0.173133 0.92584,0.07425 1.33657,0.07425 0.20578,0 0.14456,-0.0019 0.29702,0.07425 0.0859,0.04295 1.29316,0.03922 1.41082,0 0.13034,-0.04345 0.24714,-0.160694 0.37127,-0.22276 0.10119,-0.05059 0.27737,-0.05461 0.37127,-0.148508 0.0175,-0.01752 -0.0111,-0.05212 0,-0.07425 0.0821,-0.164182 0.0461,-0.02304 0.14851,-0.07425 0.30903,-0.154514 -0.0794,0.0051 0.0743,-0.148508 0.0247,-0.02474 0.19801,-0.0495 0.22276,-0.07425 0.0175,-0.01749 -0.0175,-0.05675 0,-0.07425 0.0713,-0.07128 0.35178,0.04687 0.44553,0 0.0313,-0.01566 0.0429,-0.0586 0.0743,-0.07425 0.10824,-0.05412 0.85981,0.03909 0.9653,0.07425 0.0332,0.01106 0.041,0.06318 0.0743,0.07425 0.15333,0.05111 0.96913,0.03617 1.11381,0 0.0537,-0.01341 0.096,-0.05675 0.14851,-0.07425 0.0668,-0.02228 0.15593,0.02228 0.22276,0 0.42445,-0.141484 -0.44889,-0.01418 0.22276,-0.148508 0.0728,-0.01455 0.15072,0.01802 0.22276,0 0.034,-0.0085 0.0403,-0.06576 0.0743,-0.07425 0.072,-0.01802 0.15072,0.01802 0.22276,0 0.007,-0.0019 0.33915,-0.137805 0.37127,-0.148508 0.0891,-0.0297 0.20791,0.0297 0.29701,0 0.53831,-0.179435 1.12696,-0.148508 1.70784,-0.148508 0.19329,0 0.48626,-0.06068 0.66829,0 0.13094,0.04365 0.22257,0.173196 0.37127,0.222761 0.39826,0.132754 0.51436,0.148508 0.9653,0.148508 0.10443,0 0.27305,0.03274 0.37127,0 0.0525,-0.01749 0.096,-0.05675 0.14851,-0.07425 0.0841,-0.02805 0.21833,0.03934 0.29701,0 0.0865,-0.04325 0.13627,-0.105262 0.22277,-0.148508 0.0309,-0.01548 1.15094,-0.111374 1.18806,-0.07425 0.0175,0.01749 -0.0175,0.05675 0,0.07425 0.0175,0.01749 0.0508,-0.0078 0.0742,0 0.1257,0.0419 0.24303,0.116446 0.37127,0.148508 0.22778,0.05694 0.52023,-0.0741 0.74254,0 0.13853,0.04618 0.18497,0.09248 0.29702,0.148508 0.0719,0.03594 0.14097,-0.0038 0.29701,0.07425 0.11377,0.05688 0.39991,-0.02397 0.51978,0 0.0543,0.01085 0.0948,0.06083 0.14851,0.07425 0.18636,0.04659 0.40767,-0.04659 0.59403,0 0.0743,0.02474 0.14851,0.0495 0.22276,0.07425 0.0248,0.02474 0.041,0.06319 0.0743,0.07425 0.047,0.01566 0.10048,-0.01201 0.1485,0 0.11236,0.02809 0.25892,0.120417 0.37127,0.148508 0.27661,0.06915 0.62808,-0.0085 0.89105,-0.07425 0.16506,-0.04127 0.35844,-0.02048 0.51978,-0.07425 0.23575,-0.07858 0.72473,-0.558416 0.81679,-0.74254 0.0282,-0.05643 0.12124,-0.269745 0.14851,-0.297016 0.0175,-0.01752 0.0567,0.01749 0.0743,0 0.0662,-0.06619 0.0348,-0.218157 0.0742,-0.297016 0.16204,-0.324085 0.0338,-0.641011 -0.0742,-0.965303 -0.036,-0.10799 0.0502,-0.270788 0,-0.371269 -0.0749,-0.149873 -0.21717,-0.285824 -0.29702,-0.445524 -0.0311,-0.06218 -0.18473,-0.407495 -0.22276,-0.445523 -0.15364,-0.153633 0.006,0.234772 -0.14851,-0.07425 -0.0998,-0.199528 -0.30037,-0.400489 -0.44552,-0.594032 -0.1123,-0.149728 -0.36124,-0.276947 -0.44553,-0.445524 -0.0539,-0.107836 -0.15001,-0.447024 -0.22276,-0.519779 -0.0175,-0.01749 -0.0567,0.01749 -0.0743,0 -0.0175,-0.01749 0.0175,-0.05675 0,-0.07425 -0.0175,-0.01749 -0.0521,0.01106 -0.0743,0 -0.1072,-0.0536 -0.18981,-0.0949 -0.29701,-0.148508 -0.21035,-0.105174 -0.62849,0.05703 -0.89105,-0.07426 -0.18907,-0.09454 -0.10765,-0.404659 -0.22276,-0.519777 -0.0175,-0.01749 -0.0568,0.01749 -0.0743,0 -0.0553,-0.05535 -0.0308,-0.157636 -0.0743,-0.22276 -0.0585,-0.08775 -0.17819,-0.103937 -0.22276,-0.148508 -0.0175,-0.01749 0.0175,-0.05675 0,-0.07426 -0.0955,-0.09546 -0.38205,-0.1026 -0.51978,-0.148508 -0.53785,-0.179284 0.11707,0.02141 -0.22276,-0.148508 -0.21714,-0.108569 -0.45017,-0.187957 -0.66829,-0.297016 -0.0443,-0.02214 -0.10423,0.02215 -0.14851,0 -0.0313,-0.01566 -0.041,-0.06319 -0.0743,-0.07425 -0.27156,-0.09052 -0.6844,0.03121 -0.9653,0 -0.34236,-0.03804 -0.70246,-0.0736 -1.03956,-0.148508 -0.44051,-0.09789 -0.84323,-0.305829 -1.26231,-0.445524 -0.12651,-0.04217 -0.32727,0.05913 -0.44553,0 -0.0787,-0.03936 -0.18341,-0.131059 -0.29701,-0.07426 -0.0469,0.02347 -0.42168,0.198913 -0.44553,0.222763 -0.0391,0.03913 -0.0351,0.109371 -0.0743,0.148508 -0.007,0.007 -0.50406,0.435041 -0.51978,0.445524 -0.16634,0.110892 -0.50128,0.260024 -0.59403,0.445524 -0.0377,0.07535 -0.0593,0.356351 -0.0743,0.371268 -0.0511,0.05108 -0.4195,0.147558 -0.51977,0.222764 -0.26633,0.199744 -0.60177,0.375139 -0.89105,0.519776 -0.0443,0.02215 -0.10155,-0.01566 -0.14851,0 -0.29357,0.09786 -0.56963,0.24769 -0.81679,0.371269 -0.27516,0.13758 -1.3569,-0.138343 -1.63359,0 -0.0626,0.03131 -0.0859,0.1172 -0.14851,0.148508 -0.0221,0.01106 -0.0567,-0.01749 -0.0743,0 -0.0175,0.01749 0.0175,0.05675 0,0.07426 -0.0694,0.06936 -0.30191,0.07915 -0.37127,0.148508 -0.004,0.004 -0.14448,0.218739 -0.14851,0.222761 -0.035,0.035 -0.1135,-0.035 -0.14851,0 -0.0175,0.01749 0.0175,0.05675 0,0.07425 -0.0371,0.03706 -0.78745,-0.0259 -0.89104,0 -0.10739,0.02685 -0.19201,0.113504 -0.29702,0.148508 -0.0841,0.02804 -0.21833,-0.03934 -0.29702,0 -0.24765,0.123828 -0.42667,-0.0063 -0.66828,0.07425 -0.0332,0.01106 -0.041,0.06319 -0.0743,0.07425 -0.23802,0.07934 -1.07877,0 -1.41082,0 -0.18707,0 -0.70383,0.09361 -0.89105,0 -0.65265,-0.326329 -1.03165,-0.297016 -1.78209,-0.297016 z"
       id="path13" /></g></svg>
