<?xml version="1.0" encoding="UTF-8" standalone="no"?>
<!-- Created with Inkscape (http://www.inkscape.org/) -->

<svg
   width="478.72482"
   height="207.42531"
   viewBox="0 0 126.66261 54.881279"
   version="1.1"
   id="svg1"
   xml:space="preserve"
   xmlns="http://www.w3.org/2000/svg"
   xmlns:svg="http://www.w3.org/2000/svg"><defs
     id="defs1" /><g
     id="layer1"
     transform="translate(-167.2533,-17.396467)"><path
       style="fill:#000000;fill-opacity:0.498525;stroke-width:0.264583"
       d="m 173.52949,18.505582 c -0.21149,0.0705 -0.42749,0.128698 -0.63448,0.211493 -0.48613,0.194452 -0.89347,0.533982 -1.3747,0.740223 -0.41765,0.178993 -0.90984,0.347189 -1.26895,0.634477 -0.11678,0.09342 -0.1976,0.22751 -0.31724,0.317239 -0.0892,0.06688 -0.2245,0.04392 -0.31724,0.105746 -0.28518,0.190122 -0.60539,0.403126 -0.74022,0.740223 -0.22753,0.568806 -0.008,0.05675 -0.10575,0.740223 -0.0158,0.110346 -0.09,0.206893 -0.10575,0.317239 -0.10361,0.725287 0.073,1.491039 0,2.22067 -0.0899,0.898986 -0.24831,1.770305 -0.42298,2.643654 -0.0746,0.372883 0.0626,0.787898 0,1.163209 -0.0574,0.344136 -0.11437,0.717516 -0.21149,1.05746 -0.089,0.31165 -0.26403,0.632421 -0.31724,0.951717 -0.0174,0.104307 0.0256,0.214649 0,0.317238 -0.0121,0.04836 -0.0835,0.06116 -0.10575,0.105746 -0.1211,0.2422 -0.2285,0.579774 -0.31724,0.845971 -0.0624,0.187325 -0.0348,0.777954 0,0.951714 0.0678,0.339209 0.14365,0.08378 0.2115,0.422984 0.0207,0.103693 -0.0393,0.219057 0,0.317241 0.037,0.09257 0.15167,0.131733 0.21149,0.211492 0.29046,0.387289 0.35891,0.961348 0.63447,1.374701 0.29009,0.435123 0.83909,0.876625 1.26896,1.163206 0.45986,0.306576 1.4023,0.550958 1.90343,0.634479 0.47898,0.07983 0.99754,-0.05366 1.48045,0 0.38356,0.04262 0.76575,0.171987 1.1632,0.105746 0.66025,-0.11004 0.20241,-0.04833 0.74023,-0.317241 0.32577,-0.162885 1.20917,-0.200001 1.58619,-0.105746 0.0765,0.0191 0.141,0.0705 0.21149,0.105746 0.10575,0.03525 0.20794,0.08389 0.31724,0.105749 0.0691,0.01381 0.14462,-0.0223 0.21149,0 0.16426,0.05475 0.34263,0.255201 0.52874,0.317238 0.34148,0.113826 0.69521,-0.0495 1.05746,0.105746 0.11681,0.05006 0.20042,0.161428 0.31723,0.211492 0.52261,0.223973 1.18487,0.275193 1.69194,0.52873 0.0892,0.04459 0.12601,0.160197 0.2115,0.211492 0.26158,0.156951 0.59156,0.23218 0.84597,0.422987 0.15951,0.119637 0.27159,0.293216 0.42298,0.422984 0.41894,0.359093 0.85373,0.694137 1.26896,1.05746 0.20733,0.18142 0.40101,0.478838 0.63447,0.634479 0.2772,0.184796 0.1848,0.03952 0.52873,0.211492 0.92441,0.462203 1.89774,0.944123 2.53791,1.797685 0.30327,0.404355 0.39328,0.972706 0.63448,1.374701 0.0513,0.08549 0.17446,0.118925 0.21149,0.211492 0.0393,0.09818 -0.0256,0.214648 0,0.317238 0.0121,0.04836 0.09,0.05845 0.10575,0.105746 0.0673,0.201753 0.0673,0.826619 0.10574,1.057463 0.0367,0.219898 0.16778,0.415872 0.2115,0.634476 0.12889,0.644488 -0.10814,1.360355 0,2.009177 0.10673,0.640429 0.34573,1.337956 0.21149,2.00918 -0.0154,0.07729 -0.0903,0.134202 -0.10575,0.211492 -0.0706,0.352949 0,0.804016 0,1.163206 0,0.661265 -0.10946,1.458169 0,2.114926 0.0366,0.219897 0.17997,0.413784 0.21149,0.634476 0.0199,0.139578 -0.0306,0.285348 0,0.422984 0.10568,0.475549 0.31635,0.949925 0.52873,1.374701 0.12575,0.251478 -0.0448,0.788371 0,1.057463 0.0535,0.320809 0.17112,0.765206 0.31725,1.05746 0.171,0.342016 0.58869,1.238432 0.95171,1.480447 0.2603,0.173532 0.58567,0.249451 0.84597,0.422984 0.29761,0.198411 0.6218,0.502512 0.95171,0.634478 0.27083,0.108329 0.58552,0.187013 0.84598,0.317239 0.0446,0.0223 0.0584,0.08998 0.10574,0.105746 0.0952,0.03172 0.22207,-0.03172 0.31724,0 0.28132,0.09377 0.56007,0.14002 0.84597,0.211492 0.0765,0.0191 0.14099,0.0705 0.21149,0.105746 0.10575,0.03525 0.20794,0.08389 0.31724,0.105746 0.45967,0.09193 0.89888,0.105746 1.3747,0.105746 0.26195,0 1.26945,0.1055 1.48045,0 0.24541,-0.122709 0.49899,-0.302371 0.74022,-0.422984 0.11198,-0.05599 0.30007,-0.06478 0.42298,-0.105746 0.29155,-0.09718 0.58671,-0.293355 0.84598,-0.422985 0.21101,-0.105507 0.70835,0 0.95171,0 0.11723,0 0.3216,-0.05069 0.42298,0 0.28234,0.141169 0.27742,0.361188 0.52874,0.528731 0.2262,0.150807 0.51594,0.182668 0.74022,0.317238 0.12823,0.07694 0.17536,0.269949 0.31724,0.317238 0.0669,0.0223 0.14461,-0.02228 0.21149,0 0.0946,0.03153 0.12232,0.166907 0.21149,0.211494 0.1053,0.05265 0.57484,0.257596 0.63448,0.317238 0.0814,0.08142 0.14096,0.364226 0.31724,0.422984 0.0669,0.02231 0.14844,-0.03153 0.21149,0 0.0315,0.01577 -0.0249,0.08082 0,0.105747 0.003,0.0034 0.69012,0.194791 0.74022,0.211492 0.0946,0.03153 0.12232,0.166907 0.2115,0.211492 0.0631,0.03153 0.14843,-0.03153 0.21149,0 0.0446,0.0223 0.0584,0.08998 0.10574,0.105746 0.10311,0.03437 0.69041,0.08084 0.74023,0.105746 0.17206,0.08603 0.28867,0.31724 0.42298,0.31724 0.28199,0 0.56682,-0.03988 0.84597,0 0.6511,0.09301 1.27058,0.45366 1.90343,0.634476 0.59076,0.168789 1.21389,0.277035 1.79769,0.422985 0.30105,0.07526 0.57803,0.333674 0.84597,0.422984 0.19184,0.06395 0.43663,0.05629 0.63447,0.105748 0.28914,0.07228 0.58477,0.335915 0.84597,0.422984 0.39748,0.13249 0.87968,0.187479 1.26896,0.317238 0.0473,0.01577 0.0584,0.08998 0.10575,0.105746 0.22279,0.07426 0.51162,-0.05715 0.74022,0 0.82618,0.206545 1.77335,0.105746 2.64365,0.105746 0.32349,0 0.58389,0.142521 0.84597,0.317239 0.083,0.0553 0.11691,0.179966 0.21149,0.211492 0.0669,0.0223 0.14462,-0.02228 0.2115,0 0.0808,0.02694 0.23962,0.172683 0.31723,0.211494 0.0892,0.04458 0.12232,0.166905 0.2115,0.211492 0.0534,0.02669 0.34284,0.185891 0.42298,0.105746 0.10152,-0.101515 -0.0668,-0.50097 0,-0.634478 0.35032,-0.70063 0.0593,-0.97731 0.21149,-1.586193 0.0656,-0.262237 0.26179,-0.462955 0.31724,-0.740223 0.0407,-0.203358 -0.0407,-0.43112 0,-0.634476 0.0154,-0.07729 0.0903,-0.134204 0.10575,-0.211494 0.069,-0.345202 0.0559,-0.708237 0.10574,-1.057461 0.0315,-0.220691 0.16778,-0.415874 0.2115,-0.634476 0.048,-0.240014 0.0577,-0.500213 0.10574,-0.740224 0.0437,-0.218604 0.17485,-0.414579 0.2115,-0.634477 0.0609,-0.365384 0.0895,-0.691446 0.21149,-1.057462 0.11364,-0.340924 0.25784,-0.832911 0.42298,-1.163209 0.0568,-0.113673 0.16143,-0.200422 0.2115,-0.317238 0.0573,-0.133583 0.0336,-0.296799 0.10574,-0.422984 0.0742,-0.129845 0.24305,-0.187394 0.31724,-0.317238 0.0721,-0.126186 0.0336,-0.296799 0.10575,-0.422985 0.13658,-0.239029 0.37602,-0.405413 0.52873,-0.634478 0.23269,-0.349031 0.47917,-1.191303 0.84597,-1.374701 0.15582,-0.07791 0.46119,-0.07686 0.63448,-0.105746 0.56923,-0.09487 1.12449,-0.328409 1.69193,-0.422984 0.17385,-0.02898 0.36153,0.05573 0.52873,0 0.0473,-0.01577 0.0585,-0.08998 0.10575,-0.105746 0.0669,-0.0223 0.14461,0.0223 0.21149,0 0.22737,-0.07579 0.46812,-0.278366 0.74023,-0.317238 0.13957,-0.01995 0.2834,0.01995 0.42298,0 1.39578,-0.199398 -0.49223,-0.0073 0.52873,-0.211492 0.37972,-0.07594 0.78181,-0.135213 1.16321,-0.211492 0.27727,-0.05545 0.47798,-0.25168 0.74022,-0.317241 0.39997,-0.09999 1.87667,-0.361408 2.32642,-0.211492 0.54722,0.182406 0.59063,0.876919 0.74022,0.951717 0.19614,0.09806 0.38603,0.314671 0.52873,0.52873 0.32126,0.481877 0.8501,0.79928 1.16321,1.268955 0.0967,0.145126 0.26695,0.377854 0.31724,0.52873 0.0223,0.06688 -0.0223,0.144613 0,0.211492 0.0591,0.177318 0.36036,0.340862 0.42298,0.528732 0.0223,0.06688 -0.0223,0.144611 0,0.211493 0.0158,0.04729 0.0705,0.0705 0.10575,0.105746 0.0352,0.0705 0.0808,0.136718 0.10575,0.211492 0.0223,0.06688 -0.0315,0.148436 0,0.211492 0.11688,0.233772 0.30032,0.49489 0.42298,0.740222 0.0447,0.08935 0.18938,0.334512 0.21149,0.422986 0.0256,0.102587 -0.0393,0.219054 0,0.317239 0.037,0.09257 0.15619,0.128537 0.2115,0.211492 0.0196,0.02933 -0.0249,0.08082 0,0.105746 0.0249,0.02492 0.0742,-0.01577 0.10574,0 0.11368,0.05684 0.21961,0.13013 0.31724,0.211492 0.11489,0.09574 0.19281,0.234286 0.31724,0.317238 0.0927,0.06183 0.22653,0.04096 0.31724,0.105746 0.16225,0.115898 0.26559,0.300569 0.42298,0.422986 0.32448,0.252371 0.72861,0.387837 1.05747,0.634477 0.19939,0.149547 0.32134,0.390474 0.52873,0.52873 0.0771,0.05142 0.3278,0.179766 0.42298,0.211494 0.0669,0.02228 0.14844,-0.03153 0.21149,0 0.44776,0.223875 0.75661,0.786392 1.16321,1.057461 0.94945,0.632962 1.96918,1.311828 3.06664,1.586192 0.4992,0.124802 1.08074,-0.101092 1.58619,0 0.57565,0.115129 1.1008,0.39178 1.5862,0.634477 0.20706,0.103534 0.71519,0 0.95171,0 0.22827,0 1.31147,0.306337 1.3747,0.211494 0.0618,-0.09275 0.0484,-0.221657 0.10575,-0.31724 0.0788,-0.131382 0.73129,-0.663769 0.84597,-0.740223 0.27134,-0.180898 0.66534,-0.221779 0.95171,-0.317238 0.0946,-0.03153 0.11691,-0.179967 0.2115,-0.211492 0.27311,-0.09104 2.02296,-0.36322 2.32641,-0.211494 0.10491,0.05246 0.20771,0.174982 0.31724,0.211494 0.17105,0.05702 0.4764,0.02671 0.63448,0.105746 0.17078,0.08539 0.37927,0.409168 0.52873,0.52873 0.42372,0.338979 0.60759,0.580713 0.84597,1.057463 0.0223,0.04458 0.09,0.05846 0.10574,0.105746 0.0223,0.06688 -0.0223,0.144611 0,0.211492 0.0798,0.239342 0.44977,0.397584 0.52873,0.634476 0.0223,0.06688 -0.0223,0.144614 0,0.211493 0.0644,0.19327 0.50501,0.567594 0.63448,0.740224 0.0669,0.08917 0.0269,0.238419 0.10575,0.317238 0.0249,0.02492 0.0808,-0.02492 0.10574,0 0.0542,0.05416 0.46048,0.815203 0.52873,0.951715 0.0315,0.06305 -0.0315,0.148439 0,0.211494 0.0678,0.135634 0.27031,0.282192 0.31724,0.422984 0.051,0.153064 0.0362,0.283898 0.10575,0.422984 0.0446,0.08917 0.16691,0.12232 0.21149,0.211492 0.0158,0.03153 -0.0249,0.08082 0,0.105746 0.0249,0.02492 0.09,-0.03153 0.10575,0 0.0315,0.06306 -0.0223,0.144614 0,0.211492 0.0315,0.09458 0.1669,0.12232 0.21149,0.211495 0.12054,0.241081 0.22592,0.694566 0.52873,0.845968 0.0624,0.03122 0.38791,0.176414 0.42299,0.211492 0.0249,0.02492 -0.0249,0.08082 0,0.105746 0.0748,0.07477 0.21354,-0.02074 0.31723,0 0.32211,0.06442 1.40108,0.568415 1.69194,0.422984 0.38193,-0.190963 0.0973,-1.040614 0.2115,-1.268952 0.0158,-0.03153 0.0808,0.02492 0.10574,0 0.0443,-0.04431 0.0737,-0.25315 0.10576,-0.317238 0.13451,-0.269023 0.70323,-0.323598 0.9517,-0.422987 0.29171,-0.116683 0.55425,-0.306297 0.84598,-0.422984 0.20699,-0.0828 0.44331,-0.0968 0.63447,-0.211492 0.0855,-0.05129 0.11893,-0.174466 0.21148,-0.211492 0.10221,-0.04088 1.84637,-0.160017 2.0092,-0.105746 0.0351,0.01172 0.39849,0.187005 0.42299,0.211492 0.0249,0.02492 -0.0249,0.08082 0,0.105746 0.0167,0.01675 0.78401,0.497761 0.84595,0.52873 0.14163,0.07082 0.14653,0.252273 0.21151,0.317238 0.41269,0.4127 0.0568,-0.02447 0.31723,0.105746 0.16762,0.08381 0.19259,0.339887 0.31724,0.422987 0.0587,0.03911 0.14462,-0.0223 0.21148,0 0.0946,0.03153 0.12853,0.156189 0.21151,0.211492 0.0705,0.03525 0.14099,0.0705 0.21148,0.105746 0.0705,0 0.14843,-0.03153 0.21151,0 0.22508,0.112549 0.40785,0.415423 0.63447,0.52873 0.0315,0.01577 0.0808,-0.02492 0.10573,0 0.14253,0.142529 0.0329,0.333674 0.2115,0.422984 0.19074,0.09537 1.28519,0 1.48045,0 0.49821,0 2.06,0.119481 2.53791,0 0.0765,-0.0191 0.1342,-0.09029 0.21148,-0.105746 0.10369,-0.02074 0.21466,0.02564 0.31724,0 0.12859,-0.03214 0.29461,-0.168698 0.42299,-0.211492 0.0669,-0.0223 0.14462,0.02231 0.21148,0 0.31827,-0.106082 0.56274,-0.657135 0.84598,-0.845968 0.18595,-0.123957 0.47826,-0.266761 0.63447,-0.422984 0.0249,-0.02492 -0.0249,-0.08082 0,-0.105749 0.0498,-0.04985 0.16166,0.04985 0.21151,0 0.0249,-0.02492 -0.0159,-0.07422 0,-0.105746 0.0669,-0.133757 0.23429,-0.192807 0.31723,-0.317238 0.0196,-0.02933 0,-0.07049 0,-0.105746 0.0353,-0.0705 0.062,-0.145909 0.10576,-0.211492 0.22722,-0.340839 0.64786,-0.431905 0.9517,-0.634476 0.1465,-0.09767 0.43712,-0.28557 0.52872,-0.422986 0.0437,-0.06558 0.05,-0.155758 0.10575,-0.211493 0.0557,-0.05573 0.15576,-0.05001 0.21151,-0.105746 0.25649,-0.256503 0.65746,-1.572474 0.74023,-1.903431 0.0487,-0.195019 0.13467,-0.269393 0.21148,-0.422984 0.0315,-0.06305 -0.0315,-0.148439 0,-0.211492 0.11962,-0.23922 0.12956,-0.388691 0.21148,-0.634478 0.0402,-0.120568 0.17132,-0.196668 0.21151,-0.317238 0.1238,-0.371407 0.25932,-0.624391 0.42299,-0.951715 0.15084,-0.301691 0.0254,-1.611696 0.10572,-1.691939 0.0249,-0.02492 0.0808,0.02492 0.10576,0 0.0498,-0.04985 -0.0498,-0.161644 0,-0.211492 0.0249,-0.02492 0.0808,0.02492 0.10575,0 0.23093,-0.230925 0.022,-0.17169 0.10573,-0.422986 0.0315,-0.09458 0.16693,-0.12232 0.21151,-0.211492 0.096,-0.191911 0.25945,-0.509085 0.31723,-0.740223 0.0932,-0.372924 0.0598,-2.179391 0,-2.537909 -0.008,-0.04917 -0.09,-0.05846 -0.10575,-0.105746 -0.0677,-0.203139 -0.0116,-0.446104 -0.10573,-0.634476 -0.22005,-0.440092 0.007,0.113045 -0.21151,-0.105746 -0.0249,-0.02492 0.0159,-0.07422 0,-0.105746 -0.0787,-0.157422 -0.58811,-0.436039 -0.63447,-0.528733 -0.12475,-0.249484 -0.347,-0.39216 -0.52874,-0.634476 -0.26017,-0.346896 -0.53377,-0.745271 -0.84595,-1.057463 -0.28419,-0.284184 -0.65135,-0.473215 -0.95174,-0.740222 -0.46601,-0.414232 -0.33557,-0.421238 -0.84595,-0.740225 -0.22336,-0.139602 -2.40487,-0.975588 -2.43218,-1.05746 -0.0878,-0.263361 0.23585,-0.540907 0.42299,-0.634479 0.063,-0.03153 0.14462,0.0223 0.21151,0 0.47064,-0.156879 1.02449,0.04624 1.48045,-0.105746 0.0671,-0.02238 1.23793,-0.709218 1.26894,-0.740222 0.0591,-0.05905 0.15452,-0.314497 0.31723,-0.422984 0.19714,-0.131429 0.47575,-0.423201 0.31724,-0.740225 -0.10406,-0.208116 -0.27646,-0.276468 -0.42299,-0.422984 -0.14065,-0.140669 -0.11859,-0.429406 -0.31724,-0.52873 -0.53773,-0.268878 -2.00202,0.773094 -2.53791,0.951714 -0.16031,0.05344 -0.46228,0 -0.63447,0 -0.11808,0 -0.31189,0.03703 -0.42299,0 -0.22166,-0.07389 -0.24997,-0.201898 -0.42296,-0.317238 -0.46175,-0.30783 -1.17935,-0.691827 -0.95173,-1.374701 0.0418,-0.125262 0.25778,-0.198329 0.31723,-0.317238 0.0159,-0.03153 -0.0249,-0.08082 0,-0.105746 0.0788,-0.07878 0.36325,-0.151741 0.42299,-0.211492 0.0249,-0.02492 -0.0159,-0.07422 0,-0.105746 0.0511,-0.102198 0.32078,-0.371885 0.42299,-0.422984 0.0315,-0.01577 0.0808,0.02492 0.10576,0 0.21878,-0.218795 -0.33436,0.0085 0.10572,-0.211495 0.0315,-0.01577 0.0705,0 0.10576,0 0.0705,-0.03525 0.14592,-0.06202 0.21148,-0.105746 0.16312,-0.108736 0.26289,-0.237186 0.42299,-0.317238 0.1692,-0.0846 0.25379,-0.338386 0.42299,-0.422984 0.0124,-0.0062 1.54315,-0.02151 1.5862,0 0.28557,0.14279 0.35558,0.69529 0.74023,0.951717 0.26971,0.179808 1.7754,-0.169757 2.11492,0 0.1869,0.09345 0.20476,0.465775 0.31723,0.634476 0.0778,0.116655 0.25477,0.192312 0.31724,0.317238 0.067,0.134056 0.11258,0.535562 0.21148,0.634476 0.0249,0.02492 0.0808,-0.02492 0.10575,0 0.0706,0.07056 -0.0706,0.140938 0,0.211495 0.006,0.0057 0.31152,0.205761 0.31724,0.211492 0.065,0.06497 0.0699,0.246422 0.21151,0.317238 0.4319,0.215958 0.83563,0.523571 1.26894,0.740222 0.0638,0.03193 0.26837,-0.04888 0.31723,0 0.0249,0.02492 -0.0249,0.08082 0,0.105746 0.0804,0.08039 0.41781,0.05028 0.52875,0.105746 0.0424,0.02122 0.30115,0.374708 0.31723,0.422987 0.0222,0.06688 -0.0138,0.142364 0,0.211492 0.0726,0.36281 0.27366,0.758817 0.42299,1.05746 0.22003,0.440092 -0.007,-0.113046 0.21148,0.105749 0.10388,0.103867 0.045,0.61873 0.10576,0.740222 0.16044,0.320871 0.24447,0.594725 0.42299,0.951717 0.0848,0.169534 -0.12613,0.412792 0.10572,0.52873 0.29816,0.149079 1.1298,0.222636 1.48045,0.105746 0.30057,-0.10019 0.54573,-0.590095 0.84598,-0.740225 0.15441,-0.0772 0.39257,0.03043 0.52872,-0.105746 0.0353,-0.03525 0.0705,-0.281988 0.10575,-0.317238 0.21879,-0.218792 -0.008,0.334343 0.21151,-0.105746 0.0564,-0.112795 -0.0564,-0.31019 0,-0.422984 0.0222,-0.04459 0.0835,-0.06116 0.10573,-0.105746 0.0538,-0.107638 0.0593,-0.968476 0,-1.057463 -0.0437,-0.06558 -0.17624,-0.03525 -0.21148,-0.105746 -0.0473,-0.09458 0.0334,-0.216919 0,-0.317238 -0.0177,-0.05282 -0.48406,-0.90704 -0.52875,-0.951717 -0.0575,-0.05755 -0.44913,-0.237641 -0.52871,-0.317238 -0.29776,-0.0066 -0.0269,-0.238419 -0.10576,-0.317238 -0.0249,-0.02492 -0.0742,0.01577 -0.10575,0 -0.18402,-0.09201 -0.54853,-0.779857 -0.63447,-0.951717 -0.0821,-0.164195 -1.71649,-0.904978 -1.90344,-0.951714 -0.17293,-0.04323 -0.22416,0.08042 -0.31724,-0.105746 -0.0156,-0.03153 0.0249,-0.08082 0,-0.105746 -0.0705,-0.07048 -0.14099,0.07048 -0.21148,0 -0.0422,-0.04222 -0.0308,-0.678535 0,-0.740225 0.0801,-0.160181 0.29451,-0.294502 0.42299,-0.422984 0.11047,-0.110472 0.20069,-0.364715 0.31724,-0.422984 0.0315,-0.01577 0.0808,0.02492 0.10575,0 0.0249,-0.02492 -0.0249,-0.08082 0,-0.105746 0.0249,-0.02492 0.0808,0.02492 0.10573,0 0.0486,-0.04862 0.16991,-0.339826 0.21151,-0.422984 0.16139,-0.322808 -0.10946,-1.174292 -0.21151,-1.480447 -0.0927,-0.278154 0.0267,-0.820224 0.10575,-1.057463 0.0924,-0.277133 0.81196,-0.658387 1.05746,-0.740222 0.0669,-0.0223 0.14462,0.0223 0.21148,0 0.0946,-0.03153 0.12235,-0.166907 0.21151,-0.211492 0.0762,-0.03808 0.5583,-0.03808 0.63447,0 0.27348,0.136734 0.73771,1.164463 1.16322,0.951714 0.0225,-0.01127 0.92546,-1.454949 0.9517,-1.586193 0.0206,-0.103693 -0.029,-0.215561 0,-0.317238 0.11605,-0.406167 0.41035,-0.748789 0.52875,-1.163209 0.17219,-0.602649 0.34538,-1.282681 0.42299,-1.903431 0.10631,-0.850648 0,-1.782778 0,-2.643653 0,-0.289801 0.10567,-1.586338 0,-1.797685 -0.0222,-0.04459 -0.09,-0.05846 -0.10576,-0.105749 -0.0446,-0.133757 0.0446,-0.289224 0,-0.422984 -0.0958,-0.287242 -0.39579,-0.474313 -0.52874,-0.740222 -0.10242,-0.204848 -0.34859,-0.517057 -0.42296,-0.740225 -0.0222,-0.06688 0.0222,-0.14461 0,-0.211492 -0.0564,-0.169193 -0.36661,-0.253791 -0.42299,-0.422984 -0.0222,-0.06688 0.0222,-0.144613 0,-0.211492 -0.0828,-0.248422 -0.38854,-0.424188 -0.52875,-0.634479 -0.0618,-0.09274 -0.0439,-0.224491 -0.10575,-0.317238 -0.16267,-0.244027 -0.47178,-0.390445 -0.63447,-0.634476 -0.23297,-0.05325 -0.0559,-0.21754 -0.10573,-0.317238 -0.0606,-0.121203 -0.4278,-0.347271 -0.52874,-0.422986 -0.5578,-0.418341 -1.28733,-0.643658 -1.90344,-0.951715 -0.48395,-0.24198 0.44873,0.04383 -0.31724,-0.211492 -0.0669,-0.0223 -0.16163,0.04985 -0.21148,0 -0.0249,-0.02492 0.0249,-0.08082 0,-0.105746 -0.0861,-0.08605 -0.53549,-0.0068 -0.63447,-0.105746 -0.0249,-0.02492 0.0315,-0.08998 0,-0.105746 -0.0631,-0.03153 -0.14462,0.02228 -0.21151,0 -0.12525,-0.04175 -0.19833,-0.257785 -0.31723,-0.317239 -0.0631,-0.03153 -0.14462,0.02229 -0.21148,0 -0.13478,-0.04492 -0.31062,-0.155311 -0.42299,-0.211493 -0.44011,-0.220045 0.11303,0.0073 -0.10576,-0.211492 -0.25683,-0.256837 -0.15528,0.03145 -0.31723,-0.211493 -0.0437,-0.06558 -0.05,-0.155759 -0.10576,-0.211492 -0.19568,-0.195691 -0.51691,-0.361262 -0.74022,-0.528731 -0.29932,-0.224491 -0.73316,-0.789561 -1.05746,-0.951715 -0.20079,-0.100403 -1.08765,-0.03626 -1.26894,0 -0.1546,0.03092 -0.27006,0.173259 -0.42299,0.211492 -0.41545,0.10386 -0.84643,0.211604 -1.26897,0.317239 -0.0503,0.01258 -0.26691,0.198915 -0.31724,0.211492 -0.10257,0.02565 -0.21354,-0.02074 -0.31723,0 -0.21749,0.0435 -0.34428,0.255755 -0.52872,0.317238 -0.5193,0.173095 -1.43809,0.203018 -2.00919,0.317239 -0.22331,0.04466 -0.43794,0.251732 -0.63447,0.317238 -0.13375,0.04459 -0.28922,-0.04459 -0.42299,0 -0.0473,0.01576 -0.0584,0.08998 -0.10575,0.105747 -0.26247,0.08749 -0.25882,-0.02921 -0.52872,0.105746 -0.20172,0.100853 -0.62807,-0.04358 -0.84598,0 -0.0773,0.01546 -0.13671,0.08082 -0.21148,0.105746 -0.1269,0.0423 -0.2961,-0.0423 -0.42299,0 -0.0473,0.01576 -0.0584,0.08998 -0.10576,0.105746 -0.24024,0.08008 -0.21341,9.79e-4 -0.42296,0.105747 -0.21836,0.10918 -1.15017,-0.02807 -1.37472,0 -0.26972,0.03371 -0.62685,0.101935 -0.84595,0.211492 -0.20762,0.103802 -2.17615,0 -2.53791,0 -0.24487,0 -0.82304,0.117214 -1.05746,0 -0.66051,-0.330247 -1.47474,-0.104929 -2.22068,-0.211492 -0.67585,-0.09655 -1.35898,-0.179158 -2.00918,-0.422985 -0.7191,-0.269665 -1.1865,-0.857619 -1.79768,-1.163208 -0.0946,-0.04729 -0.21465,0.02565 -0.31724,0 -0.79477,-0.198691 -1.77036,-0.221712 -2.53791,-0.528731 -0.15573,-0.06229 -0.39239,-0.143325 -0.52873,-0.211493 -0.0892,-0.04459 -0.11477,-0.187312 -0.21149,-0.211492 -0.37123,-0.09281 -0.67472,-0.06208 -1.05747,-0.317238 -0.0977,-0.06513 -0.1138,-0.146365 -0.21149,-0.211493 -0.54317,-0.362112 -1.23548,-0.564868 -1.79768,-0.845969 -0.0446,-0.02229 -0.0585,-0.08998 -0.10575,-0.105747 -0.31759,-0.105864 -0.99226,-0.0049 -1.26895,0.105747 -0.0732,0.02927 -0.141,0.0705 -0.2115,0.105746 -0.10574,0.0705 -0.20042,0.161429 -0.31723,0.211492 -0.50437,0.216159 -0.99772,0.327284 -1.48045,0.634477 -0.18555,0.118077 -1.16309,0.892935 -1.3747,0.951716 -1.40328,0.3898 -2.99504,0.211492 -4.44134,0.211492 -0.38163,0 -0.89767,-0.09282 -1.26896,0 -0.52076,0.130192 -1.06124,0.317996 -1.58619,0.422985 -0.29919,0.05984 -0.45255,0.0099 -0.74022,0.105746 -0.44547,0.14849 -1.02311,-0.114335 -1.48045,0 -0.0765,0.01912 -0.13503,0.08663 -0.21149,0.105746 -0.95248,0.238121 -2.49517,-0.324239 -3.38388,-0.422984 -0.35033,-0.03893 -0.70537,0.01677 -1.05746,0 -0.38889,-0.01852 -0.77418,-0.09018 -1.16321,-0.105746 -0.49308,-0.01972 -0.98799,0.03177 -1.48044,0 -1.08648,-0.0701 -2.10165,-0.270022 -3.17239,-0.422985 -0.28133,-0.04019 -0.57272,-0.02768 -0.84597,-0.105746 -0.22736,-0.06496 -0.40799,-0.249294 -0.63448,-0.317239 -0.13505,-0.04051 -0.28391,0.02318 -0.42298,0 -0.76521,-0.127534 0.16624,-0.05033 -0.31724,-0.211492 -0.13788,-0.04596 -0.28199,-0.0705 -0.42299,-0.105746 -0.52475,-0.131189 -1.18458,0.03327 -1.69193,0.105746 -0.28493,0.0407 -0.65922,0 -0.95172,0 -0.40881,0 -0.97697,0.09943 -1.3747,0 -0.35343,-0.08836 -0.70007,-0.151927 -1.05746,-0.211493 -0.4264,-0.07107 -0.94004,0 -1.3747,0 -0.37037,0 -0.69756,-0.160077 -1.05746,-0.211492 -0.55855,-0.07979 -1.13102,-0.141377 -1.69194,-0.211492 -0.24484,-0.03061 -0.49828,0.04839 -0.74023,0 -0.0773,-0.01546 -0.13328,-0.09597 -0.21149,-0.105747 -0.60287,-0.07536 -1.29498,0 -1.90343,0 -0.54572,0 -1.15374,-0.07689 -1.69194,0 -0.74284,0.10612 -1.56764,0.200594 -2.32641,0.105747 -0.83357,-0.104197 -1.5859,-0.513583 -2.43217,-0.634478 -0.47345,-0.06763 -0.92112,-0.0981 -1.3747,-0.211492 -0.3779,-0.09447 -0.6858,0.08008 -1.05746,-0.105746 -0.15764,-0.07882 -0.35775,0.04275 -0.52873,0 -0.15293,-0.03823 -0.27539,-0.156142 -0.42299,-0.211492 -0.30203,-0.113262 -1.35463,-0.385507 -1.69193,-0.422985 -0.79826,-0.08869 -1.63751,0.113522 -2.43217,0 -0.43612,-0.0623 -0.76011,-0.322212 -1.1632,-0.422985 -0.23138,-0.05784 -0.50885,-0.0479 -0.74023,-0.105746 -0.31549,-0.07887 -0.56517,-0.282585 -0.84597,-0.422985 -0.0946,-0.04729 -0.21692,0.03344 -0.31724,0 -0.14099,-0.047 -0.28758,-0.143791 -0.42298,-0.211492 -0.0946,-0.04729 -0.21465,0.02565 -0.31724,0 -0.15293,-0.03823 -0.27344,-0.161643 -0.42298,-0.211493 -0.44997,-0.149987 -0.93007,-0.256247 -1.3747,-0.422984 -0.56243,-0.210909 -0.26135,-0.233721 -0.84597,-0.317239 -0.57468,-0.0821 -1.13744,-0.178612 -1.69194,-0.317238 -0.29482,-0.07371 -0.65288,0.04981 -0.95172,0 -0.0777,-0.01296 -0.1342,-0.09029 -0.21149,-0.105747 -0.28552,-0.0571 -0.65986,0 -0.95172,0 -0.91646,0 -1.83293,0 -2.7494,0 -0.64634,0 -1.89706,0.425108 -2.5379,0.211493 -0.20292,-0.06764 -0.35286,-0.229302 -0.52874,-0.317239 -0.15763,-0.07882 -0.35384,0.02186 -0.52873,0 -0.82422,-0.103028 -1.48476,-0.528731 -2.32641,-0.528731 -0.47733,0 -0.89339,-0.105746 -1.3747,-0.105746 -0.28199,0 -0.56398,0 -0.84597,0 -0.67351,0 -0.98535,-0.167026 -1.58619,-0.317239 -0.23136,-0.05784 -0.61789,-0.06773 -0.84598,-0.105746 -0.55032,-0.09172 -1.60519,-0.06416 -2.11492,0.105746 -0.3383,0.112767 -0.81277,-0.05841 -1.16321,0 -0.39674,0.06612 -0.75338,0.105747 -1.16321,0.105747 -0.43209,0 -0.30569,0.152845 -0.63447,0.317238 -0.0631,0.03153 -0.22532,-0.06913 -0.21149,0 0.0372,0.186134 0.14099,0.352488 0.21149,0.528731 z"
       id="path22" /></g></svg>
