<?xml version="1.0" encoding="UTF-8" standalone="no"?>
<!-- Created with Inkscape (http://www.inkscape.org/) -->

<svg
   width="55.970184"
   height="31.065414"
   viewBox="0 0 14.808778 8.2193908"
   version="1.1"
   id="svg1"
   xml:space="preserve"
   xmlns="http://www.w3.org/2000/svg"
   xmlns:svg="http://www.w3.org/2000/svg"><defs
     id="defs1" /><g
     id="layer1"
     transform="translate(-144.59168,-31.93368)"><path
       style="fill:#000000;fill-opacity:0.498525;stroke-width:0.264583"
       d="m 154.29189,39.012526 c 0.006,-0.104812 0.1779,-0.09196 0.23221,-0.132696 0.0198,-0.01484 0.0157,-0.04886 0.0332,-0.06635 0.13058,-0.130575 0.0674,-0.0013 0.16587,-0.132697 0.0148,-0.01979 0.0157,-0.04886 0.0332,-0.06635 0.0175,-0.01749 0.0515,-0.01339 0.0663,-0.03317 0.021,-0.02797 0.0175,-0.06825 0.0332,-0.09952 0.032,-0.06405 0.11502,-0.181367 0.16587,-0.232217 0.008,-0.0078 0.0233,0.0049 0.0332,0 0.028,-0.014 0.0384,-0.05236 0.0663,-0.06635 0.0513,-0.02564 0.11461,-0.04071 0.16587,-0.06635 0.0859,-0.04295 0.14753,-0.156697 0.23222,-0.199044 0.0196,-0.0098 0.12169,-0.05534 0.1327,-0.06635 0.008,-0.0078 -0.008,-0.02535 0,-0.03317 0.0156,-0.01564 0.0507,0.01564 0.0663,0 0.008,-0.0078 -0.01,-0.02823 0,-0.03317 0.0392,-0.01958 0.45906,-0.0055 0.4976,0 0.11674,0.01667 0.0939,0.04696 0.19905,0.09952 0.097,0.0485 0.25964,0.111641 0.36491,0.132696 0.0325,0.0065 0.0673,-0.008 0.0995,0 0.0563,0.01408 0.11151,0.105513 0.16587,0.132697 0.0284,0.01418 0.0711,0.019 0.0995,0.03317 0.038,0.01902 0.0461,0.06922 0.0663,0.09952 0.034,0.05105 0.11417,0.081 0.1327,0.09952 0.0111,0.01106 0.0221,0.08846 0.0332,0.09952 0.008,0.0078 0.0254,-0.0078 0.0332,0 0.0166,0.01659 0.0166,0.04976 0.0332,0.06635 0.0999,0.09991 0.25391,0.143539 0.36491,0.199043 0.0297,0.01484 0.068,-0.0105 0.0995,0 0.0148,0.0049 0.0183,0.02823 0.0332,0.03317 0.10578,0.03526 0.21877,0.04304 0.33174,0.09952 0.0221,0.01106 0.0663,0.0579 0.0663,0.03318 0,-0.01106 -0.0254,0.0078 -0.0332,0 -0.0177,-0.01773 -0.11093,-0.255032 -0.13269,-0.298567 -0.0258,-0.05152 0.0182,-0.144518 0,-0.199043 -0.0115,-0.03436 -0.0499,-0.06661 -0.0663,-0.09952 -0.0659,-0.131813 -0.10632,-0.292301 -0.16587,-0.43126 -0.0958,-0.223634 -0.04,-0.04691 -0.16587,-0.298564 -0.28688,-0.03652 -0.0526,-0.204737 -0.0995,-0.298566 -0.0805,-0.160923 -0.0995,-0.09196 -0.0995,-0.232217 0,-0.07203 -0.17161,-0.292833 -0.0995,-0.364914 0.14439,-0.144383 0.49003,-0.04597 0.59714,-0.09952 0.0992,-0.0496 0.15757,-0.223916 0.23221,-0.298563 0.0175,-0.01749 0.0489,-0.01569 0.0663,-0.03317 0.0282,-0.02819 0.0414,-0.06839 0.0663,-0.09952 0.0605,-0.07564 0.18874,-0.145277 0.23222,-0.232217 0.0664,-0.132889 0.1411,-0.294595 0.23221,-0.43126 0.0244,-0.0366 0.0799,-0.06033 0.0995,-0.09952 0.0129,-0.02572 0.0178,-0.07645 0.0332,-0.09952 0.026,-0.03904 0.0785,-0.05756 0.0995,-0.09952 0.01,-0.01958 0.0553,-0.12169 0.0663,-0.132697 0.008,-0.0078 0.0233,0.0049 0.0332,0 0.0468,-0.02341 0.0492,-0.0653 0.0663,-0.09952 0.0125,-0.02503 0.0995,-0.07287 0.0995,-0.09952 0,-0.01106 -0.0221,0 -0.0332,0 -0.0553,0 -0.11058,0 -0.16587,0 -0.0995,0 -0.19904,0 -0.29857,0 -0.14149,0 -0.74928,-0.03774 -0.86252,0 -0.20786,0.06929 -0.47375,0.03318 -0.69665,0.03318 -0.0315,0 -0.17901,0.02003 -0.19904,0 -0.0261,-0.02609 0.008,-0.191537 0,-0.23222 -0.0226,-0.112871 -0.0384,-0.219863 -0.0663,-0.331737 -0.0157,-0.06262 0.0291,-0.173955 0,-0.232219 -0.014,-0.02798 -0.0524,-0.03837 -0.0663,-0.06635 -0.0238,-0.04755 -0.0298,-0.117092 -0.0663,-0.16587 -0.0828,-0.110427 -0.0716,-0.0769 -0.13269,-0.199044 -0.014,-0.02797 -0.0524,-0.03837 -0.0663,-0.06635 -0.0139,-0.02787 -0.0149,-0.147635 -0.0332,-0.16587 -0.008,-0.0078 -0.0253,0.0078 -0.0332,0 -0.0145,-0.01447 -0.11219,-0.224372 -0.1327,-0.265391 -0.005,-0.0099 0,-0.02212 0,-0.03318 0,-0.01106 0.005,-0.02328 0,-0.03317 -0.0319,-0.06375 -0.10082,-0.102121 -0.13269,-0.16587 -0.024,-0.04809 -0.004,-0.134504 -0.0663,-0.16587 -0.0271,-0.01357 -0.2185,-0.01371 -0.23222,0 -0.0193,0.01929 -0.0192,0.104817 -0.0332,0.132696 -0.0321,0.06418 -0.0893,0.08931 -0.1327,0.132697 -0.0426,0.04259 -0.033,0.115885 -0.0663,0.16587 -0.0556,0.08341 -0.14327,0.14855 -0.19905,0.232217 -0.0407,0.06102 -0.0191,0.08542 -0.0663,0.132696 -0.0628,0.06278 -0.0836,0.183637 -0.13269,0.26539 -0.13438,0.223962 -0.25045,0.467726 -0.36492,0.696654 -0.01,0.01979 0.0156,0.05071 0,0.06635 -0.0166,0.01659 -0.0498,0.01659 -0.0663,0.03317 -0.0156,0.01564 0.01,0.04657 0,0.06635 -0.0193,0.03864 -0.047,0.06088 -0.0663,0.09952 -0.01,0.01979 0.0156,0.05071 0,0.06635 -0.0391,0.0391 -0.11058,0 -0.16587,0 -0.48372,0 0.0868,0.0109 -0.39809,-0.03317 -0.21917,-0.01992 -0.44479,0.02641 -0.6303,-0.06635 -0.12525,-0.06262 -0.80424,0.06232 -0.92887,0 -0.0202,-0.01011 -0.0886,-0.04443 -0.0995,-0.06635 -0.0151,-0.03022 -0.0196,-0.226185 0,-0.265393 0.007,-0.014 0.0301,-0.01783 0.0332,-0.03317 0.009,-0.04337 -0.007,-0.08907 0,-0.132696 0.0267,-0.160256 0.1258,-0.351118 0.19904,-0.497608 0.0619,-0.123848 -0.0505,-0.465915 -0.0995,-0.563956 -0.01,-0.01979 0.0156,-0.05071 0,-0.06635 -0.008,-0.0078 -0.0253,0.0078 -0.0332,0 -0.008,-0.0079 0,-0.397134 0,-0.398087 0,-0.06099 -0.0838,-0.49236 -0.0995,-0.497607 -0.0315,-0.01048 -0.0673,0.008 -0.0995,0 -0.0578,-0.01445 -0.10842,-0.05068 -0.16587,-0.06635 -0.21923,-0.05979 -0.47133,-0.104529 -0.69666,-0.132694 -0.085,-0.01064 -0.18277,0.02066 -0.26539,0 -0.12128,-0.03032 -0.24777,-0.0039 -0.36491,-0.03318 -0.0152,-0.0038 -0.0221,-0.02212 -0.0332,-0.03317 -0.0332,-0.01106 -0.0652,-0.02633 -0.0995,-0.03317 -0.11281,-0.02257 -0.25052,0 -0.36491,0 -0.29856,0 -0.59713,0 -0.8957,0 -0.29856,0 -0.59713,0 -0.89569,0 -0.121,0 -0.28273,-0.02884 -0.39809,0 -0.0152,0.0038 -0.0192,0.02619 -0.0332,0.03317 -0.0559,0.02797 -0.17095,0.05409 -0.23222,0.06635 -0.0513,0.01027 -0.29132,-0.04042 -0.33174,0 -0.008,0.0078 0.008,0.02535 0,0.03317 -0.0308,0.03081 -0.17901,0.06635 -0.23222,0.06635 -0.10254,0 -0.23441,0.02434 -0.33173,0 -0.024,-0.006 -0.0421,-0.02832 -0.0663,-0.03317 -0.11001,-0.02201 -0.25312,0 -0.36492,0 -0.37996,0 -0.75913,-0.0074 -1.12791,0.06635 -0.0684,0.01368 -0.71739,0.02074 -0.72982,0.03317 -0.008,0.0078 0.008,0.02535 0,0.03318 -0.008,0.0078 -0.0254,-0.0078 -0.0332,0 -0.0417,0.04168 -0.009,0.118412 -0.0332,0.16587 -0.005,0.0099 -0.0282,-0.0099 -0.0332,0 -0.0133,0.02654 0.0133,0.07298 0,0.09952 -0.0886,0.177228 -0.0264,0.563118 -0.0663,0.763 -0.0165,0.08243 -0.0468,0.153918 -0.0663,0.232217 -0.0134,0.05364 0.0108,0.111654 0,0.165869 -0.005,0.02424 -0.0291,0.04196 -0.0332,0.06635 -0.0142,0.08501 0.028,0.214702 0,0.298567 -0.0471,0.141295 -0.0854,0.289451 -0.13269,0.43126 -0.0265,0.07962 0.0265,0.185775 0,0.265393 -0.005,0.01484 -0.0282,0.01834 -0.0332,0.03317 -0.0199,0.05978 -0.0163,0.399143 0,0.464434 0.0394,0.157766 0.1327,0.470281 0.1327,0.630306 0,0.112837 0.0202,0.173107 0.0663,0.265391 0.0191,0.03831 0,0.158578 0,0.199043 0,0.110469 0.0147,0.187984 0.0332,0.298567 0.0336,0.201334 -0.009,0.434469 -0.0332,0.630303 -0.024,0.192405 0,0.402688 0,0.59713 0,0.409144 0,0.81829 0,1.227434 0,0.07335 -0.007,0.723125 0,0.729827 0.003,0.0032 0.47837,0 0.53078,0 0.13778,0 0.26374,0.03276 0.39809,0.06635 0.0418,0.01045 0.12618,-0.01984 0.16587,0 0.014,0.007 0.018,0.02938 0.0332,0.03317 0.21863,0.05466 0.4754,-0.04425 0.69665,0 0.16974,0.03395 0.32459,0.01588 0.49761,0.03317 0.13386,0.01339 0.26403,0.05518 0.39809,0.06635 0.33764,0.02814 0.68918,0 1.02839,0 0.23078,0 0.50004,-0.03282 0.72983,0 0.0782,0.01117 0.1543,0.05336 0.23221,0.06635 0.12575,0.02096 0.24482,0.02633 0.36492,0.06635 0.1,0.03332 0.49261,-0.007 0.59713,-0.03317 0.0152,-0.0038 0.0183,-0.02823 0.0332,-0.03317 0.12512,-0.04171 0.27273,0.0086 0.39809,-0.03318 0.0148,-0.0049 0.0221,-0.02212 0.0332,-0.03317 0.0221,-0.01106 0.0429,-0.02535 0.0663,-0.03317 0.0376,-0.01252 0.0975,0.01757 0.1327,0 0.014,-0.007 0.0183,-0.02823 0.0332,-0.03317 0.0403,-0.01341 0.12087,0 0.16587,0 0.20476,0 0.59628,0.05019 0.763,-0.03317 0.0348,-0.01741 0.13939,0.02648 0.16587,0 0.0133,-0.01328 0.018,-0.04216 0.0663,-0.06635 0.0619,-0.03096 0.17029,0.03096 0.23221,0 0.0221,-0.01106 0.0489,-0.01569 0.0663,-0.03317 0.008,-0.0078 -0.01,-0.02823 0,-0.03317 0.0232,-0.01159 0.21044,-0.02695 0.23222,-0.03317 0.0476,-0.0136 0.0872,-0.04687 0.13269,-0.06635 0.28051,-0.120219 -0.0366,0.01746 0.16587,-0.03318 0.06,0.02 0.0617,-0.05374 0.0995,-0.06635 0.021,-0.007 0.0454,0.007 0.0663,0 0.0566,-0.01884 0.27193,-0.125995 0.33174,-0.16587 0.16711,-0.111403 0.24926,-0.32367 0.39809,-0.398087 0.0692,-0.03462 0.15481,0 0.23222,0 z"
       id="path9" /></g></svg>
