<?xml version="1.0" encoding="UTF-8" standalone="no"?>
<!-- Created with Inkscape (http://www.inkscape.org/) -->

<svg
   width="54.045452"
   height="28.034166"
   viewBox="0 0 14.299526 7.4173731"
   version="1.1"
   id="svg1"
   xml:space="preserve"
   xmlns="http://www.w3.org/2000/svg"
   xmlns:svg="http://www.w3.org/2000/svg"><defs
     id="defs1" /><g
     id="layer1"
     transform="translate(-254.89759,-77.680192)"><path
       style="fill:#000000;fill-opacity:0.498525;stroke-width:0.264583"
       d="m 254.99402,77.792605 c 0.10706,0 0.21412,0 0.32119,0 0.17308,0 0.37566,0.0284 0.54602,0 0.0974,-0.01624 0.19165,-0.048 0.28908,-0.06424 0.0617,-0.01029 0.19714,0.02991 0.25695,0 0.1009,-0.05045 0.30012,-0.06148 0.41755,-0.03212 0.0464,0.01161 0.082,0.05262 0.12847,0.06424 0.15094,0.03773 0.28994,0.06424 0.44967,0.06424 0.16878,0 0.80918,-0.04076 0.93146,0 0.1836,0.0612 -0.19417,0.0061 0.0964,0.06424 0.35031,0.07006 -0.30341,-0.152696 0.25696,0.09636 0.12412,0.05517 0.23255,0.0019 0.35331,0.03212 0.11905,0.02976 0.23435,0.04441 0.35331,0.06424 0.0668,0.01114 0.12592,0.05311 0.19271,0.06424 0.10832,0.01804 0.44215,0.02968 0.54603,0 0.18221,-0.05206 0.33383,-0.179816 0.51391,-0.224833 0.40496,-0.101242 1.04593,-0.114122 1.44536,0 0.0326,0.0093 0.0632,0.02548 0.0964,0.03212 0.0322,0.0064 0.16833,-0.02439 0.19271,0 0.0374,0.0374 -0.0142,0.867947 0,0.995693 0.0589,0.530366 -0.002,-0.04009 0.0642,0.224835 0.012,0.04815 -0.0157,0.113557 0,0.160597 0.005,0.01437 0.0273,0.01775 0.0321,0.03212 0.0735,0.220496 -0.12298,-0.149606 0.0321,0.160597 0.0265,0.05296 0.0718,0.11144 0.0963,0.160594 0.0136,0.02708 0.0547,0.03551 0.0643,0.06424 0.007,0.02032 -0.01,0.04509 0,0.06424 0.0135,0.02708 0.0461,0.04001 0.0642,0.06424 0.0287,0.0383 0.0377,0.08864 0.0642,0.128477 0.15388,0.230819 0.793,0.160594 1.05993,0.160594 0.17047,0 0.45144,-0.03971 0.61027,0 0.1007,0.02519 0.24277,0.05976 0.35332,0.03212 0.11554,-0.02889 0.23333,-0.04024 0.35329,-0.06424 0.0723,-0.01447 0.35489,-0.0031 0.38545,-0.06424 0.0931,-0.186238 0.0682,-0.441341 0.12846,-0.642385 0.0138,-0.04586 0.0526,-0.08203 0.0642,-0.128476 0.13139,-0.525534 -0.14582,0.276847 0.0321,-0.256953 0.0596,-0.178623 0.11969,-0.420441 0.22484,-0.578144 0.0167,-0.02519 0.0507,-0.03715 0.0642,-0.06424 0.01,-0.01916 -0.01,-0.04508 0,-0.06424 0.0323,-0.06457 0.0991,-0.101811 0.12848,-0.160594 0.005,-0.0096 -0.008,-0.02455 0,-0.03212 0.0161,-0.01606 0.0482,-0.01606 0.0642,-0.03212 0.008,-0.0076 -0.008,-0.02455 0,-0.03212 0.10771,-0.107718 0.28311,0.245028 0.32118,0.321191 0.0585,0.116943 0.2273,0.427407 0.25696,0.546025 0.0196,0.07816 0.0321,0.144556 0.0642,0.224835 0.0551,0.137748 0.12539,0.276744 0.16058,0.41755 0.0196,0.07833 0.006,0.326819 0.0642,0.385429 0.008,0.0077 0.38248,0 0.41757,0 0.15676,0 0.2727,0.02803 0.41754,0.06424 0.19145,0.04787 0.4188,-0.04786 0.61026,0 0.0555,0.01386 0.10623,0.04612 0.1606,0.06424 0.0681,0.0227 0.0858,-0.0053 0.1606,0.03212 0.0609,0.03048 0.24273,-0.04633 0.28906,0 0.0151,0.01513 0,0.04283 0,0.06424 0,0.194498 -0.0954,0.277744 -0.25694,0.385429 -0.15057,0.10038 -0.31088,0.205526 -0.44968,0.321191 -0.18421,0.153519 -0.32822,0.405006 -0.54603,0.513908 -0.0395,0.01974 -0.089,0.01238 -0.12848,0.03212 -0.0691,0.03453 -0.12848,0.08565 -0.19269,0.128476 -0.0475,0.03168 -0.0776,0.103053 -0.12848,0.128479 -0.0251,0.0126 -0.16719,0.03871 -0.19273,0.06424 -0.022,0.02204 0.17791,0.36568 0.19273,0.417547 0.0623,0.217958 0.15642,0.409231 0.25693,0.610264 0.037,0.07398 0.096,0.143742 0.12848,0.224835 0.0485,0.121136 0.0714,0.260635 0.0964,0.385429 -0.007,0.0645 0.0502,0.104664 0.0642,0.160597 0.0111,0.04425 0,0.113424 0,0.160596 0,0.03603 0.0449,0.21209 0.0321,0.224833 -0.0613,0.06126 -0.32912,-0.123045 -0.38545,-0.160595 -0.0251,-0.0168 -0.04,-0.04607 -0.0642,-0.06424 -0.0161,-0.07076 -0.0661,-0.01699 -0.0964,-0.03212 -0.0494,-0.02471 -0.21924,-0.132308 -0.25697,-0.160594 -0.15467,-0.116007 -0.29773,-0.26388 -0.44966,-0.385432 -0.12499,-0.09998 -0.29186,-0.130567 -0.41756,-0.224832 -0.0724,-0.05431 -0.10962,-0.119055 -0.1927,-0.160597 -0.0773,-0.03865 -0.18074,-0.166584 -0.25696,-0.128477 -0.0368,0.01842 -0.0447,0.06702 -0.0642,0.09636 -0.0251,0.0378 -0.068,0.06089 -0.0964,0.09636 -0.0721,0.09009 -0.12063,0.198983 -0.1927,0.289073 -0.0378,0.04729 -0.0922,0.08002 -0.12848,0.128477 -0.0488,0.06506 -0.0885,0.144663 -0.1606,0.192714 -0.0183,0.01222 -0.19045,0.127569 -0.19273,0.128477 -0.0298,0.01193 -0.0648,-0.0063 -0.0964,0 -0.0727,0.01453 -0.13017,0.09721 -0.19269,0.128476 -0.019,0.0096 -0.0451,-0.0096 -0.0642,0 -0.0135,0.0068 -0.0185,0.02535 -0.0321,0.03212 -0.019,0.0096 -0.0491,-0.01513 -0.0643,0 -0.008,0.0076 0.008,0.02455 0,0.03212 -0.0151,0.01513 -0.0439,-0.0068 -0.0642,0 -0.0302,0.01008 -0.1458,0.06677 -0.16059,0.09636 -0.005,0.0096 0.008,0.02455 0,0.03212 -0.008,0.0076 -0.0246,-0.0076 -0.0321,0 -0.008,0.0076 0.008,0.02455 0,0.03212 -0.0259,0.02588 -0.22663,0.05287 -0.25695,0.06424 -0.18545,0.06954 -0.33261,0.211373 -0.51391,0.289073 -0.0297,0.01275 -0.32111,0.128421 -0.32119,0.128477 -0.0514,0.0321 -0.0829,0.08859 -0.12848,0.128476 -0.21739,0.190212 -0.36983,0.33092 -0.64238,0.385429 -0.24045,0.04809 -0.51061,0.03212 -0.77086,0.03212 -0.21057,0 -0.76895,0.03893 -0.96358,0 -0.16242,-0.03248 -0.31321,-0.03212 -0.48178,-0.03212 -0.29687,0 -0.57183,0.09155 -0.86722,0.128476 -0.32536,0.04067 -0.72778,0 -1.05993,0 -0.10423,0 -0.43485,0.07659 -0.54603,0.03212 -0.0281,-0.01125 -0.039,-0.04744 -0.0642,-0.06424 -0.068,-0.04534 -0.34102,-0.205703 -0.41755,-0.224835 -0.18941,-0.04735 -0.38345,-0.05742 -0.57814,-0.09636 -0.0235,-0.0047 -0.0406,-0.02818 -0.0642,-0.03212 -0.24176,-0.04029 -0.66564,0 -0.93146,0 -0.0998,0 -0.25941,-0.0313 -0.35331,0 -0.0454,0.01513 -0.0831,0.0491 -0.12847,0.06424 -0.0584,0.01947 -0.17185,0.09636 -0.12848,0.09636 0.0107,0 0,-0.02141 0,-0.03212 0,-0.107064 0,-0.214128 0,-0.321191 0,-0.305906 0.0277,-0.626833 0,-0.931455 -0.0426,-0.468794 -0.0321,0.144735 -0.0321,-0.321194 0,-0.396137 0,-0.792271 0,-1.188408 0,-0.197934 0.0219,-0.413369 0,-0.610264 -0.006,-0.05426 -0.0272,-0.106227 -0.0321,-0.160597 -0.0328,-0.360357 0.0201,-0.730755 0,-1.092051 -0.009,-0.153281 -0.0326,-0.355907 -0.0642,-0.513906 -0.0153,-0.07643 -0.0514,-0.147952 -0.0642,-0.224835 -0.0323,-0.193498 0.0476,-0.419917 0,-0.610264 -0.04,-0.159967 -0.0321,-0.315687 -0.0321,-0.481788 0,-0.07728 0.0329,-0.223287 0,-0.28907 -0.003,-0.0067 -0.0653,-0.09305 -0.0642,-0.09636 0.0197,-0.05922 0.0642,-0.107063 0.0964,-0.160597 z"
       id="path26" /></g></svg>
