<?xml version="1.0" encoding="UTF-8" standalone="no"?>
<!-- Created with Inkscape (http://www.inkscape.org/) -->

<svg
   width="346.8461"
   height="99.02906"
   viewBox="0 0 91.769698 26.201438"
   version="1.1"
   id="svg1"
   xml:space="preserve"
   xmlns="http://www.w3.org/2000/svg"
   xmlns:svg="http://www.w3.org/2000/svg"><defs
     id="defs1" /><g
     id="layer1"
     transform="translate(-74.944628,-4.7693654)"><path
       style="fill:#000000;fill-opacity:0.498525;stroke-width:0.264583"
       d="m 123.96158,6.66786 c -1.49239,0.011192 -3.01175,0.1610913 -4.24318,-0.4546269 -0.19106,-0.095528 -0.55445,-0.049912 -0.75772,-0.1515422 -0.28079,-0.1403959 -0.6301,-0.2685251 -0.90925,-0.4546269 -0.11888,-0.079253 -0.17529,-0.2391887 -0.30309,-0.3030845 -0.0936,-0.046812 -0.54999,-0.095371 -0.60616,-0.1515422 -0.0357,-0.035719 0.0357,-0.1158235 0,-0.1515422 -0.15996,-0.1599594 -1.87601,-0.1515425 -2.27314,-0.1515425 -0.423,0 -1.30702,-0.1799712 -1.66696,0 -0.22102,0.1105064 -0.24243,0.2424263 -0.30309,0.3030847 -0.0878,0.087834 -0.51833,0.2152507 -0.60617,0.3030844 -0.0931,0.093103 -0.10011,0.3531426 -0.30308,0.454627 -0.0452,0.02259 -0.11583,-0.035719 -0.15154,0 -0.0357,0.035719 0.0357,0.1158234 0,0.1515422 -0.13301,0.1330068 -1.07933,0.4731623 -1.21234,0.6061691 -0.0758,0.075771 -0.0758,0.2273133 -0.15154,0.3030845 -0.0714,0.071438 -0.21273,-0.045181 -0.30309,0 -0.32593,0.1629632 -0.60338,0.4532328 -0.90925,0.6061691 -0.22569,0.1128458 -0.53306,0.1907588 -0.75771,0.3030844 -0.31371,0.1568527 0.0106,-0.1568524 -0.30309,0 -0.12779,0.063896 -0.17529,0.2391889 -0.30308,0.3030847 -0.0895,0.04474 -0.5559,0.2528147 -0.60617,0.3030845 -0.12366,0.1236564 -0.11866,0.3821906 -0.45463,0.6061691 -0.042,0.02802 -0.11582,-0.035719 -0.15154,0 -0.31355,0.3135463 0.47914,-0.012258 -0.15154,0.3030844 -0.17413,0.087062 -0.81033,0.3557014 -0.90926,0.454627 -0.0357,0.035719 0.0357,0.1158234 0,0.1515423 -0.0714,0.07144 -0.21272,-0.045181 -0.30308,0 -0.41451,0.207253 -0.79783,0.398916 -1.21234,0.606169 -0.0904,0.04518 -0.21272,-0.04518 -0.30308,0 -0.22067,0.110335 -0.32446,0.08646 -0.45463,0.151542 -0.19169,0.09584 -0.27631,0.335747 -0.45463,0.454627 -0.14705,0.09803 -0.43155,0.215775 -0.60617,0.303085 -0.15898,0.07949 -0.64251,0.03635 -0.75771,0.151542 -0.0357,0.03572 0.0357,0.115823 0,0.151542 -0.0961,0.09613 -0.48,-0.06309 -0.60617,0 -0.26059,0.130295 -0.49712,0.17279 -0.75771,0.303085 -0.183254,0.09163 -0.816182,0.03459 -0.909252,-0.151542 -0.06243,-0.124856 -0.06147,-0.213018 -0.151543,-0.303085 -0.03572,-0.03572 -0.115824,0.03572 -0.151543,0 -0.126283,-0.126285 -0.02527,-0.479884 -0.15154,-0.606169 -0.03572,-0.03572 -0.115824,0.03572 -0.151543,0 -0.09893,-0.09893 -0.367567,-0.735131 -0.454628,-0.909254 -0.03066,-0.06132 -0.882303,-1.0473207 -0.909254,-1.0607957 -0.04518,-0.02259 -0.115821,0.035719 -0.15154,0 -0.313547,-0.3135463 0.479139,0.012255 -0.151542,-0.3030844 -0.04518,-0.02259 -0.115824,0.035719 -0.151543,0 -0.03572,-0.035719 0.0226,-0.1063612 0,-0.1515425 -0.101484,-0.2029688 -0.361524,-0.2099813 -0.454628,-0.3030844 -0.03572,-0.035719 0.03572,-0.1158235 0,-0.1515423 -0.0089,-0.00886 -1.84729,0 -2.121591,0 -1.689888,0 -3.078083,0.3159676 -4.697809,0.7577114 -0.248497,0.067772 -0.520968,0.05008 -0.757714,0.1515422 -0.307631,0.1318424 -0.619599,0.5839198 -0.909251,0.7577114 -0.372449,0.2234683 -0.889418,0.2832463 -1.21234,0.6061693 -0.03572,0.03572 0.0226,0.106361 0,0.151542 -0.151542,0.303084 -0.606168,0.454627 -0.757711,0.757711 -0.0226,0.04518 0.03572,0.115824 0,0.151543 -0.03572,0.03572 -0.106362,-0.02259 -0.151542,0 -0.41283,0.206415 -1.017919,0.963586 -1.515423,1.212338 -0.453313,0.226657 0.03659,0.05225 -0.151542,0.303084 -0.128588,0.171451 -0.303086,0.303085 -0.454626,0.454627 -0.404114,0.404113 -0.787546,0.830024 -1.212339,1.212338 -0.896898,0.807208 -2.383028,1.907576 -3.030845,2.879303 -0.201784,0.302677 -0.567822,0.890081 -0.909254,1.060797 -0.04518,0.02259 -0.115824,-0.03572 -0.151542,0 -0.03572,0.03572 0.03572,0.115823 0,0.151542 -0.03572,0.03572 -0.115824,-0.03572 -0.151543,0 -0.03572,0.03572 0.03572,0.115823 0,0.151542 -0.196162,0.196162 -1.085157,-0.09291 -1.363879,0 -0.300729,0.100242 -1.206061,0.745156 -1.363883,1.060796 -0.0226,0.04518 0.03572,0.115823 0,0.151542 -0.03572,0.03572 -0.115821,-0.03572 -0.15154,0 -0.03572,0.03572 0.0226,0.106361 0,0.151542 -0.0639,0.127792 -0.239191,0.175293 -0.303085,0.303085 -0.09173,0.183456 -0.09173,1.331967 0,1.515423 0.315341,0.630682 -0.01045,-0.162004 0.303085,0.151542 0.100002,0.100004 0.214088,0.4859 0.454626,0.606169 0.304546,0.152273 0.567523,-0.07729 0.757711,0.303085 0.06062,0.121233 -0.06062,0.333393 0,0.454626 0.221115,0.442232 0.151543,0.984057 0.151543,1.515423 0,0.210292 0.09884,0.71156 0,0.909254 -0.08827,0.176527 -0.214821,0.278099 -0.303086,0.454625 -0.166251,0.332505 0,1.143863 0,1.515425 0,0.101029 -0.07144,0.231645 0,0.303083 0.03572,0.03572 0.106363,-0.02259 0.151543,0 0.630682,0.315341 -0.162004,-0.01045 0.151543,0.303085 0.166859,0.166863 1.486455,0.591685 1.818507,0.757712 0.0915,0.04575 0.384575,-0.07005 0.454626,0 0.03572,0.03572 -0.03572,0.115824 0,0.151542 0.01196,0.01196 0.819931,0.213762 0.909254,0.303086 0.151543,0.15154 -0.151543,0.757711 0,0.909251 0.09104,0.09104 1.885704,-0.109368 1.97005,-0.15154 0.0639,-0.03195 0.08377,-0.128953 0.151543,-0.151543 0.144232,-0.04808 0.605142,0 0.757711,0 0.68339,0 1.025681,-0.05993 1.666965,-0.151543 1.185519,-0.169359 2.456381,0.196774 3.637013,0 0.157567,-0.02627 0.296121,-0.131728 0.454628,-0.151542 1.349751,-0.16872 2.741226,0.05621 4.091641,-0.151543 2.774688,-0.426874 5.341485,-1.531641 8.183282,-1.666965 1.51815,-0.07229 2.90181,0.209777 4.39473,0.303085 1.29004,0.08063 2.64532,0 3.94009,0 0.34957,0 0.87006,-0.06846 1.21234,0 0.22152,0.04431 0.38701,0.248293 0.60617,0.303086 0.49479,0.123695 4.21283,0.09093 4.84935,0 0.44065,-0.06295 0.77066,-0.399418 1.21234,-0.454628 0.55137,-0.06892 1.11295,-0.04262 1.66697,0 1.24554,0.09581 2.32296,0.67329 3.48547,1.060796 0.52266,0.17422 1.66864,-0.226475 2.12159,0 0.86044,0.430221 1.535,0.606169 2.57622,0.606169 0.25257,0 0.50768,-0.03572 0.75771,0 0.72645,0.103777 1.65543,0.448857 2.27314,0.757711 0.25281,0.12641 1.46015,0 1.81851,0 0.10102,0 0.23164,0.07144 0.30308,0 0.0357,-0.03572 -0.0357,-0.115824 0,-0.151543 0.19425,-0.194252 0.95678,0.127778 1.21234,0 0.22866,-0.114332 0.32345,-0.208844 0.60617,-0.303083 0.0958,-0.03195 0.23164,0.07144 0.30308,0 0.0357,-0.03572 -0.0357,-0.115824 0,-0.151543 0.07,-0.07005 0.36313,0.04575 0.45463,0 0.18185,-0.09092 0.27277,-0.363701 0.45463,-0.454625 0.0452,-0.0226 0.11582,0.03572 0.15154,0 0.0357,-0.03572 -0.0357,-0.115824 0,-0.151543 0.0758,-0.07577 0.22731,-0.07577 0.30308,-0.151543 0.0714,-0.07144 -0.0452,-0.212722 0,-0.303085 0.11051,-0.221012 0.24243,-0.242425 0.30309,-0.303083 0.0714,-0.07144 -0.0452,-0.212722 0,-0.303086 0.0883,-0.176527 0.21482,-0.278098 0.30308,-0.454625 0.0452,-0.09036 -0.0714,-0.231648 0,-0.303086 0.0357,-0.03572 0.11582,0.03572 0.15154,0 0.16568,-0.165679 0.17912,-0.633743 0.30309,-0.757711 0.079,-0.07899 0.93627,-0.03113 1.06079,0 0.54331,0.135827 0.92745,0.387953 1.36388,0.606169 0.0904,0.04518 0.23165,-0.07144 0.30309,0 0.0758,0.07577 0.0758,0.227314 0.15154,0.303085 0.0357,0.03572 0.11582,-0.03572 0.15154,0 0.14947,0.149468 0.0411,0.647271 0.15154,0.757711 0.0203,0.02029 1.77883,0 1.97005,0 0.17866,0 0.93968,0.121126 1.0608,0 0.0357,-0.03572 -0.0452,-0.128952 0,-0.151543 0.0904,-0.04518 0.21272,0.04518 0.30308,0 0.10103,-0.05051 0.0717,-0.223215 0.15155,-0.303085 0.1076,-0.107603 0.4277,-0.276162 0.45462,-0.303083 0.31355,-0.313547 -0.47914,0.01225 0.15155,-0.303085 0.0452,-0.0226 0.11582,0.03572 0.15154,0 0.0332,-0.03321 0.41167,-0.671809 0.45462,-0.757712 0.31535,-0.630682 -0.0104,0.162005 0.30309,-0.151542 0.0758,-0.07577 0.0758,-0.227314 0.15154,-0.303086 0.0505,-0.05051 0.40411,-0.101027 0.45463,-0.151541 0.0357,-0.03572 -0.0357,-0.115823 0,-0.151542 0.0357,-0.03572 0.10636,0.02259 0.15154,0 0.24247,-0.121234 0.3637,-0.484935 0.60617,-0.606169 0.0694,-0.03468 1.88681,-0.110983 1.97005,0 0.15843,0.211242 0.53986,1.164959 0.60617,1.36388 0.11629,0.348877 0.21389,0.704028 0.30308,1.060797 0.0202,0.08082 -0.0556,0.399061 0,0.454626 0.10075,0.100745 1.30033,0 1.36388,0 0.87758,0 0.89971,-0.111268 1.66697,-0.303083 0.23684,-0.05921 1.40128,-0.09447 1.51542,-0.151543 0.59581,-0.297905 1.23134,-0.615672 1.81851,-0.909254 0.38285,-0.191428 0.47314,-0.776226 0.60617,-0.909254 0.31354,-0.313546 -0.0123,0.47914 0.30308,-0.151542 0.0226,-0.04518 -0.0357,-0.115824 0,-0.151543 0.0357,-0.03572 0.11583,0.03572 0.15154,0 0.0357,-0.03572 -0.0357,-0.115823 0,-0.151542 0.0961,-0.09613 0.48,0.06309 0.60617,0 0.26505,-0.132522 0.65825,-0.287287 0.90926,-0.454627 0.16717,-0.11145 0.2756,-0.365113 0.45462,-0.454626 0.47138,-0.23569 0.91017,-0.455237 1.36388,-0.757712 0.28788,-0.191917 0.90714,-0.753481 1.0608,-1.060796 0.0226,-0.04518 -0.0357,-0.115823 0,-0.151542 0.0357,-0.03572 0.11582,0.03572 0.15154,0 0.14548,-0.145479 -0.0957,-0.717929 0,-0.909254 0.0857,-0.171458 0.18972,-0.43612 0.30309,-0.606169 0.15378,-0.23067 0.52722,-0.642467 0.75771,-0.757711 0.0452,-0.02259 0.11582,0.03572 0.15154,0 0.0513,-0.05134 0.28326,-1.403528 0.15154,-1.666965 -0.0596,-0.119175 -0.23341,-0.536497 -0.30308,-0.606169 -0.0505,-0.05051 -0.40411,-0.101028 -0.45463,-0.151542 -0.0714,-0.07144 0,-0.202057 0,-0.303085 0,-0.446827 -0.18916,-1.288639 0,-1.666965 0.15154,-0.303084 0.60617,-0.454627 0.75771,-0.757711 0.0226,-0.04518 -0.0357,-0.115824 0,-0.151543 0.0609,-0.06086 0.36892,0.02857 0.45463,0 0.1134,-0.0378 0.75627,-0.150102 0.75771,-0.151542 0.0357,-0.03572 -0.0357,-0.115823 0,-0.151542 0.0714,-0.07144 0.23165,0.07144 0.30308,0 0.0758,-0.07577 0.0758,-0.227314 0.15155,-0.303085 0.0357,-0.03572 0.11582,0.03572 0.15154,0 0.19515,-0.19515 0.0409,-0.536432 0.15154,-0.757711 0.19817,-0.39634 0.64249,-0.705103 0.90926,-1.060796 0.23752,-0.316704 0.36864,-0.744092 0.60617,-1.060796 0.0857,-0.1143 0.22957,-0.18057 0.30308,-0.303084 0.46206,-0.10728 0.0584,-0.419883 0.15154,-0.60617 0.10442,-0.20884 0.35541,-0.203864 0.45463,-0.303084 0.0401,-0.04011 0,-0.392227 0,-0.454627 0,-0.0624 0.0401,-0.4145125 0,-0.4546265 -0.0714,-0.071438 -0.23165,0.071438 -0.30309,0 -0.0357,-0.035719 0.0357,-0.1158235 0,-0.1515423 -0.0518,-0.051763 -0.97067,-0.2129599 -1.06079,-0.3030847 -0.0357,-0.035719 0.0226,-0.1063611 0,-0.1515422 -0.0909,-0.1818508 -0.3637,-0.2727761 -0.45463,-0.4546269 -0.16921,-0.338427 -0.33457,-1.1523099 -0.75771,-1.3638802 -0.30157,-0.1507858 -3.75913,0 -4.09164,0 -0.42516,0 -1.11551,-0.1333037 -1.51542,0 -0.28893,0.096309 -0.61262,0.2536441 -0.90926,0.3030844 -0.1993,0.033218 -0.40803,-0.039627 -0.60617,0 -0.0701,0.01401 -0.0838,0.1289516 -0.15154,0.1515422 -0.27492,0.09164 -0.62573,0.080661 -0.90925,0.1515422 -0.21916,0.054791 -0.38701,0.2482946 -0.60617,0.3030847 -0.40314,0.1007838 -0.80744,0.2018594 -1.21234,0.3030845 -0.19602,0.049006 -0.41015,-0.049006 -0.60617,0 -0.10958,0.027395 -0.19232,0.1293905 -0.30308,0.1515422 -0.34673,0.069346 -0.70895,-0.035184 -1.0608,0 -2.06804,0.2068047 -4.22058,-0.029024 -6.21323,0.3030847 -0.29896,0.049827 -0.61206,-0.05944 -0.90926,0 -0.11076,0.022151 -0.19232,0.1293902 -0.30308,0.1515422 -0.38857,0.077714 -0.82377,-0.077714 -1.21234,0 -0.51376,0.1027528 -1.00166,0.2003317 -1.51542,0.3030844 -0.4369,0.087381 -0.92425,-0.073272 -1.36388,0 -0.75171,0.1252845 -1.51052,0.1941399 -2.27313,0.3030848 -0.40006,0.05715 -0.8107,-0.044627 -1.21234,0 -0.20701,0.023 -0.39951,0.1257088 -0.60617,0.1515422 -1.01254,0.1265668 -2.64428,0.082728 -3.63702,0 -0.51336,-0.042781 -1.00425,-0.2391887 -1.51542,-0.3030845 -1.08534,-0.1356675 -2.61098,0.038928 -3.63702,-0.3030847 -0.48106,-0.1603547 -1.01724,-0.371598 -1.51542,-0.4546266 -0.6377,-0.1062847 -0.28626,0.1599554 -0.90925,-0.1515425 -0.54538,-0.2726875 -1.09676,-0.6241516 -1.66697,-0.9092536 -0.0918,-0.045922 -0.39112,-0.08804 -0.45462,-0.1515422 -0.0714,-0.071438 0.0714,-0.2316469 0,-0.3030844 -0.0357,-0.035719 -0.11583,0.035719 -0.15154,0 -0.2709,-0.270895 0.30308,-0.6285244 0.30308,-0.7577114"
       id="path8" /></g></svg>
