<?xml version="1.0" encoding="UTF-8" standalone="no"?>
<!-- Created with Inkscape (http://www.inkscape.org/) -->

<svg
   width="59.994659"
   height="31.736061"
   viewBox="0 0 15.873587 8.3968327"
   version="1.1"
   id="svg1"
   xml:space="preserve"
   xmlns="http://www.w3.org/2000/svg"
   xmlns:svg="http://www.w3.org/2000/svg"><defs
     id="defs1" /><g
     id="layer1"
     transform="translate(-49.691459,-113.96653)"><path
       style="fill:#000000;fill-opacity:0.498525;stroke-width:0.264583"
       d="m 49.691459,118.73297 c 0.531931,-0.0118 1.061706,-0.008 1.579597,0.0658 0.169833,-0.0681 0.258839,0.10442 0.394898,0.13163 0.06454,0.0129 0.133596,-0.016 0.197448,0 0.03195,0.008 0.132784,0.13048 0.197451,0.0658 0.0344,-0.0344 -0.112977,-0.29177 -0.131633,-0.32908 -0.02778,-0.0556 -0.02778,-0.40516 0,-0.46071 0.118351,-0.23671 0.151064,-0.49958 0.263266,-0.72399 0.02617,-0.0524 0.02839,-0.35747 0.06582,-0.39489 0.05142,-0.0514 0.173212,0.0294 0.19745,0.0658 0.09219,0.13828 0.148524,0.31394 0.197451,0.46072 0.04529,0.13588 0.141991,0.15235 0.197448,0.26326 0.02827,0.0565 0.01789,0.10161 0.06582,0.19745 0.0357,0.0714 0.02246,0.48319 0.06582,0.52654 0.01611,0.0161 0.826868,-0.004 0.855615,0 0.200572,0.0287 0.429757,0.11615 0.592349,0.19745 0.06542,0.0327 1.554448,0.0523 1.711229,0 0.02943,-0.01 0.03638,-0.056 0.06582,-0.0658 0.137395,-0.0458 0.320129,0.0352 0.460716,0 0.1314,-0.0328 0.271449,-0.13163 0.394898,-0.13163 0.104807,0 0.591463,0.0667 0.658165,0 0.0155,-0.0155 -0.01551,-0.0503 0,-0.0658 0.03103,-0.031 0.120991,0.0426 0.131633,0 0.05576,-0.22304 0.0093,-0.49797 0.06582,-0.72398 0.0075,-0.0301 0.05829,-0.0357 0.06582,-0.0658 0.02127,-0.0851 -0.02775,-0.18001 0,-0.26327 0.07018,-0.21052 0.0069,-0.41565 0.06582,-0.59234 0.160451,-0.48136 0.06582,-1.13525 0.06582,-1.64542 0,-0.13904 -0.07807,-0.80765 0.06582,-0.85561 0.204544,-0.0682 1.1,0.0847 1.184696,0 0.0155,-0.0155 -0.01963,-0.056 0,-0.0658 0.05887,-0.0294 0.138583,0.0294 0.19745,0 0.240999,-0.1205 0.484458,-0.20932 0.723982,-0.32908 0.124669,-0.0623 1.192805,0 1.447964,0 0.129474,0 0.810308,-0.0556 0.92143,0 0.08539,0.0427 0.494422,0.19745 0.592349,0.19745 0.233265,0 1.084607,-0.0829 1.250514,0 0.110778,0.0554 0.127921,0.0658 0.263266,0.0658 0.104806,0 0.591462,-0.0667 0.658164,0 0.09091,0.0909 -0.03732,0.50686 -0.06581,0.59234 -0.04763,0.14289 0,0.37703 0,0.52654 0,0.14869 0.0098,-0.0294 -0.06582,0.19745 -0.07898,0.23694 0.07898,0.55285 0,0.78979 -0.05654,0.16963 -0.01947,0.32166 -0.06582,0.46072 -0.0098,0.0294 -0.05601,0.0364 -0.06582,0.0658 -0.06268,0.18804 -0.01008,0.57217 0.06582,0.72398 0.04178,0.0836 -0.02916,0.24161 0,0.32908 0.0098,0.0294 0.056,0.0364 0.06582,0.0658 0.02082,0.0624 -0.02943,0.13858 0,0.19745 0.09167,0.18333 0.09576,0.37713 0.131633,0.59235 0.03094,0.18562 0.06745,0.20071 0.131633,0.32908 0.0062,0.0123 0.02307,0.87529 0,0.92143 -0.06757,0.13513 -0.06582,0.0809 -0.06582,0.26326 0,0.0873 0.06254,0.52981 0,0.59235 -0.01551,0.0155 -0.05031,-0.0155 -0.06582,0 -0.03102,0.031 0.03103,0.10061 0,0.13163 -0.02635,0.0264 -0.08364,0.0357 -0.131633,0.13164 -0.01987,0.0397 0.03042,0.16702 0,0.19745 -0.03102,0.031 -0.100608,-0.031 -0.131633,0 -0.01551,0.0155 0.0155,0.0503 0,0.0658 -0.02876,0.0288 -0.713377,-0.0127 -0.789797,0 -0.165359,0.0276 -0.366302,0.0916 -0.526534,0.13163 -0.139375,0.0348 -0.255521,0.1626 -0.394899,0.19745 -0.291459,0.0729 -0.685816,0 -0.987247,0 -0.06554,0 -0.422757,0.0379 -0.460714,0 -0.0155,-0.0155 0.01551,-0.0503 0,-0.0658 -0.01468,-0.0147 -0.892897,-0.0344 -0.987248,-0.0658 -0.02943,-0.01 -0.03638,-0.056 -0.06582,-0.0658 -0.09872,-0.0329 -0.230357,0.0329 -0.329081,0 -0.02943,-0.01 -0.03572,-0.0583 -0.06582,-0.0658 -0.206899,-0.0517 -0.38581,0.003 -0.592349,-0.0658 -0.157959,-0.0527 -0.368573,0.0526 -0.526532,0 -0.226882,-0.0756 -0.04875,-0.0658 -0.19745,-0.0658 -0.194429,0 -0.364879,-0.0508 -0.526532,-0.13164 -0.08342,-0.0417 -0.299585,0 -0.394898,0 -0.01498,0 -0.458314,0.012 -0.460716,0 -0.0712,-0.35597 0.0879,-0.76727 0,-1.11888 -0.08232,-0.32928 -0.06582,-0.64088 -0.06582,-0.98724 0,-0.0801 0.07057,-0.39015 0.06582,-0.3949 -0.01048,-0.0105 -0.891115,0 -0.987248,0 -0.122828,0 -0.09392,-0.014 -0.197448,-0.0658 -0.04187,-0.0209 -1.603544,-0.0209 -1.645412,0 -0.145526,0.0728 -0.02043,0.0408 -0.06582,0.13164 -0.02008,0.0401 -0.08815,0.1757 -0.131633,0.19744 -0.01963,0.01 -0.0503,-0.0155 -0.06582,0 -0.0155,0.0155 0.01551,0.0503 0,0.0658 -0.03815,0.0382 -0.225121,0.0935 -0.263268,0.13163 -0.01551,0.0155 0.0155,0.0503 0,0.0658 -0.03815,0.0382 -0.225118,0.0935 -0.263266,0.13163 -0.0155,0.0155 0.0155,0.0503 0,0.0658 -0.03102,0.031 -0.100605,-0.031 -0.131633,0 -0.0024,0.002 -0.04238,0.17402 -0.06582,0.19745 -0.0155,0.0155 -0.04619,-0.01 -0.06582,0 -0.07898,0.0395 -0.118469,0.15796 -0.197448,0.19745 -0.03924,0.0196 -0.100607,-0.031 -0.131632,0 -0.136179,0.13617 0.208094,-0.005 -0.06582,0.13163 -0.01963,0.01 -0.0503,-0.0155 -0.06582,0 -0.0155,0.0155 0.0155,0.0503 0,0.0658 -0.03291,0.0329 -0.09872,0.0329 -0.131633,0.0658 -0.03102,0.031 0.03103,0.10061 0,0.13164 -0.0155,0.0155 -0.0503,-0.0155 -0.06582,0 -0.0155,0.0155 0.0098,0.0462 0,0.0658 -0.03949,0.079 -0.157959,0.11847 -0.19745,0.19745 -0.02302,0.0461 0.231722,0.56081 0.263265,0.59235 0.0155,0.0155 0.05031,-0.0155 0.06582,0 0.03102,0.031 -0.01963,0.0924 0,0.13163 0.04535,0.0907 0.154358,0.0885 0.197451,0.13164 0.05944,0.0594 0.09242,0.25066 0.131632,0.32908 0.0311,0.0622 0.147712,0.37882 0.06582,0.46071 -0.0232,0.0232 -0.300199,0.01 -0.329084,0 -0.162917,-0.0543 -0.293071,-0.33901 -0.460714,-0.39489 -0.04163,-0.0139 -0.09001,0.0139 -0.131632,0 -0.05887,-0.0196 -0.07613,-0.10388 -0.131633,-0.13164 -0.03925,-0.0196 -0.100608,0.031 -0.131633,0 -0.03291,-0.0329 -0.03291,-0.0987 -0.06582,-0.13163 -0.03291,-0.0329 -0.164542,0.0329 -0.197448,0 -0.0155,-0.0155 0.01551,-0.0503 0,-0.0658 -0.03103,-0.031 -0.100608,0.031 -0.131635,0 -0.01551,-0.0155 0.0155,-0.0503 0,-0.0658 -0.09037,-0.0904 -0.978157,0.25417 -1.053063,0.32908 -0.01551,0.0155 0.0155,0.0503 0,0.0658 -0.01551,0.0155 -0.04619,-0.01 -0.06582,0 -0.0555,0.0277 -0.07613,0.10388 -0.131633,0.13163 -0.05002,0.025 -0.239093,0.10746 -0.263265,0.13163 -0.03291,0.0329 -0.03291,0.0987 -0.06582,0.13163 -0.03103,0.031 -0.100607,-0.031 -0.131632,0 -0.01551,0.0155 0.0155,0.0503 0,0.0658 -0.03103,0.031 -0.100608,-0.031 -0.131633,0 -0.01027,0.0103 -0.07693,0.18634 -0.131633,0.13164 -0.06934,-0.0693 0.047,-0.27265 0.06582,-0.32909 0.0645,-0.19348 0.11249,-0.42242 0.197451,-0.59234 0.03781,-0.0756 0.0011,-0.39607 0.06582,-0.46072 0.0155,-0.0155 0.0503,0.0155 0.06582,0 0.03102,-0.031 -0.03103,-0.10061 0,-0.13163 0.01551,-0.0155 0.0503,0.0155 0.06582,0 0.0456,-0.0456 0.02021,-0.28349 0.06582,-0.32909 0.0155,-0.0155 0.0503,0.0155 0.06582,0 0.01027,-0.0103 0.01027,-0.25301 0,-0.26326 -0.03291,-0.0329 -0.09872,-0.0329 -0.131632,-0.0658 -0.02758,-0.0276 -0.04587,-0.15756 -0.06582,-0.19745 -0.0611,-0.1222 -0.204986,-0.21252 -0.263265,-0.32908 -0.05747,-0.11493 -0.156732,-0.009 -0.197451,-0.13163 -0.01386,-0.0416 0.01963,-0.0924 0,-0.13164 -0.0098,-0.0196 -0.04619,0.01 -0.06582,0 -0.273913,-0.13695 0.07036,0.005 -0.06582,-0.13163 -0.0155,-0.0155 -0.04619,0.01 -0.06582,0 -0.07898,-0.0395 -0.118468,-0.15796 -0.197448,-0.19745 -0.01963,-0.01 -0.05767,0.0204 -0.06582,0 -0.04154,-0.10387 -0.04388,-0.21939 -0.06582,-0.32908 z"
       id="path7" /></g></svg>
