<?xml version="1.0" encoding="UTF-8" standalone="no"?>
<!-- Created with Inkscape (http://www.inkscape.org/) -->

<svg
   width="210.88428"
   height="166.99423"
   viewBox="0 0 55.796465 44.18389"
   version="1.1"
   id="svg1"
   xml:space="preserve"
   xmlns="http://www.w3.org/2000/svg"
   xmlns:svg="http://www.w3.org/2000/svg"><defs
     id="defs1" /><g
     id="layer1"
     transform="translate(-146.01262,-34.646733)"><path
       style="fill:#000000;fill-opacity:0.498525;stroke-width:0.264583"
       d="m 147.07656,50.184907 c 0.0911,0.626491 -0.17395,1.155332 -0.43477,1.676971 -0.0958,0.191617 -0.37484,0.250619 -0.43477,0.310549 -0.0174,0.01741 -0.11289,0.21444 -0.12422,0.248442 -0.0327,0.09821 0.0146,0.208073 0,0.310549 -0.0568,0.397835 -0.0621,0.774039 -0.0621,1.180092 0,0.744813 -0.0411,1.513647 0.0621,2.235959 0.0315,0.22044 0.11417,0.628412 0.24844,0.807432 0.0351,0.04685 0.098,0.07185 0.12422,0.124219 0.0185,0.03704 -0.0185,0.08719 0,0.124222 0.0641,0.128196 0.45481,0.494879 0.49688,0.621099 0.0131,0.03928 -0.0131,0.08494 0,0.124222 0.0185,0.05555 0.1057,0.06867 0.12422,0.124219 0.0418,0.125272 -0.0257,0.306382 0,0.434771 0.0501,0.25064 0.14638,0.519033 0.31055,0.68321 0.0146,0.01463 0.0436,-0.0093 0.0621,0 0.0524,0.02619 0.0674,0.110016 0.12422,0.124219 0.0603,0.01506 0.12507,-0.01021 0.18633,0 0.14867,0.02477 0.28985,0.08282 0.43477,0.124219 0.1072,0.03063 0.20239,0.09718 0.31055,0.124222 0.0402,0.01003 0.0849,-0.0131 0.12422,0 0.0278,0.0093 0.0414,0.0414 0.0621,0.06211 0.0414,0.02069 0.0793,0.05088 0.12422,0.06211 0.11442,0.0286 0.26106,-0.0372 0.37266,0 0.0278,0.0093 0.0343,0.05285 0.0621,0.06211 0.0393,0.0131 0.0844,-0.01138 0.12422,0 0.28893,0.08255 0.30018,0.13752 0.55899,0.248439 0.12035,0.05158 0.24426,0.09854 0.37266,0.124222 0.0609,0.01217 0.14241,-0.04392 0.18633,0 0.0604,0.06036 0.0198,0.174323 0.0621,0.248438 0.0514,0.08988 0.12006,0.168918 0.18633,0.248441 0.075,0.08997 0.14369,0.196064 0.24844,0.248441 0.037,0.01852 0.0841,-0.01005 0.12422,0 0.29993,0.07498 -0.003,0.02951 0.18633,0.12422 0.15633,0.07816 0.33155,0.06911 0.49688,0.124219 0.14642,0.04881 0.34864,0.165153 0.49688,0.18633 0.30024,0.04289 0.63426,-0.05948 0.93165,0 0.0454,0.0091 0.0793,0.05088 0.12422,0.06211 0.0803,0.02008 0.1681,-0.02008 0.24844,0 0.4055,0.101372 -0.23466,0.03335 0.31055,0.124219 0.39081,0.06513 0.88805,0.228288 1.30431,0.124219 0.33103,-0.08276 0.87054,-0.404212 1.1801,-0.558988 0.0556,-0.02778 0.1274,0.01963 0.18633,0 0.11067,-0.03689 0.16072,-0.09957 0.31055,-0.06211 0.41669,0.104171 0.82759,0.331118 1.2422,0.434768 0.12408,0.03102 0.20849,0.135303 0.31055,0.18633 0.45422,0.227116 1.06,0.403027 1.61486,0.310552 0.23495,-0.03916 0.44825,-0.147172 0.68321,-0.18633 0.48539,-0.0809 1.12249,0 1.61486,0 0.16563,0 0.33447,0.03248 0.49688,0 0.0287,-0.0057 0.0343,-0.05285 0.0621,-0.06211 0.20749,-0.06916 0.91381,0 1.18009,0 0.26715,0 0.66134,-0.06758 0.93165,0 0.23756,0.05939 0.55097,0.113403 0.80743,0.06211 0.0908,-0.01815 0.15862,-0.101764 0.24844,-0.124222 0.1771,-0.04427 0.37394,-0.09338 0.55899,-0.124219 0.22874,-0.03812 0.51332,0 0.74532,0 0.30503,0 0.83172,-0.07156 1.11798,0 0.26593,0.06649 0.54297,0.120213 0.80743,0.18633 0.19814,0.04954 0.60857,-0.0042 0.80743,0.06211 0.15348,0.05116 0.15021,0.23831 0.18633,0.31055 0.0262,0.05238 0.10248,0.06985 0.12422,0.124219 0.0231,0.05767 -0.0151,0.126076 0,0.18633 0.0181,0.07242 0.10612,0.113914 0.12422,0.18633 0.01,0.04017 -0.0131,0.08494 0,0.124222 0.0267,0.07998 0.15967,0.168458 0.18633,0.248438 0.0479,0.143664 0.0863,0.344999 0.12422,0.496883 0.0201,0.08034 -0.0262,0.169875 0,0.248438 0.0281,0.08432 0.0984,0.145307 0.12422,0.248441 0.0101,0.04017 -0.023,0.08977 0,0.124219 0.0507,0.07609 0.15453,0.02881 0.18633,0.12422 0.0131,0.03928 -0.0131,0.08494 0,0.124222 0.0185,0.05555 0.10571,0.06867 0.12422,0.124219 0.0439,0.131789 0.0601,0.30662 0.12422,0.434771 0.10599,0.211974 0.66725,0.582062 0.86954,0.68321 0.11635,0.05817 0.31289,0.0328 0.43477,0.124219 0.28805,0.216032 0.51096,0.547674 0.80743,0.745321 0.0172,0.01148 0.0475,-0.01463 0.0621,0 0.0146,0.01463 -0.0146,0.04747 0,0.06211 0.14194,0.14193 0.46251,0.26693 0.62111,0.37266 0.41047,0.273648 0.61298,0.381833 1.05587,0.55899 0.44257,0.17703 0.0608,0.06138 0.49688,0.31055 0.10701,0.06115 0.3744,0.165917 0.49687,0.18633 0.0613,0.01021 0.12608,-0.01506 0.18633,0 0.0296,0.0074 0.15679,0.116832 0.18633,0.124219 0.2499,0.06248 0.49209,0.135684 0.74533,0.18633 0.35782,0.07157 1.31163,0.30811 1.67697,0.18633 0.0555,-0.01852 0.0755,-0.09174 0.12422,-0.124219 0.13958,-0.09305 0.2958,-0.155794 0.43477,-0.248441 0.0956,-0.0637 0.15288,-0.184737 0.24844,-0.248438 0.21806,-0.145376 0.54566,-0.23512 0.74532,-0.434772 0.0327,-0.03273 0.0364,-0.0857 0.0621,-0.124219 0.13712,-0.205679 0.35832,-0.351157 0.49688,-0.55899 0.06,-0.08998 0.33237,-0.208153 0.37266,-0.248441 0.0349,-0.03489 0.007,-0.459619 0,-0.49688 -0.0407,-0.203642 -0.25157,-0.35157 -0.37266,-0.496879 -0.14566,-0.174792 -0.21806,-0.466498 -0.37266,-0.621102 -0.0146,-0.01463 -0.0475,0.01463 -0.0621,0 -0.0345,-0.03446 -0.0352,-0.318902 -0.0621,-0.37266 -0.0262,-0.05238 -0.11002,-0.06741 -0.12422,-0.124219 -0.0151,-0.06026 0.0196,-0.127408 0,-0.186331 -0.0685,-0.205441 -0.25592,-0.402584 -0.31055,-0.621101 -0.0445,-0.177919 0,-0.433694 0,-0.621099 0,-0.02069 -0.0146,-0.04747 0,-0.06211 0.0528,-0.05278 0.11956,-0.09084 0.18633,-0.124219 0.11726,-0.05863 0.70399,0 0.86954,0 0.49537,0 0.95095,0.15779 1.36642,0.434769 0.14212,0.09475 0.23898,0.265715 0.37266,0.37266 0.0583,0.04663 0.13775,0.06755 0.18633,0.124222 0.0786,0.09166 0.1139,0.213974 0.18633,0.310549 0.0878,0.117115 0.22935,0.188743 0.31055,0.31055 0.0514,0.07704 0.0704,0.173098 0.12422,0.248441 0.13598,0.190367 0.33823,0.333729 0.43477,0.55899 0.0336,0.07846 0.0285,0.169979 0.0621,0.248439 0.0769,0.179522 0.2157,0.326144 0.31055,0.496882 0.17661,0.317891 0.35364,0.65954 0.49688,0.993759 0.0823,0.192066 0.0951,0.438711 0.18633,0.621101 0.0262,0.05237 0.098,0.07184 0.12422,0.12422 0.0733,0.146579 0.0509,0.288192 0.12422,0.434771 0.0689,0.13779 0.27679,0.353068 0.37266,0.496879 0.0928,0.139142 0.29801,0.161253 0.37266,0.31055 0.0458,0.09156 0.0449,0.501494 0.0621,0.55899 0.14326,0.477536 0.4376,0.969786 0.6211,1.428531 0.10293,0.257318 0.28933,0.813458 0.43477,1.05587 0.0603,0.100428 0.18348,0.150995 0.24844,0.248441 0.0875,0.131191 0.0989,0.30358 0.18633,0.434771 0.0487,0.07308 0.13761,0.113244 0.18633,0.18633 0.0363,0.05447 0.0258,0.131855 0.0621,0.18633 0.0487,0.07308 0.13146,0.11774 0.18633,0.186331 0.12736,0.159199 0.21027,0.383487 0.31055,0.55899 0.19117,0.334545 0.0444,0.0555 0.24844,0.310549 0.25413,0.317659 -0.007,0.05222 0.24844,0.434769 0.065,0.09745 0.17817,0.15475 0.24844,0.248441 0.11711,0.156147 0.14637,0.343779 0.24844,0.49688 0.08,0.120002 0.21855,0.156443 0.31055,0.248441 0.0193,0.01929 0.4199,0.653465 0.43477,0.68321 0.18077,0.361539 0.45568,0.662908 0.6211,0.993761 0.12925,0.258488 -0.004,-0.0664 0.12422,0.06211 0.0146,0.01463 -0.0146,0.04747 0,0.06211 0.0293,0.02928 0.0872,-0.01852 0.12422,0 0.0745,0.03727 0.1118,0.149063 0.18633,0.18633 0.15298,0.07649 -0.0561,-0.18029 0.18633,0.06211 0.0327,0.03273 0.0294,0.09148 0.0621,0.124219 0.0327,0.03273 0.0915,0.02937 0.12422,0.06211 0.0663,0.06633 0.11302,0.17512 0.18633,0.248438 0.0441,0.0441 0.1753,0.113186 0.18633,0.124222 0.036,0.036 0.0882,0.212439 0.12422,0.248439 0.0146,0.01463 0.0475,-0.01463 0.0621,0 0.0146,0.01463 -0.0146,0.04747 0,0.06211 0.0146,0.01463 0.0436,-0.0093 0.0621,0 0.0973,0.04863 0.11674,0.248441 0.24843,0.248441 0.0181,0 0.21698,0.09275 0.24844,0.124219 0.0146,0.01463 -0.0146,0.04747 0,0.06211 0.0293,0.02928 0.095,-0.02928 0.12422,0 0.0146,0.01463 -0.0146,0.04747 0,0.06211 0.0287,0.02871 0.14883,-0.01876 0.18633,0 0.0162,0.0081 0.0757,0.110665 0.12423,0.06211 0.0747,-0.07474 0.007,-0.138938 0.0621,-0.248441 0.0635,-0.127087 0.12203,-0.244054 0.18633,-0.37266 0.0278,-0.05555 -0.0196,-0.127408 0,-0.186331 0.009,-0.02778 0.049,-0.03592 0.0621,-0.06211 0.0687,-0.137443 0.0589,-0.304122 0.12421,-0.434771 0.0258,-0.05171 -0.0394,-0.209042 0,-0.248441 0.0146,-0.01463 0.0475,0.01463 0.0621,0 0.0394,-0.0394 -0.0258,-0.196726 0,-0.248439 0.15159,-0.303194 0.22281,-0.704926 0.31055,-1.05587 0.0151,-0.06026 -0.0439,-0.142412 0,-0.18633 0.0146,-0.01463 0.0475,0.01463 0.0621,0 0.0293,-0.02928 -0.0185,-0.08719 0,-0.124222 0.0448,-0.08967 0.0794,-0.158766 0.12422,-0.248438 0.0414,-0.08274 0.0414,-0.600469 0,-0.683213 -0.01,-0.02 -0.48202,-0.429815 -0.49688,-0.434768 -0.0393,-0.0131 -0.0849,0.0131 -0.12422,0 -0.0405,-0.01349 -0.64624,-0.584121 -0.68322,-0.621102 -0.18412,-0.184121 -0.50128,-0.629914 -0.62109,-0.86954 -0.0462,-0.09231 -0.1244,-0.43494 -0.18633,-0.496879 -0.0146,-0.01463 -0.0475,0.01463 -0.0621,0 -0.0293,-0.02928 0.0293,-0.09494 0,-0.124222 -0.0146,-0.01463 -0.0475,0.01463 -0.0621,0 -0.0235,-0.02352 -0.24147,-0.468998 -0.24844,-0.496879 -0.0538,-0.215131 0.0787,-0.0373 -0.0621,-0.248439 -0.14619,-0.219292 -0.41315,-0.494144 -0.49688,-0.745321 -0.0131,-0.03928 0.0131,-0.08494 0,-0.124221 -0.0249,-0.0746 -0.26483,-0.544897 -0.31055,-0.621099 -0.0904,-0.150641 -0.25833,-0.239279 -0.37266,-0.372661 -0.0417,-0.04869 -0.53429,-0.674981 -0.55899,-0.683209 -0.0393,-0.0131 -0.0849,0.0131 -0.12422,0 -0.10818,-0.03606 -0.1949,-0.230249 -0.24844,-0.310552 0.006,-0.123042 -0.0915,-0.02937 -0.12422,-0.06211 -0.0146,-0.01463 0.0146,-0.04747 0,-0.06211 -0.10518,-0.105187 -0.14325,-0.08114 -0.24844,-0.18633 -0.0293,-0.02928 0.0185,-0.08719 0,-0.124219 -0.0982,-0.196474 -0.19315,-0.399928 -0.24844,-0.621101 -0.0221,-0.08845 -0.26816,-0.640819 -0.31055,-0.68321 -0.0146,-0.01463 -0.0475,0.01463 -0.0621,0 -0.0746,-0.07465 -0.0205,-0.213519 -0.0621,-0.310552 -0.0738,-0.17208 -0.22867,-0.333129 -0.31055,-0.49688 -0.009,-0.01852 0,-0.04141 0,-0.06211 -0.0207,-0.04141 -0.0364,-0.0857 -0.0621,-0.124222 -0.10666,-0.159999 -0.28935,-0.263594 -0.43477,-0.37266 -0.13953,-0.104651 -0.21184,-0.241051 -0.31055,-0.372661 -0.0527,-0.07027 -0.15855,-0.102999 -0.18633,-0.18633 -0.0131,-0.03928 0.0131,-0.08494 0,-0.124219 -0.0214,-0.06423 -0.26429,-0.342246 -0.31055,-0.434771 -0.0185,-0.03703 0.0293,-0.09494 0,-0.124219 -0.0249,-0.02487 -0.0789,-0.03364 -0.12422,-0.12422 -0.0326,-0.06516 -0.0149,-0.263337 -0.0621,-0.310552 -0.0146,-0.01463 -0.0475,0.01463 -0.0621,0 -0.0492,-0.04924 0.0316,-0.247353 0,-0.310549 -0.22716,-0.454329 -0.0135,-0.923533 -0.12422,-1.36642 -0.0112,-0.04491 -0.0509,-0.07931 -0.0621,-0.124221 -0.0198,-0.07922 -0.0315,-0.992823 0,-1.05587 0.0648,-0.129641 0.15789,-0.201994 0.18633,-0.372661 0.0102,-0.06126 -0.0122,-0.125425 0,-0.18633 0.0181,-0.09079 0.10177,-0.158615 0.12422,-0.248438 0.0101,-0.04017 -0.0185,-0.08719 0,-0.124222 0.0101,-0.02016 0.55383,-0.276913 0.6211,-0.31055 0.0556,-0.02778 0.12422,0 0.18633,0 0.10426,0 0.34278,-0.046 0.43477,0 0.21777,0.108887 0.48612,0.245751 0.74532,0.31055 0.18591,0.04648 0.35353,0.02787 0.55899,0.06211 0.15874,0.02646 0.40824,0.07397 0.55899,0.124219 0.0278,0.0093 0.0343,0.05285 0.0621,0.06211 0.16931,0.05644 0.39039,0.06802 0.55899,0.124219 0.0556,0.01852 0.0687,0.105704 0.12422,0.124222 0.0393,0.0131 0.0849,-0.0131 0.12422,0 0.12144,0.04048 0.25634,0.190278 0.37266,0.248438 0.0531,0.02656 0.13322,0.03555 0.18633,0.06211 0.0944,0.04719 0.14968,0.153408 0.24844,0.186331 0.0393,0.0131 0.0849,-0.0131 0.12422,0 0.0828,0.0276 0.16891,0.08445 0.24844,0.124219 0.0412,0.02056 0.30006,0.05861 0.31055,0.06211 0.42914,0.143044 0.89729,0.231253 1.30432,0.434768 0.12668,0.06334 0.24933,0.18678 0.37266,0.248441 0.10004,0.05002 0.26696,0.07137 0.37266,0.12422 0.27303,0.136519 0.51953,0.257505 0.80743,0.37266 0.22612,0.09045 0.45707,0.173061 0.68321,0.248441 0.10141,0.03381 0.28067,0.01611 0.37266,0.06211 0.18941,0.0947 -0.1136,0.04924 0.18633,0.124219 0.21513,0.05378 0.0373,-0.07865 0.24844,0.06211 0.12223,0.08149 0.74874,0.690044 0.80743,0.807429 0.009,0.01852 -0.0146,0.04747 0,0.06211 0.0528,0.05278 0.12661,0.07943 0.18633,0.124219 0.18311,0.137332 0.30643,0.369912 0.49688,0.49688 0.0905,0.06034 0.12936,0.03878 0.18633,0.124222 0.12167,0.182504 0.2889,0.259723 0.43477,0.434768 0.24376,0.29251 0.47401,0.598229 0.74532,0.869543 0.0778,0.07779 0.10854,0.04643 0.18633,0.124219 0.0639,0.06394 0.0603,0.122391 0.12422,0.18633 0.11233,0.112326 0.32474,0.138406 0.43477,0.248439 0.091,0.09096 0.11719,0.16094 0.24844,0.248441 0.11547,0.07698 0.49306,0.182507 0.55899,0.248441 0.0146,0.01463 -0.0146,0.04747 0,0.06211 0.0323,0.03232 0.19592,0 0.24844,0 0.0621,0 0.13078,0.02778 0.18633,0 0.13733,-0.06866 0.0193,-0.03855 0.0621,-0.124219 0.0207,-0.04141 0.10352,-0.02069 0.12422,-0.06211 0.0561,-0.112149 0.0988,-0.598376 0.0621,-0.745318 -0.0185,-0.07385 -0.16064,-0.274587 -0.18633,-0.310552 -0.15722,-0.220107 -0.26684,-0.473297 -0.43477,-0.68321 -0.0366,-0.04573 -0.0941,-0.07401 -0.12422,-0.124219 -0.0337,-0.05614 -0.0228,-0.133956 -0.0621,-0.18633 -0.0278,-0.03704 -0.0915,-0.02938 -0.12422,-0.06211 -0.11282,-0.112818 -0.43336,-0.639919 -0.55899,-0.807432 -0.05,-0.06661 -0.2258,-0.268173 -0.31055,-0.310549 -0.0185,-0.0093 -0.0475,0.01463 -0.0621,0 -0.0146,-0.01463 0.009,-0.04359 0,-0.06211 -0.0373,-0.07453 -0.14907,-0.1118 -0.18633,-0.186331 -0.034,-0.06794 -0.0601,-0.184343 -0.12422,-0.248441 -0.0327,-0.03273 -0.0915,-0.02937 -0.12422,-0.06211 -0.13534,-0.135339 -0.51876,-0.668398 -0.55899,-0.869539 -0.0973,-0.486662 0.0308,-1.025854 -0.0621,-1.490642 -0.009,-0.04539 -0.0475,-0.0803 -0.0621,-0.124219 -0.0378,-0.113247 -0.0405,-1.225833 0,-1.42853 0.14376,-0.718826 0.37266,-1.202143 0.37266,-1.987521 0,-0.688756 0.23352,-1.356387 0.31055,-2.049632 0.0593,-0.533487 0.0703,-1.075658 0.12422,-1.614861 0.0671,-0.671314 0.0621,-0.06539 0.0621,-0.310549 0,-0.144925 0.016,-0.290735 0,-0.434771 -0.0373,-0.335439 -0.25496,-0.660191 -0.31055,-0.993762 -0.0251,-0.150857 0.0564,-1.62061 0,-1.676969 -0.0664,-0.06636 -0.74306,0.06324 -0.86954,0 -0.21568,-0.107836 -0.63992,-0.715211 -0.68321,-0.931651 -0.0122,-0.0609 0.0102,-0.125066 0,-0.18633 -0.0308,-0.185081 -0.11845,-0.253759 -0.18633,-0.434771 -0.0668,-0.178245 -0.0519,-0.290081 -0.12422,-0.434769 -0.0193,-0.03854 0,-0.220813 0,-0.248441 0,-0.117292 -0.0547,-0.387564 0,-0.496879 0.13173,-0.263475 0.68391,-1.199166 0.55899,-1.490642 -0.0269,-0.06267 -0.34545,-0.576439 -0.43477,-0.621101 -0.0185,-0.0093 -0.0475,0.01463 -0.0621,0 -0.0146,-0.01463 0.0146,-0.04747 0,-0.06211 -0.0146,-0.01463 -0.0414,0 -0.0621,0 -0.0207,-0.02069 -0.0459,-0.03775 -0.0621,-0.06211 -0.0842,-0.126342 -0.16422,-0.246319 -0.24844,-0.372661 -0.0947,-0.142033 -0.26262,-0.200506 -0.37266,-0.310549 -0.0528,-0.05278 -0.0794,-0.126614 -0.12422,-0.18633 -0.41908,-0.558766 -0.37598,-0.122561 -0.74532,0.06211 -0.16404,0.08202 -0.34427,0.110027 -0.49688,0.18633 -0.35104,0.175517 -0.78452,-0.339947 -0.99377,-0.496879 -0.17904,-0.134284 -0.44229,-0.159036 -0.62109,-0.248441 -0.14907,-0.07453 -0.2236,-0.298128 -0.37266,-0.372661 -0.037,-0.01852 -0.0949,0.02928 -0.12422,0 -0.0146,-0.01463 0.0146,-0.04747 0,-0.06211 -0.0382,-0.03816 -0.14474,-0.04103 -0.18633,-0.124222 -0.009,-0.01852 0.0146,-0.04747 0,-0.06211 -0.0382,-0.03825 -0.25782,-0.0047 -0.37266,-0.06211 -0.0414,-0.02069 -0.0828,-0.04141 -0.12423,-0.06211 0,-0.02072 0.0146,-0.04747 0,-0.06211 -0.0146,-0.01463 -0.0475,0.01463 -0.0621,0 -0.0146,-0.01463 0.0146,-0.04747 0,-0.06211 -0.0146,-0.01463 -0.0436,0.0093 -0.0621,0 -0.0524,-0.02619 -0.0718,-0.09803 -0.12421,-0.12422 -0.0497,-0.02484 -0.13665,0.02484 -0.18633,0 -0.10892,-0.05446 -0.1985,-0.192412 -0.31056,-0.248441 -0.0899,-0.04494 -0.21429,-0.03804 -0.31055,-0.06211 -0.16643,-0.04161 -0.32354,-0.151664 -0.49688,-0.18633 -0.0952,-0.01905 -0.21861,0.03064 -0.31055,0 -0.2136,-0.0712 -0.4342,-0.217101 -0.6211,-0.310552 -0.0555,-0.02778 -0.1274,0.01963 -0.18633,0 -0.0797,-0.02656 -0.16876,-0.09766 -0.24844,-0.124219 -0.20996,-0.06999 -0.40392,0.04648 -0.6211,-0.06211 -0.037,-0.01852 -0.0872,0.01852 -0.12422,0 -0.18109,-0.09055 -0.35497,-0.197435 -0.55899,-0.248439 -0.0402,-0.01005 -0.0849,0.0131 -0.12422,0 -0.0278,-0.0093 -0.0343,-0.05285 -0.0621,-0.06211 -0.14921,-0.04974 -0.34381,0.03827 -0.49688,0 -0.2353,-0.05882 -0.41721,-0.101946 -0.6211,0 -0.037,0.01852 -0.0949,-0.02928 -0.12422,0 -0.0439,0.04392 0,0.12422 0,0.18633 0,0.292349 0.35585,0.406633 0.55899,0.558991 0.073,0.05479 0.16101,0.204721 0.24844,0.248441 0.0586,0.02928 0.12777,0.03283 0.18633,0.06211 0.21714,0.108567 0.66471,0.407019 0.80743,0.621102 0.0257,0.03852 0.0294,0.09148 0.0621,0.124219 0.0146,0.01463 0.0475,-0.01463 0.0621,0 0.0134,0.01344 0.01,0.228835 0,0.248441 -0.0502,0.100476 -0.17037,0.147296 -0.24844,0.18633 -0.06,0.03001 -0.21842,0.188413 -0.24844,0.248439 -0.009,0.01852 0.0146,0.04747 0,0.06211 -0.0146,0.01463 -0.0436,-0.0093 -0.0621,0 -0.1185,0.05925 -0.1951,0.190714 -0.31055,0.248441 -0.037,0.01852 -0.0872,-0.01852 -0.12422,0 -0.14689,0.07344 -0.21972,0.07324 -0.37266,0.124219 -0.0278,0.0093 -0.0343,0.05285 -0.0621,0.06211 -0.0596,0.01987 -0.18883,-0.02981 -0.24844,0 -0.0262,0.0131 -0.0343,0.05285 -0.0621,0.06211 -0.0786,0.02619 -0.16988,-0.02619 -0.24844,0 -0.0278,0.0093 -0.0343,0.05285 -0.0621,0.06211 -0.0786,0.02619 -0.16987,-0.02619 -0.24844,0 -0.0278,0.0093 -0.0359,0.04902 -0.0621,0.06211 -0.141,0.0705 -0.295,0.01553 -0.43477,0.06211 -0.0439,0.01463 -0.0788,0.05303 -0.12422,0.06211 -0.28414,0.05683 -0.64036,0 -0.93165,0 -0.12422,0 -0.26155,-0.05555 -0.37266,0 -0.0287,0.01434 0.018,0.102974 -0.18633,0.06211 -0.21907,-0.04381 -0.41002,-0.115969 -0.6211,-0.18633 -0.12257,-0.04086 -0.32004,0.05736 -0.43477,0 -0.2826,-0.141298 -0.58292,-0.29146 -0.86954,-0.434771 -0.20873,-0.104365 -0.54559,-0.430303 -0.74532,-0.49688 -0.0393,-0.0131 -0.0849,0.0131 -0.12422,0 -0.0856,-0.02854 -0.14175,-0.102883 -0.24844,-0.124222 -0.26615,-0.05323 -0.59571,0 -0.86954,0 -0.15005,0 -0.40654,-0.03049 -0.55899,0 -0.36341,0.07268 -0.76397,0.254659 -1.11798,0.372661 -0.12812,0.04271 -0.24186,0.153627 -0.37266,0.18633 -0.0402,0.01005 -0.0849,-0.0131 -0.12422,0 -0.0278,0.0093 -0.0343,0.05285 -0.0621,0.06211 -0.35272,0.117573 -0.73273,0.08687 -1.05587,0.248441 -0.0556,0.02778 -0.12741,-0.01963 -0.18633,0 -0.0278,0.0093 -0.0359,0.04901 -0.0621,0.06211 -0.0637,0.03185 -0.18475,0.03027 -0.24844,0.06211 -0.0724,0.03617 -0.11398,0.08805 -0.18634,0.124219 -0.0858,0.04291 -0.21923,0.03167 -0.31054,0.06211 -0.0556,0.01852 -0.0718,0.09803 -0.12422,0.12422 -0.0663,0.03313 -0.18219,-0.03313 -0.24844,0 -0.16772,0.08386 -0.35692,0.06211 -0.559,0.06211 -0.12659,0 -0.80241,0.005 -0.80742,0 -0.0146,-0.01463 0.0146,-0.04747 0,-0.06211 -0.0251,-0.02506 -0.30512,-0.02833 -0.37266,-0.06211 -0.0906,-0.04529 -0.0994,-0.09936 -0.12423,-0.124222 -0.0385,-0.0385 -0.21862,-0.09441 -0.24843,-0.124219 -0.0146,-0.01463 0.0146,-0.04747 0,-0.06211 -0.0146,-0.01463 -0.0475,0.01463 -0.0621,0 -0.0301,-0.03013 -0.0565,-0.271076 -0.0621,-0.310549 -0.15397,-1.077846 0.0203,0.225642 -0.12422,-0.49688 -0.0149,-0.07445 0.0355,-0.239588 0,-0.310552 -0.0131,-0.02619 -0.0529,-0.03433 -0.0621,-0.06211 -0.0709,-0.212677 0,-0.989081 0,-1.2422 0,-0.122156 0.0174,-0.638487 0.0621,-0.683213 0.0146,-0.01463 0.0475,0.01463 0.0621,0 0.0361,-0.03609 0.036,-0.196241 0.0621,-0.248438 0.0262,-0.05238 0.10571,-0.06867 0.12423,-0.124222 0.0131,-0.03928 -0.0131,-0.08494 0,-0.124219 0.0316,-0.09489 0.1724,-0.358735 0.24843,-0.434769 0.0146,-0.01463 0.0475,0.01463 0.0621,0 0.0542,-0.05422 0.0429,-0.171587 0.0621,-0.248441 0.0552,-0.220736 0.21057,-0.354473 0.18633,-0.37266 -0.0764,-0.05729 -1.01565,-0.255736 -1.1801,-0.31055 -0.17092,-0.05698 -0.35262,-0.202361 -0.49688,-0.310552 -0.10905,-0.08179 -0.25912,-0.11064 -0.37266,-0.18633 -0.22875,-0.152503 -0.5005,-0.312359 -0.74532,-0.434768 -0.16309,-0.08155 -0.34207,-0.108927 -0.49688,-0.186331 -0.0783,-0.03915 -0.22724,-0.02045 -0.31055,-0.06211 -0.0792,-0.03958 -0.16634,-0.158961 -0.24844,-0.18633 -0.0393,-0.0131 -0.0872,0.01852 -0.12422,0 -0.006,-0.0028 -0.0688,-0.158604 -0.12422,-0.18633 -0.0425,-0.02125 -0.14987,-0.0513 -0.18633,-0.124219 -0.0547,-0.109358 -0.01,-0.267991 -0.0621,-0.37266 -0.15381,-0.307618 -0.0621,-0.888069 -0.0621,-1.242201 0,-0.108347 0.10921,-0.402682 0.0621,-0.496882 -0.0511,-0.102158 -0.19736,-0.08417 -0.24844,-0.18633 -0.0902,-0.180356 -0.18031,-0.430758 -0.37266,-0.558988 -0.28709,-0.191397 -0.66293,-0.124222 -0.99376,-0.124222 -0.0949,0 -0.41042,0.04323 -0.49688,0 -0.0185,-0.0093 0.0185,-0.05285 0,-0.06211 -0.0277,-0.01386 -0.26697,-0.01453 -0.31055,0 -0.29582,0.0986 -0.83942,0.374531 -0.99376,0.68321 -0.009,0.01852 0.0146,0.04747 0,0.06211 -0.12851,0.128508 0.005,-0.196376 -0.12422,0.06211 -0.009,0.01852 0.0146,0.04747 0,0.06211 -0.0293,0.02928 -0.0949,-0.02928 -0.12422,0 -0.0146,0.01463 0.0124,0.04555 0,0.06211 -0.0878,0.117118 -0.1994,0.215278 -0.31055,0.310552 -0.47916,0.410708 -0.96852,0.832009 -1.49064,1.180089 -0.12304,-0.0062 -0.0294,0.09148 -0.0621,0.124222 -0.0286,0.02855 -0.1996,0.0998 -0.24844,0.12422 -0.037,0.01852 -0.0949,-0.02928 -0.12422,0 -0.0146,0.01463 0.0146,0.04747 0,0.06211 -0.003,0.003 -0.32891,0.164451 -0.37266,0.18633 -0.12461,0.0623 -0.51787,-0.08225 -0.6211,0.124219 -0.044,0.08798 -0.0321,0.220586 -0.0621,0.310549 -0.0126,0.0379 -0.11159,0.148426 -0.12422,0.18633 -0.0131,0.03928 0.0293,0.09494 0,0.12422 -0.0146,0.01463 -0.0475,-0.01463 -0.0621,0 -0.0312,0.03122 -0.10126,1.124746 -0.0621,1.242203 0.0185,0.05555 0.1057,0.06867 0.12422,0.124219 0.0131,0.03928 -0.0101,0.08405 0,0.124219 0.042,0.16805 0.20825,0.273995 0.24844,0.434771 0.0265,0.105844 0,0.263142 0,0.372661 0,0.299156 -0.21253,0.629343 -0.37266,0.869539 -0.0613,0.09188 -0.19928,0.150109 -0.24844,0.248442 -0.0462,0.09236 -0.0526,0.301082 -0.12422,0.37266 -0.0146,0.01463 -0.0529,-0.01852 -0.0621,0 -0.0278,0.05555 0.0439,0.142409 0,0.18633 -0.0146,0.01463 -0.0475,-0.01463 -0.0621,0 -0.0183,0.01834 -0.003,0.301577 0,0.310549 0.009,0.02778 0.0414,0.04141 0.0621,0.06211 0.0207,0.04141 0.0509,0.07931 0.0621,0.12422 0.0476,0.190582 0.11363,0.336311 0.31055,0.434768 0.0376,0.01881 0.1603,0.03608 0.18633,0.06211 0.12851,0.128508 -0.19638,-0.005 0.0621,0.124219 0.10995,0.05498 0.0212,-0.09238 0.12422,0.06211 0.0703,0.105389 0.2178,0.312219 0.24844,0.434772 0.0459,0.183655 -0.0699,0.07249 0.0621,0.248438 0.0351,0.04685 0.098,0.07185 0.12422,0.124222 0.0185,0.03703 -0.0101,0.08405 0,0.124219 0.0479,0.191426 0.18622,0.372335 0.24844,0.558991 0.0707,0.212098 -0.0114,0.46255 0.0621,0.683209 0.0357,0.10718 -0.0499,0.272852 0,0.372661 0.0754,0.150865 0.0268,0.239982 0.0621,0.310549 0.0594,0.118798 0.21733,0.372433 0.24844,0.496882 0.0519,0.20778 0.0861,0.420722 0.18633,0.621099 0.14213,0.284255 -0.0257,-0.263559 0.12422,0.18633 0.0616,0.184891 -0.14707,-0.127436 0.0621,0.18633 0.0456,0.06845 0.38895,0.536081 0.43477,0.558991 0.0185,0.0093 0.0475,-0.01463 0.0621,0 0.0293,0.02928 -0.0293,0.09494 0,0.124219 0.031,0.03106 0.0932,0.03106 0.12422,0.06211 0.0382,0.03816 0.041,0.144738 0.12422,0.18633 0.088,0.04399 0.22059,0.03212 0.31055,0.06211 0.0885,0.02951 0.0894,0.08944 0.12422,0.124219 0.0293,0.02928 0.0872,-0.01852 0.12422,0 0.31268,0.15634 0.28701,0.07713 0.43477,0.372661 0.16506,0.330112 0.41602,0.310549 0.80743,0.310549 0.10352,0 0.20904,0.02029 0.31055,0 0.0908,-0.01815 0.15862,-0.101764 0.24844,-0.124219 0.0402,-0.01005 0.0849,0.0131 0.12422,0 0.0278,-0.0093 0.0359,-0.04902 0.0621,-0.06211 0.0185,-0.0093 0.0475,0.01463 0.0621,0 0.0146,-0.01463 -0.0185,-0.05285 0,-0.06211 0.0657,-0.03283 0.17888,-0.02733 0.24844,-0.06211 0.18744,-0.09372 0.40899,-0.631651 0.49688,-0.807432 0.086,-0.171939 -0.0633,-0.375028 -0.12422,-0.496879 -0.0248,-0.04969 0.0248,-0.136642 0,-0.186331 -0.0727,-0.145383 -0.0743,-0.223022 -0.12422,-0.37266 -0.0607,-0.182097 -0.24936,-0.249359 -0.37266,-0.37266 -0.038,-0.03805 -0.0529,-0.162547 -0.12422,-0.18633 -0.0899,-0.02997 -0.16675,-0.02127 -0.24844,-0.06211 -0.10631,-0.05315 -0.0914,-0.138864 -0.18633,-0.18633 -0.077,-0.03851 -0.34196,-0.527584 -0.24844,-0.621101 0.0146,-0.01463 0.0475,0.01463 0.0621,0 0.0146,-0.01463 -0.0146,-0.04747 0,-0.06211 0.0146,-0.01463 0.0436,0.0093 0.0621,0 0.31255,-0.156274 0.64955,-0.05538 0.99376,-0.124219 0.2695,-0.0539 0.53542,-0.131927 0.80743,-0.186331 0.15747,-0.03149 0.34116,0.03893 0.49688,0 0.20612,-0.05153 0.41498,-0.07269 0.6211,-0.124219 0.0638,-0.01595 0.37067,-0.03205 0.43477,0 0.0524,0.02619 0.0719,0.09803 0.12422,0.124219 0.0185,0.0093 0.0475,-0.01463 0.0621,0 0.0146,0.01463 -0.0146,0.04747 0,0.06211 0.0146,0.01463 0.0475,-0.01463 0.0621,0 0.0146,0.01463 -0.0146,0.04747 0,0.06211 0.0146,0.01463 0.0475,-0.01463 0.0621,0 0.0146,0.01463 -0.0146,0.04747 0,0.06211 0.0146,0.01463 0.0475,-0.01463 0.0621,0 0.0146,0.01463 -0.0146,0.04747 0,0.06211 0.0207,0.02069 0.16563,0.04141 0.18633,0.06211 0.0207,0.02069 0.0414,0.165629 0.0621,0.18633 0.0293,0.02928 0.0949,-0.02928 0.12422,0 0.0146,0.01463 -0.009,0.04359 0,0.06211 0.0416,0.08319 0.14818,0.08606 0.18633,0.124219 0.0146,0.01463 -0.009,0.04359 0,0.06211 0.12925,0.258487 -0.004,-0.0664 0.12422,0.06211 0.0146,0.01463 -0.009,0.04359 0,0.06211 0.0373,0.07453 0.14907,0.1118 0.18633,0.18633 0.0185,0.03704 -0.0185,0.08719 0,0.124222 0.0749,0.149805 0.0701,0.33445 0.12422,0.49688 0.009,0.02778 0.0529,0.03433 0.0621,0.06211 0.0196,0.05892 -0.0278,0.130775 0,0.18633 0.11346,0.22692 0.2463,0.48831 0.31055,0.745318 0.0101,0.04017 -0.0131,0.08494 0,0.124222 0.0185,0.05555 0.098,0.07184 0.12422,0.124219 0.042,0.08408 0.15146,0.223351 0.18634,0.310549 0.0154,0.03845 -0.0131,0.08494 0,0.124222 0.0294,0.08809 0.15079,0.08868 0.18632,0.12422 0.0206,0.02061 0.10589,0.211767 0.12422,0.248441 0.0886,0.177265 0.39037,0.412567 0.55899,0.496879 0.0816,0.04078 0.0914,0.18274 0.12422,0.248441 0.0497,0.09937 0.19876,0.149064 0.24845,0.248439 0.0212,0.04251 0.0513,0.14987 0.12421,0.18633 0.0185,0.0093 0.0475,-0.01463 0.0621,0 0.0463,0.04629 0.0258,0.131858 0.0621,0.18633 0.11944,0.179149 0.3297,0.289068 0.49689,0.37266 0.0185,0.0093 0.0475,-0.01463 0.0621,0 0.0523,0.05229 0.25786,0.515705 0.31056,0.621102 0.009,0.01852 -0.0146,0.04747 0,0.06211 0.0311,0.03106 0.15527,-0.03105 0.18633,0 0.0146,0.01463 -0.0146,0.04747 0,0.06211 0.0153,0.01532 0.35733,0.01532 0.37265,0 0.0146,-0.01463 -0.0146,-0.04747 0,-0.06211 0.0144,-0.01439 0.22781,-0.11734 0.24845,-0.124219 0.0414,-0.01381 0.16074,-0.03653 0.18633,-0.06211 0.036,-0.036 0.0882,-0.212439 0.12421,-0.248438 0.0146,-0.01463 0.0436,0.0093 0.0621,0 0.16689,-0.08345 0.27183,-0.291193 0.43477,-0.372661 0.0596,-0.02978 0.17958,0 0.24844,0 0.23006,0 0.5901,0.07244 0.80743,0 0.11722,-0.03907 0.5136,-0.231714 0.6211,-0.124222 0.0732,0.0732 -0.017,0.208444 0,0.310552 0.0377,0.226047 0.27091,0.558991 0.55899,0.558991 0.25341,0 0.52274,0.02416 0.74532,-0.124222 0.0172,-0.01148 -0.0172,-0.05062 0,-0.06211 0.0545,-0.03632 0.13395,-0.02283 0.18633,-0.06211 0.0377,-0.07543 0.0531,-0.138906 0.12422,-0.18633 0.10054,-0.06703 0.2163,-0.07709 0.31055,-0.12422 0.0734,-0.03669 0.11781,-0.140652 0.18633,-0.18633 0.11397,-0.07598 0.25719,-0.08573 0.37266,-0.124222 0.10849,-0.03616 0.15741,-0.155987 0.24844,-0.186327 0.0589,-0.01963 0.13078,0.02778 0.18633,0 0.34486,-0.172432 0.83159,-0.025 1.18009,0.06211 0.008,0.0021 0.22988,-0.01855 0.24844,0 0.0146,0.01463 -0.0146,0.04747 0,0.06211 0.0407,0.04066 0.14353,0.03863 0.18633,0.124219 0.0333,0.0666 0.10051,0.177321 0.12422,0.248441 0.0199,0.05964 -0.0298,0.188828 0,0.248439 0.0131,0.02619 0.0529,0.03433 0.0621,0.06211 0.0739,0.221866 0,0.565123 0,0.807431 0,0.227166 0.071,0.594445 0,0.807429 -0.009,0.02778 -0.049,0.03592 -0.0621,0.06211 -0.0246,0.04916 -0.10004,0.424336 -0.12422,0.49688 -0.0374,0.112143 -0.14433,0.246668 -0.18633,0.37266 -0.0228,0.06848 -0.0297,0.278172 -0.0621,0.31055 -0.0146,0.01463 -0.0475,-0.01463 -0.0621,0 -0.0496,0.04957 0.0326,0.245387 0,0.310552 -0.0816,0.163234 -0.21454,0.336856 -0.31055,0.496879 -0.14958,0.249293 0.04,-0.01053 -0.12422,0.37266 -0.0294,0.06861 -0.0908,0.119563 -0.12422,0.186331 -0.0977,0.195344 -0.24039,0.410604 -0.31055,0.621098 -0.0175,0.05238 0.0245,0.137282 0,0.186331 -0.0842,0.168365 -0.10059,0.387516 -0.18633,0.55899 -0.0497,0.09938 0.0497,0.273286 0,0.37266 -0.15703,0.314056 -0.16662,0.797574 -0.55899,0.993762 -0.0456,0.02281 -0.13887,0.108397 -0.18633,0.124219 -0.0393,0.0131 -0.0849,-0.0131 -0.12422,0 -0.0124,0.0041 -0.33152,0.227867 -0.37266,0.248441 -0.0788,0.03941 -0.83977,0.02297 -0.93165,0 -0.2082,-0.05205 -0.36172,-0.306903 -0.55899,-0.37266 -0.0393,-0.0131 -0.0849,0.0131 -0.12422,0 -0.15118,-0.05039 -0.23723,-0.242834 -0.37266,-0.310549 -0.0185,-0.0093 -0.0475,0.01463 -0.0621,0 -0.0146,-0.01463 0.0146,-0.04747 0,-0.06211 -0.005,-0.0047 -0.46483,-0.116208 -0.49688,-0.124219 -0.0651,-0.01627 -0.92376,-0.03501 -0.99376,0 -0.21366,0.106825 -0.46311,0.553542 -0.559,0.745318 -0.12924,0.258487 0.004,-0.0664 -0.12421,0.06211 -0.0146,0.01463 0.0146,0.04747 0,0.06211 -0.0293,0.02928 -0.0949,-0.02928 -0.12422,0 -0.12851,0.128509 0.19637,-0.005 -0.0621,0.12422 -0.13424,0.06712 -1.30845,0.122843 -1.49065,0.06211 -0.0278,-0.0093 -0.0343,-0.05285 -0.0621,-0.06211 -0.0393,-0.0131 -0.084,0.01005 -0.12423,0 -0.1335,-0.03337 -0.26188,-0.13094 -0.37266,-0.18633 -0.11593,-0.05797 -0.31883,0.05797 -0.43477,0 -0.0524,-0.02619 -0.0718,-0.09803 -0.12422,-0.12422 -0.0635,-0.03175 -0.32886,-0.142533 -0.37266,-0.18633 -0.0146,-0.01463 0.0146,-0.04747 0,-0.06211 -0.0293,-0.02928 -0.0949,0.02928 -0.12422,0 -0.0146,-0.01463 0.0146,-0.04747 0,-0.06211 -0.0856,-0.08561 -1.01766,0.08121 -1.18009,0 -0.1,-0.04998 -0.20988,-0.214884 -0.31055,-0.248441 -0.0426,-0.01418 -0.34648,-0.03593 -0.37266,-0.06211 -0.0146,-0.01463 0.0146,-0.04747 0,-0.06211 -0.0146,-0.01463 -0.0414,0 -0.0621,0 -0.0207,-0.04141 -0.0294,-0.09149 -0.0621,-0.124222 -0.038,-0.03805 -0.16255,-0.05288 -0.18633,-0.12422 -0.0131,-0.03928 0.0131,-0.08494 0,-0.124219 -0.0185,-0.05562 -0.25905,-0.160583 -0.31055,-0.18633 -0.0516,-0.0258 -0.18956,0 -0.24844,0 -0.1705,0 -0.39597,-0.04076 -0.55899,0 -0.11856,0.02964 -0.21308,0.07549 -0.31055,0.124219 -0.0992,0.04962 -1.01806,0.09541 -1.11798,0.06211 -0.26472,-0.08824 -0.30009,-0.331472 -0.18633,-0.55899 0.0416,-0.08319 0.14817,-0.08606 0.18633,-0.124222 0.0293,-0.02928 0.0185,-0.08718 0,-0.124219 -0.0865,-0.173075 -0.9771,-0.145733 -1.18009,-0.186331 -0.0642,-0.01283 -0.12175,-0.05135 -0.18633,-0.06211 -0.3206,-0.05343 -1.23561,-0.0436 -1.55275,0.06211 -0.26124,0.08708 -1.09062,0.973802 -1.18009,1.242201 -0.0196,0.05892 0.0196,0.127407 0,0.18633 -0.0951,0.2853 -0.12422,0.501171 -0.12422,0.807431 0,0.280014 0.57538,0.666817 0.43477,0.807429 -0.13923,0.139237 -0.78624,0.255506 -0.99376,0.186331 -0.0557,-0.01857 -0.22581,-0.118441 -0.24844,-0.186331 -0.0131,-0.03928 0.0131,-0.08494 0,-0.124219 -0.0247,-0.07407 -0.15142,-0.178615 -0.18633,-0.248441 -0.0693,-0.138549 -0.55,-0.430273 -0.68321,-0.496879 -0.0926,-0.0463 -0.20905,0.02029 -0.31055,0 -0.1284,-0.02567 -0.24427,-0.09854 -0.37266,-0.12422 -0.16368,-0.03273 -0.33165,-0.03851 -0.49688,-0.06211 -0.44736,-0.06391 -0.89924,0.07831 -1.30431,-0.124219 -0.0185,-0.0093 -0.0475,0.01463 -0.0621,0 -0.0221,-0.02212 -0.0599,-0.184145 -0.0621,-0.18633 -0.0146,-0.01463 -0.0475,0.01463 -0.0621,0 -0.0146,-0.01463 0.009,-0.04359 0,-0.06211 -0.0474,-0.09475 -0.14002,-0.155808 -0.18633,-0.248438 -0.0301,-0.06013 0.003,-0.117915 -0.0621,-0.248442 -0.13112,-0.262231 0.17567,-0.62643 -0.18633,-0.807431 -0.037,-0.01852 -0.0849,0.0131 -0.12422,0 -0.13203,-0.04401 -0.22772,-0.10006 -0.37266,-0.124219 -0.23407,-0.03901 -0.45547,-0.0052 -0.68321,-0.06211 -0.52896,-0.132239 -0.78506,-0.491287 -1.30432,-0.621099 -0.11704,-0.02926 -0.25413,0.02371 -0.37266,0 -0.37786,-0.07557 -0.74103,-0.235162 -1.11798,-0.310549 -0.2023,-0.04046 -0.42843,-0.02789 -0.6211,-0.124222 -0.15127,-0.07564 -0.28801,-0.237173 -0.43477,-0.31055 -0.0185,-0.0093 -0.0475,0.01463 -0.0621,0 -0.0146,-0.01463 0.0146,-0.04747 0,-0.06211 -0.0146,-0.01463 -0.0475,0.01463 -0.0621,0 -0.0369,-0.03691 -0.0365,-0.07305 -0.0621,-0.124219 -0.0687,-0.137329 -0.0385,-0.01929 -0.12422,-0.06211 -0.25848,-0.129243 0.0664,0.0043 -0.0621,-0.124219 -0.0146,-0.01463 -0.0475,0.01463 -0.0621,0 -0.0146,-0.01463 0.009,-0.04359 0,-0.06211 -0.0262,-0.05237 -0.098,-0.07184 -0.12422,-0.124219 -0.0371,-0.07422 -0.0396,-0.479856 0,-0.558991 0.0362,-0.07235 0.0881,-0.11398 0.12422,-0.18633 0.0278,-0.05555 -0.0196,-0.127407 0,-0.18633 0.009,-0.02778 0.049,-0.03592 0.0621,-0.06211 0.16603,-0.33206 0.47659,-0.826479 0.37266,-1.2422 -0.0615,-0.24619 -0.41046,-0.895186 -0.55899,-1.117981 0.006,-0.123042 -0.0915,-0.02937 -0.12422,-0.06211 -0.11447,-0.11448 0.11738,-0.667073 -0.18633,-0.86954 -0.28613,-0.19076 -0.61597,-0.391655 -0.93165,-0.496883 -0.12437,-0.04146 -0.20102,-0.14982 -0.31055,-0.18633 -0.0393,-0.0131 -0.0849,0.0131 -0.12422,0 -0.0278,-0.0093 -0.0343,-0.05285 -0.0621,-0.06211 -0.0956,-0.03188 -1.89592,-0.03053 -1.98752,0 -0.0439,0.01463 -0.0793,0.05088 -0.12422,0.06211 -0.33125,0.08281 -0.72462,-0.08281 -1.05587,0 -0.19551,0.04888 -0.37305,0.06224 -0.55899,0.124222 -0.12309,0.04103 -0.31948,-0.05765 -0.43477,0 -0.1771,0.08855 -0.34513,0.162896 -0.55899,0.248439 z"
       id="path19" /></g></svg>
