<?xml version="1.0" encoding="UTF-8" standalone="no"?>
<!-- Created with Inkscape (http://www.inkscape.org/) -->

<svg
   width="54.497799"
   height="43.124763"
   viewBox="0 0 14.419209 11.410093"
   version="1.1"
   id="svg1"
   xml:space="preserve"
   xmlns="http://www.w3.org/2000/svg"
   xmlns:svg="http://www.w3.org/2000/svg"><defs
     id="defs1" /><g
     id="layer1"
     transform="translate(-164.97574,-125.41547)"><path
       style="fill:#000000;fill-opacity:0.498525;stroke-width:0.264583"
       d="m 165.40837,136.54717 c 0.18433,0.0113 0.36993,-0.0132 0.5542,0 0.10023,0.007 0.19828,0.0343 0.29842,0.0426 0.37013,0.0309 0.75285,-0.0462 1.1084,0.0426 0.13603,0.034 0.32558,0 0.46894,0 0.53735,0 1.09566,-0.0448 1.61998,0.0426 0.22122,0.0369 0.46088,-0.0369 0.6821,0 0.12836,0.0214 0.26332,0.0878 0.38368,0.12789 0.25538,0.0851 1.03946,-0.0907 1.27893,-0.17052 0.0991,-0.033 0.20656,-0.0393 0.29842,-0.0853 0.0909,-0.0455 0.2501,0.0455 0.34104,0 0.0497,-0.0248 0.0782,-0.0604 0.1279,-0.0853 0.0588,-0.0294 0.0381,0.0516 0.0853,-0.0426 0.0127,-0.0254 -0.0127,-0.0598 0,-0.0853 0.13627,-0.27255 0.007,-1.31486 0.0853,-1.70524 0.0233,-0.11652 0.0629,-0.22912 0.0853,-0.34105 0.014,-0.0697 -0.0172,-0.14423 0,-0.21315 0.0253,-0.1012 0.06,-0.19724 0.0853,-0.29842 0.007,-0.0276 -0.0127,-0.0598 0,-0.0853 0.006,-0.0127 0.0326,0.0101 0.0426,0 0.0422,-0.0422 -0.0148,-0.28185 0,-0.34104 0.0323,-0.12919 0.0723,-0.27257 0.12789,-0.38368 0.0153,-0.0306 -0.0202,-0.10093 0,-0.12789 0.0227,-0.0303 0.448,-0.41236 0.46894,-0.42631 0.10793,-0.072 0.23435,-0.0994 0.34105,-0.17053 0.0591,-0.0394 0.12028,-0.0777 0.17052,-0.12789 0.0225,-0.0225 0.0202,-0.0628 0.0426,-0.0853 0.10281,-0.1028 0.29251,-0.20428 0.38368,-0.34104 0.008,-0.0118 -0.01,-0.0326 0,-0.0426 0.0101,-0.0101 0.0363,0.0127 0.0426,0 0.0127,-0.0254 -0.009,-0.0583 0,-0.0853 0.0176,-0.0528 0.27804,-0.35218 0.34105,-0.38368 0.0127,-0.006 0.0326,0.0101 0.0426,0 0.0256,-0.0256 0.0349,-0.0943 0.0853,-0.1279 0.0389,-0.026 0.10345,-0.0364 0.12789,-0.0853 0.006,-0.0127 -0.0101,-0.0326 0,-0.0426 0.0101,-0.0101 0.0326,0.0101 0.0426,0 0.0262,-0.0262 0.0282,-0.0993 0.0853,-0.1279 0.0439,-0.022 0.18331,-0.0554 0.21316,-0.0853 0.10065,-0.10065 -0.23779,0.0224 0.0853,-0.0853 0.0432,-0.0144 0.18272,0.0304 0.21315,0 0.0213,-0.0213 0.0213,-0.0639 0.0426,-0.0853 0.031,-0.031 0.3097,-0.009 0.34104,0 0.10429,0.0298 0.41674,0.23068 0.51158,0.29842 0.0491,0.035 0.0777,0.0944 0.12789,0.12789 0.16138,0.10758 0.35991,0.0947 0.51157,0.17053 0.15834,0.0792 0.57463,0.5764 0.59684,0.5542 0.03,-0.03 0,-0.30458 0,-0.34105 0,-0.30711 -0.0566,-0.56758 -0.1279,-0.85262 -0.0196,-0.0785 0.0255,-0.17918 0,-0.25579 -0.006,-0.0191 -0.0336,-0.0247 -0.0426,-0.0426 -0.0129,-0.0257 0.0197,-0.10818 0,-0.12789 -0.0101,-0.0101 -0.0326,0.0101 -0.0426,0 -0.0373,-0.0373 -0.0268,-0.16558 -0.0426,-0.21316 -0.0227,-0.068 -0.26658,-0.28762 -0.17052,-0.38367 0.0112,-0.0112 0.47987,-0.23466 0.51157,-0.25579 0.13732,-0.0916 0.30993,-0.22467 0.42631,-0.34105 0.0225,-0.0225 0.0202,-0.0628 0.0426,-0.0853 0.0592,-0.0592 0.18939,-0.0947 0.25579,-0.12789 0.10782,-0.0539 0.41647,-0.53453 0.46894,-0.63947 0.0278,-0.0556 0.24664,-0.43546 0.21315,-0.46894 -0.0218,-0.0218 -0.3285,-0.001 -0.34105,0 -0.70394,0.0782 0.0532,-0.003 -0.29841,0.0853 -0.12284,0.0307 -0.30166,0 -0.42631,0 -0.29842,0 -0.59684,0 -0.89526,0 -0.12789,0 -0.25578,0 -0.38367,0 -0.0142,0 -0.0381,0.0135 -0.0426,0 -0.017,-0.0509 0.0268,-0.20222 0,-0.25579 -0.018,-0.0359 -0.0673,-0.0493 -0.0853,-0.0853 -0.0127,-0.0254 0.007,-0.0577 0,-0.0853 -0.0252,-0.1009 -0.0949,-0.19932 -0.12789,-0.29842 -0.0135,-0.0404 0.0135,-0.0874 0,-0.12789 -0.006,-0.0191 -0.0284,-0.0284 -0.0426,-0.0426 -0.0142,-0.0284 -0.0349,-0.0544 -0.0426,-0.0853 -0.007,-0.0276 0.0158,-0.0616 0,-0.0853 -0.0427,-0.064 -0.20047,-0.11521 -0.25579,-0.17053 -0.0321,-0.0321 -0.10469,-0.18995 -0.12789,-0.21315 -0.0101,-0.0101 -0.0326,0.01 -0.0426,0 -0.0197,-0.0197 0.0128,-0.10216 0,-0.1279 -0.0368,-0.0735 -0.0486,-0.1398 -0.0853,-0.21315 -0.0128,-0.0258 0.0197,-0.10819 0,-0.1279 -0.01,-0.01 -0.0326,0.0101 -0.0426,0 -0.003,-0.003 -0.11777,-0.19292 -0.12789,-0.21315 -0.0127,-0.0254 0.0201,-0.0652 0,-0.0853 -0.0101,-0.0101 -0.0284,0 -0.0426,0 -0.19979,0 -0.19408,0.32495 -0.25579,0.46894 -0.0202,0.0471 -0.0651,0.0808 -0.0853,0.12789 -0.0279,0.065 -0.0438,0.22929 -0.0853,0.29842 -0.0728,0.12134 -0.0949,0.0386 -0.12789,0.17052 -0.007,0.0276 0.0127,0.0598 0,0.0853 -0.006,0.0127 -0.0326,-0.0101 -0.0426,0 -0.16638,0.16637 0.01,0.0229 -0.0426,0.12789 -0.065,0.13 -0.0338,-0.078 -0.0853,0.12789 -0.0124,0.0496 0.0165,0.12113 0,0.17053 -0.0407,0.12222 -0.0853,0.20632 -0.0853,0.34104 0,0.0826 0.007,0.3104 -0.0853,0.34105 -0.15842,0.0528 -0.66064,0 -0.85262,0 -0.068,0 -0.53536,0.0307 -0.59684,0 -0.018,-0.009 -0.0246,-0.0336 -0.0426,-0.0426 -0.03,-0.015 -0.68549,-0.0131 -0.72473,0 -0.0848,0.0283 -0.0199,0.0398 -0.0426,0.0853 -0.0325,0.065 -0.0961,0.10695 -0.12789,0.17053 -0.0191,0.0381 0.0103,0.0865 0,0.12789 -0.0738,0.29526 -0.10584,0.62844 -0.38368,0.76736 -0.0748,0.0374 -0.5424,0 -0.63946,0 -0.44052,0 -0.88104,0 -1.32157,0 -0.132,0 -0.29646,-0.026 -0.42631,0 -0.27589,0.0552 -0.5366,0.15848 -0.80999,0.21315 -0.0836,0.0167 -0.17168,-0.014 -0.25578,0 -0.19685,0.0328 -0.41032,0.0657 -0.59684,0.1279 -0.17905,0.0597 -0.41778,-0.0597 -0.59683,0 -0.0191,0.006 -0.0236,0.0363 -0.0426,0.0426 -0.0821,0.0274 -0.92701,0.0192 -1.02315,0 -0.14138,-0.0283 -0.0995,-0.0398 -0.21315,-0.0853 -0.18192,-0.0728 -0.33791,-0.0837 -0.51157,-0.17053 -0.0853,-0.0426 -0.47517,0 -0.59684,0 -0.0364,0 -0.27162,-0.0268 -0.29841,0 -0.0147,0.0147 0,0.68458 0,0.76736 0,0.28863 0.0426,0.56625 0.0426,0.85262 0,0.40117 -0.0498,0.8378 0,1.2363 0.0321,0.257 0.0992,0.50903 0.12789,0.76736 0.0355,0.31918 0.0349,0.88338 -0.0426,1.19367 -0.0462,0.18488 0,0.44591 0,0.63946 0,0.58263 0,1.16525 0,1.74788 0,0.0538 -0.006,0.54849 0,0.5542 0.0371,0.0371 0.12789,1.6e-4 0.12789,-0.0426"
       id="path14" /></g></svg>
