<?xml version="1.0" encoding="UTF-8" standalone="no"?>
<!-- Created with Inkscape (http://www.inkscape.org/) -->

<svg
   width="113.22517"
   height="79.132927"
   viewBox="0 0 29.957494 20.937253"
   version="1.1"
   id="svg1"
   xml:space="preserve"
   xmlns="http://www.w3.org/2000/svg"
   xmlns:svg="http://www.w3.org/2000/svg"><defs
     id="defs1" /><g
     id="layer1"
     transform="translate(-257.81357,-93.755221)"><path
       style="fill:#000000;fill-opacity:0.498525;stroke-width:0.264583"
       d="m 281.64634,114.68274 c -0.11171,0 -0.22559,0.0219 -0.33513,0 -0.28482,-0.057 -0.53136,-0.23587 -0.80433,-0.33513 -0.16319,-0.0593 -0.43143,-0.16672 -0.60322,-0.20108 -0.0657,-0.0131 -0.13608,0.0162 -0.20109,0 -0.0307,-0.008 -0.0371,-0.057 -0.067,-0.067 -0.12454,-0.0415 -0.33623,0 -0.46919,0 -0.62013,0 -1.41647,0.0849 -2.0108,0 -0.40122,-0.0573 -0.91022,-0.22052 -1.2735,-0.40216 -0.072,-0.036 -0.12467,-0.10858 -0.20108,-0.13405 -0.0636,-0.0212 -0.13536,0.0131 -0.20108,0 -0.11997,-0.024 -0.17471,-0.0874 -0.26811,-0.13405 -0.19505,-0.0975 -0.59242,0.0424 -0.80433,0 -0.21296,-0.0426 -0.46514,-0.0571 -0.67027,-0.13406 -0.0935,-0.0351 -0.17203,-0.1066 -0.2681,-0.13405 -0.2386,-0.0682 -0.19172,0.005 -0.46919,-0.13405 -0.18364,-0.0918 -0.45772,0.0392 -0.67026,-0.067 -0.0565,-0.0283 -0.0799,-0.10154 -0.13404,-0.13406 -0.0606,-0.0363 -0.1379,-0.0354 -0.20109,-0.067 -0.37742,-0.18872 -0.74086,-0.60608 -1.07243,-0.87135 -0.24429,-0.19542 -0.65183,-0.29828 -0.80431,-0.60324 -0.0405,-0.0809 -0.0694,-0.18184 -0.13406,-0.26811 -0.0681,-0.0908 -0.96658,-1.04912 -1.00539,-1.07242 -0.12597,-0.0756 -0.37677,-0.0879 -0.46919,-0.13406 -0.0445,-0.0222 -0.37285,-0.41056 -0.40217,-0.46919 -0.0101,-0.02 0.0159,-0.0512 0,-0.067 -0.0159,-0.0158 -0.0479,0.0115 -0.067,0 -0.24201,-0.14521 -0.49075,-0.40994 -0.67024,-0.60324 -0.29046,-0.3128 -0.58582,-0.6211 -0.87136,-0.93838 -0.0747,-0.083 -0.1221,-0.18911 -0.20108,-0.2681 -0.1887,-0.1887 -0.2789,-0.18291 -0.46918,-0.33514 -0.14717,-0.11771 -0.25736,-0.28149 -0.40217,-0.40216 -0.0858,-0.0715 -0.1954,-0.11626 -0.2681,-0.20108 -0.12997,-0.15163 -0.39704,-0.65486 -0.46919,-0.87134 -0.0664,-0.19924 0.13023,-0.65639 -0.067,-0.80433 -0.0565,-0.0424 -0.14228,-0.0278 -0.20107,-0.067 -0.0789,-0.0526 -0.12826,-0.1404 -0.20108,-0.20108 -0.0619,-0.0516 -0.14412,-0.0771 -0.20108,-0.13406 -0.0353,-0.0353 -0.0317,-0.0987 -0.067,-0.13405 -0.0353,-0.0353 -0.0987,-0.0317 -0.13405,-0.067 -0.0707,-0.0707 -0.0741,-0.18817 -0.13405,-0.2681 -0.0758,-0.10112 -0.20309,-0.15974 -0.26811,-0.26811 -0.0364,-0.0606 -0.0307,-0.1405 -0.067,-0.20108 -0.0325,-0.0542 -0.0961,-0.0835 -0.13405,-0.13405 -0.06,-0.0799 -0.0716,-0.19009 -0.13406,-0.26811 -0.0789,-0.0987 -0.198,-0.16295 -0.2681,-0.26811 -0.12166,-0.18249 -0.20366,-0.36092 -0.33514,-0.53621 -0.1513,-0.20174 -0.1888,-0.47516 -0.33513,-0.67027 -0.0379,-0.0506 -0.099,-0.0815 -0.13405,-0.13405 -0.0268,-0.0402 0.0335,-0.16757 0,-0.20108 -0.0353,-0.0353 -0.0987,-0.0317 -0.13406,-0.067 -0.25274,-0.25274 -0.40152,-0.58895 -0.60324,-0.87135 -0.0551,-0.0771 -0.1485,-0.12221 -0.20108,-0.20108 -0.0831,-0.1247 -0.13405,-0.268105 -0.20108,-0.402158 -0.0576,-0.115271 -0.0878,-0.28406 -0.13405,-0.469189 -0.0809,-0.323667 -0.0318,0.0033 -0.13405,-0.201078 -0.17627,-0.352536 -0.3149,-0.740447 -0.53622,-1.07243 -0.16421,-0.246317 -0.43808,-0.422529 -0.60324,-0.670266 -0.12723,-0.190847 -0.17402,-0.509154 -0.33513,-0.670267 -0.0158,-0.01579 -0.0447,0 -0.067,0 -0.11171,-0.08937 -0.23397,-0.166949 -0.33513,-0.268107 -0.16171,-0.161703 -0.32988,-0.417499 -0.46919,-0.603242 -0.12449,-0.165989 -0.14217,-0.359487 -0.20108,-0.536213 -0.0317,-0.09512 -0.34739,-0.590986 -0.20108,-0.737293 0.12541,-0.125407 0.56612,0.08198 0.67026,0.134054 0.35525,0.177623 0.70004,0.242033 1.07243,0.335132 0.0769,0.01923 0.41291,-0.05628 0.46919,0 0.0158,0.01579 -0.02,0.05704 0,0.06703 0.14651,0.07326 0.45386,-0.0077 0.60324,0.06703 0.12498,0.06249 0.27128,0.157454 0.40216,0.201081 0.28034,0.09345 1.04229,-0.04157 1.27351,-0.134054 0.24198,-0.09679 0.43894,-0.286496 0.67027,-0.402161 0.41866,-0.20933 0.82344,-0.201078 1.2735,-0.201078 0.067,0 0.15369,0.04739 0.20109,0 0.0158,-0.0158 -0.02,-0.05704 0,-0.06703 0.04,-0.01998 0.0917,0.01413 0.13404,0 0.06,-0.01998 0.0776,-0.105794 0.13406,-0.134054 0.04,-0.01998 0.0941,0.01998 0.13406,0 0.17108,-0.08554 0.16876,-0.01156 0.33513,-0.06703 0.03,-0.01 0.0388,-0.0529 0.067,-0.06703 0.11732,-0.05865 0.37592,0.04371 0.46919,0.06703 0.11435,0.02858 0.30472,-0.01625 0.40217,0 0.29564,0.04927 0.5738,0.275625 0.87135,0.335135 0.0842,0.01685 0.78383,0.05678 0.80433,0.06702 0.0565,0.02826 0.0775,0.105794 0.13404,0.134054 0.0201,0.01 0.0512,-0.0158 0.067,0 0.0159,0.0158 -0.0159,0.05123 0,0.06703 0.0159,0.01579 0.0513,-0.0158 0.067,0 0.0159,0.01579 -0.0159,0.05123 0,0.06703 0.0222,0.02236 0.17873,0.04469 0.20109,0.06703 0.0159,0.01579 -0.0159,0.05123 0,0.06703 0.0222,0.02223 0.22852,0.114266 0.2681,0.134054 0.0714,0.03571 0.0626,0.09834 0.13404,0.134054 0.31612,0.158054 0.6296,0.330367 0.9384,0.536213 0.1225,0.08168 0.28445,0.112813 0.40214,0.20108 0.16557,0.124172 0.30392,0.278212 0.46918,0.402162 0.0799,0.05995 0.19746,0.0634 0.26813,0.134053 0.0353,0.03533 0.0317,0.09873 0.067,0.134054 0.13708,0.137086 0.37367,0.22678 0.5362,0.335132 0.10235,0.06822 0.0988,0.199893 0.20109,0.268108 0.091,0.06064 0.18587,0.09293 0.2681,0.134053 0.1674,0.08369 0.30922,0.295513 0.46919,0.402162 0.0433,0.02884 0.23907,0.105023 0.2681,0.134051 0.0159,0.0158 -0.0159,0.05123 0,0.06703 0.0589,0.0589 0.38192,0.157451 0.46921,0.20108 0.1288,0.0644 0.20632,0.203708 0.33512,0.268108 0.11179,0.05589 0.2667,-7.94e-4 0.40217,0.06703 0.072,0.03603 0.12901,0.09803 0.20108,0.134054 0.12637,0.06319 0.27578,0.07086 0.40214,0.134054 0.0565,0.02826 0.0741,0.114069 0.13407,0.134053 0.0636,0.02119 0.14112,-0.02998 0.20108,0 0.53763,0.268812 1.11482,0.356333 1.60864,0.60324 0.04,0.01998 0.0941,-0.01998 0.13406,0 0.11526,0.05763 0.21987,0.07643 0.33512,0.134054 0.0562,0.02807 0.63186,0.03841 0.67027,0 0.0159,-0.0158 -0.01,-0.04704 0,-0.06703 0.0669,-0.133771 0.40244,-0.469329 0.53621,-0.536216 0.0823,-0.04112 0.17716,-0.07341 0.2681,-0.134051 0.25683,-0.171214 0.42344,-0.485129 0.67027,-0.670269 0.3134,-0.23505 0.65291,-0.592825 1.00542,-0.80432 0.0606,-0.03635 0.13972,-0.03198 0.20108,-0.06703 0.28681,-0.163893 0.5978,-0.353861 0.87135,-0.536215 0.13258,-0.08839 0.31779,-0.150614 0.46919,-0.201078 0.0424,-0.01413 0.0941,0.01998 0.13404,0 0.0565,-0.02826 0.0775,-0.105793 0.13406,-0.134054 0.038,-0.019 0.32044,-0.186393 0.33512,-0.20108 0.0159,-0.0158 -0.0159,-0.05123 0,-0.06703 0.1387,-0.138682 -0.006,0.211923 0.13407,-0.06703 0.01,-0.01998 -0.0159,-0.05123 0,-0.06703 0.13866,-0.138681 -0.005,0.211923 0.13403,-0.06703 0.0356,-0.07118 0.007,-0.208357 0.067,-0.268107 0.0159,-0.0158 0.0512,0.01579 0.067,0 0.0316,-0.0316 -0.0316,-0.102455 0,-0.134054 0.0159,-0.0158 0.0512,0.01579 0.067,0 0.007,-0.0068 0.18311,-0.308166 0.20108,-0.335132 0.0516,-0.07734 0.14952,-0.123743 0.20108,-0.201081 0.21278,-0.319148 0.39339,-0.661485 0.67027,-0.938374 0.16907,-0.169066 0.70308,-0.276312 0.93837,-0.335134 0.065,-0.01625 0.14113,0.02998 0.20109,0 0.0781,-0.03904 0.123,-0.09501 0.20108,-0.134054 0.0707,-0.03534 0.90749,-0.115983 1.00539,-0.06703 0.0778,0.0389 0.22299,0.110816 0.2681,0.201081 0.0101,0.01998 -0.0159,0.05123 0,0.06703 0.0159,0.01579 0.0513,-0.0158 0.067,0 0.0316,0.0316 -0.0316,0.102457 0,0.134054 0.0159,0.01579 0.0512,-0.0158 0.067,0 0.0316,0.0316 -0.0316,0.102457 0,0.134053 0.0159,0.0158 0.0512,-0.0158 0.067,0 0.0159,0.0158 -0.0159,0.05123 0,0.06703 0.0257,0.02564 0.31162,0 0.33514,0 0.12989,0 0.16481,0.01537 0.26811,0.06703 0.0851,0.04255 0.24606,-0.02969 0.33512,0 0.03,0.01 0.0388,0.0529 0.067,0.06703 0.04,0.01998 0.10245,-0.0316 0.13404,0 0.0159,0.0158 -0.0101,0.04704 0,0.06703 0.0333,0.0665 0.11091,0.131651 0.13406,0.201078 0.0648,0.194596 -0.008,0.49312 -0.067,0.670269 -0.014,0.04239 0.0316,0.102457 0,0.134054 -0.006,0.0055 -0.39669,0.262628 -0.40217,0.268105 -0.0159,0.01579 0.01,0.04704 0,0.06703 -0.0324,0.06478 -0.20333,0.235719 -0.2681,0.268107 -0.0201,0.01 -0.0512,-0.0158 -0.067,0 -0.004,0.0036 -0.13041,0.197448 -0.13404,0.201081 -0.0499,0.04996 -0.15113,0.01707 -0.20108,0.06703 -0.15825,0.158255 0.37386,-0.03525 -0.13406,0.134053 -0.30205,0.100682 -1.55991,-0.01013 -1.67566,0.06703 -0.17854,0.119023 -0.35505,0.244547 -0.53621,0.335132 -0.19201,0.096 -0.25445,0.441833 -0.33515,0.603242 -0.0282,0.05652 -0.11406,0.0741 -0.13403,0.134054 -0.014,0.04239 0.014,0.09166 0,0.134054 -0.0101,0.02997 -0.0447,0.04468 -0.067,0.06703 -0.0222,0.04468 -0.0549,0.08558 -0.067,0.134051 -0.0109,0.04335 0.014,0.09166 0,0.134054 -0.0198,0.05995 -0.10578,0.07753 -0.13406,0.134053 -0.0101,0.01998 0,0.04469 0,0.06703 0,0.04469 0.0201,0.09409 0,0.134054 -0.0222,0.04469 -0.11171,0.02233 -0.13404,0.06703 -0.0645,0.129061 -0.15534,0.356423 -0.2681,0.469188 -0.0353,0.03533 -0.0987,0.0317 -0.13407,0.06703 -0.12295,0.122949 -0.11731,0.192711 -0.2681,0.268107 -0.11705,0.05852 -0.01,0.159613 -0.13406,0.201081 -0.0424,0.01413 -0.0917,-0.01413 -0.13404,0 -0.023,0.0076 -0.25281,0.185764 -0.2681,0.201081 -0.0353,0.03532 -0.0254,0.106341 -0.067,0.134053 -0.0372,0.02479 -0.0917,-0.01413 -0.13404,0 -0.1089,0.0363 -0.13247,0.167165 -0.26813,0.201075 -0.20812,0.052 -0.39737,0.13246 -0.60322,0.20108 -0.0603,0.0201 -0.14076,-0.0201 -0.20108,0 -0.03,0.01 -0.037,0.057 -0.067,0.067 -0.0848,0.0283 -0.18143,-0.0217 -0.26813,0 -0.12578,0.0315 -0.23122,0.0821 -0.33512,0.13405 -0.0608,0.0304 -0.27564,0 -0.33512,0 -0.12751,0 -0.83775,0.0334 -0.87135,0.067 -0.0268,0.0268 -0.0363,0.0852 -0.13407,0.13405 -0.0399,0.02 -0.10245,-0.0316 -0.13404,0 -0.0159,0.0158 0.0159,0.0512 0,0.067 -0.0222,0.0223 -0.17875,0.0447 -0.20108,0.067 -0.0159,0.0158 0.01,0.047 0,0.067 -0.0506,0.10126 -0.2326,0.16157 -0.26813,0.26811 -0.014,0.0424 0.014,0.0917 0,0.13405 -0.01,0.03 -0.0593,0.0364 -0.067,0.067 -0.0547,0.2189 0.033,0.26921 -0.067,0.46919 -0.0183,0.0365 -0.0135,0.77726 0,0.80432 0.0695,0.1389 0.16706,0.29912 0.20109,0.46919 0.10072,0.50364 0.42801,1.06221 0.73728,1.47458 0.15264,0.20354 0.28798,0.30783 0.40217,0.53622 0.13946,0.27895 -0.005,-0.0717 0.13404,0.067 0.0316,0.0316 -0.0316,0.10246 0,0.13406 0.10337,0.10337 0.86241,0.13852 1.00542,0.067 0.0283,-0.0141 0.0388,-0.0529 0.067,-0.067 0.0536,-0.0268 0.14746,0.0268 0.20109,0 0.28337,-0.14169 0.58367,-0.66049 0.87135,-0.80432 0.0201,-0.01 0.0512,0.0158 0.067,0 0.0159,-0.0158 -0.0159,-0.0512 0,-0.067 0.0159,-0.0158 0.0512,0.0158 0.067,0 0.0159,-0.0158 -0.0159,-0.0512 0,-0.067 0.0222,-0.0222 0.22854,-0.11426 0.26813,-0.13405 0.11356,-0.0568 0.68212,-0.694 0.73728,-0.80432 0.0328,-0.0656 0.0987,-0.1303 0.13404,-0.20108 0.0663,-0.13256 0.0678,-0.33663 0.13407,-0.46919 0.0283,-0.0565 0.099,-0.0815 0.13406,-0.13405 0.0554,-0.0831 0.0634,-0.19746 0.13404,-0.26811 0.0353,-0.0353 0.0987,-0.0317 0.13406,-0.067 0.0196,-0.0197 0.32605,-0.37495 0.33512,-0.40217 0.014,-0.0424 -0.014,-0.0917 0,-0.13405 0.0745,-0.22335 0.46303,-0.38364 0.53624,-0.60324 0.014,-0.0424 -0.0109,-0.0907 0,-0.13405 0.003,-0.0122 0.38843,-0.78149 0.40214,-0.80433 0.0325,-0.0542 0.0961,-0.0835 0.13406,-0.13405 0.11486,-0.153151 0.0555,-0.323635 0.20108,-0.469182 0.0183,-0.01812 0.23072,-0.182386 0.26811,-0.201081 0.04,-0.01998 0.0917,0.01413 0.13403,0 0.12163,-0.04054 0.39733,-0.136475 0.53623,-0.06703 0.0804,0.04022 0.12065,0.160864 0.20109,0.201081 0.0201,0.01 0.0512,-0.0158 0.067,0 0.0159,0.0158 -0.0159,0.05123 0,0.06703 0.0159,0.01579 0.0512,-0.0158 0.067,0 0.0159,0.01579 -0.0101,0.04704 0,0.06703 0.13948,0.278952 -0.005,-0.07166 0.13406,0.06703 0.0335,0.03351 -0.0335,0.167565 0,0.201082 0.0159,0.0158 0.0512,-0.0158 0.067,0 0.0785,0.0784 0.067,0.28185 0.067,0.40216 0,0.23883 0.0586,0.56991 0,0.80432 -0.0446,0.17825 -0.1265,0.38709 -0.20106,0.53621 -0.0201,0.04 0.0201,0.0941 0,0.13406 -0.014,0.0283 -0.057,0.037 -0.067,0.067 -0.014,0.0424 0.014,0.0917 0,0.13406 -0.0222,0.0664 -0.1583,0.33798 -0.20109,0.40216 -0.035,0.0526 -0.11406,0.0741 -0.13404,0.13405 -0.014,0.0424 0.014,0.0917 0,0.13405 -0.0265,0.0794 -0.1634,0.12572 -0.20108,0.20108 -0.046,0.092 -0.1524,0.17075 -0.20108,0.26811 -0.0841,0.16827 -0.1782,0.35637 -0.2681,0.53621 -0.014,0.0283 -0.0594,0.0364 -0.067,0.067 -0.0696,0.27842 0.0265,0.59106 -0.067,0.87135 -0.0101,0.03 -0.057,0.037 -0.067,0.067 -0.014,0.0424 0.014,0.0917 0,0.13405 -0.0201,0.06 -0.11406,0.0741 -0.13406,0.13405 -0.014,0.0424 0.0201,0.0941 0,0.13406 -0.0101,0.02 -0.057,-0.02 -0.067,0 -0.0193,0.0384 -0.12798,0.53015 -0.13404,0.53621 -0.0159,0.0158 -0.0512,-0.0158 -0.067,0 -0.0316,0.0316 0.0316,0.10246 0,0.13405 -0.0268,0.0268 -0.0852,0.0363 -0.13404,0.13406 -0.10951,0.21898 0.061,2.04721 0,2.41296 -0.0317,0.18974 -0.15447,0.34967 -0.20109,0.53622 -0.0335,0.13405 0.067,0 0,0.20107 -0.01,0.03 -0.0529,0.0388 -0.067,0.067 -0.0241,0.0484 -0.05,0.45212 -0.067,0.46919 -0.0159,0.0158 -0.0512,-0.0158 -0.067,0 -0.031,0.031 0.0204,0.16061 0,0.20108 -0.0694,0.13878 -0.1325,0.26501 -0.20108,0.40216 -0.0199,0.04 0.014,0.0917 0,0.13405 -0.0733,0.22006 -0.24786,0.38504 -0.33512,0.60324 -0.0772,0.19307 -0.10819,0.41744 -0.20109,0.60324 -0.036,0.0721 -0.10414,0.12629 -0.13406,0.20108 -0.0167,0.0415 0.0201,0.0941 0,0.13406 -0.13354,0.26708 -0.13412,2.6e-4 -0.20108,0.2681 -0.0611,0.2444 -0.16137,0.52384 -0.26811,0.7373 -0.065,0.1299 -0.20285,0.20464 -0.2681,0.33513 -0.0198,0.04 0.0109,0.0907 0,0.13406 -0.0233,0.0927 -0.20278,0.33683 -0.2681,0.40216 -0.35468,0.35467 -0.80433,0.25617 -0.80433,0.87134 z"
       id="path30" /></g></svg>
