<?xml version="1.0" encoding="UTF-8" standalone="no"?>
<!-- Created with Inkscape (http://www.inkscape.org/) -->

<svg
   width="62.505108"
   height="46.690361"
   viewBox="0 0 16.53781 12.353491"
   version="1.1"
   id="svg1"
   xml:space="preserve"
   xmlns="http://www.w3.org/2000/svg"
   xmlns:svg="http://www.w3.org/2000/svg"><defs
     id="defs1" /><g
     id="layer1"
     transform="translate(-129.57359,-70.1571)"><path
       style="fill:#000000;fill-opacity:0.498525;stroke-width:0.264583"
       d="m 146.11116,78.608287 c -0.17348,-0.0024 -0.3469,-0.01082 -0.51024,0.03001 -0.0565,0.01413 -0.12359,-0.01413 -0.18009,0 -0.0137,0.0034 -0.0163,0.02658 -0.03,0.03001 -0.059,0.01476 -0.12042,0.01807 -0.18009,0.03001 -0.10063,0.02013 -0.22657,0 -0.33016,0 -0.0733,0 -0.23603,0.03206 -0.30015,0 -0.0127,-0.0063 -0.0166,-0.02553 -0.03,-0.03001 -0.0539,-0.01797 -0.1248,0.01384 -0.18009,0 -0.08,-0.02 -0.17301,-0.05649 -0.24012,-0.09004 -0.0506,-0.02529 -0.20164,0.03847 -0.24012,0 -0.0142,-0.01416 0.006,-0.04105 0,-0.06003 -0.0205,-0.06147 -0.0444,-0.117565 -0.06,-0.180089 -0.0141,-0.0565 0.0141,-0.123589 0,-0.180089 -0.005,-0.0217 -0.0246,-0.03832 -0.03,-0.06003 -0.0138,-0.05529 0.018,-0.126154 0,-0.180086 -0.0228,-0.06832 -0.0738,-0.12913 -0.09,-0.210103 -0.0199,-0.09948 -0.0243,-0.212521 -0.0901,-0.300146 -0.0812,-0.108241 -0.0837,-0.170582 -0.15007,-0.270132 -0.0402,-0.06037 -0.098,-0.113924 -0.12006,-0.180088 -0.0179,-0.05373 -0.0162,-0.09478 -0.03,-0.150072 -0.015,-0.05997 -0.0654,-0.100756 -0.09,-0.150074 -0.016,-0.03204 0.016,-0.02799 0,-0.06003 -0.0625,-0.124915 0.002,0.03209 -0.06,-0.03001 -0.007,-0.0071 0.007,-0.02294 0,-0.03002 -0.19831,-0.198313 -0.48981,-0.351052 -0.66032,-0.570277 -0.0358,-0.04605 -0.0542,-0.104027 -0.09,-0.150075 -0.0347,-0.04468 -0.0832,-0.07709 -0.12006,-0.120057 -0.0786,-0.09168 -0.1346,-0.205772 -0.2101,-0.300146 -0.11378,-0.142224 -0.23807,-0.28453 -0.36018,-0.420206 -0.16068,-0.178541 -0.34956,-0.331708 -0.51025,-0.510249 -0.12553,-0.13948 -0.25567,-0.293468 -0.36017,-0.450217 -0.0731,-0.109689 -0.14616,-0.236202 -0.24012,-0.330163 -0.0842,-0.08424 -0.18975,-0.146341 -0.27013,-0.240115 -0.19894,-0.232098 -0.40156,-0.458486 -0.60029,-0.690338 -0.23501,-0.274174 -0.54018,-0.480136 -0.78039,-0.750366 -0.0909,-0.102301 -0.17396,-0.23399 -0.27013,-0.33016 -0.19605,-0.196057 0.0958,0.179824 -0.12005,-0.09004 -0.14785,-0.184809 -0.31291,-0.378685 -0.51025,-0.510249 -0.0236,-0.01569 -0.0347,-0.04737 -0.06,-0.06003 -0.041,-0.02048 -0.0725,-0.01812 -0.12006,-0.03001 -0.0449,-0.01125 -0.1178,-0.07391 -0.15007,-0.09005 -0.0323,-0.01617 -0.22066,-0.07058 -0.24012,-0.09004 -0.007,-0.0071 0.007,-0.02294 0,-0.03001 -0.0283,-0.0283 -0.08,0 -0.12006,0 -0.3166,0 -0.64517,0.02426 -0.96047,0 -0.10109,-0.0078 -0.26412,-0.05162 -0.36017,-0.09004 -0.0132,-0.0053 -0.0163,-0.02659 -0.03,-0.03002 -0.0291,-0.0073 -0.0609,0.0073 -0.09,0 -0.0426,-0.01066 -0.10142,-0.07383 -0.15007,-0.09004 -0.0624,-0.0208 -0.14532,0.01296 -0.21011,0 -0.0716,-0.01431 -0.13925,-0.04232 -0.2101,-0.06003 -0.12163,-0.03041 -0.74774,-0.01363 -0.87042,0 -0.0974,0.01082 -0.1969,0.05066 -0.30015,0.03001 -0.21042,-0.04208 -0.39983,-0.173296 -0.60029,-0.240117 -0.11515,-0.03838 -0.24624,-0.04447 -0.36018,-0.09004 -0.0131,-0.0053 -0.0163,-0.02658 -0.03,-0.03001 -0.12347,-0.03087 -0.56033,-0.01299 -0.69034,0 -0.0821,0.0082 -0.15825,0.04979 -0.24012,0.06003 -0.21851,0.02731 -0.44037,0.03253 -0.66032,0.06003 -0.18675,0.02334 -0.0525,-0.01751 -0.2101,0 -0.13356,0.01484 -0.23372,0.06897 -0.36017,0.09004 -0.0672,0.01122 -0.68477,0.05446 -0.69034,0.06003 -0.007,0.0071 0.009,0.02553 0,0.03002 -0.0179,0.0089 -0.041,-0.0063 -0.06,0 -0.0134,0.0045 -0.0174,0.02368 -0.03,0.03001 -0.0546,0.02732 -0.14615,0.03445 -0.21011,0.06003 -0.05,0.02 -0.099,0.04299 -0.15007,0.06003 -0.019,0.0063 -0.0459,-0.01416 -0.06,0 -0.0477,0.04766 -0.0767,0.280062 -0.09,0.360178 -0.0168,0.100732 -0.04,0.199967 -0.06,0.300146 -0.0414,0.206743 0.0273,0.433895 0.06,0.630306 0.0115,0.06908 -0.01,0.140772 0,0.210103 0.004,0.03132 0.0248,0.05884 0.03,0.09004 0.0178,0.106638 -0.0108,0.222528 0,0.33016 0.006,0.06056 0.024,0.119534 0.03,0.180089 0.0176,0.176051 0,0.363061 0,0.540263 0,0.197176 0.0372,0.504203 0,0.690335 -0.0428,0.213805 -0.0227,-0.05099 -0.06,0.210103 -0.004,0.02971 0.007,0.06093 0,0.09004 -0.009,0.035 -0.0513,0.05505 -0.06,0.09005 -0.0181,0.07252 -0.0145,0.141814 -0.06,0.210103 -0.0229,0.03427 -0.06,0.03564 -0.06,0.09004 0,0.0011 0.0421,-0.05692 0.06,-0.03002 0.0175,0.02633 0.0261,0.05865 0.03,0.09004 0.006,0.04964 -0.008,0.10073 0,0.150075 0.0359,0.215606 0.10615,0.407672 0.12006,0.630306 0.0186,0.297521 0,0.602049 0,0.900438 0,0.130299 0.0405,0.328628 0,0.45022 -0.0182,0.05465 -0.0418,0.09542 -0.06,0.150072 -0.015,0.04502 0.015,0.105053 0,0.150074 -0.004,0.01342 -0.0266,0.0163 -0.03,0.03002 -0.0205,0.08205 0.0267,0.189925 0,0.270131 -0.0229,0.06885 -0.0133,0.08318 -0.03,0.150072 -0.049,0.195956 -0.0161,-0.113401 -0.06,0.150074 -0.0162,0.09752 -0.0341,0.594233 0.03,0.690335 0.0357,0.05354 0.85258,0.03002 0.96047,0.03002 0.31361,0 -0.0459,0.01265 0.2101,-0.03002 0.16818,-0.02803 0.3463,0.0118 0.51025,0.03002 0.0497,0.0055 0.10055,-0.0071 0.15007,0 0.0221,0.0032 0.0381,0.02564 0.06,0.03001 0.073,0.0146 0.16503,0 0.24012,0 0.25568,0 0.52638,-0.0254 0.78038,0 0.1902,0.01902 0.3801,0.04101 0.57027,0.06003 0.10153,0.01016 0.19835,0.05324 0.30015,0.06003 0.26611,0.01773 0.54294,0 0.81039,0 0.14575,0 0.30598,0.01804 0.45023,0 0.26209,-0.03276 0.52733,-0.116827 0.78038,-0.180089 0.0562,-0.01405 0.12563,-0.01185 0.18008,-0.03001 0.0134,-0.0045 0.02,-0.02 0.03,-0.03002 0.02,-0.01 0.0383,-0.02458 0.06,-0.03001 0.0194,-0.0048 0.0406,0.0048 0.06,0 0.0744,-0.0186 0.1314,-0.0743 0.2101,-0.09004 0.12806,-0.02561 0.26105,-0.03851 0.39019,-0.06003 0.14884,-0.02482 0.32908,0 0.48023,0 0.14755,0 0.58146,-0.03472 0.72035,0 0.0137,0.0034 0.0166,0.02553 0.03,0.03001 0.0474,0.01582 0.10073,-0.0082 0.15007,0 0.174,0.029 0.59401,0.2354 0.72035,0.33016 0.13276,0.09957 0.0401,0.08008 0.18009,0.150072 0.0566,0.0283 0.12349,0.03173 0.18009,0.06003 0.13026,0.06513 0.24745,0.109292 0.39019,0.150072 0.10891,0.03112 0.22542,0.04516 0.33016,0.09004 0.0741,0.03178 0.13457,0.09174 0.2101,0.12006 0.0864,0.03239 0.18144,0.03469 0.27013,0.06003 0.14448,0.04128 0.27872,0.114703 0.42021,0.150075 0.0543,-0.0181 0.0558,0.04862 0.09,0.06003 0.019,0.0063 0.0411,-0.0063 0.06,0 0.0583,0.01942 0.11416,0.07356 0.18009,0.09004 0.11438,0.0286 0.21982,0.05327 0.33016,0.09005 0.0626,0.02088 0.0874,0.06917 0.15007,0.09004 0.01,0.0032 0.0229,-0.0071 0.03,0 0.007,0.0071 -0.009,0.02553 0,0.03001 0.0341,0.01707 0.1495,0.02945 0.18008,0.06003 0.0168,0.0168 -0.007,0.130522 0,0.150074 0.004,0.01341 0.0266,0.0163 0.03,0.03002 0.011,0.04402 0.0153,0.644533 0,0.690335 -0.0267,0.07993 -0.0475,0.152151 -0.06,0.240117 -0.008,0.05943 0.01,0.120875 0,0.180089 -0.0172,0.103288 -0.14038,0.361103 -0.18009,0.480234 -0.0547,0.164203 -0.0789,0.345795 -0.12006,0.510246 -0.009,0.03717 -0.12654,0.443738 -0.12006,0.450221 0.0673,0.06729 0.37739,-0.117959 0.42021,-0.150075 0.11295,-0.08471 0.21791,-0.185943 0.33016,-0.270129 0.081,-0.06074 0.0492,5.3e-4 0.15007,-0.06003 0.0689,-0.04134 0.26672,-0.248983 0.33016,-0.270131 0.019,-0.0063 0.041,0.0063 0.06,0 0.0994,-0.03312 0.26562,-0.153369 0.36018,-0.210101 0.0564,-0.03382 0.0953,-0.02355 0.15007,-0.06003 0.0292,-0.01947 0.0571,-0.07908 0.09,-0.09004 0.019,-0.0063 0.041,0.0063 0.06,0 0.0304,-0.01011 0.15412,-0.150074 0.18009,-0.150074 0.0457,0 0.17254,0.181932 0.2101,0.210103 0.0467,0.035 0.10452,0.0536 0.15008,0.09005 0.0884,0.07071 0.14857,0.17354 0.24012,0.240115 0.16249,0.118181 0.34291,0.218607 0.51024,0.330163 0.0429,0.02858 0.23132,0.171291 0.27014,0.2101 0.0621,0.0621 -0.0949,-0.0024 0.03,0.06003 0.12533,0.06266 0.33124,0.09004 0.48023,0.09004 0.0258,0 0.204,0.06614 0.21011,0.06003 0.0292,-0.02917 -0.0116,-0.08316 -0.03,-0.120057 -0.0405,-0.08105 -0.11442,-0.156922 -0.15007,-0.240118 -0.0498,-0.116321 -0.0828,-0.23922 -0.12006,-0.360174 -0.0675,-0.219319 0.0173,-0.08537 -0.09,-0.300149 -0.0323,-0.06453 -0.0878,-0.115557 -0.12006,-0.180086 -0.0142,-0.0283 -0.0137,-0.06291 -0.03,-0.09004 -0.037,-0.06175 -0.0727,-0.06636 -0.12006,-0.09004 -0.12491,-0.06246 0.0321,0.0021 -0.03,-0.06003 -0.007,-0.0071 -0.0229,0.0071 -0.03,0 -0.0174,-0.01738 -0.0426,-0.102661 -0.06,-0.120057 -0.007,-0.0071 -0.0229,0.0071 -0.03,0 -0.0748,-0.07477 -0.0487,-0.498931 -0.06,-0.510249 -0.007,-0.0071 -0.0229,0.0071 -0.03,0 -0.0362,-0.03618 0.18476,-0.159819 0.2101,-0.180089 0.17567,-0.140533 0.30934,-0.333756 0.48023,-0.480235 0.038,-0.03255 0.0847,-0.05467 0.12006,-0.09004 0.15339,-0.153387 -0.12585,0.04186 0.09,-0.120057 0.0486,-0.03645 0.0594,-0.01413 0.09,-0.06003 0.0124,-0.01863 0.0142,-0.04421 0.03,-0.06003 0.0497,-0.04975 0.14467,-0.07925 0.18008,-0.150072 0.004,-0.0089 -0.007,-0.02294 0,-0.03002 0.0729,-0.0729 0.0441,0.0089 0.0901,-0.06003 0.0313,-0.04699 0.0591,-0.141473 0.09,-0.180086 0.0225,-0.02817 0.0645,-0.03452 0.09,-0.06003 0.0949,-0.09489 0.19958,-0.254344 0.27013,-0.360174 z"
       id="path11" /></g></svg>
